G04 #@! TF.GenerationSoftware,KiCad,Pcbnew,(5.1.2)-2*
G04 #@! TF.CreationDate,2019-08-20T02:28:55-06:00*
G04 #@! TF.ProjectId,pqfp_80_breakout,70716670-5f38-4305-9f62-7265616b6f75,rev?*
G04 #@! TF.SameCoordinates,Original*
G04 #@! TF.FileFunction,Paste,Top*
G04 #@! TF.FilePolarity,Positive*
%FSLAX46Y46*%
G04 Gerber Fmt 4.6, Leading zero omitted, Abs format (unit mm)*
G04 Created by KiCad (PCBNEW (5.1.2)-2) date 2019-08-20 02:28:55*
%MOMM*%
%LPD*%
G04 APERTURE LIST*
%ADD10R,0.500000X1.300000*%
%ADD11R,1.300000X0.500000*%
G04 APERTURE END LIST*
D10*
X144650000Y-63100000D03*
X145450000Y-63100000D03*
X146250000Y-63100000D03*
X147050000Y-63100000D03*
X147850000Y-63100000D03*
X148650000Y-63100000D03*
X149450000Y-63100000D03*
X150250000Y-63100000D03*
X151050000Y-63100000D03*
X151850000Y-63100000D03*
X152650000Y-63100000D03*
X153450000Y-63100000D03*
X154250000Y-63100000D03*
X155050000Y-63100000D03*
X155850000Y-63100000D03*
X156650000Y-63100000D03*
D11*
X158800000Y-65050000D03*
X158800000Y-65850000D03*
X158800000Y-66650000D03*
X158800000Y-67450000D03*
X158800000Y-68250000D03*
X158800000Y-69050000D03*
X158800000Y-69850000D03*
X158800000Y-70650000D03*
X158800000Y-71450000D03*
X158800000Y-72250000D03*
X158800000Y-73050000D03*
X158800000Y-73850000D03*
X158800000Y-74650000D03*
X158800000Y-75450000D03*
X158800000Y-76250000D03*
X158800000Y-77050000D03*
X158800000Y-77850000D03*
X158800000Y-78650000D03*
X158800000Y-79450000D03*
X158800000Y-80250000D03*
X158800000Y-81050000D03*
X158800000Y-81850000D03*
X158800000Y-82650000D03*
X158800000Y-83450000D03*
D10*
X156650000Y-85400000D03*
X155850000Y-85400000D03*
X155050000Y-85400000D03*
X154250000Y-85400000D03*
X153450000Y-85400000D03*
X152650000Y-85400000D03*
X151850000Y-85400000D03*
X151050000Y-85400000D03*
X150250000Y-85400000D03*
X149450000Y-85400000D03*
X148650000Y-85400000D03*
X147850000Y-85400000D03*
X147050000Y-85400000D03*
X146250000Y-85400000D03*
X145450000Y-85400000D03*
X144650000Y-85400000D03*
D11*
X142500000Y-83450000D03*
X142500000Y-82650000D03*
X142500000Y-81850000D03*
X142500000Y-81050000D03*
X142500000Y-80250000D03*
X142500000Y-79450000D03*
X142500000Y-78650000D03*
X142500000Y-77850000D03*
X142500000Y-77050000D03*
X142500000Y-76250000D03*
X142500000Y-75450000D03*
X142500000Y-74650000D03*
X142500000Y-73850000D03*
X142500000Y-73050000D03*
X142500000Y-72250000D03*
X142500000Y-71450000D03*
X142500000Y-70650000D03*
X142500000Y-69850000D03*
X142500000Y-69050000D03*
X142500000Y-68250000D03*
X142500000Y-67450000D03*
X142500000Y-66650000D03*
X142500000Y-65850000D03*
X142500000Y-65050000D03*
M02*
