G04 #@! TF.GenerationSoftware,KiCad,Pcbnew,(5.1.2)-2*
G04 #@! TF.CreationDate,2019-08-20T02:28:55-06:00*
G04 #@! TF.ProjectId,pqfp_80_breakout,70716670-5f38-4305-9f62-7265616b6f75,rev?*
G04 #@! TF.SameCoordinates,Original*
G04 #@! TF.FileFunction,Soldermask,Top*
G04 #@! TF.FilePolarity,Negative*
%FSLAX46Y46*%
G04 Gerber Fmt 4.6, Leading zero omitted, Abs format (unit mm)*
G04 Created by KiCad (PCBNEW (5.1.2)-2) date 2019-08-20 02:28:55*
%MOMM*%
%LPD*%
G04 APERTURE LIST*
%ADD10C,0.100000*%
G04 APERTURE END LIST*
D10*
G36*
X160110443Y-93645519D02*
G01*
X160176627Y-93652037D01*
X160346466Y-93703557D01*
X160502991Y-93787222D01*
X160538729Y-93816552D01*
X160640186Y-93899814D01*
X160723448Y-94001271D01*
X160752778Y-94037009D01*
X160836443Y-94193534D01*
X160887963Y-94363373D01*
X160905359Y-94540000D01*
X160887963Y-94716627D01*
X160836443Y-94886466D01*
X160752778Y-95042991D01*
X160723448Y-95078729D01*
X160640186Y-95180186D01*
X160538729Y-95263448D01*
X160502991Y-95292778D01*
X160346466Y-95376443D01*
X160176627Y-95427963D01*
X160110442Y-95434482D01*
X160044260Y-95441000D01*
X159955740Y-95441000D01*
X159889558Y-95434482D01*
X159823373Y-95427963D01*
X159653534Y-95376443D01*
X159497009Y-95292778D01*
X159461271Y-95263448D01*
X159359814Y-95180186D01*
X159276552Y-95078729D01*
X159247222Y-95042991D01*
X159163557Y-94886466D01*
X159112037Y-94716627D01*
X159094641Y-94540000D01*
X159112037Y-94363373D01*
X159163557Y-94193534D01*
X159247222Y-94037009D01*
X159276552Y-94001271D01*
X159359814Y-93899814D01*
X159461271Y-93816552D01*
X159497009Y-93787222D01*
X159653534Y-93703557D01*
X159823373Y-93652037D01*
X159889557Y-93645519D01*
X159955740Y-93639000D01*
X160044260Y-93639000D01*
X160110443Y-93645519D01*
X160110443Y-93645519D01*
G37*
G36*
X142330443Y-93645519D02*
G01*
X142396627Y-93652037D01*
X142566466Y-93703557D01*
X142722991Y-93787222D01*
X142758729Y-93816552D01*
X142860186Y-93899814D01*
X142943448Y-94001271D01*
X142972778Y-94037009D01*
X143056443Y-94193534D01*
X143107963Y-94363373D01*
X143125359Y-94540000D01*
X143107963Y-94716627D01*
X143056443Y-94886466D01*
X142972778Y-95042991D01*
X142943448Y-95078729D01*
X142860186Y-95180186D01*
X142758729Y-95263448D01*
X142722991Y-95292778D01*
X142566466Y-95376443D01*
X142396627Y-95427963D01*
X142330442Y-95434482D01*
X142264260Y-95441000D01*
X142175740Y-95441000D01*
X142109558Y-95434482D01*
X142043373Y-95427963D01*
X141873534Y-95376443D01*
X141717009Y-95292778D01*
X141681271Y-95263448D01*
X141579814Y-95180186D01*
X141496552Y-95078729D01*
X141467222Y-95042991D01*
X141383557Y-94886466D01*
X141332037Y-94716627D01*
X141314641Y-94540000D01*
X141332037Y-94363373D01*
X141383557Y-94193534D01*
X141467222Y-94037009D01*
X141496552Y-94001271D01*
X141579814Y-93899814D01*
X141681271Y-93816552D01*
X141717009Y-93787222D01*
X141873534Y-93703557D01*
X142043373Y-93652037D01*
X142109557Y-93645519D01*
X142175740Y-93639000D01*
X142264260Y-93639000D01*
X142330443Y-93645519D01*
X142330443Y-93645519D01*
G37*
G36*
X144870443Y-93645519D02*
G01*
X144936627Y-93652037D01*
X145106466Y-93703557D01*
X145262991Y-93787222D01*
X145298729Y-93816552D01*
X145400186Y-93899814D01*
X145483448Y-94001271D01*
X145512778Y-94037009D01*
X145596443Y-94193534D01*
X145647963Y-94363373D01*
X145665359Y-94540000D01*
X145647963Y-94716627D01*
X145596443Y-94886466D01*
X145512778Y-95042991D01*
X145483448Y-95078729D01*
X145400186Y-95180186D01*
X145298729Y-95263448D01*
X145262991Y-95292778D01*
X145106466Y-95376443D01*
X144936627Y-95427963D01*
X144870442Y-95434482D01*
X144804260Y-95441000D01*
X144715740Y-95441000D01*
X144649558Y-95434482D01*
X144583373Y-95427963D01*
X144413534Y-95376443D01*
X144257009Y-95292778D01*
X144221271Y-95263448D01*
X144119814Y-95180186D01*
X144036552Y-95078729D01*
X144007222Y-95042991D01*
X143923557Y-94886466D01*
X143872037Y-94716627D01*
X143854641Y-94540000D01*
X143872037Y-94363373D01*
X143923557Y-94193534D01*
X144007222Y-94037009D01*
X144036552Y-94001271D01*
X144119814Y-93899814D01*
X144221271Y-93816552D01*
X144257009Y-93787222D01*
X144413534Y-93703557D01*
X144583373Y-93652037D01*
X144649557Y-93645519D01*
X144715740Y-93639000D01*
X144804260Y-93639000D01*
X144870443Y-93645519D01*
X144870443Y-93645519D01*
G37*
G36*
X147410443Y-93645519D02*
G01*
X147476627Y-93652037D01*
X147646466Y-93703557D01*
X147802991Y-93787222D01*
X147838729Y-93816552D01*
X147940186Y-93899814D01*
X148023448Y-94001271D01*
X148052778Y-94037009D01*
X148136443Y-94193534D01*
X148187963Y-94363373D01*
X148205359Y-94540000D01*
X148187963Y-94716627D01*
X148136443Y-94886466D01*
X148052778Y-95042991D01*
X148023448Y-95078729D01*
X147940186Y-95180186D01*
X147838729Y-95263448D01*
X147802991Y-95292778D01*
X147646466Y-95376443D01*
X147476627Y-95427963D01*
X147410442Y-95434482D01*
X147344260Y-95441000D01*
X147255740Y-95441000D01*
X147189558Y-95434482D01*
X147123373Y-95427963D01*
X146953534Y-95376443D01*
X146797009Y-95292778D01*
X146761271Y-95263448D01*
X146659814Y-95180186D01*
X146576552Y-95078729D01*
X146547222Y-95042991D01*
X146463557Y-94886466D01*
X146412037Y-94716627D01*
X146394641Y-94540000D01*
X146412037Y-94363373D01*
X146463557Y-94193534D01*
X146547222Y-94037009D01*
X146576552Y-94001271D01*
X146659814Y-93899814D01*
X146761271Y-93816552D01*
X146797009Y-93787222D01*
X146953534Y-93703557D01*
X147123373Y-93652037D01*
X147189557Y-93645519D01*
X147255740Y-93639000D01*
X147344260Y-93639000D01*
X147410443Y-93645519D01*
X147410443Y-93645519D01*
G37*
G36*
X149950443Y-93645519D02*
G01*
X150016627Y-93652037D01*
X150186466Y-93703557D01*
X150342991Y-93787222D01*
X150378729Y-93816552D01*
X150480186Y-93899814D01*
X150563448Y-94001271D01*
X150592778Y-94037009D01*
X150676443Y-94193534D01*
X150727963Y-94363373D01*
X150745359Y-94540000D01*
X150727963Y-94716627D01*
X150676443Y-94886466D01*
X150592778Y-95042991D01*
X150563448Y-95078729D01*
X150480186Y-95180186D01*
X150378729Y-95263448D01*
X150342991Y-95292778D01*
X150186466Y-95376443D01*
X150016627Y-95427963D01*
X149950442Y-95434482D01*
X149884260Y-95441000D01*
X149795740Y-95441000D01*
X149729558Y-95434482D01*
X149663373Y-95427963D01*
X149493534Y-95376443D01*
X149337009Y-95292778D01*
X149301271Y-95263448D01*
X149199814Y-95180186D01*
X149116552Y-95078729D01*
X149087222Y-95042991D01*
X149003557Y-94886466D01*
X148952037Y-94716627D01*
X148934641Y-94540000D01*
X148952037Y-94363373D01*
X149003557Y-94193534D01*
X149087222Y-94037009D01*
X149116552Y-94001271D01*
X149199814Y-93899814D01*
X149301271Y-93816552D01*
X149337009Y-93787222D01*
X149493534Y-93703557D01*
X149663373Y-93652037D01*
X149729557Y-93645519D01*
X149795740Y-93639000D01*
X149884260Y-93639000D01*
X149950443Y-93645519D01*
X149950443Y-93645519D01*
G37*
G36*
X155030443Y-93645519D02*
G01*
X155096627Y-93652037D01*
X155266466Y-93703557D01*
X155422991Y-93787222D01*
X155458729Y-93816552D01*
X155560186Y-93899814D01*
X155643448Y-94001271D01*
X155672778Y-94037009D01*
X155756443Y-94193534D01*
X155807963Y-94363373D01*
X155825359Y-94540000D01*
X155807963Y-94716627D01*
X155756443Y-94886466D01*
X155672778Y-95042991D01*
X155643448Y-95078729D01*
X155560186Y-95180186D01*
X155458729Y-95263448D01*
X155422991Y-95292778D01*
X155266466Y-95376443D01*
X155096627Y-95427963D01*
X155030442Y-95434482D01*
X154964260Y-95441000D01*
X154875740Y-95441000D01*
X154809558Y-95434482D01*
X154743373Y-95427963D01*
X154573534Y-95376443D01*
X154417009Y-95292778D01*
X154381271Y-95263448D01*
X154279814Y-95180186D01*
X154196552Y-95078729D01*
X154167222Y-95042991D01*
X154083557Y-94886466D01*
X154032037Y-94716627D01*
X154014641Y-94540000D01*
X154032037Y-94363373D01*
X154083557Y-94193534D01*
X154167222Y-94037009D01*
X154196552Y-94001271D01*
X154279814Y-93899814D01*
X154381271Y-93816552D01*
X154417009Y-93787222D01*
X154573534Y-93703557D01*
X154743373Y-93652037D01*
X154809557Y-93645519D01*
X154875740Y-93639000D01*
X154964260Y-93639000D01*
X155030443Y-93645519D01*
X155030443Y-93645519D01*
G37*
G36*
X152490443Y-93645519D02*
G01*
X152556627Y-93652037D01*
X152726466Y-93703557D01*
X152882991Y-93787222D01*
X152918729Y-93816552D01*
X153020186Y-93899814D01*
X153103448Y-94001271D01*
X153132778Y-94037009D01*
X153216443Y-94193534D01*
X153267963Y-94363373D01*
X153285359Y-94540000D01*
X153267963Y-94716627D01*
X153216443Y-94886466D01*
X153132778Y-95042991D01*
X153103448Y-95078729D01*
X153020186Y-95180186D01*
X152918729Y-95263448D01*
X152882991Y-95292778D01*
X152726466Y-95376443D01*
X152556627Y-95427963D01*
X152490442Y-95434482D01*
X152424260Y-95441000D01*
X152335740Y-95441000D01*
X152269558Y-95434482D01*
X152203373Y-95427963D01*
X152033534Y-95376443D01*
X151877009Y-95292778D01*
X151841271Y-95263448D01*
X151739814Y-95180186D01*
X151656552Y-95078729D01*
X151627222Y-95042991D01*
X151543557Y-94886466D01*
X151492037Y-94716627D01*
X151474641Y-94540000D01*
X151492037Y-94363373D01*
X151543557Y-94193534D01*
X151627222Y-94037009D01*
X151656552Y-94001271D01*
X151739814Y-93899814D01*
X151841271Y-93816552D01*
X151877009Y-93787222D01*
X152033534Y-93703557D01*
X152203373Y-93652037D01*
X152269557Y-93645519D01*
X152335740Y-93639000D01*
X152424260Y-93639000D01*
X152490443Y-93645519D01*
X152490443Y-93645519D01*
G37*
G36*
X157570443Y-93645519D02*
G01*
X157636627Y-93652037D01*
X157806466Y-93703557D01*
X157962991Y-93787222D01*
X157998729Y-93816552D01*
X158100186Y-93899814D01*
X158183448Y-94001271D01*
X158212778Y-94037009D01*
X158296443Y-94193534D01*
X158347963Y-94363373D01*
X158365359Y-94540000D01*
X158347963Y-94716627D01*
X158296443Y-94886466D01*
X158212778Y-95042991D01*
X158183448Y-95078729D01*
X158100186Y-95180186D01*
X157998729Y-95263448D01*
X157962991Y-95292778D01*
X157806466Y-95376443D01*
X157636627Y-95427963D01*
X157570442Y-95434482D01*
X157504260Y-95441000D01*
X157415740Y-95441000D01*
X157349558Y-95434482D01*
X157283373Y-95427963D01*
X157113534Y-95376443D01*
X156957009Y-95292778D01*
X156921271Y-95263448D01*
X156819814Y-95180186D01*
X156736552Y-95078729D01*
X156707222Y-95042991D01*
X156623557Y-94886466D01*
X156572037Y-94716627D01*
X156554641Y-94540000D01*
X156572037Y-94363373D01*
X156623557Y-94193534D01*
X156707222Y-94037009D01*
X156736552Y-94001271D01*
X156819814Y-93899814D01*
X156921271Y-93816552D01*
X156957009Y-93787222D01*
X157113534Y-93703557D01*
X157283373Y-93652037D01*
X157349557Y-93645519D01*
X157415740Y-93639000D01*
X157504260Y-93639000D01*
X157570443Y-93645519D01*
X157570443Y-93645519D01*
G37*
G36*
X166224549Y-91871116D02*
G01*
X166335734Y-91893232D01*
X166545203Y-91979997D01*
X166733720Y-92105960D01*
X166894040Y-92266280D01*
X167020003Y-92454797D01*
X167106768Y-92664266D01*
X167151000Y-92886636D01*
X167151000Y-93113364D01*
X167106768Y-93335734D01*
X167020003Y-93545203D01*
X166894040Y-93733720D01*
X166733720Y-93894040D01*
X166545203Y-94020003D01*
X166335734Y-94106768D01*
X166224549Y-94128884D01*
X166113365Y-94151000D01*
X165886635Y-94151000D01*
X165775451Y-94128884D01*
X165664266Y-94106768D01*
X165454797Y-94020003D01*
X165266280Y-93894040D01*
X165105960Y-93733720D01*
X164979997Y-93545203D01*
X164893232Y-93335734D01*
X164849000Y-93113364D01*
X164849000Y-92886636D01*
X164893232Y-92664266D01*
X164979997Y-92454797D01*
X165105960Y-92266280D01*
X165266280Y-92105960D01*
X165454797Y-91979997D01*
X165664266Y-91893232D01*
X165775451Y-91871116D01*
X165886635Y-91849000D01*
X166113365Y-91849000D01*
X166224549Y-91871116D01*
X166224549Y-91871116D01*
G37*
G36*
X136224549Y-91871116D02*
G01*
X136335734Y-91893232D01*
X136545203Y-91979997D01*
X136733720Y-92105960D01*
X136894040Y-92266280D01*
X137020003Y-92454797D01*
X137106768Y-92664266D01*
X137151000Y-92886636D01*
X137151000Y-93113364D01*
X137106768Y-93335734D01*
X137020003Y-93545203D01*
X136894040Y-93733720D01*
X136733720Y-93894040D01*
X136545203Y-94020003D01*
X136335734Y-94106768D01*
X136224549Y-94128884D01*
X136113365Y-94151000D01*
X135886635Y-94151000D01*
X135775451Y-94128884D01*
X135664266Y-94106768D01*
X135454797Y-94020003D01*
X135266280Y-93894040D01*
X135105960Y-93733720D01*
X134979997Y-93545203D01*
X134893232Y-93335734D01*
X134849000Y-93113364D01*
X134849000Y-92886636D01*
X134893232Y-92664266D01*
X134979997Y-92454797D01*
X135105960Y-92266280D01*
X135266280Y-92105960D01*
X135454797Y-91979997D01*
X135664266Y-91893232D01*
X135775451Y-91871116D01*
X135886635Y-91849000D01*
X136113365Y-91849000D01*
X136224549Y-91871116D01*
X136224549Y-91871116D01*
G37*
G36*
X155030442Y-91105518D02*
G01*
X155096627Y-91112037D01*
X155266466Y-91163557D01*
X155422991Y-91247222D01*
X155458729Y-91276552D01*
X155560186Y-91359814D01*
X155643448Y-91461271D01*
X155672778Y-91497009D01*
X155756443Y-91653534D01*
X155807963Y-91823373D01*
X155825359Y-92000000D01*
X155807963Y-92176627D01*
X155756443Y-92346466D01*
X155672778Y-92502991D01*
X155643448Y-92538729D01*
X155560186Y-92640186D01*
X155458729Y-92723448D01*
X155422991Y-92752778D01*
X155266466Y-92836443D01*
X155096627Y-92887963D01*
X155030442Y-92894482D01*
X154964260Y-92901000D01*
X154875740Y-92901000D01*
X154809557Y-92894481D01*
X154743373Y-92887963D01*
X154573534Y-92836443D01*
X154417009Y-92752778D01*
X154381271Y-92723448D01*
X154279814Y-92640186D01*
X154196552Y-92538729D01*
X154167222Y-92502991D01*
X154083557Y-92346466D01*
X154032037Y-92176627D01*
X154014641Y-92000000D01*
X154032037Y-91823373D01*
X154083557Y-91653534D01*
X154167222Y-91497009D01*
X154196552Y-91461271D01*
X154279814Y-91359814D01*
X154381271Y-91276552D01*
X154417009Y-91247222D01*
X154573534Y-91163557D01*
X154743373Y-91112037D01*
X154809558Y-91105518D01*
X154875740Y-91099000D01*
X154964260Y-91099000D01*
X155030442Y-91105518D01*
X155030442Y-91105518D01*
G37*
G36*
X149950442Y-91105518D02*
G01*
X150016627Y-91112037D01*
X150186466Y-91163557D01*
X150342991Y-91247222D01*
X150378729Y-91276552D01*
X150480186Y-91359814D01*
X150563448Y-91461271D01*
X150592778Y-91497009D01*
X150676443Y-91653534D01*
X150727963Y-91823373D01*
X150745359Y-92000000D01*
X150727963Y-92176627D01*
X150676443Y-92346466D01*
X150592778Y-92502991D01*
X150563448Y-92538729D01*
X150480186Y-92640186D01*
X150378729Y-92723448D01*
X150342991Y-92752778D01*
X150186466Y-92836443D01*
X150016627Y-92887963D01*
X149950442Y-92894482D01*
X149884260Y-92901000D01*
X149795740Y-92901000D01*
X149729557Y-92894481D01*
X149663373Y-92887963D01*
X149493534Y-92836443D01*
X149337009Y-92752778D01*
X149301271Y-92723448D01*
X149199814Y-92640186D01*
X149116552Y-92538729D01*
X149087222Y-92502991D01*
X149003557Y-92346466D01*
X148952037Y-92176627D01*
X148934641Y-92000000D01*
X148952037Y-91823373D01*
X149003557Y-91653534D01*
X149087222Y-91497009D01*
X149116552Y-91461271D01*
X149199814Y-91359814D01*
X149301271Y-91276552D01*
X149337009Y-91247222D01*
X149493534Y-91163557D01*
X149663373Y-91112037D01*
X149729558Y-91105518D01*
X149795740Y-91099000D01*
X149884260Y-91099000D01*
X149950442Y-91105518D01*
X149950442Y-91105518D01*
G37*
G36*
X147410442Y-91105518D02*
G01*
X147476627Y-91112037D01*
X147646466Y-91163557D01*
X147802991Y-91247222D01*
X147838729Y-91276552D01*
X147940186Y-91359814D01*
X148023448Y-91461271D01*
X148052778Y-91497009D01*
X148136443Y-91653534D01*
X148187963Y-91823373D01*
X148205359Y-92000000D01*
X148187963Y-92176627D01*
X148136443Y-92346466D01*
X148052778Y-92502991D01*
X148023448Y-92538729D01*
X147940186Y-92640186D01*
X147838729Y-92723448D01*
X147802991Y-92752778D01*
X147646466Y-92836443D01*
X147476627Y-92887963D01*
X147410442Y-92894482D01*
X147344260Y-92901000D01*
X147255740Y-92901000D01*
X147189557Y-92894481D01*
X147123373Y-92887963D01*
X146953534Y-92836443D01*
X146797009Y-92752778D01*
X146761271Y-92723448D01*
X146659814Y-92640186D01*
X146576552Y-92538729D01*
X146547222Y-92502991D01*
X146463557Y-92346466D01*
X146412037Y-92176627D01*
X146394641Y-92000000D01*
X146412037Y-91823373D01*
X146463557Y-91653534D01*
X146547222Y-91497009D01*
X146576552Y-91461271D01*
X146659814Y-91359814D01*
X146761271Y-91276552D01*
X146797009Y-91247222D01*
X146953534Y-91163557D01*
X147123373Y-91112037D01*
X147189558Y-91105518D01*
X147255740Y-91099000D01*
X147344260Y-91099000D01*
X147410442Y-91105518D01*
X147410442Y-91105518D01*
G37*
G36*
X157570442Y-91105518D02*
G01*
X157636627Y-91112037D01*
X157806466Y-91163557D01*
X157962991Y-91247222D01*
X157998729Y-91276552D01*
X158100186Y-91359814D01*
X158183448Y-91461271D01*
X158212778Y-91497009D01*
X158296443Y-91653534D01*
X158347963Y-91823373D01*
X158365359Y-92000000D01*
X158347963Y-92176627D01*
X158296443Y-92346466D01*
X158212778Y-92502991D01*
X158183448Y-92538729D01*
X158100186Y-92640186D01*
X157998729Y-92723448D01*
X157962991Y-92752778D01*
X157806466Y-92836443D01*
X157636627Y-92887963D01*
X157570442Y-92894482D01*
X157504260Y-92901000D01*
X157415740Y-92901000D01*
X157349557Y-92894481D01*
X157283373Y-92887963D01*
X157113534Y-92836443D01*
X156957009Y-92752778D01*
X156921271Y-92723448D01*
X156819814Y-92640186D01*
X156736552Y-92538729D01*
X156707222Y-92502991D01*
X156623557Y-92346466D01*
X156572037Y-92176627D01*
X156554641Y-92000000D01*
X156572037Y-91823373D01*
X156623557Y-91653534D01*
X156707222Y-91497009D01*
X156736552Y-91461271D01*
X156819814Y-91359814D01*
X156921271Y-91276552D01*
X156957009Y-91247222D01*
X157113534Y-91163557D01*
X157283373Y-91112037D01*
X157349558Y-91105518D01*
X157415740Y-91099000D01*
X157504260Y-91099000D01*
X157570442Y-91105518D01*
X157570442Y-91105518D01*
G37*
G36*
X144870442Y-91105518D02*
G01*
X144936627Y-91112037D01*
X145106466Y-91163557D01*
X145262991Y-91247222D01*
X145298729Y-91276552D01*
X145400186Y-91359814D01*
X145483448Y-91461271D01*
X145512778Y-91497009D01*
X145596443Y-91653534D01*
X145647963Y-91823373D01*
X145665359Y-92000000D01*
X145647963Y-92176627D01*
X145596443Y-92346466D01*
X145512778Y-92502991D01*
X145483448Y-92538729D01*
X145400186Y-92640186D01*
X145298729Y-92723448D01*
X145262991Y-92752778D01*
X145106466Y-92836443D01*
X144936627Y-92887963D01*
X144870442Y-92894482D01*
X144804260Y-92901000D01*
X144715740Y-92901000D01*
X144649557Y-92894481D01*
X144583373Y-92887963D01*
X144413534Y-92836443D01*
X144257009Y-92752778D01*
X144221271Y-92723448D01*
X144119814Y-92640186D01*
X144036552Y-92538729D01*
X144007222Y-92502991D01*
X143923557Y-92346466D01*
X143872037Y-92176627D01*
X143854641Y-92000000D01*
X143872037Y-91823373D01*
X143923557Y-91653534D01*
X144007222Y-91497009D01*
X144036552Y-91461271D01*
X144119814Y-91359814D01*
X144221271Y-91276552D01*
X144257009Y-91247222D01*
X144413534Y-91163557D01*
X144583373Y-91112037D01*
X144649558Y-91105518D01*
X144715740Y-91099000D01*
X144804260Y-91099000D01*
X144870442Y-91105518D01*
X144870442Y-91105518D01*
G37*
G36*
X160901000Y-92901000D02*
G01*
X159099000Y-92901000D01*
X159099000Y-91099000D01*
X160901000Y-91099000D01*
X160901000Y-92901000D01*
X160901000Y-92901000D01*
G37*
G36*
X142330442Y-91105518D02*
G01*
X142396627Y-91112037D01*
X142566466Y-91163557D01*
X142722991Y-91247222D01*
X142758729Y-91276552D01*
X142860186Y-91359814D01*
X142943448Y-91461271D01*
X142972778Y-91497009D01*
X143056443Y-91653534D01*
X143107963Y-91823373D01*
X143125359Y-92000000D01*
X143107963Y-92176627D01*
X143056443Y-92346466D01*
X142972778Y-92502991D01*
X142943448Y-92538729D01*
X142860186Y-92640186D01*
X142758729Y-92723448D01*
X142722991Y-92752778D01*
X142566466Y-92836443D01*
X142396627Y-92887963D01*
X142330442Y-92894482D01*
X142264260Y-92901000D01*
X142175740Y-92901000D01*
X142109557Y-92894481D01*
X142043373Y-92887963D01*
X141873534Y-92836443D01*
X141717009Y-92752778D01*
X141681271Y-92723448D01*
X141579814Y-92640186D01*
X141496552Y-92538729D01*
X141467222Y-92502991D01*
X141383557Y-92346466D01*
X141332037Y-92176627D01*
X141314641Y-92000000D01*
X141332037Y-91823373D01*
X141383557Y-91653534D01*
X141467222Y-91497009D01*
X141496552Y-91461271D01*
X141579814Y-91359814D01*
X141681271Y-91276552D01*
X141717009Y-91247222D01*
X141873534Y-91163557D01*
X142043373Y-91112037D01*
X142109558Y-91105518D01*
X142175740Y-91099000D01*
X142264260Y-91099000D01*
X142330442Y-91105518D01*
X142330442Y-91105518D01*
G37*
G36*
X152490442Y-91105518D02*
G01*
X152556627Y-91112037D01*
X152726466Y-91163557D01*
X152882991Y-91247222D01*
X152918729Y-91276552D01*
X153020186Y-91359814D01*
X153103448Y-91461271D01*
X153132778Y-91497009D01*
X153216443Y-91653534D01*
X153267963Y-91823373D01*
X153285359Y-92000000D01*
X153267963Y-92176627D01*
X153216443Y-92346466D01*
X153132778Y-92502991D01*
X153103448Y-92538729D01*
X153020186Y-92640186D01*
X152918729Y-92723448D01*
X152882991Y-92752778D01*
X152726466Y-92836443D01*
X152556627Y-92887963D01*
X152490442Y-92894482D01*
X152424260Y-92901000D01*
X152335740Y-92901000D01*
X152269557Y-92894481D01*
X152203373Y-92887963D01*
X152033534Y-92836443D01*
X151877009Y-92752778D01*
X151841271Y-92723448D01*
X151739814Y-92640186D01*
X151656552Y-92538729D01*
X151627222Y-92502991D01*
X151543557Y-92346466D01*
X151492037Y-92176627D01*
X151474641Y-92000000D01*
X151492037Y-91823373D01*
X151543557Y-91653534D01*
X151627222Y-91497009D01*
X151656552Y-91461271D01*
X151739814Y-91359814D01*
X151841271Y-91276552D01*
X151877009Y-91247222D01*
X152033534Y-91163557D01*
X152203373Y-91112037D01*
X152269558Y-91105518D01*
X152335740Y-91099000D01*
X152424260Y-91099000D01*
X152490442Y-91105518D01*
X152490442Y-91105518D01*
G37*
G36*
X165110443Y-88045519D02*
G01*
X165176627Y-88052037D01*
X165346466Y-88103557D01*
X165502991Y-88187222D01*
X165538729Y-88216552D01*
X165640186Y-88299814D01*
X165723448Y-88401271D01*
X165752778Y-88437009D01*
X165836443Y-88593534D01*
X165887963Y-88763373D01*
X165905359Y-88940000D01*
X165887963Y-89116627D01*
X165836443Y-89286466D01*
X165752778Y-89442991D01*
X165744745Y-89452779D01*
X165640186Y-89580186D01*
X165538729Y-89663448D01*
X165502991Y-89692778D01*
X165346466Y-89776443D01*
X165176627Y-89827963D01*
X165110443Y-89834481D01*
X165044260Y-89841000D01*
X164955740Y-89841000D01*
X164889557Y-89834481D01*
X164823373Y-89827963D01*
X164653534Y-89776443D01*
X164497009Y-89692778D01*
X164461271Y-89663448D01*
X164359814Y-89580186D01*
X164255255Y-89452779D01*
X164247222Y-89442991D01*
X164163557Y-89286466D01*
X164112037Y-89116627D01*
X164094641Y-88940000D01*
X164112037Y-88763373D01*
X164163557Y-88593534D01*
X164247222Y-88437009D01*
X164276552Y-88401271D01*
X164359814Y-88299814D01*
X164461271Y-88216552D01*
X164497009Y-88187222D01*
X164653534Y-88103557D01*
X164823373Y-88052037D01*
X164889557Y-88045519D01*
X164955740Y-88039000D01*
X165044260Y-88039000D01*
X165110443Y-88045519D01*
X165110443Y-88045519D01*
G37*
G36*
X167650443Y-88045519D02*
G01*
X167716627Y-88052037D01*
X167886466Y-88103557D01*
X168042991Y-88187222D01*
X168078729Y-88216552D01*
X168180186Y-88299814D01*
X168263448Y-88401271D01*
X168292778Y-88437009D01*
X168376443Y-88593534D01*
X168427963Y-88763373D01*
X168445359Y-88940000D01*
X168427963Y-89116627D01*
X168376443Y-89286466D01*
X168292778Y-89442991D01*
X168284745Y-89452779D01*
X168180186Y-89580186D01*
X168078729Y-89663448D01*
X168042991Y-89692778D01*
X167886466Y-89776443D01*
X167716627Y-89827963D01*
X167650443Y-89834481D01*
X167584260Y-89841000D01*
X167495740Y-89841000D01*
X167429557Y-89834481D01*
X167363373Y-89827963D01*
X167193534Y-89776443D01*
X167037009Y-89692778D01*
X167001271Y-89663448D01*
X166899814Y-89580186D01*
X166795255Y-89452779D01*
X166787222Y-89442991D01*
X166703557Y-89286466D01*
X166652037Y-89116627D01*
X166634641Y-88940000D01*
X166652037Y-88763373D01*
X166703557Y-88593534D01*
X166787222Y-88437009D01*
X166816552Y-88401271D01*
X166899814Y-88299814D01*
X167001271Y-88216552D01*
X167037009Y-88187222D01*
X167193534Y-88103557D01*
X167363373Y-88052037D01*
X167429557Y-88045519D01*
X167495740Y-88039000D01*
X167584260Y-88039000D01*
X167650443Y-88045519D01*
X167650443Y-88045519D01*
G37*
G36*
X134570443Y-87805519D02*
G01*
X134636627Y-87812037D01*
X134806466Y-87863557D01*
X134962991Y-87947222D01*
X134998729Y-87976552D01*
X135100186Y-88059814D01*
X135183448Y-88161271D01*
X135212778Y-88197009D01*
X135296443Y-88353534D01*
X135347963Y-88523373D01*
X135365359Y-88700000D01*
X135347963Y-88876627D01*
X135296443Y-89046466D01*
X135212778Y-89202991D01*
X135183448Y-89238729D01*
X135100186Y-89340186D01*
X134998729Y-89423448D01*
X134962991Y-89452778D01*
X134806466Y-89536443D01*
X134636627Y-89587963D01*
X134570443Y-89594481D01*
X134504260Y-89601000D01*
X134415740Y-89601000D01*
X134349557Y-89594481D01*
X134283373Y-89587963D01*
X134113534Y-89536443D01*
X133957009Y-89452778D01*
X133921271Y-89423448D01*
X133819814Y-89340186D01*
X133736552Y-89238729D01*
X133707222Y-89202991D01*
X133623557Y-89046466D01*
X133572037Y-88876627D01*
X133554641Y-88700000D01*
X133572037Y-88523373D01*
X133623557Y-88353534D01*
X133707222Y-88197009D01*
X133736552Y-88161271D01*
X133819814Y-88059814D01*
X133921271Y-87976552D01*
X133957009Y-87947222D01*
X134113534Y-87863557D01*
X134283373Y-87812037D01*
X134349557Y-87805519D01*
X134415740Y-87799000D01*
X134504260Y-87799000D01*
X134570443Y-87805519D01*
X134570443Y-87805519D01*
G37*
G36*
X137901000Y-89601000D02*
G01*
X136099000Y-89601000D01*
X136099000Y-87799000D01*
X137901000Y-87799000D01*
X137901000Y-89601000D01*
X137901000Y-89601000D01*
G37*
G36*
X167650442Y-85505518D02*
G01*
X167716627Y-85512037D01*
X167886466Y-85563557D01*
X168042991Y-85647222D01*
X168078729Y-85676552D01*
X168180186Y-85759814D01*
X168263448Y-85861271D01*
X168292778Y-85897009D01*
X168376443Y-86053534D01*
X168427963Y-86223373D01*
X168445359Y-86400000D01*
X168427963Y-86576627D01*
X168376443Y-86746466D01*
X168292778Y-86902991D01*
X168284745Y-86912779D01*
X168180186Y-87040186D01*
X168078729Y-87123448D01*
X168042991Y-87152778D01*
X167886466Y-87236443D01*
X167716627Y-87287963D01*
X167650443Y-87294481D01*
X167584260Y-87301000D01*
X167495740Y-87301000D01*
X167429557Y-87294481D01*
X167363373Y-87287963D01*
X167193534Y-87236443D01*
X167037009Y-87152778D01*
X167001271Y-87123448D01*
X166899814Y-87040186D01*
X166795255Y-86912779D01*
X166787222Y-86902991D01*
X166703557Y-86746466D01*
X166652037Y-86576627D01*
X166634641Y-86400000D01*
X166652037Y-86223373D01*
X166703557Y-86053534D01*
X166787222Y-85897009D01*
X166816552Y-85861271D01*
X166899814Y-85759814D01*
X167001271Y-85676552D01*
X167037009Y-85647222D01*
X167193534Y-85563557D01*
X167363373Y-85512037D01*
X167429558Y-85505518D01*
X167495740Y-85499000D01*
X167584260Y-85499000D01*
X167650442Y-85505518D01*
X167650442Y-85505518D01*
G37*
G36*
X165110442Y-85505518D02*
G01*
X165176627Y-85512037D01*
X165346466Y-85563557D01*
X165502991Y-85647222D01*
X165538729Y-85676552D01*
X165640186Y-85759814D01*
X165723448Y-85861271D01*
X165752778Y-85897009D01*
X165836443Y-86053534D01*
X165887963Y-86223373D01*
X165905359Y-86400000D01*
X165887963Y-86576627D01*
X165836443Y-86746466D01*
X165752778Y-86902991D01*
X165744745Y-86912779D01*
X165640186Y-87040186D01*
X165538729Y-87123448D01*
X165502991Y-87152778D01*
X165346466Y-87236443D01*
X165176627Y-87287963D01*
X165110443Y-87294481D01*
X165044260Y-87301000D01*
X164955740Y-87301000D01*
X164889557Y-87294481D01*
X164823373Y-87287963D01*
X164653534Y-87236443D01*
X164497009Y-87152778D01*
X164461271Y-87123448D01*
X164359814Y-87040186D01*
X164255255Y-86912779D01*
X164247222Y-86902991D01*
X164163557Y-86746466D01*
X164112037Y-86576627D01*
X164094641Y-86400000D01*
X164112037Y-86223373D01*
X164163557Y-86053534D01*
X164247222Y-85897009D01*
X164276552Y-85861271D01*
X164359814Y-85759814D01*
X164461271Y-85676552D01*
X164497009Y-85647222D01*
X164653534Y-85563557D01*
X164823373Y-85512037D01*
X164889558Y-85505518D01*
X164955740Y-85499000D01*
X165044260Y-85499000D01*
X165110442Y-85505518D01*
X165110442Y-85505518D01*
G37*
G36*
X137110442Y-85265518D02*
G01*
X137176627Y-85272037D01*
X137346466Y-85323557D01*
X137502991Y-85407222D01*
X137538729Y-85436552D01*
X137640186Y-85519814D01*
X137723448Y-85621271D01*
X137752778Y-85657009D01*
X137836443Y-85813534D01*
X137887963Y-85983373D01*
X137905359Y-86160000D01*
X137887963Y-86336627D01*
X137836443Y-86506466D01*
X137752778Y-86662991D01*
X137723448Y-86698729D01*
X137640186Y-86800186D01*
X137538729Y-86883448D01*
X137502991Y-86912778D01*
X137346466Y-86996443D01*
X137176627Y-87047963D01*
X137110443Y-87054481D01*
X137044260Y-87061000D01*
X136955740Y-87061000D01*
X136889557Y-87054481D01*
X136823373Y-87047963D01*
X136653534Y-86996443D01*
X136497009Y-86912778D01*
X136461271Y-86883448D01*
X136359814Y-86800186D01*
X136276552Y-86698729D01*
X136247222Y-86662991D01*
X136163557Y-86506466D01*
X136112037Y-86336627D01*
X136094641Y-86160000D01*
X136112037Y-85983373D01*
X136163557Y-85813534D01*
X136247222Y-85657009D01*
X136276552Y-85621271D01*
X136359814Y-85519814D01*
X136461271Y-85436552D01*
X136497009Y-85407222D01*
X136653534Y-85323557D01*
X136823373Y-85272037D01*
X136889558Y-85265518D01*
X136955740Y-85259000D01*
X137044260Y-85259000D01*
X137110442Y-85265518D01*
X137110442Y-85265518D01*
G37*
G36*
X134570442Y-85265518D02*
G01*
X134636627Y-85272037D01*
X134806466Y-85323557D01*
X134962991Y-85407222D01*
X134998729Y-85436552D01*
X135100186Y-85519814D01*
X135183448Y-85621271D01*
X135212778Y-85657009D01*
X135296443Y-85813534D01*
X135347963Y-85983373D01*
X135365359Y-86160000D01*
X135347963Y-86336627D01*
X135296443Y-86506466D01*
X135212778Y-86662991D01*
X135183448Y-86698729D01*
X135100186Y-86800186D01*
X134998729Y-86883448D01*
X134962991Y-86912778D01*
X134806466Y-86996443D01*
X134636627Y-87047963D01*
X134570443Y-87054481D01*
X134504260Y-87061000D01*
X134415740Y-87061000D01*
X134349557Y-87054481D01*
X134283373Y-87047963D01*
X134113534Y-86996443D01*
X133957009Y-86912778D01*
X133921271Y-86883448D01*
X133819814Y-86800186D01*
X133736552Y-86698729D01*
X133707222Y-86662991D01*
X133623557Y-86506466D01*
X133572037Y-86336627D01*
X133554641Y-86160000D01*
X133572037Y-85983373D01*
X133623557Y-85813534D01*
X133707222Y-85657009D01*
X133736552Y-85621271D01*
X133819814Y-85519814D01*
X133921271Y-85436552D01*
X133957009Y-85407222D01*
X134113534Y-85323557D01*
X134283373Y-85272037D01*
X134349558Y-85265518D01*
X134415740Y-85259000D01*
X134504260Y-85259000D01*
X134570442Y-85265518D01*
X134570442Y-85265518D01*
G37*
G36*
X156951000Y-86101000D02*
G01*
X144349000Y-86101000D01*
X144349000Y-84699000D01*
X156951000Y-84699000D01*
X156951000Y-86101000D01*
X156951000Y-86101000D01*
G37*
G36*
X167650443Y-82965519D02*
G01*
X167716627Y-82972037D01*
X167886466Y-83023557D01*
X168042991Y-83107222D01*
X168078729Y-83136552D01*
X168180186Y-83219814D01*
X168263448Y-83321271D01*
X168292778Y-83357009D01*
X168376443Y-83513534D01*
X168427963Y-83683373D01*
X168445359Y-83860000D01*
X168427963Y-84036627D01*
X168376443Y-84206466D01*
X168292778Y-84362991D01*
X168284745Y-84372779D01*
X168180186Y-84500186D01*
X168078729Y-84583448D01*
X168042991Y-84612778D01*
X167886466Y-84696443D01*
X167716627Y-84747963D01*
X167650443Y-84754481D01*
X167584260Y-84761000D01*
X167495740Y-84761000D01*
X167429557Y-84754481D01*
X167363373Y-84747963D01*
X167193534Y-84696443D01*
X167037009Y-84612778D01*
X167001271Y-84583448D01*
X166899814Y-84500186D01*
X166795255Y-84372779D01*
X166787222Y-84362991D01*
X166703557Y-84206466D01*
X166652037Y-84036627D01*
X166634641Y-83860000D01*
X166652037Y-83683373D01*
X166703557Y-83513534D01*
X166787222Y-83357009D01*
X166816552Y-83321271D01*
X166899814Y-83219814D01*
X167001271Y-83136552D01*
X167037009Y-83107222D01*
X167193534Y-83023557D01*
X167363373Y-82972037D01*
X167429557Y-82965519D01*
X167495740Y-82959000D01*
X167584260Y-82959000D01*
X167650443Y-82965519D01*
X167650443Y-82965519D01*
G37*
G36*
X165110443Y-82965519D02*
G01*
X165176627Y-82972037D01*
X165346466Y-83023557D01*
X165502991Y-83107222D01*
X165538729Y-83136552D01*
X165640186Y-83219814D01*
X165723448Y-83321271D01*
X165752778Y-83357009D01*
X165836443Y-83513534D01*
X165887963Y-83683373D01*
X165905359Y-83860000D01*
X165887963Y-84036627D01*
X165836443Y-84206466D01*
X165752778Y-84362991D01*
X165744745Y-84372779D01*
X165640186Y-84500186D01*
X165538729Y-84583448D01*
X165502991Y-84612778D01*
X165346466Y-84696443D01*
X165176627Y-84747963D01*
X165110443Y-84754481D01*
X165044260Y-84761000D01*
X164955740Y-84761000D01*
X164889557Y-84754481D01*
X164823373Y-84747963D01*
X164653534Y-84696443D01*
X164497009Y-84612778D01*
X164461271Y-84583448D01*
X164359814Y-84500186D01*
X164255255Y-84372779D01*
X164247222Y-84362991D01*
X164163557Y-84206466D01*
X164112037Y-84036627D01*
X164094641Y-83860000D01*
X164112037Y-83683373D01*
X164163557Y-83513534D01*
X164247222Y-83357009D01*
X164276552Y-83321271D01*
X164359814Y-83219814D01*
X164461271Y-83136552D01*
X164497009Y-83107222D01*
X164653534Y-83023557D01*
X164823373Y-82972037D01*
X164889557Y-82965519D01*
X164955740Y-82959000D01*
X165044260Y-82959000D01*
X165110443Y-82965519D01*
X165110443Y-82965519D01*
G37*
G36*
X134570443Y-82725519D02*
G01*
X134636627Y-82732037D01*
X134806466Y-82783557D01*
X134962991Y-82867222D01*
X134998729Y-82896552D01*
X135100186Y-82979814D01*
X135183448Y-83081271D01*
X135212778Y-83117009D01*
X135296443Y-83273534D01*
X135347963Y-83443373D01*
X135365359Y-83620000D01*
X135347963Y-83796627D01*
X135296443Y-83966466D01*
X135212778Y-84122991D01*
X135183448Y-84158729D01*
X135100186Y-84260186D01*
X134998729Y-84343448D01*
X134962991Y-84372778D01*
X134806466Y-84456443D01*
X134636627Y-84507963D01*
X134570443Y-84514481D01*
X134504260Y-84521000D01*
X134415740Y-84521000D01*
X134349557Y-84514481D01*
X134283373Y-84507963D01*
X134113534Y-84456443D01*
X133957009Y-84372778D01*
X133921271Y-84343448D01*
X133819814Y-84260186D01*
X133736552Y-84158729D01*
X133707222Y-84122991D01*
X133623557Y-83966466D01*
X133572037Y-83796627D01*
X133554641Y-83620000D01*
X133572037Y-83443373D01*
X133623557Y-83273534D01*
X133707222Y-83117009D01*
X133736552Y-83081271D01*
X133819814Y-82979814D01*
X133921271Y-82896552D01*
X133957009Y-82867222D01*
X134113534Y-82783557D01*
X134283373Y-82732037D01*
X134349557Y-82725519D01*
X134415740Y-82719000D01*
X134504260Y-82719000D01*
X134570443Y-82725519D01*
X134570443Y-82725519D01*
G37*
G36*
X137110443Y-82725519D02*
G01*
X137176627Y-82732037D01*
X137346466Y-82783557D01*
X137502991Y-82867222D01*
X137538729Y-82896552D01*
X137640186Y-82979814D01*
X137723448Y-83081271D01*
X137752778Y-83117009D01*
X137836443Y-83273534D01*
X137887963Y-83443373D01*
X137905359Y-83620000D01*
X137887963Y-83796627D01*
X137836443Y-83966466D01*
X137752778Y-84122991D01*
X137723448Y-84158729D01*
X137640186Y-84260186D01*
X137538729Y-84343448D01*
X137502991Y-84372778D01*
X137346466Y-84456443D01*
X137176627Y-84507963D01*
X137110443Y-84514481D01*
X137044260Y-84521000D01*
X136955740Y-84521000D01*
X136889557Y-84514481D01*
X136823373Y-84507963D01*
X136653534Y-84456443D01*
X136497009Y-84372778D01*
X136461271Y-84343448D01*
X136359814Y-84260186D01*
X136276552Y-84158729D01*
X136247222Y-84122991D01*
X136163557Y-83966466D01*
X136112037Y-83796627D01*
X136094641Y-83620000D01*
X136112037Y-83443373D01*
X136163557Y-83273534D01*
X136247222Y-83117009D01*
X136276552Y-83081271D01*
X136359814Y-82979814D01*
X136461271Y-82896552D01*
X136497009Y-82867222D01*
X136653534Y-82783557D01*
X136823373Y-82732037D01*
X136889557Y-82725519D01*
X136955740Y-82719000D01*
X137044260Y-82719000D01*
X137110443Y-82725519D01*
X137110443Y-82725519D01*
G37*
G36*
X143201000Y-83751000D02*
G01*
X141799000Y-83751000D01*
X141799000Y-64749000D01*
X143201000Y-64749000D01*
X143201000Y-83751000D01*
X143201000Y-83751000D01*
G37*
G36*
X159501000Y-83751000D02*
G01*
X158099000Y-83751000D01*
X158099000Y-64749000D01*
X159501000Y-64749000D01*
X159501000Y-83751000D01*
X159501000Y-83751000D01*
G37*
G36*
X165110443Y-80425519D02*
G01*
X165176627Y-80432037D01*
X165346466Y-80483557D01*
X165502991Y-80567222D01*
X165538729Y-80596552D01*
X165640186Y-80679814D01*
X165723448Y-80781271D01*
X165752778Y-80817009D01*
X165836443Y-80973534D01*
X165887963Y-81143373D01*
X165905359Y-81320000D01*
X165887963Y-81496627D01*
X165836443Y-81666466D01*
X165752778Y-81822991D01*
X165744745Y-81832779D01*
X165640186Y-81960186D01*
X165538729Y-82043448D01*
X165502991Y-82072778D01*
X165346466Y-82156443D01*
X165176627Y-82207963D01*
X165110442Y-82214482D01*
X165044260Y-82221000D01*
X164955740Y-82221000D01*
X164889558Y-82214482D01*
X164823373Y-82207963D01*
X164653534Y-82156443D01*
X164497009Y-82072778D01*
X164461271Y-82043448D01*
X164359814Y-81960186D01*
X164255255Y-81832779D01*
X164247222Y-81822991D01*
X164163557Y-81666466D01*
X164112037Y-81496627D01*
X164094641Y-81320000D01*
X164112037Y-81143373D01*
X164163557Y-80973534D01*
X164247222Y-80817009D01*
X164276552Y-80781271D01*
X164359814Y-80679814D01*
X164461271Y-80596552D01*
X164497009Y-80567222D01*
X164653534Y-80483557D01*
X164823373Y-80432037D01*
X164889557Y-80425519D01*
X164955740Y-80419000D01*
X165044260Y-80419000D01*
X165110443Y-80425519D01*
X165110443Y-80425519D01*
G37*
G36*
X167650443Y-80425519D02*
G01*
X167716627Y-80432037D01*
X167886466Y-80483557D01*
X168042991Y-80567222D01*
X168078729Y-80596552D01*
X168180186Y-80679814D01*
X168263448Y-80781271D01*
X168292778Y-80817009D01*
X168376443Y-80973534D01*
X168427963Y-81143373D01*
X168445359Y-81320000D01*
X168427963Y-81496627D01*
X168376443Y-81666466D01*
X168292778Y-81822991D01*
X168284745Y-81832779D01*
X168180186Y-81960186D01*
X168078729Y-82043448D01*
X168042991Y-82072778D01*
X167886466Y-82156443D01*
X167716627Y-82207963D01*
X167650442Y-82214482D01*
X167584260Y-82221000D01*
X167495740Y-82221000D01*
X167429558Y-82214482D01*
X167363373Y-82207963D01*
X167193534Y-82156443D01*
X167037009Y-82072778D01*
X167001271Y-82043448D01*
X166899814Y-81960186D01*
X166795255Y-81832779D01*
X166787222Y-81822991D01*
X166703557Y-81666466D01*
X166652037Y-81496627D01*
X166634641Y-81320000D01*
X166652037Y-81143373D01*
X166703557Y-80973534D01*
X166787222Y-80817009D01*
X166816552Y-80781271D01*
X166899814Y-80679814D01*
X167001271Y-80596552D01*
X167037009Y-80567222D01*
X167193534Y-80483557D01*
X167363373Y-80432037D01*
X167429557Y-80425519D01*
X167495740Y-80419000D01*
X167584260Y-80419000D01*
X167650443Y-80425519D01*
X167650443Y-80425519D01*
G37*
G36*
X137110443Y-80185519D02*
G01*
X137176627Y-80192037D01*
X137346466Y-80243557D01*
X137502991Y-80327222D01*
X137538729Y-80356552D01*
X137640186Y-80439814D01*
X137723448Y-80541271D01*
X137752778Y-80577009D01*
X137836443Y-80733534D01*
X137887963Y-80903373D01*
X137905359Y-81080000D01*
X137887963Y-81256627D01*
X137836443Y-81426466D01*
X137752778Y-81582991D01*
X137723448Y-81618729D01*
X137640186Y-81720186D01*
X137538729Y-81803448D01*
X137502991Y-81832778D01*
X137346466Y-81916443D01*
X137176627Y-81967963D01*
X137110442Y-81974482D01*
X137044260Y-81981000D01*
X136955740Y-81981000D01*
X136889558Y-81974482D01*
X136823373Y-81967963D01*
X136653534Y-81916443D01*
X136497009Y-81832778D01*
X136461271Y-81803448D01*
X136359814Y-81720186D01*
X136276552Y-81618729D01*
X136247222Y-81582991D01*
X136163557Y-81426466D01*
X136112037Y-81256627D01*
X136094641Y-81080000D01*
X136112037Y-80903373D01*
X136163557Y-80733534D01*
X136247222Y-80577009D01*
X136276552Y-80541271D01*
X136359814Y-80439814D01*
X136461271Y-80356552D01*
X136497009Y-80327222D01*
X136653534Y-80243557D01*
X136823373Y-80192037D01*
X136889557Y-80185519D01*
X136955740Y-80179000D01*
X137044260Y-80179000D01*
X137110443Y-80185519D01*
X137110443Y-80185519D01*
G37*
G36*
X134570443Y-80185519D02*
G01*
X134636627Y-80192037D01*
X134806466Y-80243557D01*
X134962991Y-80327222D01*
X134998729Y-80356552D01*
X135100186Y-80439814D01*
X135183448Y-80541271D01*
X135212778Y-80577009D01*
X135296443Y-80733534D01*
X135347963Y-80903373D01*
X135365359Y-81080000D01*
X135347963Y-81256627D01*
X135296443Y-81426466D01*
X135212778Y-81582991D01*
X135183448Y-81618729D01*
X135100186Y-81720186D01*
X134998729Y-81803448D01*
X134962991Y-81832778D01*
X134806466Y-81916443D01*
X134636627Y-81967963D01*
X134570442Y-81974482D01*
X134504260Y-81981000D01*
X134415740Y-81981000D01*
X134349558Y-81974482D01*
X134283373Y-81967963D01*
X134113534Y-81916443D01*
X133957009Y-81832778D01*
X133921271Y-81803448D01*
X133819814Y-81720186D01*
X133736552Y-81618729D01*
X133707222Y-81582991D01*
X133623557Y-81426466D01*
X133572037Y-81256627D01*
X133554641Y-81080000D01*
X133572037Y-80903373D01*
X133623557Y-80733534D01*
X133707222Y-80577009D01*
X133736552Y-80541271D01*
X133819814Y-80439814D01*
X133921271Y-80356552D01*
X133957009Y-80327222D01*
X134113534Y-80243557D01*
X134283373Y-80192037D01*
X134349557Y-80185519D01*
X134415740Y-80179000D01*
X134504260Y-80179000D01*
X134570443Y-80185519D01*
X134570443Y-80185519D01*
G37*
G36*
X167650442Y-77885518D02*
G01*
X167716627Y-77892037D01*
X167886466Y-77943557D01*
X168042991Y-78027222D01*
X168078729Y-78056552D01*
X168180186Y-78139814D01*
X168263448Y-78241271D01*
X168292778Y-78277009D01*
X168376443Y-78433534D01*
X168427963Y-78603373D01*
X168445359Y-78780000D01*
X168427963Y-78956627D01*
X168376443Y-79126466D01*
X168292778Y-79282991D01*
X168284745Y-79292779D01*
X168180186Y-79420186D01*
X168078729Y-79503448D01*
X168042991Y-79532778D01*
X167886466Y-79616443D01*
X167716627Y-79667963D01*
X167650442Y-79674482D01*
X167584260Y-79681000D01*
X167495740Y-79681000D01*
X167429558Y-79674482D01*
X167363373Y-79667963D01*
X167193534Y-79616443D01*
X167037009Y-79532778D01*
X167001271Y-79503448D01*
X166899814Y-79420186D01*
X166795255Y-79292779D01*
X166787222Y-79282991D01*
X166703557Y-79126466D01*
X166652037Y-78956627D01*
X166634641Y-78780000D01*
X166652037Y-78603373D01*
X166703557Y-78433534D01*
X166787222Y-78277009D01*
X166816552Y-78241271D01*
X166899814Y-78139814D01*
X167001271Y-78056552D01*
X167037009Y-78027222D01*
X167193534Y-77943557D01*
X167363373Y-77892037D01*
X167429558Y-77885518D01*
X167495740Y-77879000D01*
X167584260Y-77879000D01*
X167650442Y-77885518D01*
X167650442Y-77885518D01*
G37*
G36*
X165110442Y-77885518D02*
G01*
X165176627Y-77892037D01*
X165346466Y-77943557D01*
X165502991Y-78027222D01*
X165538729Y-78056552D01*
X165640186Y-78139814D01*
X165723448Y-78241271D01*
X165752778Y-78277009D01*
X165836443Y-78433534D01*
X165887963Y-78603373D01*
X165905359Y-78780000D01*
X165887963Y-78956627D01*
X165836443Y-79126466D01*
X165752778Y-79282991D01*
X165744745Y-79292779D01*
X165640186Y-79420186D01*
X165538729Y-79503448D01*
X165502991Y-79532778D01*
X165346466Y-79616443D01*
X165176627Y-79667963D01*
X165110442Y-79674482D01*
X165044260Y-79681000D01*
X164955740Y-79681000D01*
X164889558Y-79674482D01*
X164823373Y-79667963D01*
X164653534Y-79616443D01*
X164497009Y-79532778D01*
X164461271Y-79503448D01*
X164359814Y-79420186D01*
X164255255Y-79292779D01*
X164247222Y-79282991D01*
X164163557Y-79126466D01*
X164112037Y-78956627D01*
X164094641Y-78780000D01*
X164112037Y-78603373D01*
X164163557Y-78433534D01*
X164247222Y-78277009D01*
X164276552Y-78241271D01*
X164359814Y-78139814D01*
X164461271Y-78056552D01*
X164497009Y-78027222D01*
X164653534Y-77943557D01*
X164823373Y-77892037D01*
X164889558Y-77885518D01*
X164955740Y-77879000D01*
X165044260Y-77879000D01*
X165110442Y-77885518D01*
X165110442Y-77885518D01*
G37*
G36*
X134570442Y-77645518D02*
G01*
X134636627Y-77652037D01*
X134806466Y-77703557D01*
X134962991Y-77787222D01*
X134998729Y-77816552D01*
X135100186Y-77899814D01*
X135183448Y-78001271D01*
X135212778Y-78037009D01*
X135296443Y-78193534D01*
X135347963Y-78363373D01*
X135365359Y-78540000D01*
X135347963Y-78716627D01*
X135296443Y-78886466D01*
X135212778Y-79042991D01*
X135183448Y-79078729D01*
X135100186Y-79180186D01*
X134998729Y-79263448D01*
X134962991Y-79292778D01*
X134806466Y-79376443D01*
X134636627Y-79427963D01*
X134570443Y-79434481D01*
X134504260Y-79441000D01*
X134415740Y-79441000D01*
X134349557Y-79434481D01*
X134283373Y-79427963D01*
X134113534Y-79376443D01*
X133957009Y-79292778D01*
X133921271Y-79263448D01*
X133819814Y-79180186D01*
X133736552Y-79078729D01*
X133707222Y-79042991D01*
X133623557Y-78886466D01*
X133572037Y-78716627D01*
X133554641Y-78540000D01*
X133572037Y-78363373D01*
X133623557Y-78193534D01*
X133707222Y-78037009D01*
X133736552Y-78001271D01*
X133819814Y-77899814D01*
X133921271Y-77816552D01*
X133957009Y-77787222D01*
X134113534Y-77703557D01*
X134283373Y-77652037D01*
X134349558Y-77645518D01*
X134415740Y-77639000D01*
X134504260Y-77639000D01*
X134570442Y-77645518D01*
X134570442Y-77645518D01*
G37*
G36*
X137110442Y-77645518D02*
G01*
X137176627Y-77652037D01*
X137346466Y-77703557D01*
X137502991Y-77787222D01*
X137538729Y-77816552D01*
X137640186Y-77899814D01*
X137723448Y-78001271D01*
X137752778Y-78037009D01*
X137836443Y-78193534D01*
X137887963Y-78363373D01*
X137905359Y-78540000D01*
X137887963Y-78716627D01*
X137836443Y-78886466D01*
X137752778Y-79042991D01*
X137723448Y-79078729D01*
X137640186Y-79180186D01*
X137538729Y-79263448D01*
X137502991Y-79292778D01*
X137346466Y-79376443D01*
X137176627Y-79427963D01*
X137110443Y-79434481D01*
X137044260Y-79441000D01*
X136955740Y-79441000D01*
X136889557Y-79434481D01*
X136823373Y-79427963D01*
X136653534Y-79376443D01*
X136497009Y-79292778D01*
X136461271Y-79263448D01*
X136359814Y-79180186D01*
X136276552Y-79078729D01*
X136247222Y-79042991D01*
X136163557Y-78886466D01*
X136112037Y-78716627D01*
X136094641Y-78540000D01*
X136112037Y-78363373D01*
X136163557Y-78193534D01*
X136247222Y-78037009D01*
X136276552Y-78001271D01*
X136359814Y-77899814D01*
X136461271Y-77816552D01*
X136497009Y-77787222D01*
X136653534Y-77703557D01*
X136823373Y-77652037D01*
X136889558Y-77645518D01*
X136955740Y-77639000D01*
X137044260Y-77639000D01*
X137110442Y-77645518D01*
X137110442Y-77645518D01*
G37*
G36*
X165110442Y-75345518D02*
G01*
X165176627Y-75352037D01*
X165346466Y-75403557D01*
X165502991Y-75487222D01*
X165538729Y-75516552D01*
X165640186Y-75599814D01*
X165723448Y-75701271D01*
X165752778Y-75737009D01*
X165836443Y-75893534D01*
X165887963Y-76063373D01*
X165905359Y-76240000D01*
X165887963Y-76416627D01*
X165836443Y-76586466D01*
X165752778Y-76742991D01*
X165744745Y-76752779D01*
X165640186Y-76880186D01*
X165538729Y-76963448D01*
X165502991Y-76992778D01*
X165346466Y-77076443D01*
X165176627Y-77127963D01*
X165110443Y-77134481D01*
X165044260Y-77141000D01*
X164955740Y-77141000D01*
X164889557Y-77134481D01*
X164823373Y-77127963D01*
X164653534Y-77076443D01*
X164497009Y-76992778D01*
X164461271Y-76963448D01*
X164359814Y-76880186D01*
X164255255Y-76752779D01*
X164247222Y-76742991D01*
X164163557Y-76586466D01*
X164112037Y-76416627D01*
X164094641Y-76240000D01*
X164112037Y-76063373D01*
X164163557Y-75893534D01*
X164247222Y-75737009D01*
X164276552Y-75701271D01*
X164359814Y-75599814D01*
X164461271Y-75516552D01*
X164497009Y-75487222D01*
X164653534Y-75403557D01*
X164823373Y-75352037D01*
X164889558Y-75345518D01*
X164955740Y-75339000D01*
X165044260Y-75339000D01*
X165110442Y-75345518D01*
X165110442Y-75345518D01*
G37*
G36*
X167650442Y-75345518D02*
G01*
X167716627Y-75352037D01*
X167886466Y-75403557D01*
X168042991Y-75487222D01*
X168078729Y-75516552D01*
X168180186Y-75599814D01*
X168263448Y-75701271D01*
X168292778Y-75737009D01*
X168376443Y-75893534D01*
X168427963Y-76063373D01*
X168445359Y-76240000D01*
X168427963Y-76416627D01*
X168376443Y-76586466D01*
X168292778Y-76742991D01*
X168284745Y-76752779D01*
X168180186Y-76880186D01*
X168078729Y-76963448D01*
X168042991Y-76992778D01*
X167886466Y-77076443D01*
X167716627Y-77127963D01*
X167650443Y-77134481D01*
X167584260Y-77141000D01*
X167495740Y-77141000D01*
X167429557Y-77134481D01*
X167363373Y-77127963D01*
X167193534Y-77076443D01*
X167037009Y-76992778D01*
X167001271Y-76963448D01*
X166899814Y-76880186D01*
X166795255Y-76752779D01*
X166787222Y-76742991D01*
X166703557Y-76586466D01*
X166652037Y-76416627D01*
X166634641Y-76240000D01*
X166652037Y-76063373D01*
X166703557Y-75893534D01*
X166787222Y-75737009D01*
X166816552Y-75701271D01*
X166899814Y-75599814D01*
X167001271Y-75516552D01*
X167037009Y-75487222D01*
X167193534Y-75403557D01*
X167363373Y-75352037D01*
X167429558Y-75345518D01*
X167495740Y-75339000D01*
X167584260Y-75339000D01*
X167650442Y-75345518D01*
X167650442Y-75345518D01*
G37*
G36*
X137110442Y-75105518D02*
G01*
X137176627Y-75112037D01*
X137346466Y-75163557D01*
X137502991Y-75247222D01*
X137538729Y-75276552D01*
X137640186Y-75359814D01*
X137723448Y-75461271D01*
X137752778Y-75497009D01*
X137836443Y-75653534D01*
X137887963Y-75823373D01*
X137905359Y-76000000D01*
X137887963Y-76176627D01*
X137836443Y-76346466D01*
X137752778Y-76502991D01*
X137723448Y-76538729D01*
X137640186Y-76640186D01*
X137538729Y-76723448D01*
X137502991Y-76752778D01*
X137346466Y-76836443D01*
X137176627Y-76887963D01*
X137110442Y-76894482D01*
X137044260Y-76901000D01*
X136955740Y-76901000D01*
X136889558Y-76894482D01*
X136823373Y-76887963D01*
X136653534Y-76836443D01*
X136497009Y-76752778D01*
X136461271Y-76723448D01*
X136359814Y-76640186D01*
X136276552Y-76538729D01*
X136247222Y-76502991D01*
X136163557Y-76346466D01*
X136112037Y-76176627D01*
X136094641Y-76000000D01*
X136112037Y-75823373D01*
X136163557Y-75653534D01*
X136247222Y-75497009D01*
X136276552Y-75461271D01*
X136359814Y-75359814D01*
X136461271Y-75276552D01*
X136497009Y-75247222D01*
X136653534Y-75163557D01*
X136823373Y-75112037D01*
X136889558Y-75105518D01*
X136955740Y-75099000D01*
X137044260Y-75099000D01*
X137110442Y-75105518D01*
X137110442Y-75105518D01*
G37*
G36*
X134570442Y-75105518D02*
G01*
X134636627Y-75112037D01*
X134806466Y-75163557D01*
X134962991Y-75247222D01*
X134998729Y-75276552D01*
X135100186Y-75359814D01*
X135183448Y-75461271D01*
X135212778Y-75497009D01*
X135296443Y-75653534D01*
X135347963Y-75823373D01*
X135365359Y-76000000D01*
X135347963Y-76176627D01*
X135296443Y-76346466D01*
X135212778Y-76502991D01*
X135183448Y-76538729D01*
X135100186Y-76640186D01*
X134998729Y-76723448D01*
X134962991Y-76752778D01*
X134806466Y-76836443D01*
X134636627Y-76887963D01*
X134570442Y-76894482D01*
X134504260Y-76901000D01*
X134415740Y-76901000D01*
X134349558Y-76894482D01*
X134283373Y-76887963D01*
X134113534Y-76836443D01*
X133957009Y-76752778D01*
X133921271Y-76723448D01*
X133819814Y-76640186D01*
X133736552Y-76538729D01*
X133707222Y-76502991D01*
X133623557Y-76346466D01*
X133572037Y-76176627D01*
X133554641Y-76000000D01*
X133572037Y-75823373D01*
X133623557Y-75653534D01*
X133707222Y-75497009D01*
X133736552Y-75461271D01*
X133819814Y-75359814D01*
X133921271Y-75276552D01*
X133957009Y-75247222D01*
X134113534Y-75163557D01*
X134283373Y-75112037D01*
X134349558Y-75105518D01*
X134415740Y-75099000D01*
X134504260Y-75099000D01*
X134570442Y-75105518D01*
X134570442Y-75105518D01*
G37*
G36*
X167650443Y-72805519D02*
G01*
X167716627Y-72812037D01*
X167886466Y-72863557D01*
X168042991Y-72947222D01*
X168078729Y-72976552D01*
X168180186Y-73059814D01*
X168263448Y-73161271D01*
X168292778Y-73197009D01*
X168376443Y-73353534D01*
X168427963Y-73523373D01*
X168445359Y-73700000D01*
X168427963Y-73876627D01*
X168376443Y-74046466D01*
X168292778Y-74202991D01*
X168284745Y-74212779D01*
X168180186Y-74340186D01*
X168078729Y-74423448D01*
X168042991Y-74452778D01*
X167886466Y-74536443D01*
X167716627Y-74587963D01*
X167650442Y-74594482D01*
X167584260Y-74601000D01*
X167495740Y-74601000D01*
X167429558Y-74594482D01*
X167363373Y-74587963D01*
X167193534Y-74536443D01*
X167037009Y-74452778D01*
X167001271Y-74423448D01*
X166899814Y-74340186D01*
X166795255Y-74212779D01*
X166787222Y-74202991D01*
X166703557Y-74046466D01*
X166652037Y-73876627D01*
X166634641Y-73700000D01*
X166652037Y-73523373D01*
X166703557Y-73353534D01*
X166787222Y-73197009D01*
X166816552Y-73161271D01*
X166899814Y-73059814D01*
X167001271Y-72976552D01*
X167037009Y-72947222D01*
X167193534Y-72863557D01*
X167363373Y-72812037D01*
X167429557Y-72805519D01*
X167495740Y-72799000D01*
X167584260Y-72799000D01*
X167650443Y-72805519D01*
X167650443Y-72805519D01*
G37*
G36*
X165110443Y-72805519D02*
G01*
X165176627Y-72812037D01*
X165346466Y-72863557D01*
X165502991Y-72947222D01*
X165538729Y-72976552D01*
X165640186Y-73059814D01*
X165723448Y-73161271D01*
X165752778Y-73197009D01*
X165836443Y-73353534D01*
X165887963Y-73523373D01*
X165905359Y-73700000D01*
X165887963Y-73876627D01*
X165836443Y-74046466D01*
X165752778Y-74202991D01*
X165744745Y-74212779D01*
X165640186Y-74340186D01*
X165538729Y-74423448D01*
X165502991Y-74452778D01*
X165346466Y-74536443D01*
X165176627Y-74587963D01*
X165110442Y-74594482D01*
X165044260Y-74601000D01*
X164955740Y-74601000D01*
X164889558Y-74594482D01*
X164823373Y-74587963D01*
X164653534Y-74536443D01*
X164497009Y-74452778D01*
X164461271Y-74423448D01*
X164359814Y-74340186D01*
X164255255Y-74212779D01*
X164247222Y-74202991D01*
X164163557Y-74046466D01*
X164112037Y-73876627D01*
X164094641Y-73700000D01*
X164112037Y-73523373D01*
X164163557Y-73353534D01*
X164247222Y-73197009D01*
X164276552Y-73161271D01*
X164359814Y-73059814D01*
X164461271Y-72976552D01*
X164497009Y-72947222D01*
X164653534Y-72863557D01*
X164823373Y-72812037D01*
X164889557Y-72805519D01*
X164955740Y-72799000D01*
X165044260Y-72799000D01*
X165110443Y-72805519D01*
X165110443Y-72805519D01*
G37*
G36*
X137110443Y-72565519D02*
G01*
X137176627Y-72572037D01*
X137346466Y-72623557D01*
X137502991Y-72707222D01*
X137538729Y-72736552D01*
X137640186Y-72819814D01*
X137723448Y-72921271D01*
X137752778Y-72957009D01*
X137836443Y-73113534D01*
X137887963Y-73283373D01*
X137905359Y-73460000D01*
X137887963Y-73636627D01*
X137836443Y-73806466D01*
X137752778Y-73962991D01*
X137723448Y-73998729D01*
X137640186Y-74100186D01*
X137538729Y-74183448D01*
X137502991Y-74212778D01*
X137346466Y-74296443D01*
X137176627Y-74347963D01*
X137110442Y-74354482D01*
X137044260Y-74361000D01*
X136955740Y-74361000D01*
X136889558Y-74354482D01*
X136823373Y-74347963D01*
X136653534Y-74296443D01*
X136497009Y-74212778D01*
X136461271Y-74183448D01*
X136359814Y-74100186D01*
X136276552Y-73998729D01*
X136247222Y-73962991D01*
X136163557Y-73806466D01*
X136112037Y-73636627D01*
X136094641Y-73460000D01*
X136112037Y-73283373D01*
X136163557Y-73113534D01*
X136247222Y-72957009D01*
X136276552Y-72921271D01*
X136359814Y-72819814D01*
X136461271Y-72736552D01*
X136497009Y-72707222D01*
X136653534Y-72623557D01*
X136823373Y-72572037D01*
X136889557Y-72565519D01*
X136955740Y-72559000D01*
X137044260Y-72559000D01*
X137110443Y-72565519D01*
X137110443Y-72565519D01*
G37*
G36*
X134570443Y-72565519D02*
G01*
X134636627Y-72572037D01*
X134806466Y-72623557D01*
X134962991Y-72707222D01*
X134998729Y-72736552D01*
X135100186Y-72819814D01*
X135183448Y-72921271D01*
X135212778Y-72957009D01*
X135296443Y-73113534D01*
X135347963Y-73283373D01*
X135365359Y-73460000D01*
X135347963Y-73636627D01*
X135296443Y-73806466D01*
X135212778Y-73962991D01*
X135183448Y-73998729D01*
X135100186Y-74100186D01*
X134998729Y-74183448D01*
X134962991Y-74212778D01*
X134806466Y-74296443D01*
X134636627Y-74347963D01*
X134570442Y-74354482D01*
X134504260Y-74361000D01*
X134415740Y-74361000D01*
X134349558Y-74354482D01*
X134283373Y-74347963D01*
X134113534Y-74296443D01*
X133957009Y-74212778D01*
X133921271Y-74183448D01*
X133819814Y-74100186D01*
X133736552Y-73998729D01*
X133707222Y-73962991D01*
X133623557Y-73806466D01*
X133572037Y-73636627D01*
X133554641Y-73460000D01*
X133572037Y-73283373D01*
X133623557Y-73113534D01*
X133707222Y-72957009D01*
X133736552Y-72921271D01*
X133819814Y-72819814D01*
X133921271Y-72736552D01*
X133957009Y-72707222D01*
X134113534Y-72623557D01*
X134283373Y-72572037D01*
X134349557Y-72565519D01*
X134415740Y-72559000D01*
X134504260Y-72559000D01*
X134570443Y-72565519D01*
X134570443Y-72565519D01*
G37*
G36*
X165110443Y-70265519D02*
G01*
X165176627Y-70272037D01*
X165346466Y-70323557D01*
X165502991Y-70407222D01*
X165538729Y-70436552D01*
X165640186Y-70519814D01*
X165723448Y-70621271D01*
X165752778Y-70657009D01*
X165836443Y-70813534D01*
X165887963Y-70983373D01*
X165905359Y-71160000D01*
X165887963Y-71336627D01*
X165836443Y-71506466D01*
X165752778Y-71662991D01*
X165744745Y-71672779D01*
X165640186Y-71800186D01*
X165538729Y-71883448D01*
X165502991Y-71912778D01*
X165346466Y-71996443D01*
X165176627Y-72047963D01*
X165110443Y-72054481D01*
X165044260Y-72061000D01*
X164955740Y-72061000D01*
X164889557Y-72054481D01*
X164823373Y-72047963D01*
X164653534Y-71996443D01*
X164497009Y-71912778D01*
X164461271Y-71883448D01*
X164359814Y-71800186D01*
X164255255Y-71672779D01*
X164247222Y-71662991D01*
X164163557Y-71506466D01*
X164112037Y-71336627D01*
X164094641Y-71160000D01*
X164112037Y-70983373D01*
X164163557Y-70813534D01*
X164247222Y-70657009D01*
X164276552Y-70621271D01*
X164359814Y-70519814D01*
X164461271Y-70436552D01*
X164497009Y-70407222D01*
X164653534Y-70323557D01*
X164823373Y-70272037D01*
X164889557Y-70265519D01*
X164955740Y-70259000D01*
X165044260Y-70259000D01*
X165110443Y-70265519D01*
X165110443Y-70265519D01*
G37*
G36*
X167650443Y-70265519D02*
G01*
X167716627Y-70272037D01*
X167886466Y-70323557D01*
X168042991Y-70407222D01*
X168078729Y-70436552D01*
X168180186Y-70519814D01*
X168263448Y-70621271D01*
X168292778Y-70657009D01*
X168376443Y-70813534D01*
X168427963Y-70983373D01*
X168445359Y-71160000D01*
X168427963Y-71336627D01*
X168376443Y-71506466D01*
X168292778Y-71662991D01*
X168284745Y-71672779D01*
X168180186Y-71800186D01*
X168078729Y-71883448D01*
X168042991Y-71912778D01*
X167886466Y-71996443D01*
X167716627Y-72047963D01*
X167650443Y-72054481D01*
X167584260Y-72061000D01*
X167495740Y-72061000D01*
X167429557Y-72054481D01*
X167363373Y-72047963D01*
X167193534Y-71996443D01*
X167037009Y-71912778D01*
X167001271Y-71883448D01*
X166899814Y-71800186D01*
X166795255Y-71672779D01*
X166787222Y-71662991D01*
X166703557Y-71506466D01*
X166652037Y-71336627D01*
X166634641Y-71160000D01*
X166652037Y-70983373D01*
X166703557Y-70813534D01*
X166787222Y-70657009D01*
X166816552Y-70621271D01*
X166899814Y-70519814D01*
X167001271Y-70436552D01*
X167037009Y-70407222D01*
X167193534Y-70323557D01*
X167363373Y-70272037D01*
X167429557Y-70265519D01*
X167495740Y-70259000D01*
X167584260Y-70259000D01*
X167650443Y-70265519D01*
X167650443Y-70265519D01*
G37*
G36*
X137110442Y-70025518D02*
G01*
X137176627Y-70032037D01*
X137346466Y-70083557D01*
X137502991Y-70167222D01*
X137538729Y-70196552D01*
X137640186Y-70279814D01*
X137723448Y-70381271D01*
X137752778Y-70417009D01*
X137836443Y-70573534D01*
X137887963Y-70743373D01*
X137905359Y-70920000D01*
X137887963Y-71096627D01*
X137836443Y-71266466D01*
X137752778Y-71422991D01*
X137723448Y-71458729D01*
X137640186Y-71560186D01*
X137538729Y-71643448D01*
X137502991Y-71672778D01*
X137346466Y-71756443D01*
X137176627Y-71807963D01*
X137110443Y-71814481D01*
X137044260Y-71821000D01*
X136955740Y-71821000D01*
X136889557Y-71814481D01*
X136823373Y-71807963D01*
X136653534Y-71756443D01*
X136497009Y-71672778D01*
X136461271Y-71643448D01*
X136359814Y-71560186D01*
X136276552Y-71458729D01*
X136247222Y-71422991D01*
X136163557Y-71266466D01*
X136112037Y-71096627D01*
X136094641Y-70920000D01*
X136112037Y-70743373D01*
X136163557Y-70573534D01*
X136247222Y-70417009D01*
X136276552Y-70381271D01*
X136359814Y-70279814D01*
X136461271Y-70196552D01*
X136497009Y-70167222D01*
X136653534Y-70083557D01*
X136823373Y-70032037D01*
X136889558Y-70025518D01*
X136955740Y-70019000D01*
X137044260Y-70019000D01*
X137110442Y-70025518D01*
X137110442Y-70025518D01*
G37*
G36*
X134570442Y-70025518D02*
G01*
X134636627Y-70032037D01*
X134806466Y-70083557D01*
X134962991Y-70167222D01*
X134998729Y-70196552D01*
X135100186Y-70279814D01*
X135183448Y-70381271D01*
X135212778Y-70417009D01*
X135296443Y-70573534D01*
X135347963Y-70743373D01*
X135365359Y-70920000D01*
X135347963Y-71096627D01*
X135296443Y-71266466D01*
X135212778Y-71422991D01*
X135183448Y-71458729D01*
X135100186Y-71560186D01*
X134998729Y-71643448D01*
X134962991Y-71672778D01*
X134806466Y-71756443D01*
X134636627Y-71807963D01*
X134570443Y-71814481D01*
X134504260Y-71821000D01*
X134415740Y-71821000D01*
X134349557Y-71814481D01*
X134283373Y-71807963D01*
X134113534Y-71756443D01*
X133957009Y-71672778D01*
X133921271Y-71643448D01*
X133819814Y-71560186D01*
X133736552Y-71458729D01*
X133707222Y-71422991D01*
X133623557Y-71266466D01*
X133572037Y-71096627D01*
X133554641Y-70920000D01*
X133572037Y-70743373D01*
X133623557Y-70573534D01*
X133707222Y-70417009D01*
X133736552Y-70381271D01*
X133819814Y-70279814D01*
X133921271Y-70196552D01*
X133957009Y-70167222D01*
X134113534Y-70083557D01*
X134283373Y-70032037D01*
X134349558Y-70025518D01*
X134415740Y-70019000D01*
X134504260Y-70019000D01*
X134570442Y-70025518D01*
X134570442Y-70025518D01*
G37*
G36*
X165110442Y-67725518D02*
G01*
X165176627Y-67732037D01*
X165346466Y-67783557D01*
X165502991Y-67867222D01*
X165538729Y-67896552D01*
X165640186Y-67979814D01*
X165723448Y-68081271D01*
X165752778Y-68117009D01*
X165836443Y-68273534D01*
X165887963Y-68443373D01*
X165905359Y-68620000D01*
X165887963Y-68796627D01*
X165836443Y-68966466D01*
X165752778Y-69122991D01*
X165744745Y-69132779D01*
X165640186Y-69260186D01*
X165538729Y-69343448D01*
X165502991Y-69372778D01*
X165346466Y-69456443D01*
X165176627Y-69507963D01*
X165110442Y-69514482D01*
X165044260Y-69521000D01*
X164955740Y-69521000D01*
X164889558Y-69514482D01*
X164823373Y-69507963D01*
X164653534Y-69456443D01*
X164497009Y-69372778D01*
X164461271Y-69343448D01*
X164359814Y-69260186D01*
X164255255Y-69132779D01*
X164247222Y-69122991D01*
X164163557Y-68966466D01*
X164112037Y-68796627D01*
X164094641Y-68620000D01*
X164112037Y-68443373D01*
X164163557Y-68273534D01*
X164247222Y-68117009D01*
X164276552Y-68081271D01*
X164359814Y-67979814D01*
X164461271Y-67896552D01*
X164497009Y-67867222D01*
X164653534Y-67783557D01*
X164823373Y-67732037D01*
X164889558Y-67725518D01*
X164955740Y-67719000D01*
X165044260Y-67719000D01*
X165110442Y-67725518D01*
X165110442Y-67725518D01*
G37*
G36*
X167650442Y-67725518D02*
G01*
X167716627Y-67732037D01*
X167886466Y-67783557D01*
X168042991Y-67867222D01*
X168078729Y-67896552D01*
X168180186Y-67979814D01*
X168263448Y-68081271D01*
X168292778Y-68117009D01*
X168376443Y-68273534D01*
X168427963Y-68443373D01*
X168445359Y-68620000D01*
X168427963Y-68796627D01*
X168376443Y-68966466D01*
X168292778Y-69122991D01*
X168284745Y-69132779D01*
X168180186Y-69260186D01*
X168078729Y-69343448D01*
X168042991Y-69372778D01*
X167886466Y-69456443D01*
X167716627Y-69507963D01*
X167650442Y-69514482D01*
X167584260Y-69521000D01*
X167495740Y-69521000D01*
X167429558Y-69514482D01*
X167363373Y-69507963D01*
X167193534Y-69456443D01*
X167037009Y-69372778D01*
X167001271Y-69343448D01*
X166899814Y-69260186D01*
X166795255Y-69132779D01*
X166787222Y-69122991D01*
X166703557Y-68966466D01*
X166652037Y-68796627D01*
X166634641Y-68620000D01*
X166652037Y-68443373D01*
X166703557Y-68273534D01*
X166787222Y-68117009D01*
X166816552Y-68081271D01*
X166899814Y-67979814D01*
X167001271Y-67896552D01*
X167037009Y-67867222D01*
X167193534Y-67783557D01*
X167363373Y-67732037D01*
X167429558Y-67725518D01*
X167495740Y-67719000D01*
X167584260Y-67719000D01*
X167650442Y-67725518D01*
X167650442Y-67725518D01*
G37*
G36*
X137110442Y-67485518D02*
G01*
X137176627Y-67492037D01*
X137346466Y-67543557D01*
X137502991Y-67627222D01*
X137538729Y-67656552D01*
X137640186Y-67739814D01*
X137723448Y-67841271D01*
X137752778Y-67877009D01*
X137836443Y-68033534D01*
X137887963Y-68203373D01*
X137905359Y-68380000D01*
X137887963Y-68556627D01*
X137836443Y-68726466D01*
X137752778Y-68882991D01*
X137723448Y-68918729D01*
X137640186Y-69020186D01*
X137538729Y-69103448D01*
X137502991Y-69132778D01*
X137346466Y-69216443D01*
X137176627Y-69267963D01*
X137110442Y-69274482D01*
X137044260Y-69281000D01*
X136955740Y-69281000D01*
X136889558Y-69274482D01*
X136823373Y-69267963D01*
X136653534Y-69216443D01*
X136497009Y-69132778D01*
X136461271Y-69103448D01*
X136359814Y-69020186D01*
X136276552Y-68918729D01*
X136247222Y-68882991D01*
X136163557Y-68726466D01*
X136112037Y-68556627D01*
X136094641Y-68380000D01*
X136112037Y-68203373D01*
X136163557Y-68033534D01*
X136247222Y-67877009D01*
X136276552Y-67841271D01*
X136359814Y-67739814D01*
X136461271Y-67656552D01*
X136497009Y-67627222D01*
X136653534Y-67543557D01*
X136823373Y-67492037D01*
X136889558Y-67485518D01*
X136955740Y-67479000D01*
X137044260Y-67479000D01*
X137110442Y-67485518D01*
X137110442Y-67485518D01*
G37*
G36*
X134570442Y-67485518D02*
G01*
X134636627Y-67492037D01*
X134806466Y-67543557D01*
X134962991Y-67627222D01*
X134998729Y-67656552D01*
X135100186Y-67739814D01*
X135183448Y-67841271D01*
X135212778Y-67877009D01*
X135296443Y-68033534D01*
X135347963Y-68203373D01*
X135365359Y-68380000D01*
X135347963Y-68556627D01*
X135296443Y-68726466D01*
X135212778Y-68882991D01*
X135183448Y-68918729D01*
X135100186Y-69020186D01*
X134998729Y-69103448D01*
X134962991Y-69132778D01*
X134806466Y-69216443D01*
X134636627Y-69267963D01*
X134570442Y-69274482D01*
X134504260Y-69281000D01*
X134415740Y-69281000D01*
X134349558Y-69274482D01*
X134283373Y-69267963D01*
X134113534Y-69216443D01*
X133957009Y-69132778D01*
X133921271Y-69103448D01*
X133819814Y-69020186D01*
X133736552Y-68918729D01*
X133707222Y-68882991D01*
X133623557Y-68726466D01*
X133572037Y-68556627D01*
X133554641Y-68380000D01*
X133572037Y-68203373D01*
X133623557Y-68033534D01*
X133707222Y-67877009D01*
X133736552Y-67841271D01*
X133819814Y-67739814D01*
X133921271Y-67656552D01*
X133957009Y-67627222D01*
X134113534Y-67543557D01*
X134283373Y-67492037D01*
X134349558Y-67485518D01*
X134415740Y-67479000D01*
X134504260Y-67479000D01*
X134570442Y-67485518D01*
X134570442Y-67485518D01*
G37*
G36*
X167650442Y-65185518D02*
G01*
X167716627Y-65192037D01*
X167886466Y-65243557D01*
X168042991Y-65327222D01*
X168071964Y-65351000D01*
X168180186Y-65439814D01*
X168263448Y-65541271D01*
X168292778Y-65577009D01*
X168376443Y-65733534D01*
X168427963Y-65903373D01*
X168445359Y-66080000D01*
X168427963Y-66256627D01*
X168376443Y-66426466D01*
X168292778Y-66582991D01*
X168284745Y-66592779D01*
X168180186Y-66720186D01*
X168078729Y-66803448D01*
X168042991Y-66832778D01*
X167886466Y-66916443D01*
X167716627Y-66967963D01*
X167650443Y-66974481D01*
X167584260Y-66981000D01*
X167495740Y-66981000D01*
X167429557Y-66974481D01*
X167363373Y-66967963D01*
X167193534Y-66916443D01*
X167037009Y-66832778D01*
X167001271Y-66803448D01*
X166899814Y-66720186D01*
X166795255Y-66592779D01*
X166787222Y-66582991D01*
X166703557Y-66426466D01*
X166652037Y-66256627D01*
X166634641Y-66080000D01*
X166652037Y-65903373D01*
X166703557Y-65733534D01*
X166787222Y-65577009D01*
X166816552Y-65541271D01*
X166899814Y-65439814D01*
X167008036Y-65351000D01*
X167037009Y-65327222D01*
X167193534Y-65243557D01*
X167363373Y-65192037D01*
X167429558Y-65185518D01*
X167495740Y-65179000D01*
X167584260Y-65179000D01*
X167650442Y-65185518D01*
X167650442Y-65185518D01*
G37*
G36*
X165110442Y-65185518D02*
G01*
X165176627Y-65192037D01*
X165346466Y-65243557D01*
X165502991Y-65327222D01*
X165531964Y-65351000D01*
X165640186Y-65439814D01*
X165723448Y-65541271D01*
X165752778Y-65577009D01*
X165836443Y-65733534D01*
X165887963Y-65903373D01*
X165905359Y-66080000D01*
X165887963Y-66256627D01*
X165836443Y-66426466D01*
X165752778Y-66582991D01*
X165744745Y-66592779D01*
X165640186Y-66720186D01*
X165538729Y-66803448D01*
X165502991Y-66832778D01*
X165346466Y-66916443D01*
X165176627Y-66967963D01*
X165110443Y-66974481D01*
X165044260Y-66981000D01*
X164955740Y-66981000D01*
X164889557Y-66974481D01*
X164823373Y-66967963D01*
X164653534Y-66916443D01*
X164497009Y-66832778D01*
X164461271Y-66803448D01*
X164359814Y-66720186D01*
X164255255Y-66592779D01*
X164247222Y-66582991D01*
X164163557Y-66426466D01*
X164112037Y-66256627D01*
X164094641Y-66080000D01*
X164112037Y-65903373D01*
X164163557Y-65733534D01*
X164247222Y-65577009D01*
X164276552Y-65541271D01*
X164359814Y-65439814D01*
X164468036Y-65351000D01*
X164497009Y-65327222D01*
X164653534Y-65243557D01*
X164823373Y-65192037D01*
X164889558Y-65185518D01*
X164955740Y-65179000D01*
X165044260Y-65179000D01*
X165110442Y-65185518D01*
X165110442Y-65185518D01*
G37*
G36*
X134570442Y-64945518D02*
G01*
X134636627Y-64952037D01*
X134806466Y-65003557D01*
X134962991Y-65087222D01*
X134998729Y-65116552D01*
X135100186Y-65199814D01*
X135183448Y-65301271D01*
X135212778Y-65337009D01*
X135296443Y-65493534D01*
X135347963Y-65663373D01*
X135365359Y-65840000D01*
X135347963Y-66016627D01*
X135296443Y-66186466D01*
X135212778Y-66342991D01*
X135183448Y-66378729D01*
X135100186Y-66480186D01*
X134998729Y-66563448D01*
X134962991Y-66592778D01*
X134806466Y-66676443D01*
X134636627Y-66727963D01*
X134570442Y-66734482D01*
X134504260Y-66741000D01*
X134415740Y-66741000D01*
X134349558Y-66734482D01*
X134283373Y-66727963D01*
X134113534Y-66676443D01*
X133957009Y-66592778D01*
X133921271Y-66563448D01*
X133819814Y-66480186D01*
X133736552Y-66378729D01*
X133707222Y-66342991D01*
X133623557Y-66186466D01*
X133572037Y-66016627D01*
X133554641Y-65840000D01*
X133572037Y-65663373D01*
X133623557Y-65493534D01*
X133707222Y-65337009D01*
X133736552Y-65301271D01*
X133819814Y-65199814D01*
X133921271Y-65116552D01*
X133957009Y-65087222D01*
X134113534Y-65003557D01*
X134283373Y-64952037D01*
X134349558Y-64945518D01*
X134415740Y-64939000D01*
X134504260Y-64939000D01*
X134570442Y-64945518D01*
X134570442Y-64945518D01*
G37*
G36*
X137110442Y-64945518D02*
G01*
X137176627Y-64952037D01*
X137346466Y-65003557D01*
X137502991Y-65087222D01*
X137538729Y-65116552D01*
X137640186Y-65199814D01*
X137723448Y-65301271D01*
X137752778Y-65337009D01*
X137836443Y-65493534D01*
X137887963Y-65663373D01*
X137905359Y-65840000D01*
X137887963Y-66016627D01*
X137836443Y-66186466D01*
X137752778Y-66342991D01*
X137723448Y-66378729D01*
X137640186Y-66480186D01*
X137538729Y-66563448D01*
X137502991Y-66592778D01*
X137346466Y-66676443D01*
X137176627Y-66727963D01*
X137110442Y-66734482D01*
X137044260Y-66741000D01*
X136955740Y-66741000D01*
X136889558Y-66734482D01*
X136823373Y-66727963D01*
X136653534Y-66676443D01*
X136497009Y-66592778D01*
X136461271Y-66563448D01*
X136359814Y-66480186D01*
X136276552Y-66378729D01*
X136247222Y-66342991D01*
X136163557Y-66186466D01*
X136112037Y-66016627D01*
X136094641Y-65840000D01*
X136112037Y-65663373D01*
X136163557Y-65493534D01*
X136247222Y-65337009D01*
X136276552Y-65301271D01*
X136359814Y-65199814D01*
X136461271Y-65116552D01*
X136497009Y-65087222D01*
X136653534Y-65003557D01*
X136823373Y-64952037D01*
X136889558Y-64945518D01*
X136955740Y-64939000D01*
X137044260Y-64939000D01*
X137110442Y-64945518D01*
X137110442Y-64945518D01*
G37*
G36*
X165110443Y-62645519D02*
G01*
X165176627Y-62652037D01*
X165346466Y-62703557D01*
X165502991Y-62787222D01*
X165538729Y-62816552D01*
X165640186Y-62899814D01*
X165723448Y-63001271D01*
X165752778Y-63037009D01*
X165836443Y-63193534D01*
X165887963Y-63363373D01*
X165905359Y-63540000D01*
X165887963Y-63716627D01*
X165836443Y-63886466D01*
X165752778Y-64042991D01*
X165744745Y-64052779D01*
X165640186Y-64180186D01*
X165538729Y-64263448D01*
X165502991Y-64292778D01*
X165346466Y-64376443D01*
X165176627Y-64427963D01*
X165110442Y-64434482D01*
X165044260Y-64441000D01*
X164955740Y-64441000D01*
X164889558Y-64434482D01*
X164823373Y-64427963D01*
X164653534Y-64376443D01*
X164497009Y-64292778D01*
X164461271Y-64263448D01*
X164359814Y-64180186D01*
X164255255Y-64052779D01*
X164247222Y-64042991D01*
X164163557Y-63886466D01*
X164112037Y-63716627D01*
X164094641Y-63540000D01*
X164112037Y-63363373D01*
X164163557Y-63193534D01*
X164247222Y-63037009D01*
X164276552Y-63001271D01*
X164359814Y-62899814D01*
X164461271Y-62816552D01*
X164497009Y-62787222D01*
X164653534Y-62703557D01*
X164823373Y-62652037D01*
X164889557Y-62645519D01*
X164955740Y-62639000D01*
X165044260Y-62639000D01*
X165110443Y-62645519D01*
X165110443Y-62645519D01*
G37*
G36*
X167650443Y-62645519D02*
G01*
X167716627Y-62652037D01*
X167886466Y-62703557D01*
X168042991Y-62787222D01*
X168078729Y-62816552D01*
X168180186Y-62899814D01*
X168263448Y-63001271D01*
X168292778Y-63037009D01*
X168376443Y-63193534D01*
X168427963Y-63363373D01*
X168445359Y-63540000D01*
X168427963Y-63716627D01*
X168376443Y-63886466D01*
X168292778Y-64042991D01*
X168284745Y-64052779D01*
X168180186Y-64180186D01*
X168078729Y-64263448D01*
X168042991Y-64292778D01*
X167886466Y-64376443D01*
X167716627Y-64427963D01*
X167650442Y-64434482D01*
X167584260Y-64441000D01*
X167495740Y-64441000D01*
X167429558Y-64434482D01*
X167363373Y-64427963D01*
X167193534Y-64376443D01*
X167037009Y-64292778D01*
X167001271Y-64263448D01*
X166899814Y-64180186D01*
X166795255Y-64052779D01*
X166787222Y-64042991D01*
X166703557Y-63886466D01*
X166652037Y-63716627D01*
X166634641Y-63540000D01*
X166652037Y-63363373D01*
X166703557Y-63193534D01*
X166787222Y-63037009D01*
X166816552Y-63001271D01*
X166899814Y-62899814D01*
X167001271Y-62816552D01*
X167037009Y-62787222D01*
X167193534Y-62703557D01*
X167363373Y-62652037D01*
X167429557Y-62645519D01*
X167495740Y-62639000D01*
X167584260Y-62639000D01*
X167650443Y-62645519D01*
X167650443Y-62645519D01*
G37*
G36*
X134570443Y-62405519D02*
G01*
X134636627Y-62412037D01*
X134806466Y-62463557D01*
X134962991Y-62547222D01*
X134998729Y-62576552D01*
X135100186Y-62659814D01*
X135183448Y-62761271D01*
X135212778Y-62797009D01*
X135296443Y-62953534D01*
X135347963Y-63123373D01*
X135365359Y-63300000D01*
X135347963Y-63476627D01*
X135296443Y-63646466D01*
X135212778Y-63802991D01*
X135183448Y-63838729D01*
X135100186Y-63940186D01*
X134998729Y-64023448D01*
X134962991Y-64052778D01*
X134806466Y-64136443D01*
X134636627Y-64187963D01*
X134570442Y-64194482D01*
X134504260Y-64201000D01*
X134415740Y-64201000D01*
X134349558Y-64194482D01*
X134283373Y-64187963D01*
X134113534Y-64136443D01*
X133957009Y-64052778D01*
X133921271Y-64023448D01*
X133819814Y-63940186D01*
X133736552Y-63838729D01*
X133707222Y-63802991D01*
X133623557Y-63646466D01*
X133572037Y-63476627D01*
X133554641Y-63300000D01*
X133572037Y-63123373D01*
X133623557Y-62953534D01*
X133707222Y-62797009D01*
X133736552Y-62761271D01*
X133819814Y-62659814D01*
X133921271Y-62576552D01*
X133957009Y-62547222D01*
X134113534Y-62463557D01*
X134283373Y-62412037D01*
X134349557Y-62405519D01*
X134415740Y-62399000D01*
X134504260Y-62399000D01*
X134570443Y-62405519D01*
X134570443Y-62405519D01*
G37*
G36*
X137110443Y-62405519D02*
G01*
X137176627Y-62412037D01*
X137346466Y-62463557D01*
X137502991Y-62547222D01*
X137538729Y-62576552D01*
X137640186Y-62659814D01*
X137723448Y-62761271D01*
X137752778Y-62797009D01*
X137836443Y-62953534D01*
X137887963Y-63123373D01*
X137905359Y-63300000D01*
X137887963Y-63476627D01*
X137836443Y-63646466D01*
X137752778Y-63802991D01*
X137723448Y-63838729D01*
X137640186Y-63940186D01*
X137538729Y-64023448D01*
X137502991Y-64052778D01*
X137346466Y-64136443D01*
X137176627Y-64187963D01*
X137110442Y-64194482D01*
X137044260Y-64201000D01*
X136955740Y-64201000D01*
X136889558Y-64194482D01*
X136823373Y-64187963D01*
X136653534Y-64136443D01*
X136497009Y-64052778D01*
X136461271Y-64023448D01*
X136359814Y-63940186D01*
X136276552Y-63838729D01*
X136247222Y-63802991D01*
X136163557Y-63646466D01*
X136112037Y-63476627D01*
X136094641Y-63300000D01*
X136112037Y-63123373D01*
X136163557Y-62953534D01*
X136247222Y-62797009D01*
X136276552Y-62761271D01*
X136359814Y-62659814D01*
X136461271Y-62576552D01*
X136497009Y-62547222D01*
X136653534Y-62463557D01*
X136823373Y-62412037D01*
X136889557Y-62405519D01*
X136955740Y-62399000D01*
X137044260Y-62399000D01*
X137110443Y-62405519D01*
X137110443Y-62405519D01*
G37*
G36*
X156951000Y-63801000D02*
G01*
X144349000Y-63801000D01*
X144349000Y-62399000D01*
X156951000Y-62399000D01*
X156951000Y-63801000D01*
X156951000Y-63801000D01*
G37*
G36*
X165901000Y-61901000D02*
G01*
X164099000Y-61901000D01*
X164099000Y-60099000D01*
X165901000Y-60099000D01*
X165901000Y-61901000D01*
X165901000Y-61901000D01*
G37*
G36*
X167650442Y-60105518D02*
G01*
X167716627Y-60112037D01*
X167886466Y-60163557D01*
X168042991Y-60247222D01*
X168078729Y-60276552D01*
X168180186Y-60359814D01*
X168263448Y-60461271D01*
X168292778Y-60497009D01*
X168376443Y-60653534D01*
X168427963Y-60823373D01*
X168445359Y-61000000D01*
X168427963Y-61176627D01*
X168376443Y-61346466D01*
X168292778Y-61502991D01*
X168284745Y-61512779D01*
X168180186Y-61640186D01*
X168078729Y-61723448D01*
X168042991Y-61752778D01*
X167886466Y-61836443D01*
X167716627Y-61887963D01*
X167650443Y-61894481D01*
X167584260Y-61901000D01*
X167495740Y-61901000D01*
X167429557Y-61894481D01*
X167363373Y-61887963D01*
X167193534Y-61836443D01*
X167037009Y-61752778D01*
X167001271Y-61723448D01*
X166899814Y-61640186D01*
X166795255Y-61512779D01*
X166787222Y-61502991D01*
X166703557Y-61346466D01*
X166652037Y-61176627D01*
X166634641Y-61000000D01*
X166652037Y-60823373D01*
X166703557Y-60653534D01*
X166787222Y-60497009D01*
X166816552Y-60461271D01*
X166899814Y-60359814D01*
X167001271Y-60276552D01*
X167037009Y-60247222D01*
X167193534Y-60163557D01*
X167363373Y-60112037D01*
X167429558Y-60105518D01*
X167495740Y-60099000D01*
X167584260Y-60099000D01*
X167650442Y-60105518D01*
X167650442Y-60105518D01*
G37*
G36*
X137110442Y-59865518D02*
G01*
X137176627Y-59872037D01*
X137346466Y-59923557D01*
X137502991Y-60007222D01*
X137538729Y-60036552D01*
X137640186Y-60119814D01*
X137723448Y-60221271D01*
X137752778Y-60257009D01*
X137836443Y-60413534D01*
X137887963Y-60583373D01*
X137905359Y-60760000D01*
X137887963Y-60936627D01*
X137836443Y-61106466D01*
X137752778Y-61262991D01*
X137723448Y-61298729D01*
X137640186Y-61400186D01*
X137538729Y-61483448D01*
X137502991Y-61512778D01*
X137346466Y-61596443D01*
X137176627Y-61647963D01*
X137110443Y-61654481D01*
X137044260Y-61661000D01*
X136955740Y-61661000D01*
X136889557Y-61654481D01*
X136823373Y-61647963D01*
X136653534Y-61596443D01*
X136497009Y-61512778D01*
X136461271Y-61483448D01*
X136359814Y-61400186D01*
X136276552Y-61298729D01*
X136247222Y-61262991D01*
X136163557Y-61106466D01*
X136112037Y-60936627D01*
X136094641Y-60760000D01*
X136112037Y-60583373D01*
X136163557Y-60413534D01*
X136247222Y-60257009D01*
X136276552Y-60221271D01*
X136359814Y-60119814D01*
X136461271Y-60036552D01*
X136497009Y-60007222D01*
X136653534Y-59923557D01*
X136823373Y-59872037D01*
X136889558Y-59865518D01*
X136955740Y-59859000D01*
X137044260Y-59859000D01*
X137110442Y-59865518D01*
X137110442Y-59865518D01*
G37*
G36*
X134570442Y-59865518D02*
G01*
X134636627Y-59872037D01*
X134806466Y-59923557D01*
X134962991Y-60007222D01*
X134998729Y-60036552D01*
X135100186Y-60119814D01*
X135183448Y-60221271D01*
X135212778Y-60257009D01*
X135296443Y-60413534D01*
X135347963Y-60583373D01*
X135365359Y-60760000D01*
X135347963Y-60936627D01*
X135296443Y-61106466D01*
X135212778Y-61262991D01*
X135183448Y-61298729D01*
X135100186Y-61400186D01*
X134998729Y-61483448D01*
X134962991Y-61512778D01*
X134806466Y-61596443D01*
X134636627Y-61647963D01*
X134570443Y-61654481D01*
X134504260Y-61661000D01*
X134415740Y-61661000D01*
X134349557Y-61654481D01*
X134283373Y-61647963D01*
X134113534Y-61596443D01*
X133957009Y-61512778D01*
X133921271Y-61483448D01*
X133819814Y-61400186D01*
X133736552Y-61298729D01*
X133707222Y-61262991D01*
X133623557Y-61106466D01*
X133572037Y-60936627D01*
X133554641Y-60760000D01*
X133572037Y-60583373D01*
X133623557Y-60413534D01*
X133707222Y-60257009D01*
X133736552Y-60221271D01*
X133819814Y-60119814D01*
X133921271Y-60036552D01*
X133957009Y-60007222D01*
X134113534Y-59923557D01*
X134283373Y-59872037D01*
X134349558Y-59865518D01*
X134415740Y-59859000D01*
X134504260Y-59859000D01*
X134570442Y-59865518D01*
X134570442Y-59865518D01*
G37*
G36*
X159890442Y-56105518D02*
G01*
X159956627Y-56112037D01*
X160126466Y-56163557D01*
X160282991Y-56247222D01*
X160318729Y-56276552D01*
X160420186Y-56359814D01*
X160503448Y-56461271D01*
X160532778Y-56497009D01*
X160616443Y-56653534D01*
X160667963Y-56823373D01*
X160685359Y-57000000D01*
X160667963Y-57176627D01*
X160616443Y-57346466D01*
X160532778Y-57502991D01*
X160503448Y-57538729D01*
X160420186Y-57640186D01*
X160318729Y-57723448D01*
X160282991Y-57752778D01*
X160126466Y-57836443D01*
X159956627Y-57887963D01*
X159890442Y-57894482D01*
X159824260Y-57901000D01*
X159735740Y-57901000D01*
X159669558Y-57894482D01*
X159603373Y-57887963D01*
X159433534Y-57836443D01*
X159277009Y-57752778D01*
X159241271Y-57723448D01*
X159139814Y-57640186D01*
X159056552Y-57538729D01*
X159027222Y-57502991D01*
X158943557Y-57346466D01*
X158892037Y-57176627D01*
X158874641Y-57000000D01*
X158892037Y-56823373D01*
X158943557Y-56653534D01*
X159027222Y-56497009D01*
X159056552Y-56461271D01*
X159139814Y-56359814D01*
X159241271Y-56276552D01*
X159277009Y-56247222D01*
X159433534Y-56163557D01*
X159603373Y-56112037D01*
X159669558Y-56105518D01*
X159735740Y-56099000D01*
X159824260Y-56099000D01*
X159890442Y-56105518D01*
X159890442Y-56105518D01*
G37*
G36*
X154810442Y-56105518D02*
G01*
X154876627Y-56112037D01*
X155046466Y-56163557D01*
X155202991Y-56247222D01*
X155238729Y-56276552D01*
X155340186Y-56359814D01*
X155423448Y-56461271D01*
X155452778Y-56497009D01*
X155536443Y-56653534D01*
X155587963Y-56823373D01*
X155605359Y-57000000D01*
X155587963Y-57176627D01*
X155536443Y-57346466D01*
X155452778Y-57502991D01*
X155423448Y-57538729D01*
X155340186Y-57640186D01*
X155238729Y-57723448D01*
X155202991Y-57752778D01*
X155046466Y-57836443D01*
X154876627Y-57887963D01*
X154810442Y-57894482D01*
X154744260Y-57901000D01*
X154655740Y-57901000D01*
X154589558Y-57894482D01*
X154523373Y-57887963D01*
X154353534Y-57836443D01*
X154197009Y-57752778D01*
X154161271Y-57723448D01*
X154059814Y-57640186D01*
X153976552Y-57538729D01*
X153947222Y-57502991D01*
X153863557Y-57346466D01*
X153812037Y-57176627D01*
X153794641Y-57000000D01*
X153812037Y-56823373D01*
X153863557Y-56653534D01*
X153947222Y-56497009D01*
X153976552Y-56461271D01*
X154059814Y-56359814D01*
X154161271Y-56276552D01*
X154197009Y-56247222D01*
X154353534Y-56163557D01*
X154523373Y-56112037D01*
X154589558Y-56105518D01*
X154655740Y-56099000D01*
X154744260Y-56099000D01*
X154810442Y-56105518D01*
X154810442Y-56105518D01*
G37*
G36*
X157350442Y-56105518D02*
G01*
X157416627Y-56112037D01*
X157586466Y-56163557D01*
X157742991Y-56247222D01*
X157778729Y-56276552D01*
X157880186Y-56359814D01*
X157963448Y-56461271D01*
X157992778Y-56497009D01*
X158076443Y-56653534D01*
X158127963Y-56823373D01*
X158145359Y-57000000D01*
X158127963Y-57176627D01*
X158076443Y-57346466D01*
X157992778Y-57502991D01*
X157963448Y-57538729D01*
X157880186Y-57640186D01*
X157778729Y-57723448D01*
X157742991Y-57752778D01*
X157586466Y-57836443D01*
X157416627Y-57887963D01*
X157350442Y-57894482D01*
X157284260Y-57901000D01*
X157195740Y-57901000D01*
X157129558Y-57894482D01*
X157063373Y-57887963D01*
X156893534Y-57836443D01*
X156737009Y-57752778D01*
X156701271Y-57723448D01*
X156599814Y-57640186D01*
X156516552Y-57538729D01*
X156487222Y-57502991D01*
X156403557Y-57346466D01*
X156352037Y-57176627D01*
X156334641Y-57000000D01*
X156352037Y-56823373D01*
X156403557Y-56653534D01*
X156487222Y-56497009D01*
X156516552Y-56461271D01*
X156599814Y-56359814D01*
X156701271Y-56276552D01*
X156737009Y-56247222D01*
X156893534Y-56163557D01*
X157063373Y-56112037D01*
X157129558Y-56105518D01*
X157195740Y-56099000D01*
X157284260Y-56099000D01*
X157350442Y-56105518D01*
X157350442Y-56105518D01*
G37*
G36*
X152270442Y-56105518D02*
G01*
X152336627Y-56112037D01*
X152506466Y-56163557D01*
X152662991Y-56247222D01*
X152698729Y-56276552D01*
X152800186Y-56359814D01*
X152883448Y-56461271D01*
X152912778Y-56497009D01*
X152996443Y-56653534D01*
X153047963Y-56823373D01*
X153065359Y-57000000D01*
X153047963Y-57176627D01*
X152996443Y-57346466D01*
X152912778Y-57502991D01*
X152883448Y-57538729D01*
X152800186Y-57640186D01*
X152698729Y-57723448D01*
X152662991Y-57752778D01*
X152506466Y-57836443D01*
X152336627Y-57887963D01*
X152270442Y-57894482D01*
X152204260Y-57901000D01*
X152115740Y-57901000D01*
X152049558Y-57894482D01*
X151983373Y-57887963D01*
X151813534Y-57836443D01*
X151657009Y-57752778D01*
X151621271Y-57723448D01*
X151519814Y-57640186D01*
X151436552Y-57538729D01*
X151407222Y-57502991D01*
X151323557Y-57346466D01*
X151272037Y-57176627D01*
X151254641Y-57000000D01*
X151272037Y-56823373D01*
X151323557Y-56653534D01*
X151407222Y-56497009D01*
X151436552Y-56461271D01*
X151519814Y-56359814D01*
X151621271Y-56276552D01*
X151657009Y-56247222D01*
X151813534Y-56163557D01*
X151983373Y-56112037D01*
X152049558Y-56105518D01*
X152115740Y-56099000D01*
X152204260Y-56099000D01*
X152270442Y-56105518D01*
X152270442Y-56105518D01*
G37*
G36*
X149730442Y-56105518D02*
G01*
X149796627Y-56112037D01*
X149966466Y-56163557D01*
X150122991Y-56247222D01*
X150158729Y-56276552D01*
X150260186Y-56359814D01*
X150343448Y-56461271D01*
X150372778Y-56497009D01*
X150456443Y-56653534D01*
X150507963Y-56823373D01*
X150525359Y-57000000D01*
X150507963Y-57176627D01*
X150456443Y-57346466D01*
X150372778Y-57502991D01*
X150343448Y-57538729D01*
X150260186Y-57640186D01*
X150158729Y-57723448D01*
X150122991Y-57752778D01*
X149966466Y-57836443D01*
X149796627Y-57887963D01*
X149730442Y-57894482D01*
X149664260Y-57901000D01*
X149575740Y-57901000D01*
X149509558Y-57894482D01*
X149443373Y-57887963D01*
X149273534Y-57836443D01*
X149117009Y-57752778D01*
X149081271Y-57723448D01*
X148979814Y-57640186D01*
X148896552Y-57538729D01*
X148867222Y-57502991D01*
X148783557Y-57346466D01*
X148732037Y-57176627D01*
X148714641Y-57000000D01*
X148732037Y-56823373D01*
X148783557Y-56653534D01*
X148867222Y-56497009D01*
X148896552Y-56461271D01*
X148979814Y-56359814D01*
X149081271Y-56276552D01*
X149117009Y-56247222D01*
X149273534Y-56163557D01*
X149443373Y-56112037D01*
X149509558Y-56105518D01*
X149575740Y-56099000D01*
X149664260Y-56099000D01*
X149730442Y-56105518D01*
X149730442Y-56105518D01*
G37*
G36*
X147190442Y-56105518D02*
G01*
X147256627Y-56112037D01*
X147426466Y-56163557D01*
X147582991Y-56247222D01*
X147618729Y-56276552D01*
X147720186Y-56359814D01*
X147803448Y-56461271D01*
X147832778Y-56497009D01*
X147916443Y-56653534D01*
X147967963Y-56823373D01*
X147985359Y-57000000D01*
X147967963Y-57176627D01*
X147916443Y-57346466D01*
X147832778Y-57502991D01*
X147803448Y-57538729D01*
X147720186Y-57640186D01*
X147618729Y-57723448D01*
X147582991Y-57752778D01*
X147426466Y-57836443D01*
X147256627Y-57887963D01*
X147190442Y-57894482D01*
X147124260Y-57901000D01*
X147035740Y-57901000D01*
X146969558Y-57894482D01*
X146903373Y-57887963D01*
X146733534Y-57836443D01*
X146577009Y-57752778D01*
X146541271Y-57723448D01*
X146439814Y-57640186D01*
X146356552Y-57538729D01*
X146327222Y-57502991D01*
X146243557Y-57346466D01*
X146192037Y-57176627D01*
X146174641Y-57000000D01*
X146192037Y-56823373D01*
X146243557Y-56653534D01*
X146327222Y-56497009D01*
X146356552Y-56461271D01*
X146439814Y-56359814D01*
X146541271Y-56276552D01*
X146577009Y-56247222D01*
X146733534Y-56163557D01*
X146903373Y-56112037D01*
X146969558Y-56105518D01*
X147035740Y-56099000D01*
X147124260Y-56099000D01*
X147190442Y-56105518D01*
X147190442Y-56105518D01*
G37*
G36*
X144650442Y-56105518D02*
G01*
X144716627Y-56112037D01*
X144886466Y-56163557D01*
X145042991Y-56247222D01*
X145078729Y-56276552D01*
X145180186Y-56359814D01*
X145263448Y-56461271D01*
X145292778Y-56497009D01*
X145376443Y-56653534D01*
X145427963Y-56823373D01*
X145445359Y-57000000D01*
X145427963Y-57176627D01*
X145376443Y-57346466D01*
X145292778Y-57502991D01*
X145263448Y-57538729D01*
X145180186Y-57640186D01*
X145078729Y-57723448D01*
X145042991Y-57752778D01*
X144886466Y-57836443D01*
X144716627Y-57887963D01*
X144650442Y-57894482D01*
X144584260Y-57901000D01*
X144495740Y-57901000D01*
X144429558Y-57894482D01*
X144363373Y-57887963D01*
X144193534Y-57836443D01*
X144037009Y-57752778D01*
X144001271Y-57723448D01*
X143899814Y-57640186D01*
X143816552Y-57538729D01*
X143787222Y-57502991D01*
X143703557Y-57346466D01*
X143652037Y-57176627D01*
X143634641Y-57000000D01*
X143652037Y-56823373D01*
X143703557Y-56653534D01*
X143787222Y-56497009D01*
X143816552Y-56461271D01*
X143899814Y-56359814D01*
X144001271Y-56276552D01*
X144037009Y-56247222D01*
X144193534Y-56163557D01*
X144363373Y-56112037D01*
X144429558Y-56105518D01*
X144495740Y-56099000D01*
X144584260Y-56099000D01*
X144650442Y-56105518D01*
X144650442Y-56105518D01*
G37*
G36*
X142901000Y-57901000D02*
G01*
X141099000Y-57901000D01*
X141099000Y-56099000D01*
X142901000Y-56099000D01*
X142901000Y-57901000D01*
X142901000Y-57901000D01*
G37*
G36*
X166224549Y-54871116D02*
G01*
X166335734Y-54893232D01*
X166545203Y-54979997D01*
X166733720Y-55105960D01*
X166894040Y-55266280D01*
X167020003Y-55454797D01*
X167106768Y-55664266D01*
X167151000Y-55886636D01*
X167151000Y-56113364D01*
X167106768Y-56335734D01*
X167020003Y-56545203D01*
X166894040Y-56733720D01*
X166733720Y-56894040D01*
X166545203Y-57020003D01*
X166335734Y-57106768D01*
X166224549Y-57128884D01*
X166113365Y-57151000D01*
X165886635Y-57151000D01*
X165775451Y-57128884D01*
X165664266Y-57106768D01*
X165454797Y-57020003D01*
X165266280Y-56894040D01*
X165105960Y-56733720D01*
X164979997Y-56545203D01*
X164893232Y-56335734D01*
X164849000Y-56113364D01*
X164849000Y-55886636D01*
X164893232Y-55664266D01*
X164979997Y-55454797D01*
X165105960Y-55266280D01*
X165266280Y-55105960D01*
X165454797Y-54979997D01*
X165664266Y-54893232D01*
X165775451Y-54871116D01*
X165886635Y-54849000D01*
X166113365Y-54849000D01*
X166224549Y-54871116D01*
X166224549Y-54871116D01*
G37*
G36*
X136224549Y-54871116D02*
G01*
X136335734Y-54893232D01*
X136545203Y-54979997D01*
X136733720Y-55105960D01*
X136894040Y-55266280D01*
X137020003Y-55454797D01*
X137106768Y-55664266D01*
X137151000Y-55886636D01*
X137151000Y-56113364D01*
X137106768Y-56335734D01*
X137020003Y-56545203D01*
X136894040Y-56733720D01*
X136733720Y-56894040D01*
X136545203Y-57020003D01*
X136335734Y-57106768D01*
X136224549Y-57128884D01*
X136113365Y-57151000D01*
X135886635Y-57151000D01*
X135775451Y-57128884D01*
X135664266Y-57106768D01*
X135454797Y-57020003D01*
X135266280Y-56894040D01*
X135105960Y-56733720D01*
X134979997Y-56545203D01*
X134893232Y-56335734D01*
X134849000Y-56113364D01*
X134849000Y-55886636D01*
X134893232Y-55664266D01*
X134979997Y-55454797D01*
X135105960Y-55266280D01*
X135266280Y-55105960D01*
X135454797Y-54979997D01*
X135664266Y-54893232D01*
X135775451Y-54871116D01*
X135886635Y-54849000D01*
X136113365Y-54849000D01*
X136224549Y-54871116D01*
X136224549Y-54871116D01*
G37*
G36*
X157350442Y-53565518D02*
G01*
X157416627Y-53572037D01*
X157586466Y-53623557D01*
X157742991Y-53707222D01*
X157778729Y-53736552D01*
X157880186Y-53819814D01*
X157963448Y-53921271D01*
X157992778Y-53957009D01*
X158076443Y-54113534D01*
X158127963Y-54283373D01*
X158145359Y-54460000D01*
X158127963Y-54636627D01*
X158076443Y-54806466D01*
X157992778Y-54962991D01*
X157978822Y-54979996D01*
X157880186Y-55100186D01*
X157778729Y-55183448D01*
X157742991Y-55212778D01*
X157586466Y-55296443D01*
X157416627Y-55347963D01*
X157350442Y-55354482D01*
X157284260Y-55361000D01*
X157195740Y-55361000D01*
X157129558Y-55354482D01*
X157063373Y-55347963D01*
X156893534Y-55296443D01*
X156737009Y-55212778D01*
X156701271Y-55183448D01*
X156599814Y-55100186D01*
X156501178Y-54979996D01*
X156487222Y-54962991D01*
X156403557Y-54806466D01*
X156352037Y-54636627D01*
X156334641Y-54460000D01*
X156352037Y-54283373D01*
X156403557Y-54113534D01*
X156487222Y-53957009D01*
X156516552Y-53921271D01*
X156599814Y-53819814D01*
X156701271Y-53736552D01*
X156737009Y-53707222D01*
X156893534Y-53623557D01*
X157063373Y-53572037D01*
X157129558Y-53565518D01*
X157195740Y-53559000D01*
X157284260Y-53559000D01*
X157350442Y-53565518D01*
X157350442Y-53565518D01*
G37*
G36*
X149730442Y-53565518D02*
G01*
X149796627Y-53572037D01*
X149966466Y-53623557D01*
X150122991Y-53707222D01*
X150158729Y-53736552D01*
X150260186Y-53819814D01*
X150343448Y-53921271D01*
X150372778Y-53957009D01*
X150456443Y-54113534D01*
X150507963Y-54283373D01*
X150525359Y-54460000D01*
X150507963Y-54636627D01*
X150456443Y-54806466D01*
X150372778Y-54962991D01*
X150358822Y-54979996D01*
X150260186Y-55100186D01*
X150158729Y-55183448D01*
X150122991Y-55212778D01*
X149966466Y-55296443D01*
X149796627Y-55347963D01*
X149730442Y-55354482D01*
X149664260Y-55361000D01*
X149575740Y-55361000D01*
X149509558Y-55354482D01*
X149443373Y-55347963D01*
X149273534Y-55296443D01*
X149117009Y-55212778D01*
X149081271Y-55183448D01*
X148979814Y-55100186D01*
X148881178Y-54979996D01*
X148867222Y-54962991D01*
X148783557Y-54806466D01*
X148732037Y-54636627D01*
X148714641Y-54460000D01*
X148732037Y-54283373D01*
X148783557Y-54113534D01*
X148867222Y-53957009D01*
X148896552Y-53921271D01*
X148979814Y-53819814D01*
X149081271Y-53736552D01*
X149117009Y-53707222D01*
X149273534Y-53623557D01*
X149443373Y-53572037D01*
X149509558Y-53565518D01*
X149575740Y-53559000D01*
X149664260Y-53559000D01*
X149730442Y-53565518D01*
X149730442Y-53565518D01*
G37*
G36*
X147190442Y-53565518D02*
G01*
X147256627Y-53572037D01*
X147426466Y-53623557D01*
X147582991Y-53707222D01*
X147618729Y-53736552D01*
X147720186Y-53819814D01*
X147803448Y-53921271D01*
X147832778Y-53957009D01*
X147916443Y-54113534D01*
X147967963Y-54283373D01*
X147985359Y-54460000D01*
X147967963Y-54636627D01*
X147916443Y-54806466D01*
X147832778Y-54962991D01*
X147818822Y-54979996D01*
X147720186Y-55100186D01*
X147618729Y-55183448D01*
X147582991Y-55212778D01*
X147426466Y-55296443D01*
X147256627Y-55347963D01*
X147190442Y-55354482D01*
X147124260Y-55361000D01*
X147035740Y-55361000D01*
X146969558Y-55354482D01*
X146903373Y-55347963D01*
X146733534Y-55296443D01*
X146577009Y-55212778D01*
X146541271Y-55183448D01*
X146439814Y-55100186D01*
X146341178Y-54979996D01*
X146327222Y-54962991D01*
X146243557Y-54806466D01*
X146192037Y-54636627D01*
X146174641Y-54460000D01*
X146192037Y-54283373D01*
X146243557Y-54113534D01*
X146327222Y-53957009D01*
X146356552Y-53921271D01*
X146439814Y-53819814D01*
X146541271Y-53736552D01*
X146577009Y-53707222D01*
X146733534Y-53623557D01*
X146903373Y-53572037D01*
X146969558Y-53565518D01*
X147035740Y-53559000D01*
X147124260Y-53559000D01*
X147190442Y-53565518D01*
X147190442Y-53565518D01*
G37*
G36*
X152270442Y-53565518D02*
G01*
X152336627Y-53572037D01*
X152506466Y-53623557D01*
X152662991Y-53707222D01*
X152698729Y-53736552D01*
X152800186Y-53819814D01*
X152883448Y-53921271D01*
X152912778Y-53957009D01*
X152996443Y-54113534D01*
X153047963Y-54283373D01*
X153065359Y-54460000D01*
X153047963Y-54636627D01*
X152996443Y-54806466D01*
X152912778Y-54962991D01*
X152898822Y-54979996D01*
X152800186Y-55100186D01*
X152698729Y-55183448D01*
X152662991Y-55212778D01*
X152506466Y-55296443D01*
X152336627Y-55347963D01*
X152270442Y-55354482D01*
X152204260Y-55361000D01*
X152115740Y-55361000D01*
X152049558Y-55354482D01*
X151983373Y-55347963D01*
X151813534Y-55296443D01*
X151657009Y-55212778D01*
X151621271Y-55183448D01*
X151519814Y-55100186D01*
X151421178Y-54979996D01*
X151407222Y-54962991D01*
X151323557Y-54806466D01*
X151272037Y-54636627D01*
X151254641Y-54460000D01*
X151272037Y-54283373D01*
X151323557Y-54113534D01*
X151407222Y-53957009D01*
X151436552Y-53921271D01*
X151519814Y-53819814D01*
X151621271Y-53736552D01*
X151657009Y-53707222D01*
X151813534Y-53623557D01*
X151983373Y-53572037D01*
X152049558Y-53565518D01*
X152115740Y-53559000D01*
X152204260Y-53559000D01*
X152270442Y-53565518D01*
X152270442Y-53565518D01*
G37*
G36*
X154810442Y-53565518D02*
G01*
X154876627Y-53572037D01*
X155046466Y-53623557D01*
X155202991Y-53707222D01*
X155238729Y-53736552D01*
X155340186Y-53819814D01*
X155423448Y-53921271D01*
X155452778Y-53957009D01*
X155536443Y-54113534D01*
X155587963Y-54283373D01*
X155605359Y-54460000D01*
X155587963Y-54636627D01*
X155536443Y-54806466D01*
X155452778Y-54962991D01*
X155438822Y-54979996D01*
X155340186Y-55100186D01*
X155238729Y-55183448D01*
X155202991Y-55212778D01*
X155046466Y-55296443D01*
X154876627Y-55347963D01*
X154810442Y-55354482D01*
X154744260Y-55361000D01*
X154655740Y-55361000D01*
X154589558Y-55354482D01*
X154523373Y-55347963D01*
X154353534Y-55296443D01*
X154197009Y-55212778D01*
X154161271Y-55183448D01*
X154059814Y-55100186D01*
X153961178Y-54979996D01*
X153947222Y-54962991D01*
X153863557Y-54806466D01*
X153812037Y-54636627D01*
X153794641Y-54460000D01*
X153812037Y-54283373D01*
X153863557Y-54113534D01*
X153947222Y-53957009D01*
X153976552Y-53921271D01*
X154059814Y-53819814D01*
X154161271Y-53736552D01*
X154197009Y-53707222D01*
X154353534Y-53623557D01*
X154523373Y-53572037D01*
X154589558Y-53565518D01*
X154655740Y-53559000D01*
X154744260Y-53559000D01*
X154810442Y-53565518D01*
X154810442Y-53565518D01*
G37*
G36*
X144650442Y-53565518D02*
G01*
X144716627Y-53572037D01*
X144886466Y-53623557D01*
X145042991Y-53707222D01*
X145078729Y-53736552D01*
X145180186Y-53819814D01*
X145263448Y-53921271D01*
X145292778Y-53957009D01*
X145376443Y-54113534D01*
X145427963Y-54283373D01*
X145445359Y-54460000D01*
X145427963Y-54636627D01*
X145376443Y-54806466D01*
X145292778Y-54962991D01*
X145278822Y-54979996D01*
X145180186Y-55100186D01*
X145078729Y-55183448D01*
X145042991Y-55212778D01*
X144886466Y-55296443D01*
X144716627Y-55347963D01*
X144650442Y-55354482D01*
X144584260Y-55361000D01*
X144495740Y-55361000D01*
X144429558Y-55354482D01*
X144363373Y-55347963D01*
X144193534Y-55296443D01*
X144037009Y-55212778D01*
X144001271Y-55183448D01*
X143899814Y-55100186D01*
X143801178Y-54979996D01*
X143787222Y-54962991D01*
X143703557Y-54806466D01*
X143652037Y-54636627D01*
X143634641Y-54460000D01*
X143652037Y-54283373D01*
X143703557Y-54113534D01*
X143787222Y-53957009D01*
X143816552Y-53921271D01*
X143899814Y-53819814D01*
X144001271Y-53736552D01*
X144037009Y-53707222D01*
X144193534Y-53623557D01*
X144363373Y-53572037D01*
X144429558Y-53565518D01*
X144495740Y-53559000D01*
X144584260Y-53559000D01*
X144650442Y-53565518D01*
X144650442Y-53565518D01*
G37*
G36*
X142110442Y-53565518D02*
G01*
X142176627Y-53572037D01*
X142346466Y-53623557D01*
X142502991Y-53707222D01*
X142538729Y-53736552D01*
X142640186Y-53819814D01*
X142723448Y-53921271D01*
X142752778Y-53957009D01*
X142836443Y-54113534D01*
X142887963Y-54283373D01*
X142905359Y-54460000D01*
X142887963Y-54636627D01*
X142836443Y-54806466D01*
X142752778Y-54962991D01*
X142738822Y-54979996D01*
X142640186Y-55100186D01*
X142538729Y-55183448D01*
X142502991Y-55212778D01*
X142346466Y-55296443D01*
X142176627Y-55347963D01*
X142110442Y-55354482D01*
X142044260Y-55361000D01*
X141955740Y-55361000D01*
X141889558Y-55354482D01*
X141823373Y-55347963D01*
X141653534Y-55296443D01*
X141497009Y-55212778D01*
X141461271Y-55183448D01*
X141359814Y-55100186D01*
X141261178Y-54979996D01*
X141247222Y-54962991D01*
X141163557Y-54806466D01*
X141112037Y-54636627D01*
X141094641Y-54460000D01*
X141112037Y-54283373D01*
X141163557Y-54113534D01*
X141247222Y-53957009D01*
X141276552Y-53921271D01*
X141359814Y-53819814D01*
X141461271Y-53736552D01*
X141497009Y-53707222D01*
X141653534Y-53623557D01*
X141823373Y-53572037D01*
X141889558Y-53565518D01*
X141955740Y-53559000D01*
X142044260Y-53559000D01*
X142110442Y-53565518D01*
X142110442Y-53565518D01*
G37*
G36*
X159890442Y-53565518D02*
G01*
X159956627Y-53572037D01*
X160126466Y-53623557D01*
X160282991Y-53707222D01*
X160318729Y-53736552D01*
X160420186Y-53819814D01*
X160503448Y-53921271D01*
X160532778Y-53957009D01*
X160616443Y-54113534D01*
X160667963Y-54283373D01*
X160685359Y-54460000D01*
X160667963Y-54636627D01*
X160616443Y-54806466D01*
X160532778Y-54962991D01*
X160518822Y-54979996D01*
X160420186Y-55100186D01*
X160318729Y-55183448D01*
X160282991Y-55212778D01*
X160126466Y-55296443D01*
X159956627Y-55347963D01*
X159890442Y-55354482D01*
X159824260Y-55361000D01*
X159735740Y-55361000D01*
X159669558Y-55354482D01*
X159603373Y-55347963D01*
X159433534Y-55296443D01*
X159277009Y-55212778D01*
X159241271Y-55183448D01*
X159139814Y-55100186D01*
X159041178Y-54979996D01*
X159027222Y-54962991D01*
X158943557Y-54806466D01*
X158892037Y-54636627D01*
X158874641Y-54460000D01*
X158892037Y-54283373D01*
X158943557Y-54113534D01*
X159027222Y-53957009D01*
X159056552Y-53921271D01*
X159139814Y-53819814D01*
X159241271Y-53736552D01*
X159277009Y-53707222D01*
X159433534Y-53623557D01*
X159603373Y-53572037D01*
X159669558Y-53565518D01*
X159735740Y-53559000D01*
X159824260Y-53559000D01*
X159890442Y-53565518D01*
X159890442Y-53565518D01*
G37*
M02*
