G04 #@! TF.GenerationSoftware,KiCad,Pcbnew,(5.1.2)-2*
G04 #@! TF.CreationDate,2019-08-20T02:28:55-06:00*
G04 #@! TF.ProjectId,pqfp_80_breakout,70716670-5f38-4305-9f62-7265616b6f75,rev?*
G04 #@! TF.SameCoordinates,Original*
G04 #@! TF.FileFunction,Copper,L1,Top*
G04 #@! TF.FilePolarity,Positive*
%FSLAX46Y46*%
G04 Gerber Fmt 4.6, Leading zero omitted, Abs format (unit mm)*
G04 Created by KiCad (PCBNEW (5.1.2)-2) date 2019-08-20 02:28:55*
%MOMM*%
%LPD*%
G04 APERTURE LIST*
%ADD10O,1.700000X1.700000*%
%ADD11R,1.700000X1.700000*%
%ADD12R,0.500000X1.300000*%
%ADD13R,1.300000X0.500000*%
%ADD14C,0.250000*%
G04 APERTURE END LIST*
D10*
X159780000Y-54460000D03*
X159780000Y-57000000D03*
X157240000Y-54460000D03*
X157240000Y-57000000D03*
X154700000Y-54460000D03*
X154700000Y-57000000D03*
X152160000Y-54460000D03*
X152160000Y-57000000D03*
X149620000Y-54460000D03*
X149620000Y-57000000D03*
X147080000Y-54460000D03*
X147080000Y-57000000D03*
X144540000Y-54460000D03*
X144540000Y-57000000D03*
X142000000Y-54460000D03*
D11*
X142000000Y-57000000D03*
D12*
X144650000Y-63100000D03*
X145450000Y-63100000D03*
X146250000Y-63100000D03*
X147050000Y-63100000D03*
X147850000Y-63100000D03*
X148650000Y-63100000D03*
X149450000Y-63100000D03*
X150250000Y-63100000D03*
X151050000Y-63100000D03*
X151850000Y-63100000D03*
X152650000Y-63100000D03*
X153450000Y-63100000D03*
X154250000Y-63100000D03*
X155050000Y-63100000D03*
X155850000Y-63100000D03*
X156650000Y-63100000D03*
D13*
X158800000Y-65050000D03*
X158800000Y-65850000D03*
X158800000Y-66650000D03*
X158800000Y-67450000D03*
X158800000Y-68250000D03*
X158800000Y-69050000D03*
X158800000Y-69850000D03*
X158800000Y-70650000D03*
X158800000Y-71450000D03*
X158800000Y-72250000D03*
X158800000Y-73050000D03*
X158800000Y-73850000D03*
X158800000Y-74650000D03*
X158800000Y-75450000D03*
X158800000Y-76250000D03*
X158800000Y-77050000D03*
X158800000Y-77850000D03*
X158800000Y-78650000D03*
X158800000Y-79450000D03*
X158800000Y-80250000D03*
X158800000Y-81050000D03*
X158800000Y-81850000D03*
X158800000Y-82650000D03*
X158800000Y-83450000D03*
D12*
X156650000Y-85400000D03*
X155850000Y-85400000D03*
X155050000Y-85400000D03*
X154250000Y-85400000D03*
X153450000Y-85400000D03*
X152650000Y-85400000D03*
X151850000Y-85400000D03*
X151050000Y-85400000D03*
X150250000Y-85400000D03*
X149450000Y-85400000D03*
X148650000Y-85400000D03*
X147850000Y-85400000D03*
X147050000Y-85400000D03*
X146250000Y-85400000D03*
X145450000Y-85400000D03*
X144650000Y-85400000D03*
D13*
X142500000Y-83450000D03*
X142500000Y-82650000D03*
X142500000Y-81850000D03*
X142500000Y-81050000D03*
X142500000Y-80250000D03*
X142500000Y-79450000D03*
X142500000Y-78650000D03*
X142500000Y-77850000D03*
X142500000Y-77050000D03*
X142500000Y-76250000D03*
X142500000Y-75450000D03*
X142500000Y-74650000D03*
X142500000Y-73850000D03*
X142500000Y-73050000D03*
X142500000Y-72250000D03*
X142500000Y-71450000D03*
X142500000Y-70650000D03*
X142500000Y-69850000D03*
X142500000Y-69050000D03*
X142500000Y-68250000D03*
X142500000Y-67450000D03*
X142500000Y-66650000D03*
X142500000Y-65850000D03*
X142500000Y-65050000D03*
D10*
X167540000Y-88940000D03*
X165000000Y-88940000D03*
X167540000Y-86400000D03*
X165000000Y-86400000D03*
X167540000Y-83860000D03*
X165000000Y-83860000D03*
X167540000Y-81320000D03*
X165000000Y-81320000D03*
X167540000Y-78780000D03*
X165000000Y-78780000D03*
X167540000Y-76240000D03*
X165000000Y-76240000D03*
X167540000Y-73700000D03*
X165000000Y-73700000D03*
X167540000Y-71160000D03*
X165000000Y-71160000D03*
X167540000Y-68620000D03*
X165000000Y-68620000D03*
X167540000Y-66080000D03*
X165000000Y-66080000D03*
X167540000Y-63540000D03*
X165000000Y-63540000D03*
X167540000Y-61000000D03*
D11*
X165000000Y-61000000D03*
D10*
X142220000Y-94540000D03*
X142220000Y-92000000D03*
X144760000Y-94540000D03*
X144760000Y-92000000D03*
X147300000Y-94540000D03*
X147300000Y-92000000D03*
X149840000Y-94540000D03*
X149840000Y-92000000D03*
X152380000Y-94540000D03*
X152380000Y-92000000D03*
X154920000Y-94540000D03*
X154920000Y-92000000D03*
X157460000Y-94540000D03*
X157460000Y-92000000D03*
X160000000Y-94540000D03*
D11*
X160000000Y-92000000D03*
D10*
X134460000Y-60760000D03*
X137000000Y-60760000D03*
X134460000Y-63300000D03*
X137000000Y-63300000D03*
X134460000Y-65840000D03*
X137000000Y-65840000D03*
X134460000Y-68380000D03*
X137000000Y-68380000D03*
X134460000Y-70920000D03*
X137000000Y-70920000D03*
X134460000Y-73460000D03*
X137000000Y-73460000D03*
X134460000Y-76000000D03*
X137000000Y-76000000D03*
X134460000Y-78540000D03*
X137000000Y-78540000D03*
X134460000Y-81080000D03*
X137000000Y-81080000D03*
X134460000Y-83620000D03*
X137000000Y-83620000D03*
X134460000Y-86160000D03*
X137000000Y-86160000D03*
X134460000Y-88700000D03*
D11*
X137000000Y-88700000D03*
D14*
X142500000Y-64550000D02*
X142500000Y-65050000D01*
X142500000Y-63910000D02*
X142500000Y-64550000D01*
X137980000Y-59390000D02*
X142500000Y-63910000D01*
X134460000Y-60760000D02*
X135830000Y-59390000D01*
X135830000Y-59390000D02*
X137980000Y-59390000D01*
X137840000Y-60760000D02*
X137000000Y-60760000D01*
X141120000Y-64040000D02*
X137840000Y-60760000D01*
X141120000Y-65330000D02*
X141120000Y-64040000D01*
X141540000Y-65750000D02*
X141120000Y-65330000D01*
X142582311Y-65914142D02*
X142418169Y-65750000D01*
X142418169Y-65750000D02*
X141540000Y-65750000D01*
X141600000Y-66650000D02*
X142500000Y-66650000D01*
X139930000Y-64980000D02*
X141600000Y-66650000D01*
X139930000Y-63840000D02*
X139930000Y-64980000D01*
X138120000Y-62030000D02*
X139930000Y-63840000D01*
X134460000Y-63300000D02*
X135730000Y-62030000D01*
X135730000Y-62030000D02*
X138120000Y-62030000D01*
X141600000Y-67450000D02*
X142500000Y-67450000D01*
X137000000Y-63300000D02*
X137450000Y-63300000D01*
X137450000Y-63300000D02*
X141600000Y-67450000D01*
X138014999Y-64664999D02*
X135635001Y-64664999D01*
X141600000Y-68250000D02*
X138014999Y-64664999D01*
X135635001Y-64664999D02*
X135309999Y-64990001D01*
X142500000Y-68250000D02*
X141600000Y-68250000D01*
X135309999Y-64990001D02*
X134460000Y-65840000D01*
X141550000Y-69050000D02*
X142500000Y-69050000D01*
X137000000Y-65840000D02*
X138340000Y-65840000D01*
X138340000Y-65840000D02*
X141550000Y-69050000D01*
X135309999Y-67530001D02*
X134460000Y-68380000D01*
X135635001Y-67204999D02*
X135309999Y-67530001D01*
X138954999Y-67204999D02*
X135635001Y-67204999D01*
X141600000Y-69850000D02*
X138954999Y-67204999D01*
X142500000Y-69850000D02*
X141600000Y-69850000D01*
X141210000Y-70650000D02*
X142500000Y-70650000D01*
X137000000Y-68380000D02*
X138940000Y-68380000D01*
X138940000Y-68380000D02*
X141210000Y-70650000D01*
X135309999Y-70070001D02*
X134460000Y-70920000D01*
X135635001Y-69744999D02*
X135309999Y-70070001D01*
X139014999Y-69744999D02*
X135635001Y-69744999D01*
X142500000Y-71450000D02*
X140720000Y-71450000D01*
X140720000Y-71450000D02*
X139014999Y-69744999D01*
X140170000Y-72250000D02*
X142500000Y-72250000D01*
X137000000Y-70920000D02*
X138840000Y-70920000D01*
X138840000Y-70920000D02*
X140170000Y-72250000D01*
X135309999Y-72610001D02*
X134460000Y-73460000D01*
X135635001Y-72284999D02*
X135309999Y-72610001D01*
X138414999Y-72284999D02*
X135635001Y-72284999D01*
X142500000Y-73050000D02*
X139180000Y-73050000D01*
X139180000Y-73050000D02*
X138414999Y-72284999D01*
X137390000Y-73850000D02*
X137000000Y-73460000D01*
X142500000Y-73850000D02*
X137390000Y-73850000D01*
X135810000Y-74650000D02*
X134460000Y-76000000D01*
X142500000Y-74650000D02*
X135810000Y-74650000D01*
X137550000Y-75450000D02*
X137000000Y-76000000D01*
X142500000Y-75450000D02*
X137550000Y-75450000D01*
X135309999Y-77690001D02*
X134460000Y-78540000D01*
X135635001Y-77364999D02*
X135309999Y-77690001D01*
X138060001Y-77364999D02*
X135635001Y-77364999D01*
X142500000Y-76250000D02*
X139175000Y-76250000D01*
X139175000Y-76250000D02*
X138060001Y-77364999D01*
X141600000Y-77050000D02*
X142500000Y-77050000D01*
X139692081Y-77050000D02*
X141600000Y-77050000D01*
X138202081Y-78540000D02*
X139692081Y-77050000D01*
X137000000Y-78540000D02*
X138202081Y-78540000D01*
X135309999Y-80230001D02*
X134460000Y-81080000D01*
X135635001Y-79904999D02*
X135309999Y-80230001D01*
X138095001Y-79904999D02*
X135635001Y-79904999D01*
X142500000Y-77850000D02*
X140150000Y-77850000D01*
X140150000Y-77850000D02*
X138095001Y-79904999D01*
X141600000Y-78650000D02*
X142500000Y-78650000D01*
X140632081Y-78650000D02*
X141600000Y-78650000D01*
X138202081Y-81080000D02*
X140632081Y-78650000D01*
X137000000Y-81080000D02*
X138202081Y-81080000D01*
X135309999Y-82770001D02*
X134460000Y-83620000D01*
X135635001Y-82444999D02*
X135309999Y-82770001D01*
X138055001Y-82444999D02*
X135635001Y-82444999D01*
X142500000Y-79450000D02*
X141050000Y-79450000D01*
X141050000Y-79450000D02*
X138055001Y-82444999D01*
X141600000Y-80250000D02*
X142500000Y-80250000D01*
X141572081Y-80250000D02*
X141600000Y-80250000D01*
X138202081Y-83620000D02*
X141572081Y-80250000D01*
X137000000Y-83620000D02*
X138202081Y-83620000D01*
X135309999Y-85310001D02*
X134460000Y-86160000D01*
X135635001Y-84984999D02*
X135309999Y-85310001D01*
X137665001Y-84984999D02*
X135635001Y-84984999D01*
X142500000Y-81050000D02*
X141600000Y-81050000D01*
X141600000Y-81050000D02*
X137665001Y-84984999D01*
X137290000Y-86160000D02*
X137000000Y-86160000D01*
X141600000Y-81850000D02*
X137290000Y-86160000D01*
X142500000Y-81850000D02*
X141600000Y-81850000D01*
X141600000Y-82650000D02*
X139940000Y-84310000D01*
X142500000Y-82650000D02*
X141600000Y-82650000D01*
X139940000Y-84310000D02*
X139940000Y-85520000D01*
X135309999Y-87850001D02*
X134460000Y-88700000D01*
X139940000Y-85520000D02*
X138070000Y-87390000D01*
X138070000Y-87390000D02*
X135770000Y-87390000D01*
X135770000Y-87390000D02*
X135309999Y-87850001D01*
X142500000Y-83950000D02*
X142500000Y-83450000D01*
X142500000Y-84300000D02*
X142500000Y-83950000D01*
X138100000Y-88700000D02*
X142500000Y-84300000D01*
X137000000Y-88700000D02*
X138100000Y-88700000D01*
X143550000Y-85400000D02*
X144650000Y-85400000D01*
X139800000Y-89150000D02*
X143550000Y-85400000D01*
X139800000Y-93600000D02*
X139800000Y-89150000D01*
X142220000Y-94540000D02*
X140740000Y-94540000D01*
X140740000Y-94540000D02*
X139800000Y-93600000D01*
X145450000Y-86330000D02*
X145450000Y-85400000D01*
X143069999Y-88710001D02*
X145450000Y-86330000D01*
X142220000Y-92000000D02*
X143069999Y-91150001D01*
X143069999Y-91150001D02*
X143069999Y-88710001D01*
X146250000Y-87290000D02*
X146250000Y-85400000D01*
X143584999Y-89955001D02*
X146250000Y-87290000D01*
X144760000Y-94540000D02*
X143584999Y-93364999D01*
X143584999Y-93364999D02*
X143584999Y-89955001D01*
X147050000Y-86300000D02*
X147050000Y-85400000D01*
X147050000Y-88507919D02*
X147050000Y-86300000D01*
X144760000Y-90797919D02*
X147050000Y-88507919D01*
X144760000Y-92000000D02*
X144760000Y-90797919D01*
X147850000Y-89150000D02*
X147850000Y-85400000D01*
X146000000Y-91000000D02*
X147850000Y-89150000D01*
X147300000Y-94540000D02*
X146000000Y-93240000D01*
X146000000Y-93240000D02*
X146000000Y-91000000D01*
X148650000Y-86300000D02*
X148650000Y-85400000D01*
X147300000Y-90797919D02*
X148650000Y-89447919D01*
X147300000Y-92000000D02*
X147300000Y-90797919D01*
X148650000Y-89447919D02*
X148650000Y-86300000D01*
X149450000Y-90050000D02*
X149450000Y-85400000D01*
X148555000Y-90945000D02*
X149450000Y-90050000D01*
X149840000Y-94540000D02*
X148555000Y-93255000D01*
X148555000Y-93255000D02*
X148555000Y-90945000D01*
X150250000Y-86300000D02*
X150250000Y-85400000D01*
X150250000Y-90387919D02*
X150250000Y-86300000D01*
X149840000Y-90797919D02*
X150250000Y-90387919D01*
X149840000Y-92000000D02*
X149840000Y-90797919D01*
X151050000Y-86300000D02*
X151050000Y-85400000D01*
X151050000Y-93179501D02*
X151050000Y-86300000D01*
X152380000Y-94540000D02*
X152380000Y-94509501D01*
X152380000Y-94509501D02*
X151050000Y-93179501D01*
X151850000Y-89650000D02*
X151850000Y-85400000D01*
X152380000Y-92000000D02*
X152380000Y-90180000D01*
X152380000Y-90180000D02*
X151850000Y-89650000D01*
X152650000Y-89190000D02*
X152650000Y-85400000D01*
X153700000Y-90240000D02*
X152650000Y-89190000D01*
X153700000Y-92519002D02*
X153700000Y-90240000D01*
X154920000Y-94540000D02*
X154920000Y-93739002D01*
X154920000Y-93739002D02*
X153700000Y-92519002D01*
X153450000Y-89130000D02*
X153450000Y-85400000D01*
X154920000Y-92000000D02*
X154920000Y-90600000D01*
X154920000Y-90600000D02*
X153450000Y-89130000D01*
X156610001Y-93690001D02*
X157460000Y-94540000D01*
X156200000Y-93280000D02*
X156610001Y-93690001D01*
X156200000Y-90950000D02*
X156200000Y-93280000D01*
X154250000Y-85400000D02*
X154250000Y-89000000D01*
X154250000Y-89000000D02*
X156200000Y-90950000D01*
X155050000Y-86300000D02*
X155050000Y-85400000D01*
X155050000Y-88790000D02*
X155050000Y-86300000D01*
X157460000Y-92000000D02*
X157460000Y-91200000D01*
X157460000Y-91200000D02*
X155050000Y-88790000D01*
X155850000Y-88060000D02*
X155850000Y-85400000D01*
X158700000Y-90910000D02*
X155850000Y-88060000D01*
X160000000Y-94540000D02*
X158700000Y-93240000D01*
X158700000Y-93240000D02*
X158700000Y-90910000D01*
X157150000Y-85400000D02*
X156650000Y-85400000D01*
X160000000Y-88250000D02*
X157150000Y-85400000D01*
X160000000Y-92000000D02*
X160000000Y-88250000D01*
X158800000Y-83950000D02*
X158800000Y-83450000D01*
X158800000Y-84690000D02*
X158800000Y-83950000D01*
X164400000Y-90290000D02*
X158800000Y-84690000D01*
X167540000Y-88940000D02*
X166190000Y-90290000D01*
X166190000Y-90290000D02*
X164400000Y-90290000D01*
X159700000Y-82650000D02*
X158800000Y-82650000D01*
X160470000Y-83420000D02*
X159700000Y-82650000D01*
X160470000Y-84990000D02*
X160470000Y-83420000D01*
X165000000Y-88940000D02*
X164420000Y-88940000D01*
X164420000Y-88940000D02*
X160470000Y-84990000D01*
X159700000Y-81850000D02*
X158800000Y-81850000D01*
X161120000Y-83270000D02*
X159700000Y-81850000D01*
X161120000Y-84610000D02*
X161120000Y-83270000D01*
X164220000Y-87710000D02*
X161120000Y-84610000D01*
X167540000Y-86400000D02*
X166230000Y-87710000D01*
X166230000Y-87710000D02*
X164220000Y-87710000D01*
X159650000Y-81050000D02*
X158800000Y-81050000D01*
X165000000Y-86400000D02*
X159650000Y-81050000D01*
X160270000Y-80250000D02*
X158800000Y-80250000D01*
X162960000Y-82940000D02*
X160270000Y-80250000D01*
X162960000Y-83510000D02*
X162960000Y-82940000D01*
X164610000Y-85160000D02*
X162960000Y-83510000D01*
X167540000Y-83860000D02*
X166240000Y-85160000D01*
X166240000Y-85160000D02*
X164610000Y-85160000D01*
X160590000Y-79450000D02*
X158800000Y-79450000D01*
X165000000Y-83860000D02*
X160590000Y-79450000D01*
X160650000Y-78650000D02*
X158800000Y-78650000D01*
X164630000Y-82630000D02*
X160650000Y-78650000D01*
X167540000Y-81320000D02*
X166230000Y-82630000D01*
X166230000Y-82630000D02*
X164630000Y-82630000D01*
X165000000Y-81320000D02*
X164320000Y-81320000D01*
X159700000Y-77850000D02*
X158800000Y-77850000D01*
X160850000Y-77850000D02*
X159700000Y-77850000D01*
X164320000Y-81320000D02*
X160850000Y-77850000D01*
X164090000Y-80090000D02*
X161050000Y-77050000D01*
X161050000Y-77050000D02*
X158800000Y-77050000D01*
X167540000Y-78780000D02*
X166230000Y-80090000D01*
X166230000Y-80090000D02*
X164090000Y-80090000D01*
X161250000Y-76250000D02*
X159700000Y-76250000D01*
X159700000Y-76250000D02*
X158800000Y-76250000D01*
X165000000Y-78780000D02*
X163780000Y-78780000D01*
X163780000Y-78780000D02*
X161250000Y-76250000D01*
X161575000Y-75450000D02*
X158800000Y-75450000D01*
X163665000Y-77540000D02*
X161575000Y-75450000D01*
X167540000Y-76240000D02*
X166240000Y-77540000D01*
X166240000Y-77540000D02*
X163665000Y-77540000D01*
X162070000Y-74650000D02*
X158800000Y-74650000D01*
X165000000Y-76240000D02*
X163660000Y-76240000D01*
X163660000Y-76240000D02*
X162070000Y-74650000D01*
X162660000Y-73850000D02*
X158800000Y-73850000D01*
X163810000Y-75000000D02*
X162660000Y-73850000D01*
X167540000Y-73700000D02*
X166240000Y-75000000D01*
X166240000Y-75000000D02*
X163810000Y-75000000D01*
X163840000Y-73700000D02*
X165000000Y-73700000D01*
X158800000Y-73050000D02*
X163190000Y-73050000D01*
X163190000Y-73050000D02*
X163840000Y-73700000D01*
X159700000Y-72250000D02*
X158800000Y-72250000D01*
X159910000Y-72460000D02*
X159700000Y-72250000D01*
X167540000Y-71160000D02*
X166240000Y-72460000D01*
X166240000Y-72460000D02*
X159910000Y-72460000D01*
X159700000Y-71450000D02*
X158800000Y-71450000D01*
X163180000Y-71450000D02*
X159700000Y-71450000D01*
X165000000Y-71160000D02*
X163470000Y-71160000D01*
X163470000Y-71160000D02*
X163180000Y-71450000D01*
X159700000Y-70650000D02*
X158800000Y-70650000D01*
X162810000Y-70650000D02*
X159700000Y-70650000D01*
X163560000Y-69900000D02*
X162810000Y-70650000D01*
X167540000Y-68620000D02*
X166260000Y-69900000D01*
X166260000Y-69900000D02*
X163560000Y-69900000D01*
X162260000Y-69850000D02*
X158800000Y-69850000D01*
X163110000Y-69000000D02*
X162260000Y-69850000D01*
X165000000Y-68620000D02*
X164620000Y-69000000D01*
X164620000Y-69000000D02*
X163110000Y-69000000D01*
X161720000Y-69050000D02*
X158800000Y-69050000D01*
X163470000Y-67300000D02*
X161720000Y-69050000D01*
X167540000Y-66080000D02*
X166320000Y-67300000D01*
X166320000Y-67300000D02*
X163470000Y-67300000D01*
X161520000Y-68250000D02*
X158800000Y-68250000D01*
X165000000Y-66080000D02*
X163690000Y-66080000D01*
X163690000Y-66080000D02*
X161520000Y-68250000D01*
X161150000Y-67450000D02*
X158800000Y-67450000D01*
X163800000Y-64800000D02*
X161150000Y-67450000D01*
X167540000Y-63540000D02*
X166280000Y-64800000D01*
X166280000Y-64800000D02*
X163800000Y-64800000D01*
X160990000Y-66650000D02*
X158800000Y-66650000D01*
X165000000Y-63540000D02*
X164100000Y-63540000D01*
X164100000Y-63540000D02*
X160990000Y-66650000D01*
X160650000Y-65850000D02*
X158800000Y-65850000D01*
X164220000Y-62280000D02*
X160650000Y-65850000D01*
X167540000Y-61000000D02*
X166260000Y-62280000D01*
X166260000Y-62280000D02*
X164220000Y-62280000D01*
X158800000Y-64550000D02*
X158800000Y-65050000D01*
X162350000Y-61000000D02*
X158800000Y-64550000D01*
X165000000Y-61000000D02*
X162350000Y-61000000D01*
X160629999Y-55309999D02*
X159780000Y-54460000D01*
X161200000Y-55880000D02*
X160629999Y-55309999D01*
X161200000Y-59050000D02*
X161200000Y-55880000D01*
X156650000Y-63100000D02*
X157150000Y-63100000D01*
X157150000Y-63100000D02*
X161200000Y-59050000D01*
X159780000Y-58202081D02*
X159780000Y-57000000D01*
X159780000Y-58270000D02*
X159780000Y-58202081D01*
X155850000Y-62200000D02*
X159780000Y-58270000D01*
X155850000Y-63100000D02*
X155850000Y-62200000D01*
X158089999Y-55309999D02*
X157240000Y-54460000D01*
X158500000Y-55720000D02*
X158089999Y-55309999D01*
X158500000Y-57900000D02*
X158500000Y-55720000D01*
X155050000Y-63100000D02*
X155050000Y-61350000D01*
X155050000Y-61350000D02*
X158500000Y-57900000D01*
X157240000Y-57720000D02*
X157240000Y-57000000D01*
X154250000Y-63100000D02*
X154250000Y-60710000D01*
X154250000Y-60710000D02*
X157240000Y-57720000D01*
X155549999Y-55309999D02*
X154700000Y-54460000D01*
X156000000Y-55760000D02*
X155549999Y-55309999D01*
X156000000Y-57600000D02*
X156000000Y-55760000D01*
X153450000Y-63100000D02*
X153450000Y-60150000D01*
X153450000Y-60150000D02*
X156000000Y-57600000D01*
X154700000Y-57400000D02*
X154700000Y-57000000D01*
X152650000Y-63100000D02*
X152650000Y-59450000D01*
X152650000Y-59450000D02*
X154700000Y-57400000D01*
X153009999Y-55309999D02*
X152160000Y-54460000D01*
X153400000Y-55700000D02*
X153009999Y-55309999D01*
X153400000Y-57700000D02*
X153400000Y-55700000D01*
X151850000Y-63100000D02*
X151850000Y-59250000D01*
X151850000Y-59250000D02*
X153400000Y-57700000D01*
X151050000Y-59212592D02*
X151050000Y-62200000D01*
X151050000Y-62200000D02*
X151050000Y-63100000D01*
X152160000Y-58102592D02*
X151050000Y-59212592D01*
X152160000Y-57000000D02*
X152160000Y-58102592D01*
X150469999Y-55309999D02*
X149620000Y-54460000D01*
X150900000Y-55740000D02*
X150469999Y-55309999D01*
X150900000Y-57900000D02*
X150900000Y-55740000D01*
X150250000Y-63100000D02*
X150250000Y-58550000D01*
X150250000Y-58550000D02*
X150900000Y-57900000D01*
X149450000Y-57170000D02*
X149620000Y-57000000D01*
X149450000Y-63100000D02*
X149450000Y-57170000D01*
X147929999Y-55309999D02*
X147080000Y-54460000D01*
X148400000Y-55780000D02*
X147929999Y-55309999D01*
X148400000Y-61950000D02*
X148400000Y-55780000D01*
X148650000Y-63100000D02*
X148650000Y-62200000D01*
X148650000Y-62200000D02*
X148400000Y-61950000D01*
X147850000Y-58960000D02*
X147850000Y-63100000D01*
X147080000Y-57000000D02*
X147080000Y-58190000D01*
X147080000Y-58190000D02*
X147850000Y-58960000D01*
X147050000Y-60200000D02*
X147050000Y-63100000D01*
X145800000Y-58950000D02*
X147050000Y-60200000D01*
X144540000Y-54460000D02*
X145800000Y-55720000D01*
X145800000Y-55720000D02*
X145800000Y-58950000D01*
X146250000Y-62200000D02*
X146250000Y-63100000D01*
X146250000Y-61030000D02*
X146250000Y-62200000D01*
X144540000Y-57000000D02*
X144540000Y-59320000D01*
X144540000Y-59320000D02*
X146250000Y-61030000D01*
X145450000Y-61730000D02*
X145450000Y-63100000D01*
X143300000Y-59580000D02*
X145450000Y-61730000D01*
X142000000Y-54460000D02*
X143300000Y-55760000D01*
X143300000Y-55760000D02*
X143300000Y-59580000D01*
X144150000Y-63100000D02*
X144650000Y-63100000D01*
X142000000Y-60950000D02*
X144150000Y-63100000D01*
X142000000Y-57000000D02*
X142000000Y-60950000D01*
M02*
