G04 #@! TF.GenerationSoftware,KiCad,Pcbnew,(5.1.2)-2*
G04 #@! TF.CreationDate,2019-08-20T02:28:55-06:00*
G04 #@! TF.ProjectId,pqfp_80_breakout,70716670-5f38-4305-9f62-7265616b6f75,rev?*
G04 #@! TF.SameCoordinates,Original*
G04 #@! TF.FileFunction,Legend,Top*
G04 #@! TF.FilePolarity,Positive*
%FSLAX46Y46*%
G04 Gerber Fmt 4.6, Leading zero omitted, Abs format (unit mm)*
G04 Created by KiCad (PCBNEW (5.1.2)-2) date 2019-08-20 02:28:55*
%MOMM*%
%LPD*%
G04 APERTURE LIST*
%ADD10C,0.125000*%
%ADD11C,0.120000*%
%ADD12C,0.150000*%
G04 APERTURE END LIST*
D10*
X154507142Y-90226190D02*
X154507142Y-89726190D01*
X154792857Y-90226190D01*
X154792857Y-89726190D01*
X155316666Y-90178571D02*
X155292857Y-90202380D01*
X155221428Y-90226190D01*
X155173809Y-90226190D01*
X155102380Y-90202380D01*
X155054761Y-90154761D01*
X155030952Y-90107142D01*
X155007142Y-90011904D01*
X155007142Y-89940476D01*
X155030952Y-89845238D01*
X155054761Y-89797619D01*
X155102380Y-89750000D01*
X155173809Y-89726190D01*
X155221428Y-89726190D01*
X155292857Y-89750000D01*
X155316666Y-89773809D01*
X154707142Y-96626190D02*
X154707142Y-96126190D01*
X154992857Y-96626190D01*
X154992857Y-96126190D01*
X155516666Y-96578571D02*
X155492857Y-96602380D01*
X155421428Y-96626190D01*
X155373809Y-96626190D01*
X155302380Y-96602380D01*
X155254761Y-96554761D01*
X155230952Y-96507142D01*
X155207142Y-96411904D01*
X155207142Y-96340476D01*
X155230952Y-96245238D01*
X155254761Y-96197619D01*
X155302380Y-96150000D01*
X155373809Y-96126190D01*
X155421428Y-96126190D01*
X155492857Y-96150000D01*
X155516666Y-96173809D01*
X159233333Y-89726190D02*
X159400000Y-90226190D01*
X159566666Y-89726190D01*
X159733333Y-90226190D02*
X159733333Y-89726190D01*
X159923809Y-89726190D01*
X159971428Y-89750000D01*
X159995238Y-89773809D01*
X160019047Y-89821428D01*
X160019047Y-89892857D01*
X159995238Y-89940476D01*
X159971428Y-89964285D01*
X159923809Y-89988095D01*
X159733333Y-89988095D01*
X160233333Y-90226190D02*
X160233333Y-89726190D01*
X160423809Y-89726190D01*
X160471428Y-89750000D01*
X160495238Y-89773809D01*
X160519047Y-89821428D01*
X160519047Y-89892857D01*
X160495238Y-89940476D01*
X160471428Y-89964285D01*
X160423809Y-89988095D01*
X160233333Y-89988095D01*
X161738095Y-96226190D02*
X161738095Y-95726190D01*
X161857142Y-95726190D01*
X161928571Y-95750000D01*
X161976190Y-95797619D01*
X162000000Y-95845238D01*
X162023809Y-95940476D01*
X162023809Y-96011904D01*
X162000000Y-96107142D01*
X161976190Y-96154761D01*
X161928571Y-96202380D01*
X161857142Y-96226190D01*
X161738095Y-96226190D01*
X162238095Y-96226190D02*
X162238095Y-95726190D01*
X162571428Y-95726190D02*
X162666666Y-95726190D01*
X162714285Y-95750000D01*
X162761904Y-95797619D01*
X162785714Y-95892857D01*
X162785714Y-96059523D01*
X162761904Y-96154761D01*
X162714285Y-96202380D01*
X162666666Y-96226190D01*
X162571428Y-96226190D01*
X162523809Y-96202380D01*
X162476190Y-96154761D01*
X162452380Y-96059523D01*
X162452380Y-95892857D01*
X162476190Y-95797619D01*
X162523809Y-95750000D01*
X162571428Y-95726190D01*
X163166666Y-95964285D02*
X163238095Y-95988095D01*
X163261904Y-96011904D01*
X163285714Y-96059523D01*
X163285714Y-96130952D01*
X163261904Y-96178571D01*
X163238095Y-96202380D01*
X163190476Y-96226190D01*
X163000000Y-96226190D01*
X163000000Y-95726190D01*
X163166666Y-95726190D01*
X163214285Y-95750000D01*
X163238095Y-95773809D01*
X163261904Y-95821428D01*
X163261904Y-95869047D01*
X163238095Y-95916666D01*
X163214285Y-95940476D01*
X163166666Y-95964285D01*
X163000000Y-95964285D01*
X157328571Y-90226190D02*
X157090476Y-90226190D01*
X157090476Y-89726190D01*
X157495238Y-89964285D02*
X157661904Y-89964285D01*
X157733333Y-90226190D02*
X157495238Y-90226190D01*
X157495238Y-89726190D01*
X157733333Y-89726190D01*
X157202380Y-96578571D02*
X157178571Y-96602380D01*
X157107142Y-96626190D01*
X157059523Y-96626190D01*
X156988095Y-96602380D01*
X156940476Y-96554761D01*
X156916666Y-96507142D01*
X156892857Y-96411904D01*
X156892857Y-96340476D01*
X156916666Y-96245238D01*
X156940476Y-96197619D01*
X156988095Y-96150000D01*
X157059523Y-96126190D01*
X157107142Y-96126190D01*
X157178571Y-96150000D01*
X157202380Y-96173809D01*
X157654761Y-96626190D02*
X157416666Y-96626190D01*
X157416666Y-96126190D01*
X157821428Y-96626190D02*
X157821428Y-96126190D01*
X158107142Y-96626190D02*
X157892857Y-96340476D01*
X158107142Y-96126190D02*
X157821428Y-96411904D01*
X144507142Y-90226190D02*
X144507142Y-89726190D01*
X144792857Y-90226190D01*
X144792857Y-89726190D01*
X145316666Y-90178571D02*
X145292857Y-90202380D01*
X145221428Y-90226190D01*
X145173809Y-90226190D01*
X145102380Y-90202380D01*
X145054761Y-90154761D01*
X145030952Y-90107142D01*
X145007142Y-90011904D01*
X145007142Y-89940476D01*
X145030952Y-89845238D01*
X145054761Y-89797619D01*
X145102380Y-89750000D01*
X145173809Y-89726190D01*
X145221428Y-89726190D01*
X145292857Y-89750000D01*
X145316666Y-89773809D01*
X144307142Y-96626190D02*
X144307142Y-96126190D01*
X144592857Y-96626190D01*
X144592857Y-96126190D01*
X145116666Y-96578571D02*
X145092857Y-96602380D01*
X145021428Y-96626190D01*
X144973809Y-96626190D01*
X144902380Y-96602380D01*
X144854761Y-96554761D01*
X144830952Y-96507142D01*
X144807142Y-96411904D01*
X144807142Y-96340476D01*
X144830952Y-96245238D01*
X144854761Y-96197619D01*
X144902380Y-96150000D01*
X144973809Y-96126190D01*
X145021428Y-96126190D01*
X145092857Y-96150000D01*
X145116666Y-96173809D01*
X151180952Y-90226190D02*
X151180952Y-89726190D01*
X151180952Y-89964285D02*
X151466666Y-89964285D01*
X151466666Y-90226190D02*
X151466666Y-89726190D01*
X151633333Y-89726190D02*
X151800000Y-90226190D01*
X151966666Y-89726190D01*
X152395238Y-89750000D02*
X152347619Y-89726190D01*
X152276190Y-89726190D01*
X152204761Y-89750000D01*
X152157142Y-89797619D01*
X152133333Y-89845238D01*
X152109523Y-89940476D01*
X152109523Y-90011904D01*
X152133333Y-90107142D01*
X152157142Y-90154761D01*
X152204761Y-90202380D01*
X152276190Y-90226190D01*
X152323809Y-90226190D01*
X152395238Y-90202380D01*
X152419047Y-90178571D01*
X152419047Y-90011904D01*
X152323809Y-90011904D01*
X152633333Y-90226190D02*
X152633333Y-89726190D01*
X152919047Y-90226190D01*
X152919047Y-89726190D01*
X153157142Y-90226190D02*
X153157142Y-89726190D01*
X153276190Y-89726190D01*
X153347619Y-89750000D01*
X153395238Y-89797619D01*
X153419047Y-89845238D01*
X153442857Y-89940476D01*
X153442857Y-90011904D01*
X153419047Y-90107142D01*
X153395238Y-90154761D01*
X153347619Y-90202380D01*
X153276190Y-90226190D01*
X153157142Y-90226190D01*
X151919047Y-96150000D02*
X151871428Y-96126190D01*
X151800000Y-96126190D01*
X151728571Y-96150000D01*
X151680952Y-96197619D01*
X151657142Y-96245238D01*
X151633333Y-96340476D01*
X151633333Y-96411904D01*
X151657142Y-96507142D01*
X151680952Y-96554761D01*
X151728571Y-96602380D01*
X151800000Y-96626190D01*
X151847619Y-96626190D01*
X151919047Y-96602380D01*
X151942857Y-96578571D01*
X151942857Y-96411904D01*
X151847619Y-96411904D01*
X152157142Y-96626190D02*
X152157142Y-96126190D01*
X152442857Y-96626190D01*
X152442857Y-96126190D01*
X152680952Y-96626190D02*
X152680952Y-96126190D01*
X152800000Y-96126190D01*
X152871428Y-96150000D01*
X152919047Y-96197619D01*
X152942857Y-96245238D01*
X152966666Y-96340476D01*
X152966666Y-96411904D01*
X152942857Y-96507142D01*
X152919047Y-96554761D01*
X152871428Y-96602380D01*
X152800000Y-96626190D01*
X152680952Y-96626190D01*
X149300000Y-90226190D02*
X149300000Y-89726190D01*
X149419047Y-89726190D01*
X149490476Y-89750000D01*
X149538095Y-89797619D01*
X149561904Y-89845238D01*
X149585714Y-89940476D01*
X149585714Y-90011904D01*
X149561904Y-90107142D01*
X149538095Y-90154761D01*
X149490476Y-90202380D01*
X149419047Y-90226190D01*
X149300000Y-90226190D01*
X149800000Y-90226190D02*
X149800000Y-89726190D01*
X150323809Y-90226190D02*
X150157142Y-89988095D01*
X150038095Y-90226190D02*
X150038095Y-89726190D01*
X150228571Y-89726190D01*
X150276190Y-89750000D01*
X150300000Y-89773809D01*
X150323809Y-89821428D01*
X150323809Y-89892857D01*
X150300000Y-89940476D01*
X150276190Y-89964285D01*
X150228571Y-89988095D01*
X150038095Y-89988095D01*
X149233333Y-96126190D02*
X149400000Y-96626190D01*
X149566666Y-96126190D01*
X149733333Y-96626190D02*
X149733333Y-96126190D01*
X149852380Y-96126190D01*
X149923809Y-96150000D01*
X149971428Y-96197619D01*
X149995238Y-96245238D01*
X150019047Y-96340476D01*
X150019047Y-96411904D01*
X149995238Y-96507142D01*
X149971428Y-96554761D01*
X149923809Y-96602380D01*
X149852380Y-96626190D01*
X149733333Y-96626190D01*
X150233333Y-96626190D02*
X150233333Y-96126190D01*
X150352380Y-96126190D01*
X150423809Y-96150000D01*
X150471428Y-96197619D01*
X150495238Y-96245238D01*
X150519047Y-96340476D01*
X150519047Y-96411904D01*
X150495238Y-96507142D01*
X150471428Y-96554761D01*
X150423809Y-96602380D01*
X150352380Y-96626190D01*
X150233333Y-96626190D01*
X146704761Y-90226190D02*
X146704761Y-89726190D01*
X146895238Y-89726190D01*
X146942857Y-89750000D01*
X146966666Y-89773809D01*
X146990476Y-89821428D01*
X146990476Y-89892857D01*
X146966666Y-89940476D01*
X146942857Y-89964285D01*
X146895238Y-89988095D01*
X146704761Y-89988095D01*
X147300000Y-89726190D02*
X147395238Y-89726190D01*
X147442857Y-89750000D01*
X147490476Y-89797619D01*
X147514285Y-89892857D01*
X147514285Y-90059523D01*
X147490476Y-90154761D01*
X147442857Y-90202380D01*
X147395238Y-90226190D01*
X147300000Y-90226190D01*
X147252380Y-90202380D01*
X147204761Y-90154761D01*
X147180952Y-90059523D01*
X147180952Y-89892857D01*
X147204761Y-89797619D01*
X147252380Y-89750000D01*
X147300000Y-89726190D01*
X147966666Y-90226190D02*
X147728571Y-90226190D01*
X147728571Y-89726190D01*
X147133333Y-96364285D02*
X147204761Y-96388095D01*
X147228571Y-96411904D01*
X147252380Y-96459523D01*
X147252380Y-96530952D01*
X147228571Y-96578571D01*
X147204761Y-96602380D01*
X147157142Y-96626190D01*
X146966666Y-96626190D01*
X146966666Y-96126190D01*
X147133333Y-96126190D01*
X147180952Y-96150000D01*
X147204761Y-96173809D01*
X147228571Y-96221428D01*
X147228571Y-96269047D01*
X147204761Y-96316666D01*
X147180952Y-96340476D01*
X147133333Y-96364285D01*
X146966666Y-96364285D01*
X147704761Y-96626190D02*
X147466666Y-96626190D01*
X147466666Y-96126190D01*
X138773809Y-93226190D02*
X138773809Y-92726190D01*
X138892857Y-92726190D01*
X138964285Y-92750000D01*
X139011904Y-92797619D01*
X139035714Y-92845238D01*
X139059523Y-92940476D01*
X139059523Y-93011904D01*
X139035714Y-93107142D01*
X139011904Y-93154761D01*
X138964285Y-93202380D01*
X138892857Y-93226190D01*
X138773809Y-93226190D01*
X139273809Y-93226190D02*
X139273809Y-92726190D01*
X139607142Y-92726190D02*
X139702380Y-92726190D01*
X139750000Y-92750000D01*
X139797619Y-92797619D01*
X139821428Y-92892857D01*
X139821428Y-93059523D01*
X139797619Y-93154761D01*
X139750000Y-93202380D01*
X139702380Y-93226190D01*
X139607142Y-93226190D01*
X139559523Y-93202380D01*
X139511904Y-93154761D01*
X139488095Y-93059523D01*
X139488095Y-92892857D01*
X139511904Y-92797619D01*
X139559523Y-92750000D01*
X139607142Y-92726190D01*
X140011904Y-93083333D02*
X140250000Y-93083333D01*
X139964285Y-93226190D02*
X140130952Y-92726190D01*
X140297619Y-93226190D01*
X138833333Y-95526190D02*
X139000000Y-96026190D01*
X139166666Y-95526190D01*
X139333333Y-96026190D02*
X139333333Y-95526190D01*
X139523809Y-95526190D01*
X139571428Y-95550000D01*
X139595238Y-95573809D01*
X139619047Y-95621428D01*
X139619047Y-95692857D01*
X139595238Y-95740476D01*
X139571428Y-95764285D01*
X139523809Y-95788095D01*
X139333333Y-95788095D01*
X139833333Y-96026190D02*
X139833333Y-95526190D01*
X140023809Y-95526190D01*
X140071428Y-95550000D01*
X140095238Y-95573809D01*
X140119047Y-95621428D01*
X140119047Y-95692857D01*
X140095238Y-95740476D01*
X140071428Y-95764285D01*
X140023809Y-95788095D01*
X139833333Y-95788095D01*
X146071428Y-73639880D02*
X146071428Y-72639880D01*
X146642857Y-72639880D01*
X146785714Y-72687500D01*
X146857142Y-72735119D01*
X146928571Y-72830357D01*
X146928571Y-72973214D01*
X146857142Y-73068452D01*
X146785714Y-73116071D01*
X146642857Y-73163690D01*
X146071428Y-73163690D01*
X148571428Y-73735119D02*
X148428571Y-73687500D01*
X148285714Y-73592261D01*
X148071428Y-73449404D01*
X147928571Y-73401785D01*
X147785714Y-73401785D01*
X147857142Y-73639880D02*
X147714285Y-73592261D01*
X147571428Y-73497023D01*
X147500000Y-73306547D01*
X147500000Y-72973214D01*
X147571428Y-72782738D01*
X147714285Y-72687500D01*
X147857142Y-72639880D01*
X148142857Y-72639880D01*
X148285714Y-72687500D01*
X148428571Y-72782738D01*
X148500000Y-72973214D01*
X148500000Y-73306547D01*
X148428571Y-73497023D01*
X148285714Y-73592261D01*
X148142857Y-73639880D01*
X147857142Y-73639880D01*
X149642857Y-73116071D02*
X149142857Y-73116071D01*
X149142857Y-73639880D02*
X149142857Y-72639880D01*
X149857142Y-72639880D01*
X150428571Y-73639880D02*
X150428571Y-72639880D01*
X151000000Y-72639880D01*
X151142857Y-72687500D01*
X151214285Y-72735119D01*
X151285714Y-72830357D01*
X151285714Y-72973214D01*
X151214285Y-73068452D01*
X151142857Y-73116071D01*
X151000000Y-73163690D01*
X150428571Y-73163690D01*
X151928571Y-73258928D02*
X153071428Y-73258928D01*
X154000000Y-73068452D02*
X153857142Y-73020833D01*
X153785714Y-72973214D01*
X153714285Y-72877976D01*
X153714285Y-72830357D01*
X153785714Y-72735119D01*
X153857142Y-72687500D01*
X154000000Y-72639880D01*
X154285714Y-72639880D01*
X154428571Y-72687500D01*
X154500000Y-72735119D01*
X154571428Y-72830357D01*
X154571428Y-72877976D01*
X154500000Y-72973214D01*
X154428571Y-73020833D01*
X154285714Y-73068452D01*
X154000000Y-73068452D01*
X153857142Y-73116071D01*
X153785714Y-73163690D01*
X153714285Y-73258928D01*
X153714285Y-73449404D01*
X153785714Y-73544642D01*
X153857142Y-73592261D01*
X154000000Y-73639880D01*
X154285714Y-73639880D01*
X154428571Y-73592261D01*
X154500000Y-73544642D01*
X154571428Y-73449404D01*
X154571428Y-73258928D01*
X154500000Y-73163690D01*
X154428571Y-73116071D01*
X154285714Y-73068452D01*
X155500000Y-72639880D02*
X155642857Y-72639880D01*
X155785714Y-72687500D01*
X155857142Y-72735119D01*
X155928571Y-72830357D01*
X156000000Y-73020833D01*
X156000000Y-73258928D01*
X155928571Y-73449404D01*
X155857142Y-73544642D01*
X155785714Y-73592261D01*
X155642857Y-73639880D01*
X155500000Y-73639880D01*
X155357142Y-73592261D01*
X155285714Y-73544642D01*
X155214285Y-73449404D01*
X155142857Y-73258928D01*
X155142857Y-73020833D01*
X155214285Y-72830357D01*
X155285714Y-72735119D01*
X155357142Y-72687500D01*
X155500000Y-72639880D01*
X147857142Y-74264880D02*
X148000000Y-74264880D01*
X148142857Y-74312500D01*
X148214285Y-74360119D01*
X148285714Y-74455357D01*
X148357142Y-74645833D01*
X148357142Y-74883928D01*
X148285714Y-75074404D01*
X148214285Y-75169642D01*
X148142857Y-75217261D01*
X148000000Y-75264880D01*
X147857142Y-75264880D01*
X147714285Y-75217261D01*
X147642857Y-75169642D01*
X147571428Y-75074404D01*
X147500000Y-74883928D01*
X147500000Y-74645833D01*
X147571428Y-74455357D01*
X147642857Y-74360119D01*
X147714285Y-74312500D01*
X147857142Y-74264880D01*
X149000000Y-75169642D02*
X149071428Y-75217261D01*
X149000000Y-75264880D01*
X148928571Y-75217261D01*
X149000000Y-75169642D01*
X149000000Y-75264880D01*
X149928571Y-74693452D02*
X149785714Y-74645833D01*
X149714285Y-74598214D01*
X149642857Y-74502976D01*
X149642857Y-74455357D01*
X149714285Y-74360119D01*
X149785714Y-74312500D01*
X149928571Y-74264880D01*
X150214285Y-74264880D01*
X150357142Y-74312500D01*
X150428571Y-74360119D01*
X150500000Y-74455357D01*
X150500000Y-74502976D01*
X150428571Y-74598214D01*
X150357142Y-74645833D01*
X150214285Y-74693452D01*
X149928571Y-74693452D01*
X149785714Y-74741071D01*
X149714285Y-74788690D01*
X149642857Y-74883928D01*
X149642857Y-75074404D01*
X149714285Y-75169642D01*
X149785714Y-75217261D01*
X149928571Y-75264880D01*
X150214285Y-75264880D01*
X150357142Y-75217261D01*
X150428571Y-75169642D01*
X150500000Y-75074404D01*
X150500000Y-74883928D01*
X150428571Y-74788690D01*
X150357142Y-74741071D01*
X150214285Y-74693452D01*
X151142857Y-75264880D02*
X151142857Y-74598214D01*
X151142857Y-74693452D02*
X151214285Y-74645833D01*
X151357142Y-74598214D01*
X151571428Y-74598214D01*
X151714285Y-74645833D01*
X151785714Y-74741071D01*
X151785714Y-75264880D01*
X151785714Y-74741071D02*
X151857142Y-74645833D01*
X152000000Y-74598214D01*
X152214285Y-74598214D01*
X152357142Y-74645833D01*
X152428571Y-74741071D01*
X152428571Y-75264880D01*
X153142857Y-75264880D02*
X153142857Y-74598214D01*
X153142857Y-74693452D02*
X153214285Y-74645833D01*
X153357142Y-74598214D01*
X153571428Y-74598214D01*
X153714285Y-74645833D01*
X153785714Y-74741071D01*
X153785714Y-75264880D01*
X153785714Y-74741071D02*
X153857142Y-74645833D01*
X154000000Y-74598214D01*
X154214285Y-74598214D01*
X154357142Y-74645833D01*
X154428571Y-74741071D01*
X154428571Y-75264880D01*
X143238095Y-60285714D02*
X143238095Y-61285714D01*
X143238095Y-60333333D02*
X143428571Y-60285714D01*
X143809523Y-60285714D01*
X144000000Y-60333333D01*
X144095238Y-60380952D01*
X144190476Y-60476190D01*
X144190476Y-60761904D01*
X144095238Y-60857142D01*
X144000000Y-60904761D01*
X143809523Y-60952380D01*
X143428571Y-60952380D01*
X143238095Y-60904761D01*
X145904761Y-60952380D02*
X145904761Y-60428571D01*
X145809523Y-60333333D01*
X145619047Y-60285714D01*
X145238095Y-60285714D01*
X145047619Y-60333333D01*
X145904761Y-60904761D02*
X145714285Y-60952380D01*
X145238095Y-60952380D01*
X145047619Y-60904761D01*
X144952380Y-60809523D01*
X144952380Y-60714285D01*
X145047619Y-60619047D01*
X145238095Y-60571428D01*
X145714285Y-60571428D01*
X145904761Y-60523809D01*
X147714285Y-60285714D02*
X147714285Y-60952380D01*
X146857142Y-60285714D02*
X146857142Y-60809523D01*
X146952380Y-60904761D01*
X147142857Y-60952380D01*
X147428571Y-60952380D01*
X147619047Y-60904761D01*
X147714285Y-60857142D01*
X148952380Y-60952380D02*
X148761904Y-60904761D01*
X148666666Y-60809523D01*
X148666666Y-59952380D01*
X149619047Y-60904761D02*
X149809523Y-60952380D01*
X150190476Y-60952380D01*
X150380952Y-60904761D01*
X150476190Y-60809523D01*
X150476190Y-60761904D01*
X150380952Y-60666666D01*
X150190476Y-60619047D01*
X149904761Y-60619047D01*
X149714285Y-60571428D01*
X149619047Y-60476190D01*
X149619047Y-60428571D01*
X149714285Y-60333333D01*
X149904761Y-60285714D01*
X150190476Y-60285714D01*
X150380952Y-60333333D01*
X152190476Y-60904761D02*
X152000000Y-60952380D01*
X151619047Y-60952380D01*
X151428571Y-60904761D01*
X151333333Y-60857142D01*
X151238095Y-60761904D01*
X151238095Y-60476190D01*
X151333333Y-60380952D01*
X151428571Y-60333333D01*
X151619047Y-60285714D01*
X152000000Y-60285714D01*
X152190476Y-60333333D01*
X153047619Y-60857142D02*
X153142857Y-60904761D01*
X153047619Y-60952380D01*
X152952380Y-60904761D01*
X153047619Y-60857142D01*
X153047619Y-60952380D01*
X154000000Y-60952380D02*
X154000000Y-59952380D01*
X154857142Y-60952380D02*
X154857142Y-60428571D01*
X154761904Y-60333333D01*
X154571428Y-60285714D01*
X154285714Y-60285714D01*
X154095238Y-60333333D01*
X154000000Y-60380952D01*
X156095238Y-60952380D02*
X155904761Y-60904761D01*
X155809523Y-60857142D01*
X155714285Y-60761904D01*
X155714285Y-60476190D01*
X155809523Y-60380952D01*
X155904761Y-60333333D01*
X156095238Y-60285714D01*
X156380952Y-60285714D01*
X156571428Y-60333333D01*
X156666666Y-60380952D01*
X156761904Y-60476190D01*
X156761904Y-60761904D01*
X156666666Y-60857142D01*
X156571428Y-60904761D01*
X156380952Y-60952380D01*
X156095238Y-60952380D01*
X157428571Y-60285714D02*
X157809523Y-60952380D01*
X158190476Y-60476190D01*
X158571428Y-60952380D01*
X158952380Y-60285714D01*
X141595238Y-51726190D02*
X141928571Y-51726190D01*
X141714285Y-52226190D01*
X142142857Y-52226190D02*
X142238095Y-52226190D01*
X142285714Y-52202380D01*
X142309523Y-52178571D01*
X142357142Y-52107142D01*
X142380952Y-52011904D01*
X142380952Y-51821428D01*
X142357142Y-51773809D01*
X142333333Y-51750000D01*
X142285714Y-51726190D01*
X142190476Y-51726190D01*
X142142857Y-51750000D01*
X142119047Y-51773809D01*
X142095238Y-51821428D01*
X142095238Y-51940476D01*
X142119047Y-51988095D01*
X142142857Y-52011904D01*
X142190476Y-52035714D01*
X142285714Y-52035714D01*
X142333333Y-52011904D01*
X142357142Y-51988095D01*
X142380952Y-51940476D01*
X141714285Y-59440476D02*
X141666666Y-59416666D01*
X141642857Y-59392857D01*
X141619047Y-59345238D01*
X141619047Y-59321428D01*
X141642857Y-59273809D01*
X141666666Y-59250000D01*
X141714285Y-59226190D01*
X141809523Y-59226190D01*
X141857142Y-59250000D01*
X141880952Y-59273809D01*
X141904761Y-59321428D01*
X141904761Y-59345238D01*
X141880952Y-59392857D01*
X141857142Y-59416666D01*
X141809523Y-59440476D01*
X141714285Y-59440476D01*
X141666666Y-59464285D01*
X141642857Y-59488095D01*
X141619047Y-59535714D01*
X141619047Y-59630952D01*
X141642857Y-59678571D01*
X141666666Y-59702380D01*
X141714285Y-59726190D01*
X141809523Y-59726190D01*
X141857142Y-59702380D01*
X141880952Y-59678571D01*
X141904761Y-59630952D01*
X141904761Y-59535714D01*
X141880952Y-59488095D01*
X141857142Y-59464285D01*
X141809523Y-59440476D01*
X142214285Y-59226190D02*
X142261904Y-59226190D01*
X142309523Y-59250000D01*
X142333333Y-59273809D01*
X142357142Y-59321428D01*
X142380952Y-59416666D01*
X142380952Y-59535714D01*
X142357142Y-59630952D01*
X142333333Y-59678571D01*
X142309523Y-59702380D01*
X142261904Y-59726190D01*
X142214285Y-59726190D01*
X142166666Y-59702380D01*
X142142857Y-59678571D01*
X142119047Y-59630952D01*
X142095238Y-59535714D01*
X142095238Y-59416666D01*
X142119047Y-59321428D01*
X142142857Y-59273809D01*
X142166666Y-59250000D01*
X142214285Y-59226190D01*
X159857142Y-51726190D02*
X159761904Y-51726190D01*
X159714285Y-51750000D01*
X159690476Y-51773809D01*
X159642857Y-51845238D01*
X159619047Y-51940476D01*
X159619047Y-52130952D01*
X159642857Y-52178571D01*
X159666666Y-52202380D01*
X159714285Y-52226190D01*
X159809523Y-52226190D01*
X159857142Y-52202380D01*
X159880952Y-52178571D01*
X159904761Y-52130952D01*
X159904761Y-52011904D01*
X159880952Y-51964285D01*
X159857142Y-51940476D01*
X159809523Y-51916666D01*
X159714285Y-51916666D01*
X159666666Y-51940476D01*
X159642857Y-51964285D01*
X159619047Y-52011904D01*
X160357142Y-51726190D02*
X160119047Y-51726190D01*
X160095238Y-51964285D01*
X160119047Y-51940476D01*
X160166666Y-51916666D01*
X160285714Y-51916666D01*
X160333333Y-51940476D01*
X160357142Y-51964285D01*
X160380952Y-52011904D01*
X160380952Y-52130952D01*
X160357142Y-52178571D01*
X160333333Y-52202380D01*
X160285714Y-52226190D01*
X160166666Y-52226190D01*
X160119047Y-52202380D01*
X160095238Y-52178571D01*
X159857142Y-59226190D02*
X159761904Y-59226190D01*
X159714285Y-59250000D01*
X159690476Y-59273809D01*
X159642857Y-59345238D01*
X159619047Y-59440476D01*
X159619047Y-59630952D01*
X159642857Y-59678571D01*
X159666666Y-59702380D01*
X159714285Y-59726190D01*
X159809523Y-59726190D01*
X159857142Y-59702380D01*
X159880952Y-59678571D01*
X159904761Y-59630952D01*
X159904761Y-59511904D01*
X159880952Y-59464285D01*
X159857142Y-59440476D01*
X159809523Y-59416666D01*
X159714285Y-59416666D01*
X159666666Y-59440476D01*
X159642857Y-59464285D01*
X159619047Y-59511904D01*
X160333333Y-59226190D02*
X160238095Y-59226190D01*
X160190476Y-59250000D01*
X160166666Y-59273809D01*
X160119047Y-59345238D01*
X160095238Y-59440476D01*
X160095238Y-59630952D01*
X160119047Y-59678571D01*
X160142857Y-59702380D01*
X160190476Y-59726190D01*
X160285714Y-59726190D01*
X160333333Y-59702380D01*
X160357142Y-59678571D01*
X160380952Y-59630952D01*
X160380952Y-59511904D01*
X160357142Y-59464285D01*
X160333333Y-59440476D01*
X160285714Y-59416666D01*
X160190476Y-59416666D01*
X160142857Y-59440476D01*
X160119047Y-59464285D01*
X160095238Y-59511904D01*
X162357142Y-60726190D02*
X162261904Y-60726190D01*
X162214285Y-60750000D01*
X162190476Y-60773809D01*
X162142857Y-60845238D01*
X162119047Y-60940476D01*
X162119047Y-61130952D01*
X162142857Y-61178571D01*
X162166666Y-61202380D01*
X162214285Y-61226190D01*
X162309523Y-61226190D01*
X162357142Y-61202380D01*
X162380952Y-61178571D01*
X162404761Y-61130952D01*
X162404761Y-61011904D01*
X162380952Y-60964285D01*
X162357142Y-60940476D01*
X162309523Y-60916666D01*
X162214285Y-60916666D01*
X162166666Y-60940476D01*
X162142857Y-60964285D01*
X162119047Y-61011904D01*
X162833333Y-60892857D02*
X162833333Y-61226190D01*
X162714285Y-60702380D02*
X162595238Y-61059523D01*
X162904761Y-61059523D01*
X169857142Y-60726190D02*
X169761904Y-60726190D01*
X169714285Y-60750000D01*
X169690476Y-60773809D01*
X169642857Y-60845238D01*
X169619047Y-60940476D01*
X169619047Y-61130952D01*
X169642857Y-61178571D01*
X169666666Y-61202380D01*
X169714285Y-61226190D01*
X169809523Y-61226190D01*
X169857142Y-61202380D01*
X169880952Y-61178571D01*
X169904761Y-61130952D01*
X169904761Y-61011904D01*
X169880952Y-60964285D01*
X169857142Y-60940476D01*
X169809523Y-60916666D01*
X169714285Y-60916666D01*
X169666666Y-60940476D01*
X169642857Y-60964285D01*
X169619047Y-61011904D01*
X170071428Y-60726190D02*
X170380952Y-60726190D01*
X170214285Y-60916666D01*
X170285714Y-60916666D01*
X170333333Y-60940476D01*
X170357142Y-60964285D01*
X170380952Y-61011904D01*
X170380952Y-61130952D01*
X170357142Y-61178571D01*
X170333333Y-61202380D01*
X170285714Y-61226190D01*
X170142857Y-61226190D01*
X170095238Y-61202380D01*
X170071428Y-61178571D01*
X162357142Y-88892857D02*
X162357142Y-89226190D01*
X162238095Y-88702380D02*
X162119047Y-89059523D01*
X162428571Y-89059523D01*
X162595238Y-88773809D02*
X162619047Y-88750000D01*
X162666666Y-88726190D01*
X162785714Y-88726190D01*
X162833333Y-88750000D01*
X162857142Y-88773809D01*
X162880952Y-88821428D01*
X162880952Y-88869047D01*
X162857142Y-88940476D01*
X162571428Y-89226190D01*
X162880952Y-89226190D01*
X169857142Y-88892857D02*
X169857142Y-89226190D01*
X169738095Y-88702380D02*
X169619047Y-89059523D01*
X169928571Y-89059523D01*
X170380952Y-89226190D02*
X170095238Y-89226190D01*
X170238095Y-89226190D02*
X170238095Y-88726190D01*
X170190476Y-88797619D01*
X170142857Y-88845238D01*
X170095238Y-88869047D01*
X162095238Y-94726190D02*
X162404761Y-94726190D01*
X162238095Y-94916666D01*
X162309523Y-94916666D01*
X162357142Y-94940476D01*
X162380952Y-94964285D01*
X162404761Y-95011904D01*
X162404761Y-95130952D01*
X162380952Y-95178571D01*
X162357142Y-95202380D01*
X162309523Y-95226190D01*
X162166666Y-95226190D01*
X162119047Y-95202380D01*
X162095238Y-95178571D01*
X162642857Y-95226190D02*
X162738095Y-95226190D01*
X162785714Y-95202380D01*
X162809523Y-95178571D01*
X162857142Y-95107142D01*
X162880952Y-95011904D01*
X162880952Y-94821428D01*
X162857142Y-94773809D01*
X162833333Y-94750000D01*
X162785714Y-94726190D01*
X162690476Y-94726190D01*
X162642857Y-94750000D01*
X162619047Y-94773809D01*
X162595238Y-94821428D01*
X162595238Y-94940476D01*
X162619047Y-94988095D01*
X162642857Y-95011904D01*
X162690476Y-95035714D01*
X162785714Y-95035714D01*
X162833333Y-95011904D01*
X162857142Y-94988095D01*
X162880952Y-94940476D01*
X162357142Y-91392857D02*
X162357142Y-91726190D01*
X162238095Y-91202380D02*
X162119047Y-91559523D01*
X162428571Y-91559523D01*
X162714285Y-91226190D02*
X162761904Y-91226190D01*
X162809523Y-91250000D01*
X162833333Y-91273809D01*
X162857142Y-91321428D01*
X162880952Y-91416666D01*
X162880952Y-91535714D01*
X162857142Y-91630952D01*
X162833333Y-91678571D01*
X162809523Y-91702380D01*
X162761904Y-91726190D01*
X162714285Y-91726190D01*
X162666666Y-91702380D01*
X162642857Y-91678571D01*
X162619047Y-91630952D01*
X162595238Y-91535714D01*
X162595238Y-91416666D01*
X162619047Y-91321428D01*
X162642857Y-91273809D01*
X162666666Y-91250000D01*
X162714285Y-91226190D01*
X139119047Y-94773809D02*
X139142857Y-94750000D01*
X139190476Y-94726190D01*
X139309523Y-94726190D01*
X139357142Y-94750000D01*
X139380952Y-94773809D01*
X139404761Y-94821428D01*
X139404761Y-94869047D01*
X139380952Y-94940476D01*
X139095238Y-95226190D01*
X139404761Y-95226190D01*
X139857142Y-94726190D02*
X139619047Y-94726190D01*
X139595238Y-94964285D01*
X139619047Y-94940476D01*
X139666666Y-94916666D01*
X139785714Y-94916666D01*
X139833333Y-94940476D01*
X139857142Y-94964285D01*
X139880952Y-95011904D01*
X139880952Y-95130952D01*
X139857142Y-95178571D01*
X139833333Y-95202380D01*
X139785714Y-95226190D01*
X139666666Y-95226190D01*
X139619047Y-95202380D01*
X139595238Y-95178571D01*
X139119047Y-91773809D02*
X139142857Y-91750000D01*
X139190476Y-91726190D01*
X139309523Y-91726190D01*
X139357142Y-91750000D01*
X139380952Y-91773809D01*
X139404761Y-91821428D01*
X139404761Y-91869047D01*
X139380952Y-91940476D01*
X139095238Y-92226190D01*
X139404761Y-92226190D01*
X139833333Y-91726190D02*
X139738095Y-91726190D01*
X139690476Y-91750000D01*
X139666666Y-91773809D01*
X139619047Y-91845238D01*
X139595238Y-91940476D01*
X139595238Y-92130952D01*
X139619047Y-92178571D01*
X139642857Y-92202380D01*
X139690476Y-92226190D01*
X139785714Y-92226190D01*
X139833333Y-92202380D01*
X139857142Y-92178571D01*
X139880952Y-92130952D01*
X139880952Y-92011904D01*
X139857142Y-91964285D01*
X139833333Y-91940476D01*
X139785714Y-91916666D01*
X139690476Y-91916666D01*
X139642857Y-91940476D01*
X139619047Y-91964285D01*
X139595238Y-92011904D01*
X139119047Y-88773809D02*
X139142857Y-88750000D01*
X139190476Y-88726190D01*
X139309523Y-88726190D01*
X139357142Y-88750000D01*
X139380952Y-88773809D01*
X139404761Y-88821428D01*
X139404761Y-88869047D01*
X139380952Y-88940476D01*
X139095238Y-89226190D01*
X139404761Y-89226190D01*
X139833333Y-88892857D02*
X139833333Y-89226190D01*
X139714285Y-88702380D02*
X139595238Y-89059523D01*
X139904761Y-89059523D01*
X131619047Y-88773809D02*
X131642857Y-88750000D01*
X131690476Y-88726190D01*
X131809523Y-88726190D01*
X131857142Y-88750000D01*
X131880952Y-88773809D01*
X131904761Y-88821428D01*
X131904761Y-88869047D01*
X131880952Y-88940476D01*
X131595238Y-89226190D01*
X131904761Y-89226190D01*
X132071428Y-88726190D02*
X132380952Y-88726190D01*
X132214285Y-88916666D01*
X132285714Y-88916666D01*
X132333333Y-88940476D01*
X132357142Y-88964285D01*
X132380952Y-89011904D01*
X132380952Y-89130952D01*
X132357142Y-89178571D01*
X132333333Y-89202380D01*
X132285714Y-89226190D01*
X132142857Y-89226190D01*
X132095238Y-89202380D01*
X132071428Y-89178571D01*
X139357142Y-60773809D02*
X139380952Y-60750000D01*
X139428571Y-60726190D01*
X139547619Y-60726190D01*
X139595238Y-60750000D01*
X139619047Y-60773809D01*
X139642857Y-60821428D01*
X139642857Y-60869047D01*
X139619047Y-60940476D01*
X139333333Y-61226190D01*
X139642857Y-61226190D01*
X132142857Y-60726190D02*
X131857142Y-60726190D01*
X132000000Y-60726190D02*
X132000000Y-60226190D01*
X131952380Y-60297619D01*
X131904761Y-60345238D01*
X131857142Y-60369047D01*
X142119047Y-84273809D02*
X142142857Y-84250000D01*
X142190476Y-84226190D01*
X142309523Y-84226190D01*
X142357142Y-84250000D01*
X142380952Y-84273809D01*
X142404761Y-84321428D01*
X142404761Y-84369047D01*
X142380952Y-84440476D01*
X142095238Y-84726190D01*
X142404761Y-84726190D01*
X142833333Y-84392857D02*
X142833333Y-84726190D01*
X142714285Y-84202380D02*
X142595238Y-84559523D01*
X142904761Y-84559523D01*
X143119047Y-85273809D02*
X143142857Y-85250000D01*
X143190476Y-85226190D01*
X143309523Y-85226190D01*
X143357142Y-85250000D01*
X143380952Y-85273809D01*
X143404761Y-85321428D01*
X143404761Y-85369047D01*
X143380952Y-85440476D01*
X143095238Y-85726190D01*
X143404761Y-85726190D01*
X143857142Y-85226190D02*
X143619047Y-85226190D01*
X143595238Y-85464285D01*
X143619047Y-85440476D01*
X143666666Y-85416666D01*
X143785714Y-85416666D01*
X143833333Y-85440476D01*
X143857142Y-85464285D01*
X143880952Y-85511904D01*
X143880952Y-85630952D01*
X143857142Y-85678571D01*
X143833333Y-85702380D01*
X143785714Y-85726190D01*
X143666666Y-85726190D01*
X143619047Y-85702380D01*
X143595238Y-85678571D01*
X157857142Y-85392857D02*
X157857142Y-85726190D01*
X157738095Y-85202380D02*
X157619047Y-85559523D01*
X157928571Y-85559523D01*
X158214285Y-85226190D02*
X158261904Y-85226190D01*
X158309523Y-85250000D01*
X158333333Y-85273809D01*
X158357142Y-85321428D01*
X158380952Y-85416666D01*
X158380952Y-85535714D01*
X158357142Y-85630952D01*
X158333333Y-85678571D01*
X158309523Y-85702380D01*
X158261904Y-85726190D01*
X158214285Y-85726190D01*
X158166666Y-85702380D01*
X158142857Y-85678571D01*
X158119047Y-85630952D01*
X158095238Y-85535714D01*
X158095238Y-85416666D01*
X158119047Y-85321428D01*
X158142857Y-85273809D01*
X158166666Y-85250000D01*
X158214285Y-85226190D01*
X158857142Y-84392857D02*
X158857142Y-84726190D01*
X158738095Y-84202380D02*
X158619047Y-84559523D01*
X158928571Y-84559523D01*
X159380952Y-84726190D02*
X159095238Y-84726190D01*
X159238095Y-84726190D02*
X159238095Y-84226190D01*
X159190476Y-84297619D01*
X159142857Y-84345238D01*
X159095238Y-84369047D01*
X158857142Y-63726190D02*
X158761904Y-63726190D01*
X158714285Y-63750000D01*
X158690476Y-63773809D01*
X158642857Y-63845238D01*
X158619047Y-63940476D01*
X158619047Y-64130952D01*
X158642857Y-64178571D01*
X158666666Y-64202380D01*
X158714285Y-64226190D01*
X158809523Y-64226190D01*
X158857142Y-64202380D01*
X158880952Y-64178571D01*
X158904761Y-64130952D01*
X158904761Y-64011904D01*
X158880952Y-63964285D01*
X158857142Y-63940476D01*
X158809523Y-63916666D01*
X158714285Y-63916666D01*
X158666666Y-63940476D01*
X158642857Y-63964285D01*
X158619047Y-64011904D01*
X159333333Y-63892857D02*
X159333333Y-64226190D01*
X159214285Y-63702380D02*
X159095238Y-64059523D01*
X159404761Y-64059523D01*
X157857142Y-62726190D02*
X157761904Y-62726190D01*
X157714285Y-62750000D01*
X157690476Y-62773809D01*
X157642857Y-62845238D01*
X157619047Y-62940476D01*
X157619047Y-63130952D01*
X157642857Y-63178571D01*
X157666666Y-63202380D01*
X157714285Y-63226190D01*
X157809523Y-63226190D01*
X157857142Y-63202380D01*
X157880952Y-63178571D01*
X157904761Y-63130952D01*
X157904761Y-63011904D01*
X157880952Y-62964285D01*
X157857142Y-62940476D01*
X157809523Y-62916666D01*
X157714285Y-62916666D01*
X157666666Y-62940476D01*
X157642857Y-62964285D01*
X157619047Y-63011904D01*
X158357142Y-62726190D02*
X158119047Y-62726190D01*
X158095238Y-62964285D01*
X158119047Y-62940476D01*
X158166666Y-62916666D01*
X158285714Y-62916666D01*
X158333333Y-62940476D01*
X158357142Y-62964285D01*
X158380952Y-63011904D01*
X158380952Y-63130952D01*
X158357142Y-63178571D01*
X158333333Y-63202380D01*
X158285714Y-63226190D01*
X158166666Y-63226190D01*
X158119047Y-63202380D01*
X158095238Y-63178571D01*
X143214285Y-62940476D02*
X143166666Y-62916666D01*
X143142857Y-62892857D01*
X143119047Y-62845238D01*
X143119047Y-62821428D01*
X143142857Y-62773809D01*
X143166666Y-62750000D01*
X143214285Y-62726190D01*
X143309523Y-62726190D01*
X143357142Y-62750000D01*
X143380952Y-62773809D01*
X143404761Y-62821428D01*
X143404761Y-62845238D01*
X143380952Y-62892857D01*
X143357142Y-62916666D01*
X143309523Y-62940476D01*
X143214285Y-62940476D01*
X143166666Y-62964285D01*
X143142857Y-62988095D01*
X143119047Y-63035714D01*
X143119047Y-63130952D01*
X143142857Y-63178571D01*
X143166666Y-63202380D01*
X143214285Y-63226190D01*
X143309523Y-63226190D01*
X143357142Y-63202380D01*
X143380952Y-63178571D01*
X143404761Y-63130952D01*
X143404761Y-63035714D01*
X143380952Y-62988095D01*
X143357142Y-62964285D01*
X143309523Y-62940476D01*
X143714285Y-62726190D02*
X143761904Y-62726190D01*
X143809523Y-62750000D01*
X143833333Y-62773809D01*
X143857142Y-62821428D01*
X143880952Y-62916666D01*
X143880952Y-63035714D01*
X143857142Y-63130952D01*
X143833333Y-63178571D01*
X143809523Y-63202380D01*
X143761904Y-63226190D01*
X143714285Y-63226190D01*
X143666666Y-63202380D01*
X143642857Y-63178571D01*
X143619047Y-63130952D01*
X143595238Y-63035714D01*
X143595238Y-62916666D01*
X143619047Y-62821428D01*
X143642857Y-62773809D01*
X143666666Y-62750000D01*
X143714285Y-62726190D01*
X142642857Y-64226190D02*
X142357142Y-64226190D01*
X142500000Y-64226190D02*
X142500000Y-63726190D01*
X142452380Y-63797619D01*
X142404761Y-63845238D01*
X142357142Y-63869047D01*
D11*
X140670000Y-58330000D02*
X140670000Y-57000000D01*
X142000000Y-58330000D02*
X140670000Y-58330000D01*
X140670000Y-55730000D02*
X140670000Y-53130000D01*
X143270000Y-55730000D02*
X140670000Y-55730000D01*
X143270000Y-58330000D02*
X143270000Y-55730000D01*
X140670000Y-53130000D02*
X161110000Y-53130000D01*
X143270000Y-58330000D02*
X161110000Y-58330000D01*
X161110000Y-58330000D02*
X161110000Y-53130000D01*
D12*
X143525000Y-64475000D02*
X141850000Y-64475000D01*
X157775000Y-64125000D02*
X157125000Y-64125000D01*
X157775000Y-84375000D02*
X157125000Y-84375000D01*
X143525000Y-84375000D02*
X144175000Y-84375000D01*
X143525000Y-64125000D02*
X144175000Y-64125000D01*
X143525000Y-84375000D02*
X143525000Y-83925000D01*
X157775000Y-84375000D02*
X157775000Y-83925000D01*
X157775000Y-64125000D02*
X157775000Y-64575000D01*
X143525000Y-64125000D02*
X143525000Y-64475000D01*
D11*
X163670000Y-59670000D02*
X165000000Y-59670000D01*
X163670000Y-61000000D02*
X163670000Y-59670000D01*
X166270000Y-59670000D02*
X168870000Y-59670000D01*
X166270000Y-62270000D02*
X166270000Y-59670000D01*
X163670000Y-62270000D02*
X166270000Y-62270000D01*
X168870000Y-59670000D02*
X168870000Y-90270000D01*
X163670000Y-62270000D02*
X163670000Y-90270000D01*
X163670000Y-90270000D02*
X168870000Y-90270000D01*
X161330000Y-90670000D02*
X161330000Y-92000000D01*
X160000000Y-90670000D02*
X161330000Y-90670000D01*
X161330000Y-93270000D02*
X161330000Y-95870000D01*
X158730000Y-93270000D02*
X161330000Y-93270000D01*
X158730000Y-90670000D02*
X158730000Y-93270000D01*
X161330000Y-95870000D02*
X140890000Y-95870000D01*
X158730000Y-90670000D02*
X140890000Y-90670000D01*
X140890000Y-90670000D02*
X140890000Y-95870000D01*
X138330000Y-90030000D02*
X137000000Y-90030000D01*
X138330000Y-88700000D02*
X138330000Y-90030000D01*
X135730000Y-90030000D02*
X133130000Y-90030000D01*
X135730000Y-87430000D02*
X135730000Y-90030000D01*
X138330000Y-87430000D02*
X135730000Y-87430000D01*
X133130000Y-90030000D02*
X133130000Y-59430000D01*
X138330000Y-87430000D02*
X138330000Y-59430000D01*
X138330000Y-59430000D02*
X133130000Y-59430000D01*
D12*
X139122380Y-56063333D02*
X139836666Y-56063333D01*
X139979523Y-56110952D01*
X140074761Y-56206190D01*
X140122380Y-56349047D01*
X140122380Y-56444285D01*
X139455714Y-55158571D02*
X140122380Y-55158571D01*
X139074761Y-55396666D02*
X139789047Y-55634761D01*
X139789047Y-55015714D01*
X149838095Y-70652380D02*
X149838095Y-71461904D01*
X149885714Y-71557142D01*
X149933333Y-71604761D01*
X150028571Y-71652380D01*
X150219047Y-71652380D01*
X150314285Y-71604761D01*
X150361904Y-71557142D01*
X150409523Y-71461904D01*
X150409523Y-70652380D01*
X151409523Y-71652380D02*
X150838095Y-71652380D01*
X151123809Y-71652380D02*
X151123809Y-70652380D01*
X151028571Y-70795238D01*
X150933333Y-70890476D01*
X150838095Y-70938095D01*
X165936666Y-58122380D02*
X165936666Y-58836666D01*
X165889047Y-58979523D01*
X165793809Y-59074761D01*
X165650952Y-59122380D01*
X165555714Y-59122380D01*
X166317619Y-58122380D02*
X166936666Y-58122380D01*
X166603333Y-58503333D01*
X166746190Y-58503333D01*
X166841428Y-58550952D01*
X166889047Y-58598571D01*
X166936666Y-58693809D01*
X166936666Y-58931904D01*
X166889047Y-59027142D01*
X166841428Y-59074761D01*
X166746190Y-59122380D01*
X166460476Y-59122380D01*
X166365238Y-59074761D01*
X166317619Y-59027142D01*
X161782380Y-93603333D02*
X162496666Y-93603333D01*
X162639523Y-93650952D01*
X162734761Y-93746190D01*
X162782380Y-93889047D01*
X162782380Y-93984285D01*
X161877619Y-93174761D02*
X161830000Y-93127142D01*
X161782380Y-93031904D01*
X161782380Y-92793809D01*
X161830000Y-92698571D01*
X161877619Y-92650952D01*
X161972857Y-92603333D01*
X162068095Y-92603333D01*
X162210952Y-92650952D01*
X162782380Y-93222380D01*
X162782380Y-92603333D01*
X135396666Y-90482380D02*
X135396666Y-91196666D01*
X135349047Y-91339523D01*
X135253809Y-91434761D01*
X135110952Y-91482380D01*
X135015714Y-91482380D01*
X136396666Y-91482380D02*
X135825238Y-91482380D01*
X136110952Y-91482380D02*
X136110952Y-90482380D01*
X136015714Y-90625238D01*
X135920476Y-90720476D01*
X135825238Y-90768095D01*
M02*
