G04 #@! TF.GenerationSoftware,KiCad,Pcbnew,(5.1.2)-2*
G04 #@! TF.CreationDate,2019-08-20T02:28:55-06:00*
G04 #@! TF.ProjectId,pqfp_80_breakout,70716670-5f38-4305-9f62-7265616b6f75,rev?*
G04 #@! TF.SameCoordinates,Original*
G04 #@! TF.FileFunction,Legend,Bot*
G04 #@! TF.FilePolarity,Positive*
%FSLAX46Y46*%
G04 Gerber Fmt 4.6, Leading zero omitted, Abs format (unit mm)*
G04 Created by KiCad (PCBNEW (5.1.2)-2) date 2019-08-20 02:28:55*
%MOMM*%
%LPD*%
G04 APERTURE LIST*
%ADD10C,0.010000*%
G04 APERTURE END LIST*
D10*
G36*
X137385600Y-57490000D02*
G01*
X137436400Y-57540800D01*
X137487200Y-57490000D01*
X137436400Y-57439200D01*
X137385600Y-57490000D01*
X137385600Y-57490000D01*
G37*
X137385600Y-57490000D02*
X137436400Y-57540800D01*
X137487200Y-57490000D01*
X137436400Y-57439200D01*
X137385600Y-57490000D01*
G36*
X137588800Y-57490000D02*
G01*
X137639600Y-57540800D01*
X137690400Y-57490000D01*
X137639600Y-57439200D01*
X137588800Y-57490000D01*
X137588800Y-57490000D01*
G37*
X137588800Y-57490000D02*
X137639600Y-57540800D01*
X137690400Y-57490000D01*
X137639600Y-57439200D01*
X137588800Y-57490000D01*
G36*
X137690400Y-57693200D02*
G01*
X137741200Y-57744000D01*
X137792000Y-57693200D01*
X137741200Y-57642400D01*
X137690400Y-57693200D01*
X137690400Y-57693200D01*
G37*
X137690400Y-57693200D02*
X137741200Y-57744000D01*
X137792000Y-57693200D01*
X137741200Y-57642400D01*
X137690400Y-57693200D01*
G36*
X167357600Y-60233200D02*
G01*
X167408400Y-60284000D01*
X167459200Y-60233200D01*
X167408400Y-60182400D01*
X167357600Y-60233200D01*
X167357600Y-60233200D01*
G37*
X167357600Y-60233200D02*
X167408400Y-60284000D01*
X167459200Y-60233200D01*
X167408400Y-60182400D01*
X167357600Y-60233200D01*
G36*
X138249920Y-60285163D02*
G01*
X138358588Y-60369386D01*
X138475042Y-60383520D01*
X138503200Y-60345670D01*
X138423505Y-60280418D01*
X138345524Y-60245233D01*
X138240644Y-60238133D01*
X138249920Y-60285163D01*
X138249920Y-60285163D01*
G37*
X138249920Y-60285163D02*
X138358588Y-60369386D01*
X138475042Y-60383520D01*
X138503200Y-60345670D01*
X138423505Y-60280418D01*
X138345524Y-60245233D01*
X138240644Y-60238133D01*
X138249920Y-60285163D01*
G36*
X139236308Y-60236486D02*
G01*
X139337656Y-60350328D01*
X139427602Y-60385600D01*
X139454152Y-60327234D01*
X139396206Y-60243447D01*
X139272221Y-60140735D01*
X139229627Y-60135087D01*
X139236308Y-60236486D01*
X139236308Y-60236486D01*
G37*
X139236308Y-60236486D02*
X139337656Y-60350328D01*
X139427602Y-60385600D01*
X139454152Y-60327234D01*
X139396206Y-60243447D01*
X139272221Y-60140735D01*
X139229627Y-60135087D01*
X139236308Y-60236486D01*
G36*
X139959467Y-61029066D02*
G01*
X139947308Y-61149642D01*
X139959467Y-61164533D01*
X140019868Y-61150586D01*
X140027200Y-61096800D01*
X139990027Y-61013171D01*
X139959467Y-61029066D01*
X139959467Y-61029066D01*
G37*
X139959467Y-61029066D02*
X139947308Y-61149642D01*
X139959467Y-61164533D01*
X140019868Y-61150586D01*
X140027200Y-61096800D01*
X139990027Y-61013171D01*
X139959467Y-61029066D01*
G36*
X167883298Y-60256992D02*
G01*
X167842296Y-60362145D01*
X167705580Y-60513293D01*
X167503151Y-60566069D01*
X167295401Y-60615986D01*
X167105982Y-60709398D01*
X166982947Y-60811676D01*
X166974348Y-60888191D01*
X167031029Y-60906300D01*
X167230691Y-60938515D01*
X167256000Y-60944400D01*
X167454040Y-60981117D01*
X167465197Y-60982500D01*
X167521954Y-61058639D01*
X167501854Y-61109980D01*
X167502063Y-61186715D01*
X167572058Y-61175368D01*
X167779392Y-61167240D01*
X167916400Y-61200018D01*
X168173575Y-61224737D01*
X168348200Y-61188704D01*
X168524408Y-61074785D01*
X168575245Y-60973073D01*
X168544271Y-60912382D01*
X168475200Y-60995200D01*
X168396138Y-61092189D01*
X168375520Y-61005239D01*
X168375156Y-60981649D01*
X168298652Y-60842800D01*
X167560800Y-60842800D01*
X167510000Y-60893600D01*
X167459200Y-60842800D01*
X167510000Y-60792000D01*
X167560800Y-60842800D01*
X168298652Y-60842800D01*
X168288437Y-60824261D01*
X168170400Y-60762561D01*
X167993122Y-60666528D01*
X167993600Y-60561164D01*
X168159335Y-60508497D01*
X168221200Y-60510497D01*
X168418300Y-60579115D01*
X168475200Y-60681178D01*
X168505118Y-60754090D01*
X168608231Y-60654648D01*
X168624369Y-60633618D01*
X168757735Y-60421164D01*
X168736061Y-60336329D01*
X168557768Y-60373538D01*
X168551391Y-60375946D01*
X168306671Y-60398781D01*
X168191785Y-60322631D01*
X168008528Y-60192494D01*
X167883298Y-60256992D01*
X167883298Y-60256992D01*
G37*
X167883298Y-60256992D02*
X167842296Y-60362145D01*
X167705580Y-60513293D01*
X167503151Y-60566069D01*
X167295401Y-60615986D01*
X167105982Y-60709398D01*
X166982947Y-60811676D01*
X166974348Y-60888191D01*
X167031029Y-60906300D01*
X167230691Y-60938515D01*
X167256000Y-60944400D01*
X167454040Y-60981117D01*
X167465197Y-60982500D01*
X167521954Y-61058639D01*
X167501854Y-61109980D01*
X167502063Y-61186715D01*
X167572058Y-61175368D01*
X167779392Y-61167240D01*
X167916400Y-61200018D01*
X168173575Y-61224737D01*
X168348200Y-61188704D01*
X168524408Y-61074785D01*
X168575245Y-60973073D01*
X168544271Y-60912382D01*
X168475200Y-60995200D01*
X168396138Y-61092189D01*
X168375520Y-61005239D01*
X168375156Y-60981649D01*
X168298652Y-60842800D01*
X167560800Y-60842800D01*
X167510000Y-60893600D01*
X167459200Y-60842800D01*
X167510000Y-60792000D01*
X167560800Y-60842800D01*
X168298652Y-60842800D01*
X168288437Y-60824261D01*
X168170400Y-60762561D01*
X167993122Y-60666528D01*
X167993600Y-60561164D01*
X168159335Y-60508497D01*
X168221200Y-60510497D01*
X168418300Y-60579115D01*
X168475200Y-60681178D01*
X168505118Y-60754090D01*
X168608231Y-60654648D01*
X168624369Y-60633618D01*
X168757735Y-60421164D01*
X168736061Y-60336329D01*
X168557768Y-60373538D01*
X168551391Y-60375946D01*
X168306671Y-60398781D01*
X168191785Y-60322631D01*
X168008528Y-60192494D01*
X167883298Y-60256992D01*
G36*
X167105173Y-61231089D02*
G01*
X167148404Y-61391898D01*
X167240453Y-61469276D01*
X167305568Y-61403594D01*
X167314074Y-61233339D01*
X167278935Y-61180694D01*
X167162305Y-61138140D01*
X167105173Y-61231089D01*
X167105173Y-61231089D01*
G37*
X167105173Y-61231089D02*
X167148404Y-61391898D01*
X167240453Y-61469276D01*
X167305568Y-61403594D01*
X167314074Y-61233339D01*
X167278935Y-61180694D01*
X167162305Y-61138140D01*
X167105173Y-61231089D01*
G36*
X166752614Y-61351945D02*
G01*
X166646400Y-61452400D01*
X166559586Y-61571098D01*
X166557760Y-61593014D01*
X166675777Y-61560552D01*
X166773400Y-61534764D01*
X166924070Y-61451073D01*
X166951200Y-61394150D01*
X166891700Y-61304451D01*
X166752614Y-61351945D01*
X166752614Y-61351945D01*
G37*
X166752614Y-61351945D02*
X166646400Y-61452400D01*
X166559586Y-61571098D01*
X166557760Y-61593014D01*
X166675777Y-61560552D01*
X166773400Y-61534764D01*
X166924070Y-61451073D01*
X166951200Y-61394150D01*
X166891700Y-61304451D01*
X166752614Y-61351945D01*
G36*
X134745165Y-62191407D02*
G01*
X134744000Y-62214400D01*
X134822106Y-62312095D01*
X134851597Y-62316000D01*
X134912276Y-62253756D01*
X134896400Y-62214400D01*
X134805102Y-62117475D01*
X134788804Y-62112800D01*
X134745165Y-62191407D01*
X134745165Y-62191407D01*
G37*
X134745165Y-62191407D02*
X134744000Y-62214400D01*
X134822106Y-62312095D01*
X134851597Y-62316000D01*
X134912276Y-62253756D01*
X134896400Y-62214400D01*
X134805102Y-62117475D01*
X134788804Y-62112800D01*
X134745165Y-62191407D01*
G36*
X166837874Y-61909094D02*
G01*
X166701218Y-62036296D01*
X166565995Y-62176368D01*
X166507065Y-62163600D01*
X166341600Y-62163600D01*
X166290800Y-62214400D01*
X166240000Y-62163600D01*
X166290800Y-62112800D01*
X166341600Y-62163600D01*
X166507065Y-62163600D01*
X166437625Y-62148555D01*
X166405949Y-62124044D01*
X166251901Y-62059341D01*
X166192080Y-62108141D01*
X166065449Y-62158816D01*
X165908491Y-62098505D01*
X165722734Y-62035257D01*
X165654093Y-62092523D01*
X165545643Y-62163871D01*
X165487714Y-62153268D01*
X165323546Y-62180025D01*
X165231349Y-62256346D01*
X165184108Y-62339585D01*
X165245260Y-62377746D01*
X165449325Y-62378568D01*
X165697671Y-62360911D01*
X166084451Y-62329956D01*
X166328428Y-62314325D01*
X166489364Y-62313249D01*
X166627017Y-62325957D01*
X166770731Y-62347079D01*
X166993639Y-62358949D01*
X167106031Y-62330503D01*
X167241485Y-62285662D01*
X167437517Y-62268567D01*
X167451195Y-62265200D01*
X166748000Y-62265200D01*
X166697200Y-62316000D01*
X166646400Y-62265200D01*
X165833600Y-62265200D01*
X165782800Y-62316000D01*
X165732000Y-62265200D01*
X165782800Y-62214400D01*
X165833600Y-62265200D01*
X166646400Y-62265200D01*
X166697200Y-62214400D01*
X166748000Y-62265200D01*
X167451195Y-62265200D01*
X167665563Y-62212432D01*
X167760039Y-62091983D01*
X167711853Y-61968352D01*
X167511917Y-61902672D01*
X167492050Y-61901826D01*
X167211185Y-61883904D01*
X167026915Y-61859945D01*
X166837874Y-61909094D01*
X166837874Y-61909094D01*
G37*
X166837874Y-61909094D02*
X166701218Y-62036296D01*
X166565995Y-62176368D01*
X166507065Y-62163600D01*
X166341600Y-62163600D01*
X166290800Y-62214400D01*
X166240000Y-62163600D01*
X166290800Y-62112800D01*
X166341600Y-62163600D01*
X166507065Y-62163600D01*
X166437625Y-62148555D01*
X166405949Y-62124044D01*
X166251901Y-62059341D01*
X166192080Y-62108141D01*
X166065449Y-62158816D01*
X165908491Y-62098505D01*
X165722734Y-62035257D01*
X165654093Y-62092523D01*
X165545643Y-62163871D01*
X165487714Y-62153268D01*
X165323546Y-62180025D01*
X165231349Y-62256346D01*
X165184108Y-62339585D01*
X165245260Y-62377746D01*
X165449325Y-62378568D01*
X165697671Y-62360911D01*
X166084451Y-62329956D01*
X166328428Y-62314325D01*
X166489364Y-62313249D01*
X166627017Y-62325957D01*
X166770731Y-62347079D01*
X166993639Y-62358949D01*
X167106031Y-62330503D01*
X167241485Y-62285662D01*
X167437517Y-62268567D01*
X167451195Y-62265200D01*
X166748000Y-62265200D01*
X166697200Y-62316000D01*
X166646400Y-62265200D01*
X165833600Y-62265200D01*
X165782800Y-62316000D01*
X165732000Y-62265200D01*
X165782800Y-62214400D01*
X165833600Y-62265200D01*
X166646400Y-62265200D01*
X166697200Y-62214400D01*
X166748000Y-62265200D01*
X167451195Y-62265200D01*
X167665563Y-62212432D01*
X167760039Y-62091983D01*
X167711853Y-61968352D01*
X167511917Y-61902672D01*
X167492050Y-61901826D01*
X167211185Y-61883904D01*
X167026915Y-61859945D01*
X166837874Y-61909094D01*
G36*
X164919200Y-62468400D02*
G01*
X164970000Y-62519200D01*
X165020800Y-62468400D01*
X164970000Y-62417600D01*
X164919200Y-62468400D01*
X164919200Y-62468400D01*
G37*
X164919200Y-62468400D02*
X164970000Y-62519200D01*
X165020800Y-62468400D01*
X164970000Y-62417600D01*
X164919200Y-62468400D01*
G36*
X166951200Y-62570000D02*
G01*
X167002000Y-62620800D01*
X167052800Y-62570000D01*
X167002000Y-62519200D01*
X166951200Y-62570000D01*
X166951200Y-62570000D01*
G37*
X166951200Y-62570000D02*
X167002000Y-62620800D01*
X167052800Y-62570000D01*
X167002000Y-62519200D01*
X166951200Y-62570000D01*
G36*
X167193168Y-62592443D02*
G01*
X167154400Y-62671918D01*
X167211551Y-62840084D01*
X167350820Y-62836006D01*
X167433800Y-62766824D01*
X167546740Y-62621588D01*
X167493110Y-62563208D01*
X167357600Y-62547135D01*
X167193168Y-62592443D01*
X167193168Y-62592443D01*
G37*
X167193168Y-62592443D02*
X167154400Y-62671918D01*
X167211551Y-62840084D01*
X167350820Y-62836006D01*
X167433800Y-62766824D01*
X167546740Y-62621588D01*
X167493110Y-62563208D01*
X167357600Y-62547135D01*
X167193168Y-62592443D01*
G36*
X142770400Y-63687600D02*
G01*
X142821200Y-63738400D01*
X142872000Y-63687600D01*
X142821200Y-63636800D01*
X142770400Y-63687600D01*
X142770400Y-63687600D01*
G37*
X142770400Y-63687600D02*
X142821200Y-63738400D01*
X142872000Y-63687600D01*
X142821200Y-63636800D01*
X142770400Y-63687600D01*
G36*
X158315200Y-63687600D02*
G01*
X158366000Y-63738400D01*
X158416800Y-63687600D01*
X158366000Y-63636800D01*
X158315200Y-63687600D01*
X158315200Y-63687600D01*
G37*
X158315200Y-63687600D02*
X158366000Y-63738400D01*
X158416800Y-63687600D01*
X158366000Y-63636800D01*
X158315200Y-63687600D01*
G36*
X142973600Y-63789200D02*
G01*
X143024400Y-63840000D01*
X143075200Y-63789200D01*
X143024400Y-63738400D01*
X142973600Y-63789200D01*
X142973600Y-63789200D01*
G37*
X142973600Y-63789200D02*
X143024400Y-63840000D01*
X143075200Y-63789200D01*
X143024400Y-63738400D01*
X142973600Y-63789200D01*
G36*
X165578658Y-63685871D02*
G01*
X165323564Y-63705983D01*
X165224101Y-63737598D01*
X165224000Y-63738779D01*
X165150205Y-63793547D01*
X165081877Y-63779084D01*
X164920167Y-63786247D01*
X164877375Y-63825479D01*
X164932819Y-63882708D01*
X165169161Y-63915830D01*
X165462211Y-63922677D01*
X165834114Y-63934782D01*
X166144941Y-63970002D01*
X166301713Y-64011226D01*
X166525922Y-64058031D01*
X166832100Y-64055089D01*
X166892459Y-64047954D01*
X167136470Y-63983336D01*
X167305467Y-63886815D01*
X167363643Y-63791633D01*
X167275187Y-63731032D01*
X167239067Y-63726190D01*
X166819588Y-63697423D01*
X166372484Y-63681305D01*
X165943569Y-63677550D01*
X165578658Y-63685871D01*
X165578658Y-63685871D01*
G37*
X165578658Y-63685871D02*
X165323564Y-63705983D01*
X165224101Y-63737598D01*
X165224000Y-63738779D01*
X165150205Y-63793547D01*
X165081877Y-63779084D01*
X164920167Y-63786247D01*
X164877375Y-63825479D01*
X164932819Y-63882708D01*
X165169161Y-63915830D01*
X165462211Y-63922677D01*
X165834114Y-63934782D01*
X166144941Y-63970002D01*
X166301713Y-64011226D01*
X166525922Y-64058031D01*
X166832100Y-64055089D01*
X166892459Y-64047954D01*
X167136470Y-63983336D01*
X167305467Y-63886815D01*
X167363643Y-63791633D01*
X167275187Y-63731032D01*
X167239067Y-63726190D01*
X166819588Y-63697423D01*
X166372484Y-63681305D01*
X165943569Y-63677550D01*
X165578658Y-63685871D01*
G36*
X151339725Y-64105443D02*
G01*
X151355600Y-64144800D01*
X151446899Y-64241724D01*
X151463197Y-64246400D01*
X151506836Y-64167792D01*
X151508000Y-64144800D01*
X151429895Y-64047104D01*
X151400404Y-64043200D01*
X151339725Y-64105443D01*
X151339725Y-64105443D01*
G37*
X151339725Y-64105443D02*
X151355600Y-64144800D01*
X151446899Y-64241724D01*
X151463197Y-64246400D01*
X151506836Y-64167792D01*
X151508000Y-64144800D01*
X151429895Y-64047104D01*
X151400404Y-64043200D01*
X151339725Y-64105443D01*
G36*
X166417800Y-64265958D02*
G01*
X166153953Y-64306362D01*
X166001213Y-64371009D01*
X165986000Y-64398800D01*
X166075343Y-64486638D01*
X166307695Y-64515860D01*
X166621000Y-64481247D01*
X166819583Y-64410822D01*
X166841018Y-64334437D01*
X166708974Y-64277170D01*
X166447119Y-64264096D01*
X166417800Y-64265958D01*
X166417800Y-64265958D01*
G37*
X166417800Y-64265958D02*
X166153953Y-64306362D01*
X166001213Y-64371009D01*
X165986000Y-64398800D01*
X166075343Y-64486638D01*
X166307695Y-64515860D01*
X166621000Y-64481247D01*
X166819583Y-64410822D01*
X166841018Y-64334437D01*
X166708974Y-64277170D01*
X166447119Y-64264096D01*
X166417800Y-64265958D01*
G36*
X137027030Y-57580162D02*
G01*
X137015236Y-57591849D01*
X136863461Y-57694966D01*
X136774157Y-57639417D01*
X136668884Y-57573208D01*
X136476039Y-57639929D01*
X136458721Y-57649078D01*
X136265010Y-57736453D01*
X136170367Y-57753649D01*
X136101005Y-57812349D01*
X136050508Y-57914281D01*
X135990109Y-58024877D01*
X135963200Y-57947200D01*
X135930777Y-57882118D01*
X135867016Y-57998000D01*
X135834168Y-58204911D01*
X135865756Y-58303088D01*
X135874724Y-58427052D01*
X135810446Y-58590981D01*
X135716798Y-58711163D01*
X135648355Y-58717868D01*
X135557115Y-58748084D01*
X135476595Y-58821047D01*
X135395367Y-58936884D01*
X135406060Y-58963200D01*
X135380251Y-59020237D01*
X135238691Y-59160613D01*
X135203352Y-59191800D01*
X135069956Y-59328682D01*
X134985681Y-59491652D01*
X134934948Y-59734332D01*
X134902182Y-60110342D01*
X134893447Y-60258600D01*
X134877504Y-60697964D01*
X134891137Y-60963827D01*
X134936993Y-61084094D01*
X134973161Y-61098355D01*
X135040343Y-61127977D01*
X134987810Y-61174555D01*
X134853826Y-61319323D01*
X134763452Y-61463195D01*
X134708240Y-61662723D01*
X134809190Y-61846380D01*
X134833943Y-61873681D01*
X134962936Y-62096504D01*
X134986089Y-62272736D01*
X135043351Y-62490043D01*
X135162649Y-62604870D01*
X135333068Y-62675869D01*
X135474714Y-62606101D01*
X135562953Y-62512106D01*
X135653024Y-62366800D01*
X135353600Y-62366800D01*
X135302800Y-62417600D01*
X135252000Y-62366800D01*
X135302800Y-62316000D01*
X135353600Y-62366800D01*
X135653024Y-62366800D01*
X135681837Y-62320318D01*
X135691394Y-62185587D01*
X135692273Y-62130809D01*
X135751062Y-62158075D01*
X135830461Y-62257780D01*
X135818206Y-62291660D01*
X135844159Y-62384597D01*
X135951922Y-62482095D01*
X136097607Y-62680577D01*
X136199943Y-63006963D01*
X136210807Y-63070779D01*
X136352805Y-63519527D01*
X136614378Y-63861257D01*
X136835431Y-64115278D01*
X136992278Y-64354937D01*
X137022093Y-64424686D01*
X137099233Y-64582353D01*
X137233882Y-64631640D01*
X137488555Y-64591296D01*
X137538000Y-64579402D01*
X138030716Y-64399810D01*
X138529643Y-64123164D01*
X138889132Y-63844276D01*
X139106432Y-63665957D01*
X139263878Y-63586000D01*
X138808000Y-63586000D01*
X138757200Y-63636800D01*
X138706400Y-63586000D01*
X138757200Y-63535200D01*
X138808000Y-63586000D01*
X139263878Y-63586000D01*
X139272058Y-63581846D01*
X139313938Y-63584725D01*
X139374634Y-63554383D01*
X139371477Y-63457881D01*
X139379324Y-63336237D01*
X139393763Y-63332000D01*
X139011200Y-63332000D01*
X138974027Y-63415628D01*
X138943467Y-63399733D01*
X138931308Y-63279157D01*
X138943467Y-63264266D01*
X139003868Y-63278213D01*
X139011200Y-63332000D01*
X139393763Y-63332000D01*
X139501796Y-63300300D01*
X139680773Y-63313787D01*
X139895566Y-63361328D01*
X139977735Y-63426173D01*
X139973928Y-63437600D01*
X139993270Y-63557987D01*
X140025543Y-63584975D01*
X140111147Y-63558434D01*
X140131032Y-63464996D01*
X140168983Y-63440336D01*
X140264248Y-63572385D01*
X140350501Y-63738400D01*
X140472902Y-64017879D01*
X140542958Y-64221068D01*
X140550020Y-64276150D01*
X140610017Y-64297372D01*
X140747337Y-64241617D01*
X141007075Y-64171747D01*
X141175300Y-64182214D01*
X141405960Y-64180918D01*
X141520514Y-64128107D01*
X141632228Y-64066083D01*
X141652800Y-64084168D01*
X141730939Y-64086784D01*
X141923763Y-64009131D01*
X141972396Y-63984749D01*
X142165983Y-63846273D01*
X142164900Y-63738293D01*
X141976218Y-63666997D01*
X141607009Y-63638573D01*
X141576600Y-63638355D01*
X141290231Y-63617240D01*
X141162550Y-63546041D01*
X141144800Y-63473529D01*
X141203196Y-63359414D01*
X141314478Y-63375371D01*
X141489058Y-63381194D01*
X141548769Y-63335934D01*
X141689290Y-63250194D01*
X141887092Y-63208733D01*
X141974342Y-63179600D01*
X141348000Y-63179600D01*
X141297200Y-63230400D01*
X141246400Y-63179600D01*
X141297200Y-63128800D01*
X141348000Y-63179600D01*
X141974342Y-63179600D01*
X142108937Y-63134659D01*
X142160800Y-63008614D01*
X142145768Y-62976400D01*
X138300000Y-62976400D01*
X138249200Y-63027200D01*
X138198400Y-62976400D01*
X137995200Y-62976400D01*
X137944400Y-63027200D01*
X137893600Y-62976400D01*
X137944400Y-62925600D01*
X137995200Y-62976400D01*
X138198400Y-62976400D01*
X138249200Y-62925600D01*
X138300000Y-62976400D01*
X142145768Y-62976400D01*
X142074064Y-62822746D01*
X141873016Y-62683881D01*
X141646398Y-62646757D01*
X141595611Y-62659993D01*
X141441141Y-62626347D01*
X141345976Y-62515416D01*
X141158060Y-62352499D01*
X140985251Y-62316000D01*
X140708046Y-62259643D01*
X140480826Y-62151914D01*
X140297255Y-62055617D01*
X140231886Y-62094840D01*
X140230400Y-62116861D01*
X140189546Y-62181122D01*
X140052600Y-62089764D01*
X139829798Y-61943450D01*
X139584268Y-61846158D01*
X139408321Y-61834415D01*
X139407816Y-61834615D01*
X139290275Y-61798116D01*
X139224258Y-61752079D01*
X135658400Y-61752079D01*
X135619209Y-62014780D01*
X135518414Y-62139636D01*
X135398575Y-62107964D01*
X135308477Y-61942445D01*
X135316695Y-61859227D01*
X135424669Y-61717165D01*
X135562030Y-61659932D01*
X135652079Y-61711578D01*
X135658400Y-61752079D01*
X139224258Y-61752079D01*
X139189096Y-61727559D01*
X139034337Y-61655989D01*
X138977901Y-61704699D01*
X138945790Y-61731898D01*
X138952538Y-61683540D01*
X139062025Y-61588142D01*
X139244881Y-61557629D01*
X139300213Y-61554000D01*
X136877600Y-61554000D01*
X136826800Y-61604800D01*
X136776000Y-61554000D01*
X136826800Y-61503200D01*
X136877600Y-61554000D01*
X139300213Y-61554000D01*
X139423930Y-61545886D01*
X139464445Y-61516177D01*
X139475625Y-61435466D01*
X138570934Y-61435466D01*
X138556987Y-61495867D01*
X138503200Y-61503200D01*
X138419572Y-61466026D01*
X138426659Y-61452400D01*
X138300000Y-61452400D01*
X138249200Y-61503200D01*
X138198400Y-61452400D01*
X138249200Y-61401600D01*
X138300000Y-61452400D01*
X138426659Y-61452400D01*
X138435467Y-61435466D01*
X138556043Y-61423307D01*
X138570934Y-61435466D01*
X139475625Y-61435466D01*
X139478854Y-61412163D01*
X139524353Y-61344591D01*
X139531709Y-61249200D01*
X139519200Y-61249200D01*
X139468400Y-61300000D01*
X139417600Y-61249200D01*
X136979200Y-61249200D01*
X136928400Y-61300000D01*
X136877600Y-61249200D01*
X136928400Y-61198400D01*
X136979200Y-61249200D01*
X139417600Y-61249200D01*
X139468400Y-61198400D01*
X139519200Y-61249200D01*
X139531709Y-61249200D01*
X139535958Y-61194106D01*
X139422721Y-61001927D01*
X139391399Y-60972620D01*
X138246466Y-60972620D01*
X138238735Y-61012133D01*
X138155411Y-61095426D01*
X138147600Y-61096800D01*
X138066482Y-61027320D01*
X138056466Y-61012133D01*
X138086736Y-60937315D01*
X138147600Y-60927466D01*
X138246466Y-60972620D01*
X139391399Y-60972620D01*
X139236131Y-60827345D01*
X139027678Y-60729650D01*
X138985800Y-60724445D01*
X138655289Y-60691264D01*
X138527067Y-60639600D01*
X137080800Y-60639600D01*
X137030000Y-60690400D01*
X136979200Y-60639600D01*
X137030000Y-60588800D01*
X137080800Y-60639600D01*
X138527067Y-60639600D01*
X138442050Y-60605345D01*
X138260527Y-60426192D01*
X138204321Y-60354578D01*
X138070183Y-60171413D01*
X138026087Y-60094446D01*
X138039134Y-60101879D01*
X138154516Y-60085711D01*
X138237018Y-60013066D01*
X137046934Y-60013066D01*
X137032987Y-60073467D01*
X136979200Y-60080800D01*
X136895572Y-60043626D01*
X136911467Y-60013066D01*
X137032043Y-60000907D01*
X137046934Y-60013066D01*
X138237018Y-60013066D01*
X138309233Y-59949479D01*
X138441113Y-59820987D01*
X138499708Y-59821981D01*
X138499820Y-59824006D01*
X138549787Y-59826570D01*
X138661362Y-59697006D01*
X138829277Y-59528079D01*
X138966162Y-59471200D01*
X139083890Y-59420400D01*
X136979200Y-59420400D01*
X136928400Y-59471200D01*
X136877600Y-59420400D01*
X136928400Y-59369600D01*
X136979200Y-59420400D01*
X139083890Y-59420400D01*
X139097629Y-59414472D01*
X139112800Y-59369599D01*
X139056500Y-59287395D01*
X139036600Y-59289464D01*
X138861488Y-59291408D01*
X138637332Y-59242726D01*
X138439864Y-59167566D01*
X138344816Y-59090077D01*
X138347712Y-59069797D01*
X138307344Y-59005734D01*
X138111903Y-58991668D01*
X138100647Y-58992404D01*
X137884879Y-59044012D01*
X137792264Y-59138528D01*
X137792202Y-59141000D01*
X137711274Y-59256353D01*
X137653473Y-59268000D01*
X137590134Y-59221699D01*
X137349195Y-59221699D01*
X137265241Y-59352016D01*
X137210271Y-59369600D01*
X137201003Y-59318984D01*
X137215386Y-59302748D01*
X137218235Y-59180581D01*
X137169079Y-59099548D01*
X137148832Y-59058184D01*
X136954290Y-59058184D01*
X136940393Y-59064800D01*
X136847674Y-58993275D01*
X136826800Y-58963200D01*
X136800911Y-58868215D01*
X136814808Y-58861600D01*
X136907527Y-58933124D01*
X136928400Y-58963200D01*
X136954290Y-59058184D01*
X137148832Y-59058184D01*
X137112119Y-58983183D01*
X137163964Y-58963200D01*
X137314077Y-59037648D01*
X137334800Y-59064800D01*
X137349195Y-59221699D01*
X137590134Y-59221699D01*
X137549476Y-59191978D01*
X137533955Y-59021179D01*
X137602399Y-58841502D01*
X137679805Y-58766442D01*
X137771217Y-58608985D01*
X137756723Y-58509814D01*
X137649109Y-58400010D01*
X137573514Y-58413847D01*
X137496705Y-58411710D01*
X137509469Y-58302800D01*
X137385600Y-58302800D01*
X137334800Y-58353600D01*
X137284000Y-58302800D01*
X137334800Y-58252000D01*
X137385600Y-58302800D01*
X137509469Y-58302800D01*
X137514437Y-58260420D01*
X137499443Y-58099600D01*
X137487200Y-58099600D01*
X137436400Y-58150400D01*
X137385600Y-58099600D01*
X137436400Y-58048800D01*
X137487200Y-58099600D01*
X137499443Y-58099600D01*
X137490365Y-58002246D01*
X137402877Y-57896400D01*
X137182400Y-57896400D01*
X137131600Y-57947200D01*
X137080800Y-57896400D01*
X137131600Y-57845600D01*
X137182400Y-57896400D01*
X137402877Y-57896400D01*
X137378041Y-57866353D01*
X137227449Y-57687592D01*
X137182400Y-57561763D01*
X137148311Y-57490843D01*
X137027030Y-57580162D01*
X137027030Y-57580162D01*
G37*
X137027030Y-57580162D02*
X137015236Y-57591849D01*
X136863461Y-57694966D01*
X136774157Y-57639417D01*
X136668884Y-57573208D01*
X136476039Y-57639929D01*
X136458721Y-57649078D01*
X136265010Y-57736453D01*
X136170367Y-57753649D01*
X136101005Y-57812349D01*
X136050508Y-57914281D01*
X135990109Y-58024877D01*
X135963200Y-57947200D01*
X135930777Y-57882118D01*
X135867016Y-57998000D01*
X135834168Y-58204911D01*
X135865756Y-58303088D01*
X135874724Y-58427052D01*
X135810446Y-58590981D01*
X135716798Y-58711163D01*
X135648355Y-58717868D01*
X135557115Y-58748084D01*
X135476595Y-58821047D01*
X135395367Y-58936884D01*
X135406060Y-58963200D01*
X135380251Y-59020237D01*
X135238691Y-59160613D01*
X135203352Y-59191800D01*
X135069956Y-59328682D01*
X134985681Y-59491652D01*
X134934948Y-59734332D01*
X134902182Y-60110342D01*
X134893447Y-60258600D01*
X134877504Y-60697964D01*
X134891137Y-60963827D01*
X134936993Y-61084094D01*
X134973161Y-61098355D01*
X135040343Y-61127977D01*
X134987810Y-61174555D01*
X134853826Y-61319323D01*
X134763452Y-61463195D01*
X134708240Y-61662723D01*
X134809190Y-61846380D01*
X134833943Y-61873681D01*
X134962936Y-62096504D01*
X134986089Y-62272736D01*
X135043351Y-62490043D01*
X135162649Y-62604870D01*
X135333068Y-62675869D01*
X135474714Y-62606101D01*
X135562953Y-62512106D01*
X135653024Y-62366800D01*
X135353600Y-62366800D01*
X135302800Y-62417600D01*
X135252000Y-62366800D01*
X135302800Y-62316000D01*
X135353600Y-62366800D01*
X135653024Y-62366800D01*
X135681837Y-62320318D01*
X135691394Y-62185587D01*
X135692273Y-62130809D01*
X135751062Y-62158075D01*
X135830461Y-62257780D01*
X135818206Y-62291660D01*
X135844159Y-62384597D01*
X135951922Y-62482095D01*
X136097607Y-62680577D01*
X136199943Y-63006963D01*
X136210807Y-63070779D01*
X136352805Y-63519527D01*
X136614378Y-63861257D01*
X136835431Y-64115278D01*
X136992278Y-64354937D01*
X137022093Y-64424686D01*
X137099233Y-64582353D01*
X137233882Y-64631640D01*
X137488555Y-64591296D01*
X137538000Y-64579402D01*
X138030716Y-64399810D01*
X138529643Y-64123164D01*
X138889132Y-63844276D01*
X139106432Y-63665957D01*
X139263878Y-63586000D01*
X138808000Y-63586000D01*
X138757200Y-63636800D01*
X138706400Y-63586000D01*
X138757200Y-63535200D01*
X138808000Y-63586000D01*
X139263878Y-63586000D01*
X139272058Y-63581846D01*
X139313938Y-63584725D01*
X139374634Y-63554383D01*
X139371477Y-63457881D01*
X139379324Y-63336237D01*
X139393763Y-63332000D01*
X139011200Y-63332000D01*
X138974027Y-63415628D01*
X138943467Y-63399733D01*
X138931308Y-63279157D01*
X138943467Y-63264266D01*
X139003868Y-63278213D01*
X139011200Y-63332000D01*
X139393763Y-63332000D01*
X139501796Y-63300300D01*
X139680773Y-63313787D01*
X139895566Y-63361328D01*
X139977735Y-63426173D01*
X139973928Y-63437600D01*
X139993270Y-63557987D01*
X140025543Y-63584975D01*
X140111147Y-63558434D01*
X140131032Y-63464996D01*
X140168983Y-63440336D01*
X140264248Y-63572385D01*
X140350501Y-63738400D01*
X140472902Y-64017879D01*
X140542958Y-64221068D01*
X140550020Y-64276150D01*
X140610017Y-64297372D01*
X140747337Y-64241617D01*
X141007075Y-64171747D01*
X141175300Y-64182214D01*
X141405960Y-64180918D01*
X141520514Y-64128107D01*
X141632228Y-64066083D01*
X141652800Y-64084168D01*
X141730939Y-64086784D01*
X141923763Y-64009131D01*
X141972396Y-63984749D01*
X142165983Y-63846273D01*
X142164900Y-63738293D01*
X141976218Y-63666997D01*
X141607009Y-63638573D01*
X141576600Y-63638355D01*
X141290231Y-63617240D01*
X141162550Y-63546041D01*
X141144800Y-63473529D01*
X141203196Y-63359414D01*
X141314478Y-63375371D01*
X141489058Y-63381194D01*
X141548769Y-63335934D01*
X141689290Y-63250194D01*
X141887092Y-63208733D01*
X141974342Y-63179600D01*
X141348000Y-63179600D01*
X141297200Y-63230400D01*
X141246400Y-63179600D01*
X141297200Y-63128800D01*
X141348000Y-63179600D01*
X141974342Y-63179600D01*
X142108937Y-63134659D01*
X142160800Y-63008614D01*
X142145768Y-62976400D01*
X138300000Y-62976400D01*
X138249200Y-63027200D01*
X138198400Y-62976400D01*
X137995200Y-62976400D01*
X137944400Y-63027200D01*
X137893600Y-62976400D01*
X137944400Y-62925600D01*
X137995200Y-62976400D01*
X138198400Y-62976400D01*
X138249200Y-62925600D01*
X138300000Y-62976400D01*
X142145768Y-62976400D01*
X142074064Y-62822746D01*
X141873016Y-62683881D01*
X141646398Y-62646757D01*
X141595611Y-62659993D01*
X141441141Y-62626347D01*
X141345976Y-62515416D01*
X141158060Y-62352499D01*
X140985251Y-62316000D01*
X140708046Y-62259643D01*
X140480826Y-62151914D01*
X140297255Y-62055617D01*
X140231886Y-62094840D01*
X140230400Y-62116861D01*
X140189546Y-62181122D01*
X140052600Y-62089764D01*
X139829798Y-61943450D01*
X139584268Y-61846158D01*
X139408321Y-61834415D01*
X139407816Y-61834615D01*
X139290275Y-61798116D01*
X139224258Y-61752079D01*
X135658400Y-61752079D01*
X135619209Y-62014780D01*
X135518414Y-62139636D01*
X135398575Y-62107964D01*
X135308477Y-61942445D01*
X135316695Y-61859227D01*
X135424669Y-61717165D01*
X135562030Y-61659932D01*
X135652079Y-61711578D01*
X135658400Y-61752079D01*
X139224258Y-61752079D01*
X139189096Y-61727559D01*
X139034337Y-61655989D01*
X138977901Y-61704699D01*
X138945790Y-61731898D01*
X138952538Y-61683540D01*
X139062025Y-61588142D01*
X139244881Y-61557629D01*
X139300213Y-61554000D01*
X136877600Y-61554000D01*
X136826800Y-61604800D01*
X136776000Y-61554000D01*
X136826800Y-61503200D01*
X136877600Y-61554000D01*
X139300213Y-61554000D01*
X139423930Y-61545886D01*
X139464445Y-61516177D01*
X139475625Y-61435466D01*
X138570934Y-61435466D01*
X138556987Y-61495867D01*
X138503200Y-61503200D01*
X138419572Y-61466026D01*
X138426659Y-61452400D01*
X138300000Y-61452400D01*
X138249200Y-61503200D01*
X138198400Y-61452400D01*
X138249200Y-61401600D01*
X138300000Y-61452400D01*
X138426659Y-61452400D01*
X138435467Y-61435466D01*
X138556043Y-61423307D01*
X138570934Y-61435466D01*
X139475625Y-61435466D01*
X139478854Y-61412163D01*
X139524353Y-61344591D01*
X139531709Y-61249200D01*
X139519200Y-61249200D01*
X139468400Y-61300000D01*
X139417600Y-61249200D01*
X136979200Y-61249200D01*
X136928400Y-61300000D01*
X136877600Y-61249200D01*
X136928400Y-61198400D01*
X136979200Y-61249200D01*
X139417600Y-61249200D01*
X139468400Y-61198400D01*
X139519200Y-61249200D01*
X139531709Y-61249200D01*
X139535958Y-61194106D01*
X139422721Y-61001927D01*
X139391399Y-60972620D01*
X138246466Y-60972620D01*
X138238735Y-61012133D01*
X138155411Y-61095426D01*
X138147600Y-61096800D01*
X138066482Y-61027320D01*
X138056466Y-61012133D01*
X138086736Y-60937315D01*
X138147600Y-60927466D01*
X138246466Y-60972620D01*
X139391399Y-60972620D01*
X139236131Y-60827345D01*
X139027678Y-60729650D01*
X138985800Y-60724445D01*
X138655289Y-60691264D01*
X138527067Y-60639600D01*
X137080800Y-60639600D01*
X137030000Y-60690400D01*
X136979200Y-60639600D01*
X137030000Y-60588800D01*
X137080800Y-60639600D01*
X138527067Y-60639600D01*
X138442050Y-60605345D01*
X138260527Y-60426192D01*
X138204321Y-60354578D01*
X138070183Y-60171413D01*
X138026087Y-60094446D01*
X138039134Y-60101879D01*
X138154516Y-60085711D01*
X138237018Y-60013066D01*
X137046934Y-60013066D01*
X137032987Y-60073467D01*
X136979200Y-60080800D01*
X136895572Y-60043626D01*
X136911467Y-60013066D01*
X137032043Y-60000907D01*
X137046934Y-60013066D01*
X138237018Y-60013066D01*
X138309233Y-59949479D01*
X138441113Y-59820987D01*
X138499708Y-59821981D01*
X138499820Y-59824006D01*
X138549787Y-59826570D01*
X138661362Y-59697006D01*
X138829277Y-59528079D01*
X138966162Y-59471200D01*
X139083890Y-59420400D01*
X136979200Y-59420400D01*
X136928400Y-59471200D01*
X136877600Y-59420400D01*
X136928400Y-59369600D01*
X136979200Y-59420400D01*
X139083890Y-59420400D01*
X139097629Y-59414472D01*
X139112800Y-59369599D01*
X139056500Y-59287395D01*
X139036600Y-59289464D01*
X138861488Y-59291408D01*
X138637332Y-59242726D01*
X138439864Y-59167566D01*
X138344816Y-59090077D01*
X138347712Y-59069797D01*
X138307344Y-59005734D01*
X138111903Y-58991668D01*
X138100647Y-58992404D01*
X137884879Y-59044012D01*
X137792264Y-59138528D01*
X137792202Y-59141000D01*
X137711274Y-59256353D01*
X137653473Y-59268000D01*
X137590134Y-59221699D01*
X137349195Y-59221699D01*
X137265241Y-59352016D01*
X137210271Y-59369600D01*
X137201003Y-59318984D01*
X137215386Y-59302748D01*
X137218235Y-59180581D01*
X137169079Y-59099548D01*
X137148832Y-59058184D01*
X136954290Y-59058184D01*
X136940393Y-59064800D01*
X136847674Y-58993275D01*
X136826800Y-58963200D01*
X136800911Y-58868215D01*
X136814808Y-58861600D01*
X136907527Y-58933124D01*
X136928400Y-58963200D01*
X136954290Y-59058184D01*
X137148832Y-59058184D01*
X137112119Y-58983183D01*
X137163964Y-58963200D01*
X137314077Y-59037648D01*
X137334800Y-59064800D01*
X137349195Y-59221699D01*
X137590134Y-59221699D01*
X137549476Y-59191978D01*
X137533955Y-59021179D01*
X137602399Y-58841502D01*
X137679805Y-58766442D01*
X137771217Y-58608985D01*
X137756723Y-58509814D01*
X137649109Y-58400010D01*
X137573514Y-58413847D01*
X137496705Y-58411710D01*
X137509469Y-58302800D01*
X137385600Y-58302800D01*
X137334800Y-58353600D01*
X137284000Y-58302800D01*
X137334800Y-58252000D01*
X137385600Y-58302800D01*
X137509469Y-58302800D01*
X137514437Y-58260420D01*
X137499443Y-58099600D01*
X137487200Y-58099600D01*
X137436400Y-58150400D01*
X137385600Y-58099600D01*
X137436400Y-58048800D01*
X137487200Y-58099600D01*
X137499443Y-58099600D01*
X137490365Y-58002246D01*
X137402877Y-57896400D01*
X137182400Y-57896400D01*
X137131600Y-57947200D01*
X137080800Y-57896400D01*
X137131600Y-57845600D01*
X137182400Y-57896400D01*
X137402877Y-57896400D01*
X137378041Y-57866353D01*
X137227449Y-57687592D01*
X137182400Y-57561763D01*
X137148311Y-57490843D01*
X137027030Y-57580162D01*
G36*
X140941600Y-64906800D02*
G01*
X140992400Y-64957600D01*
X141043200Y-64906800D01*
X140992400Y-64856000D01*
X140941600Y-64906800D01*
X140941600Y-64906800D01*
G37*
X140941600Y-64906800D02*
X140992400Y-64957600D01*
X141043200Y-64906800D01*
X140992400Y-64856000D01*
X140941600Y-64906800D01*
G36*
X148794516Y-70892221D02*
G01*
X148714000Y-70952000D01*
X148721416Y-71035767D01*
X148850949Y-71042413D01*
X149036719Y-70971939D01*
X149069600Y-70952000D01*
X149150844Y-70877384D01*
X149050459Y-70852966D01*
X148999397Y-70851955D01*
X148794516Y-70892221D01*
X148794516Y-70892221D01*
G37*
X148794516Y-70892221D02*
X148714000Y-70952000D01*
X148721416Y-71035767D01*
X148850949Y-71042413D01*
X149036719Y-70971939D01*
X149069600Y-70952000D01*
X149150844Y-70877384D01*
X149050459Y-70852966D01*
X148999397Y-70851955D01*
X148794516Y-70892221D01*
G36*
X166341600Y-71714000D02*
G01*
X166392400Y-71764800D01*
X166443200Y-71714000D01*
X166392400Y-71663200D01*
X166341600Y-71714000D01*
X166341600Y-71714000D01*
G37*
X166341600Y-71714000D02*
X166392400Y-71764800D01*
X166443200Y-71714000D01*
X166392400Y-71663200D01*
X166341600Y-71714000D01*
G36*
X163473151Y-71741083D02*
G01*
X163395200Y-71866400D01*
X163329798Y-72023486D01*
X163337251Y-72069600D01*
X163418850Y-71991716D01*
X163496800Y-71866400D01*
X163562203Y-71709313D01*
X163554750Y-71663200D01*
X163473151Y-71741083D01*
X163473151Y-71741083D01*
G37*
X163473151Y-71741083D02*
X163395200Y-71866400D01*
X163329798Y-72023486D01*
X163337251Y-72069600D01*
X163418850Y-71991716D01*
X163496800Y-71866400D01*
X163562203Y-71709313D01*
X163554750Y-71663200D01*
X163473151Y-71741083D01*
G36*
X166240000Y-72018800D02*
G01*
X166290800Y-72069600D01*
X166341600Y-72018800D01*
X166290800Y-71968000D01*
X166240000Y-72018800D01*
X166240000Y-72018800D01*
G37*
X166240000Y-72018800D02*
X166290800Y-72069600D01*
X166341600Y-72018800D01*
X166290800Y-71968000D01*
X166240000Y-72018800D01*
G36*
X165532935Y-72244952D02*
G01*
X165528800Y-72272800D01*
X165563465Y-72371758D01*
X165573604Y-72374400D01*
X165660347Y-72303205D01*
X165681200Y-72272800D01*
X165673145Y-72179177D01*
X165636397Y-72171200D01*
X165532935Y-72244952D01*
X165532935Y-72244952D01*
G37*
X165532935Y-72244952D02*
X165528800Y-72272800D01*
X165563465Y-72371758D01*
X165573604Y-72374400D01*
X165660347Y-72303205D01*
X165681200Y-72272800D01*
X165673145Y-72179177D01*
X165636397Y-72171200D01*
X165532935Y-72244952D01*
G36*
X163839840Y-70203967D02*
G01*
X163675369Y-70419242D01*
X163514988Y-70650788D01*
X163283138Y-70961551D01*
X163092101Y-71206000D01*
X162812661Y-71586324D01*
X162548662Y-71999546D01*
X162324373Y-72400977D01*
X162164063Y-72745928D01*
X162092000Y-72989710D01*
X162092747Y-73046255D01*
X162144334Y-73114634D01*
X162256054Y-73021890D01*
X162337459Y-72917199D01*
X162521751Y-72631336D01*
X162707804Y-72291402D01*
X162741562Y-72222000D01*
X162911647Y-71915953D01*
X163096270Y-71659717D01*
X163140176Y-71612400D01*
X163437998Y-71293626D01*
X163708762Y-70958074D01*
X163922675Y-70648248D01*
X164049943Y-70406652D01*
X164068362Y-70288218D01*
X163970710Y-70154198D01*
X163839840Y-70203967D01*
X163839840Y-70203967D01*
G37*
X163839840Y-70203967D02*
X163675369Y-70419242D01*
X163514988Y-70650788D01*
X163283138Y-70961551D01*
X163092101Y-71206000D01*
X162812661Y-71586324D01*
X162548662Y-71999546D01*
X162324373Y-72400977D01*
X162164063Y-72745928D01*
X162092000Y-72989710D01*
X162092747Y-73046255D01*
X162144334Y-73114634D01*
X162256054Y-73021890D01*
X162337459Y-72917199D01*
X162521751Y-72631336D01*
X162707804Y-72291402D01*
X162741562Y-72222000D01*
X162911647Y-71915953D01*
X163096270Y-71659717D01*
X163140176Y-71612400D01*
X163437998Y-71293626D01*
X163708762Y-70958074D01*
X163922675Y-70648248D01*
X164049943Y-70406652D01*
X164068362Y-70288218D01*
X163970710Y-70154198D01*
X163839840Y-70203967D01*
G36*
X143433119Y-64070563D02*
G01*
X143701350Y-64284025D01*
X143786400Y-64348000D01*
X144120230Y-64587993D01*
X144345415Y-64721018D01*
X144509077Y-64770597D01*
X144624600Y-64766431D01*
X144699846Y-64828810D01*
X144700800Y-64842572D01*
X144780345Y-64929993D01*
X144997267Y-65104078D01*
X145318999Y-65340096D01*
X145712975Y-65613313D01*
X145737641Y-65629972D01*
X146203358Y-65952855D01*
X146664943Y-66288005D01*
X147063391Y-66591778D01*
X147301102Y-66786400D01*
X147687976Y-67088025D01*
X148130766Y-67384157D01*
X148417112Y-67548400D01*
X148808083Y-67799492D01*
X149281530Y-68179749D01*
X149801161Y-68653458D01*
X150330683Y-69184908D01*
X150833803Y-69738386D01*
X151274229Y-70278181D01*
X151482181Y-70564414D01*
X151786768Y-71015281D01*
X151981049Y-71326754D01*
X152075874Y-71522565D01*
X152082094Y-71626450D01*
X152010561Y-71662141D01*
X151984537Y-71663200D01*
X151826838Y-71618302D01*
X151795867Y-71582791D01*
X151675441Y-71447794D01*
X151440968Y-71267103D01*
X151160059Y-71086082D01*
X150900323Y-70950097D01*
X150796800Y-70912436D01*
X150482988Y-70848021D01*
X150121575Y-70801377D01*
X149767357Y-70775644D01*
X149475131Y-70773962D01*
X149299694Y-70799468D01*
X149272800Y-70825125D01*
X149364945Y-70886585D01*
X149603792Y-70941038D01*
X149863112Y-70970276D01*
X150593807Y-71123773D01*
X151279477Y-71471460D01*
X151624339Y-71736575D01*
X151829122Y-71920386D01*
X152012441Y-72102441D01*
X152216420Y-72328327D01*
X152483186Y-72643630D01*
X152660984Y-72858400D01*
X152864130Y-73079178D01*
X153017195Y-73198805D01*
X153074095Y-73201286D01*
X153073248Y-73064734D01*
X153017973Y-72809244D01*
X152928891Y-72504710D01*
X152826622Y-72221027D01*
X152731787Y-72028089D01*
X152725236Y-72018800D01*
X152640407Y-71848182D01*
X152575521Y-71663200D01*
X152445825Y-71371264D01*
X152207152Y-70969321D01*
X151887280Y-70497657D01*
X151513987Y-69996562D01*
X151115050Y-69506321D01*
X150985803Y-69357515D01*
X150577118Y-68927689D01*
X150103779Y-68481379D01*
X149605919Y-68051696D01*
X149123667Y-67671748D01*
X148697155Y-67374644D01*
X148366513Y-67193492D01*
X148359146Y-67190460D01*
X148056833Y-67027763D01*
X147733480Y-66796999D01*
X147644030Y-66720648D01*
X147249470Y-66398683D01*
X146764479Y-66051462D01*
X146276435Y-65739107D01*
X145967871Y-65567361D01*
X145745145Y-65442981D01*
X145616072Y-65348647D01*
X145612979Y-65344870D01*
X145487482Y-65234847D01*
X145259490Y-65071193D01*
X144997466Y-64899102D01*
X144769873Y-64763766D01*
X144652740Y-64711015D01*
X144519509Y-64649442D01*
X144271479Y-64506320D01*
X143969081Y-64316930D01*
X143603770Y-64088604D01*
X143389335Y-63972002D01*
X143330782Y-63966272D01*
X143433119Y-64070563D01*
X143433119Y-64070563D01*
G37*
X143433119Y-64070563D02*
X143701350Y-64284025D01*
X143786400Y-64348000D01*
X144120230Y-64587993D01*
X144345415Y-64721018D01*
X144509077Y-64770597D01*
X144624600Y-64766431D01*
X144699846Y-64828810D01*
X144700800Y-64842572D01*
X144780345Y-64929993D01*
X144997267Y-65104078D01*
X145318999Y-65340096D01*
X145712975Y-65613313D01*
X145737641Y-65629972D01*
X146203358Y-65952855D01*
X146664943Y-66288005D01*
X147063391Y-66591778D01*
X147301102Y-66786400D01*
X147687976Y-67088025D01*
X148130766Y-67384157D01*
X148417112Y-67548400D01*
X148808083Y-67799492D01*
X149281530Y-68179749D01*
X149801161Y-68653458D01*
X150330683Y-69184908D01*
X150833803Y-69738386D01*
X151274229Y-70278181D01*
X151482181Y-70564414D01*
X151786768Y-71015281D01*
X151981049Y-71326754D01*
X152075874Y-71522565D01*
X152082094Y-71626450D01*
X152010561Y-71662141D01*
X151984537Y-71663200D01*
X151826838Y-71618302D01*
X151795867Y-71582791D01*
X151675441Y-71447794D01*
X151440968Y-71267103D01*
X151160059Y-71086082D01*
X150900323Y-70950097D01*
X150796800Y-70912436D01*
X150482988Y-70848021D01*
X150121575Y-70801377D01*
X149767357Y-70775644D01*
X149475131Y-70773962D01*
X149299694Y-70799468D01*
X149272800Y-70825125D01*
X149364945Y-70886585D01*
X149603792Y-70941038D01*
X149863112Y-70970276D01*
X150593807Y-71123773D01*
X151279477Y-71471460D01*
X151624339Y-71736575D01*
X151829122Y-71920386D01*
X152012441Y-72102441D01*
X152216420Y-72328327D01*
X152483186Y-72643630D01*
X152660984Y-72858400D01*
X152864130Y-73079178D01*
X153017195Y-73198805D01*
X153074095Y-73201286D01*
X153073248Y-73064734D01*
X153017973Y-72809244D01*
X152928891Y-72504710D01*
X152826622Y-72221027D01*
X152731787Y-72028089D01*
X152725236Y-72018800D01*
X152640407Y-71848182D01*
X152575521Y-71663200D01*
X152445825Y-71371264D01*
X152207152Y-70969321D01*
X151887280Y-70497657D01*
X151513987Y-69996562D01*
X151115050Y-69506321D01*
X150985803Y-69357515D01*
X150577118Y-68927689D01*
X150103779Y-68481379D01*
X149605919Y-68051696D01*
X149123667Y-67671748D01*
X148697155Y-67374644D01*
X148366513Y-67193492D01*
X148359146Y-67190460D01*
X148056833Y-67027763D01*
X147733480Y-66796999D01*
X147644030Y-66720648D01*
X147249470Y-66398683D01*
X146764479Y-66051462D01*
X146276435Y-65739107D01*
X145967871Y-65567361D01*
X145745145Y-65442981D01*
X145616072Y-65348647D01*
X145612979Y-65344870D01*
X145487482Y-65234847D01*
X145259490Y-65071193D01*
X144997466Y-64899102D01*
X144769873Y-64763766D01*
X144652740Y-64711015D01*
X144519509Y-64649442D01*
X144271479Y-64506320D01*
X143969081Y-64316930D01*
X143603770Y-64088604D01*
X143389335Y-63972002D01*
X143330782Y-63966272D01*
X143433119Y-64070563D01*
G36*
X154569180Y-72448117D02*
G01*
X154519799Y-72625674D01*
X154480985Y-72861918D01*
X154465144Y-73084844D01*
X154477906Y-73206916D01*
X154517266Y-73199513D01*
X154567597Y-73031581D01*
X154593160Y-72894005D01*
X154626458Y-72614893D01*
X154627131Y-72432016D01*
X154616722Y-72401254D01*
X154569180Y-72448117D01*
X154569180Y-72448117D01*
G37*
X154569180Y-72448117D02*
X154519799Y-72625674D01*
X154480985Y-72861918D01*
X154465144Y-73084844D01*
X154477906Y-73206916D01*
X154517266Y-73199513D01*
X154567597Y-73031581D01*
X154593160Y-72894005D01*
X154626458Y-72614893D01*
X154627131Y-72432016D01*
X154616722Y-72401254D01*
X154569180Y-72448117D01*
G36*
X164631334Y-72285156D02*
G01*
X164515457Y-72373138D01*
X164498376Y-72374400D01*
X164344049Y-72440315D01*
X164086618Y-72614941D01*
X163766957Y-72863595D01*
X163425938Y-73151597D01*
X163104434Y-73444265D01*
X162843318Y-73706917D01*
X162683461Y-73904871D01*
X162672383Y-73923800D01*
X162616608Y-74078901D01*
X162668385Y-74078594D01*
X162755152Y-73959890D01*
X162886317Y-73827342D01*
X163146291Y-73627214D01*
X163486542Y-73391118D01*
X163858533Y-73150665D01*
X164213729Y-72937466D01*
X164503596Y-72783134D01*
X164652541Y-72724098D01*
X164896016Y-72621628D01*
X165028230Y-72517847D01*
X165077843Y-72397431D01*
X164957837Y-72307098D01*
X164905398Y-72286172D01*
X164708847Y-72247504D01*
X164631334Y-72285156D01*
X164631334Y-72285156D01*
G37*
X164631334Y-72285156D02*
X164515457Y-72373138D01*
X164498376Y-72374400D01*
X164344049Y-72440315D01*
X164086618Y-72614941D01*
X163766957Y-72863595D01*
X163425938Y-73151597D01*
X163104434Y-73444265D01*
X162843318Y-73706917D01*
X162683461Y-73904871D01*
X162672383Y-73923800D01*
X162616608Y-74078901D01*
X162668385Y-74078594D01*
X162755152Y-73959890D01*
X162886317Y-73827342D01*
X163146291Y-73627214D01*
X163486542Y-73391118D01*
X163858533Y-73150665D01*
X164213729Y-72937466D01*
X164503596Y-72783134D01*
X164652541Y-72724098D01*
X164896016Y-72621628D01*
X165028230Y-72517847D01*
X165077843Y-72397431D01*
X164957837Y-72307098D01*
X164905398Y-72286172D01*
X164708847Y-72247504D01*
X164631334Y-72285156D01*
G36*
X163293600Y-77098800D02*
G01*
X163344400Y-77149600D01*
X163395200Y-77098800D01*
X163344400Y-77048000D01*
X163293600Y-77098800D01*
X163293600Y-77098800D01*
G37*
X163293600Y-77098800D02*
X163344400Y-77149600D01*
X163395200Y-77098800D01*
X163344400Y-77048000D01*
X163293600Y-77098800D01*
G36*
X147952000Y-77810000D02*
G01*
X148002800Y-77860800D01*
X148053600Y-77810000D01*
X148002800Y-77759200D01*
X147952000Y-77810000D01*
X147952000Y-77810000D01*
G37*
X147952000Y-77810000D02*
X148002800Y-77860800D01*
X148053600Y-77810000D01*
X148002800Y-77759200D01*
X147952000Y-77810000D01*
G36*
X147884267Y-77996266D02*
G01*
X147898214Y-78056667D01*
X147952000Y-78064000D01*
X148035629Y-78026826D01*
X148019734Y-77996266D01*
X147899158Y-77984107D01*
X147884267Y-77996266D01*
X147884267Y-77996266D01*
G37*
X147884267Y-77996266D02*
X147898214Y-78056667D01*
X147952000Y-78064000D01*
X148035629Y-78026826D01*
X148019734Y-77996266D01*
X147899158Y-77984107D01*
X147884267Y-77996266D01*
G36*
X137995200Y-79334000D02*
G01*
X138046000Y-79384800D01*
X138096800Y-79334000D01*
X138046000Y-79283200D01*
X137995200Y-79334000D01*
X137995200Y-79334000D01*
G37*
X137995200Y-79334000D02*
X138046000Y-79384800D01*
X138096800Y-79334000D01*
X138046000Y-79283200D01*
X137995200Y-79334000D01*
G36*
X164077647Y-76156844D02*
G01*
X163905393Y-76237586D01*
X163886694Y-76392338D01*
X163925390Y-76497328D01*
X163981309Y-76720091D01*
X163883462Y-76911046D01*
X163854942Y-76943591D01*
X163691811Y-77074282D01*
X163584822Y-77090408D01*
X163509962Y-77122329D01*
X163496800Y-77200400D01*
X163538398Y-77314526D01*
X163584219Y-77310764D01*
X163673932Y-77360303D01*
X163798490Y-77548241D01*
X163853649Y-77660368D01*
X164008114Y-77933307D01*
X164172816Y-78050247D01*
X164281078Y-78064000D01*
X164419519Y-78078257D01*
X164475697Y-78148100D01*
X164451248Y-78314132D01*
X164347809Y-78616959D01*
X164307694Y-78724400D01*
X164154194Y-78979414D01*
X163938044Y-79173214D01*
X163722426Y-79256006D01*
X163646545Y-79245439D01*
X163535465Y-79149579D01*
X163540577Y-79091363D01*
X163514467Y-78982764D01*
X163448628Y-78942666D01*
X163267633Y-78774898D01*
X163116484Y-78446488D01*
X163008413Y-77999316D01*
X162956649Y-77475260D01*
X162954359Y-77378200D01*
X162939811Y-77020719D01*
X162909731Y-76758902D01*
X162870260Y-76643262D01*
X162864818Y-76641600D01*
X162728006Y-76723151D01*
X162530689Y-76937393D01*
X162309814Y-77238710D01*
X162102327Y-77581485D01*
X162099800Y-77586161D01*
X161901529Y-78157500D01*
X161879172Y-78768789D01*
X162032166Y-79359251D01*
X162117842Y-79533472D01*
X162249736Y-79796542D01*
X162314407Y-79980877D01*
X162311729Y-80028004D01*
X162307346Y-80151682D01*
X162404192Y-80318162D01*
X162545897Y-80441983D01*
X162596382Y-80459550D01*
X162821279Y-80511504D01*
X162887200Y-80530861D01*
X163074893Y-80540293D01*
X163368017Y-80507430D01*
X163496800Y-80483506D01*
X164131910Y-80333761D01*
X164602284Y-80174892D01*
X164945994Y-79985141D01*
X165201111Y-79742749D01*
X165405707Y-79425958D01*
X165430468Y-79378394D01*
X165565821Y-79056513D01*
X165695982Y-78653916D01*
X165803346Y-78238490D01*
X165870303Y-77878117D01*
X165879983Y-77645307D01*
X165915491Y-77505479D01*
X165971514Y-77483513D01*
X166259635Y-77474122D01*
X166387447Y-77406244D01*
X166395969Y-77248921D01*
X166380289Y-77175000D01*
X166304528Y-76907609D01*
X166217571Y-76803717D01*
X166070888Y-76827080D01*
X165971652Y-76869824D01*
X165788965Y-76929584D01*
X165645761Y-76883102D01*
X165467140Y-76702554D01*
X165441880Y-76673041D01*
X165077519Y-76330167D01*
X164698647Y-76161758D01*
X164426189Y-76133600D01*
X164077647Y-76156844D01*
X164077647Y-76156844D01*
G37*
X164077647Y-76156844D02*
X163905393Y-76237586D01*
X163886694Y-76392338D01*
X163925390Y-76497328D01*
X163981309Y-76720091D01*
X163883462Y-76911046D01*
X163854942Y-76943591D01*
X163691811Y-77074282D01*
X163584822Y-77090408D01*
X163509962Y-77122329D01*
X163496800Y-77200400D01*
X163538398Y-77314526D01*
X163584219Y-77310764D01*
X163673932Y-77360303D01*
X163798490Y-77548241D01*
X163853649Y-77660368D01*
X164008114Y-77933307D01*
X164172816Y-78050247D01*
X164281078Y-78064000D01*
X164419519Y-78078257D01*
X164475697Y-78148100D01*
X164451248Y-78314132D01*
X164347809Y-78616959D01*
X164307694Y-78724400D01*
X164154194Y-78979414D01*
X163938044Y-79173214D01*
X163722426Y-79256006D01*
X163646545Y-79245439D01*
X163535465Y-79149579D01*
X163540577Y-79091363D01*
X163514467Y-78982764D01*
X163448628Y-78942666D01*
X163267633Y-78774898D01*
X163116484Y-78446488D01*
X163008413Y-77999316D01*
X162956649Y-77475260D01*
X162954359Y-77378200D01*
X162939811Y-77020719D01*
X162909731Y-76758902D01*
X162870260Y-76643262D01*
X162864818Y-76641600D01*
X162728006Y-76723151D01*
X162530689Y-76937393D01*
X162309814Y-77238710D01*
X162102327Y-77581485D01*
X162099800Y-77586161D01*
X161901529Y-78157500D01*
X161879172Y-78768789D01*
X162032166Y-79359251D01*
X162117842Y-79533472D01*
X162249736Y-79796542D01*
X162314407Y-79980877D01*
X162311729Y-80028004D01*
X162307346Y-80151682D01*
X162404192Y-80318162D01*
X162545897Y-80441983D01*
X162596382Y-80459550D01*
X162821279Y-80511504D01*
X162887200Y-80530861D01*
X163074893Y-80540293D01*
X163368017Y-80507430D01*
X163496800Y-80483506D01*
X164131910Y-80333761D01*
X164602284Y-80174892D01*
X164945994Y-79985141D01*
X165201111Y-79742749D01*
X165405707Y-79425958D01*
X165430468Y-79378394D01*
X165565821Y-79056513D01*
X165695982Y-78653916D01*
X165803346Y-78238490D01*
X165870303Y-77878117D01*
X165879983Y-77645307D01*
X165915491Y-77505479D01*
X165971514Y-77483513D01*
X166259635Y-77474122D01*
X166387447Y-77406244D01*
X166395969Y-77248921D01*
X166380289Y-77175000D01*
X166304528Y-76907609D01*
X166217571Y-76803717D01*
X166070888Y-76827080D01*
X165971652Y-76869824D01*
X165788965Y-76929584D01*
X165645761Y-76883102D01*
X165467140Y-76702554D01*
X165441880Y-76673041D01*
X165077519Y-76330167D01*
X164698647Y-76161758D01*
X164426189Y-76133600D01*
X164077647Y-76156844D01*
G36*
X137214276Y-80771228D02*
G01*
X137233200Y-80807200D01*
X137328929Y-80904228D01*
X137346793Y-80908800D01*
X137353725Y-80843171D01*
X137334800Y-80807200D01*
X137239072Y-80710171D01*
X137221208Y-80705600D01*
X137214276Y-80771228D01*
X137214276Y-80771228D01*
G37*
X137214276Y-80771228D02*
X137233200Y-80807200D01*
X137328929Y-80904228D01*
X137346793Y-80908800D01*
X137353725Y-80843171D01*
X137334800Y-80807200D01*
X137239072Y-80710171D01*
X137221208Y-80705600D01*
X137214276Y-80771228D01*
G36*
X151323147Y-76360669D02*
G01*
X150760202Y-76429285D01*
X150196475Y-76555113D01*
X149689516Y-76720817D01*
X149296881Y-76909062D01*
X149151903Y-77014664D01*
X148843146Y-77428908D01*
X148664059Y-77988258D01*
X148617846Y-78575490D01*
X148635648Y-78976489D01*
X148698754Y-79266683D01*
X148833695Y-79537596D01*
X148946455Y-79709085D01*
X149341415Y-80228096D01*
X149717258Y-80592298D01*
X150117866Y-80840066D01*
X150347931Y-80934702D01*
X151053455Y-81091937D01*
X151733080Y-81056791D01*
X152219200Y-80901009D01*
X152835479Y-80523621D01*
X153301101Y-80027643D01*
X153602072Y-79436435D01*
X153724392Y-78773357D01*
X153720194Y-78641210D01*
X152407437Y-78641210D01*
X152356704Y-78798244D01*
X152206456Y-79093201D01*
X152158235Y-79182260D01*
X151864862Y-79606040D01*
X151556048Y-79835088D01*
X151239225Y-79866828D01*
X150921822Y-79698687D01*
X150852676Y-79634639D01*
X150623358Y-79362663D01*
X150441658Y-79080884D01*
X150341475Y-78780672D01*
X150295763Y-78421201D01*
X150306330Y-78078517D01*
X150374983Y-77828664D01*
X150410720Y-77779520D01*
X150479289Y-77677052D01*
X150458911Y-77657600D01*
X150451090Y-77579082D01*
X150524572Y-77384625D01*
X150552443Y-77327400D01*
X150791643Y-76924897D01*
X151025582Y-76704406D01*
X151287579Y-76648437D01*
X151610954Y-76739498D01*
X151644181Y-76754296D01*
X151839963Y-76929199D01*
X151872829Y-77158315D01*
X151745816Y-77378591D01*
X151609600Y-77472785D01*
X151411750Y-77573576D01*
X151318105Y-77623996D01*
X151349690Y-77703219D01*
X151444326Y-77811639D01*
X151609810Y-77916977D01*
X151705680Y-77915012D01*
X151788172Y-77964288D01*
X151881085Y-78159320D01*
X151914965Y-78269296D01*
X152002370Y-78530221D01*
X152098244Y-78631870D01*
X152224507Y-78621115D01*
X152362192Y-78592150D01*
X152407437Y-78641210D01*
X153720194Y-78641210D01*
X153712795Y-78408351D01*
X153650718Y-78052231D01*
X153554822Y-77748373D01*
X153496814Y-77637638D01*
X153375144Y-77400304D01*
X153336800Y-77228593D01*
X153266513Y-77076648D01*
X153184400Y-77048000D01*
X153049244Y-76989968D01*
X153032000Y-76940403D01*
X152969757Y-76879724D01*
X152930400Y-76895600D01*
X152836571Y-76892269D01*
X152828800Y-76859082D01*
X152749844Y-76748601D01*
X152552165Y-76591643D01*
X152466147Y-76535640D01*
X152248514Y-76419424D01*
X152027660Y-76358481D01*
X151736837Y-76342594D01*
X151323147Y-76360669D01*
X151323147Y-76360669D01*
G37*
X151323147Y-76360669D02*
X150760202Y-76429285D01*
X150196475Y-76555113D01*
X149689516Y-76720817D01*
X149296881Y-76909062D01*
X149151903Y-77014664D01*
X148843146Y-77428908D01*
X148664059Y-77988258D01*
X148617846Y-78575490D01*
X148635648Y-78976489D01*
X148698754Y-79266683D01*
X148833695Y-79537596D01*
X148946455Y-79709085D01*
X149341415Y-80228096D01*
X149717258Y-80592298D01*
X150117866Y-80840066D01*
X150347931Y-80934702D01*
X151053455Y-81091937D01*
X151733080Y-81056791D01*
X152219200Y-80901009D01*
X152835479Y-80523621D01*
X153301101Y-80027643D01*
X153602072Y-79436435D01*
X153724392Y-78773357D01*
X153720194Y-78641210D01*
X152407437Y-78641210D01*
X152356704Y-78798244D01*
X152206456Y-79093201D01*
X152158235Y-79182260D01*
X151864862Y-79606040D01*
X151556048Y-79835088D01*
X151239225Y-79866828D01*
X150921822Y-79698687D01*
X150852676Y-79634639D01*
X150623358Y-79362663D01*
X150441658Y-79080884D01*
X150341475Y-78780672D01*
X150295763Y-78421201D01*
X150306330Y-78078517D01*
X150374983Y-77828664D01*
X150410720Y-77779520D01*
X150479289Y-77677052D01*
X150458911Y-77657600D01*
X150451090Y-77579082D01*
X150524572Y-77384625D01*
X150552443Y-77327400D01*
X150791643Y-76924897D01*
X151025582Y-76704406D01*
X151287579Y-76648437D01*
X151610954Y-76739498D01*
X151644181Y-76754296D01*
X151839963Y-76929199D01*
X151872829Y-77158315D01*
X151745816Y-77378591D01*
X151609600Y-77472785D01*
X151411750Y-77573576D01*
X151318105Y-77623996D01*
X151349690Y-77703219D01*
X151444326Y-77811639D01*
X151609810Y-77916977D01*
X151705680Y-77915012D01*
X151788172Y-77964288D01*
X151881085Y-78159320D01*
X151914965Y-78269296D01*
X152002370Y-78530221D01*
X152098244Y-78631870D01*
X152224507Y-78621115D01*
X152362192Y-78592150D01*
X152407437Y-78641210D01*
X153720194Y-78641210D01*
X153712795Y-78408351D01*
X153650718Y-78052231D01*
X153554822Y-77748373D01*
X153496814Y-77637638D01*
X153375144Y-77400304D01*
X153336800Y-77228593D01*
X153266513Y-77076648D01*
X153184400Y-77048000D01*
X153049244Y-76989968D01*
X153032000Y-76940403D01*
X152969757Y-76879724D01*
X152930400Y-76895600D01*
X152836571Y-76892269D01*
X152828800Y-76859082D01*
X152749844Y-76748601D01*
X152552165Y-76591643D01*
X152466147Y-76535640D01*
X152248514Y-76419424D01*
X152027660Y-76358481D01*
X151736837Y-76342594D01*
X151323147Y-76360669D01*
G36*
X165097898Y-83003506D02*
G01*
X165059655Y-83075983D01*
X165136953Y-83155144D01*
X165311087Y-83221088D01*
X165504233Y-83244244D01*
X165623122Y-83216443D01*
X165630400Y-83198374D01*
X165552570Y-83119768D01*
X165425101Y-83041276D01*
X165238520Y-82984505D01*
X165097898Y-83003506D01*
X165097898Y-83003506D01*
G37*
X165097898Y-83003506D02*
X165059655Y-83075983D01*
X165136953Y-83155144D01*
X165311087Y-83221088D01*
X165504233Y-83244244D01*
X165623122Y-83216443D01*
X165630400Y-83198374D01*
X165552570Y-83119768D01*
X165425101Y-83041276D01*
X165238520Y-82984505D01*
X165097898Y-83003506D01*
G36*
X165664267Y-84092266D02*
G01*
X165652108Y-84212842D01*
X165664267Y-84227733D01*
X165724668Y-84213786D01*
X165732000Y-84160000D01*
X165694827Y-84076371D01*
X165664267Y-84092266D01*
X165664267Y-84092266D01*
G37*
X165664267Y-84092266D02*
X165652108Y-84212842D01*
X165664267Y-84227733D01*
X165724668Y-84213786D01*
X165732000Y-84160000D01*
X165694827Y-84076371D01*
X165664267Y-84092266D01*
G36*
X165935200Y-84515600D02*
G01*
X165986000Y-84566400D01*
X166036800Y-84515600D01*
X165986000Y-84464800D01*
X165935200Y-84515600D01*
X165935200Y-84515600D01*
G37*
X165935200Y-84515600D02*
X165986000Y-84566400D01*
X166036800Y-84515600D01*
X165986000Y-84464800D01*
X165935200Y-84515600D01*
G36*
X166036800Y-84820400D02*
G01*
X166087600Y-84871200D01*
X166138400Y-84820400D01*
X166087600Y-84769600D01*
X166036800Y-84820400D01*
X166036800Y-84820400D01*
G37*
X166036800Y-84820400D02*
X166087600Y-84871200D01*
X166138400Y-84820400D01*
X166087600Y-84769600D01*
X166036800Y-84820400D01*
G36*
X162777780Y-84840646D02*
G01*
X162639093Y-84880426D01*
X162373094Y-84969153D01*
X162280269Y-85036001D01*
X162335135Y-85101816D01*
X162354759Y-85113014D01*
X162541515Y-85248258D01*
X162606245Y-85319716D01*
X162671933Y-85369137D01*
X162682445Y-85309387D01*
X162772126Y-85233001D01*
X163039600Y-85246481D01*
X163299140Y-85262620D01*
X163380634Y-85186606D01*
X163294156Y-85003116D01*
X163244503Y-84934728D01*
X163138022Y-84823985D01*
X163005324Y-84794676D01*
X162777780Y-84840646D01*
X162777780Y-84840646D01*
G37*
X162777780Y-84840646D02*
X162639093Y-84880426D01*
X162373094Y-84969153D01*
X162280269Y-85036001D01*
X162335135Y-85101816D01*
X162354759Y-85113014D01*
X162541515Y-85248258D01*
X162606245Y-85319716D01*
X162671933Y-85369137D01*
X162682445Y-85309387D01*
X162772126Y-85233001D01*
X163039600Y-85246481D01*
X163299140Y-85262620D01*
X163380634Y-85186606D01*
X163294156Y-85003116D01*
X163244503Y-84934728D01*
X163138022Y-84823985D01*
X163005324Y-84794676D01*
X162777780Y-84840646D01*
G36*
X138706400Y-86242800D02*
G01*
X138757200Y-86293600D01*
X138808000Y-86242800D01*
X138757200Y-86192000D01*
X138706400Y-86242800D01*
X138706400Y-86242800D01*
G37*
X138706400Y-86242800D02*
X138757200Y-86293600D01*
X138808000Y-86242800D01*
X138757200Y-86192000D01*
X138706400Y-86242800D01*
G36*
X162801299Y-86334698D02*
G01*
X162692226Y-86436998D01*
X162714601Y-86495811D01*
X162728804Y-86496800D01*
X162814739Y-86424635D01*
X162846102Y-86379501D01*
X162858077Y-86309977D01*
X162801299Y-86334698D01*
X162801299Y-86334698D01*
G37*
X162801299Y-86334698D02*
X162692226Y-86436998D01*
X162714601Y-86495811D01*
X162728804Y-86496800D01*
X162814739Y-86424635D01*
X162846102Y-86379501D01*
X162858077Y-86309977D01*
X162801299Y-86334698D01*
G36*
X135082667Y-86733866D02*
G01*
X135070508Y-86854442D01*
X135082667Y-86869333D01*
X135143068Y-86855386D01*
X135150400Y-86801600D01*
X135113227Y-86717971D01*
X135082667Y-86733866D01*
X135082667Y-86733866D01*
G37*
X135082667Y-86733866D02*
X135070508Y-86854442D01*
X135082667Y-86869333D01*
X135143068Y-86855386D01*
X135150400Y-86801600D01*
X135113227Y-86717971D01*
X135082667Y-86733866D01*
G36*
X163598400Y-86852400D02*
G01*
X163649200Y-86903200D01*
X163700000Y-86852400D01*
X163649200Y-86801600D01*
X163598400Y-86852400D01*
X163598400Y-86852400D01*
G37*
X163598400Y-86852400D02*
X163649200Y-86903200D01*
X163700000Y-86852400D01*
X163649200Y-86801600D01*
X163598400Y-86852400D01*
G36*
X135531400Y-87140712D02*
G01*
X135518637Y-87177795D01*
X135658400Y-87191957D01*
X135802635Y-87175991D01*
X135785400Y-87140712D01*
X135577390Y-87127293D01*
X135531400Y-87140712D01*
X135531400Y-87140712D01*
G37*
X135531400Y-87140712D02*
X135518637Y-87177795D01*
X135658400Y-87191957D01*
X135802635Y-87175991D01*
X135785400Y-87140712D01*
X135577390Y-87127293D01*
X135531400Y-87140712D01*
G36*
X163319001Y-87282605D02*
G01*
X163219281Y-87341167D01*
X163302229Y-87401670D01*
X163351829Y-87421825D01*
X163592705Y-87497819D01*
X163664889Y-87468578D01*
X163603413Y-87366439D01*
X163424843Y-87271976D01*
X163319001Y-87282605D01*
X163319001Y-87282605D01*
G37*
X163319001Y-87282605D02*
X163219281Y-87341167D01*
X163302229Y-87401670D01*
X163351829Y-87421825D01*
X163592705Y-87497819D01*
X163664889Y-87468578D01*
X163603413Y-87366439D01*
X163424843Y-87271976D01*
X163319001Y-87282605D01*
G36*
X166174644Y-87229876D02*
G01*
X166217489Y-87293391D01*
X166223278Y-87297115D01*
X166324716Y-87414920D01*
X166324878Y-87463234D01*
X166382315Y-87537877D01*
X166519400Y-87578238D01*
X166697562Y-87561989D01*
X166747936Y-87407988D01*
X166748000Y-87398122D01*
X166728111Y-87250508D01*
X166634147Y-87277535D01*
X166576098Y-87322559D01*
X166463242Y-87396808D01*
X166480494Y-87335000D01*
X166475407Y-87235038D01*
X166322197Y-87209555D01*
X166174644Y-87229876D01*
X166174644Y-87229876D01*
G37*
X166174644Y-87229876D02*
X166217489Y-87293391D01*
X166223278Y-87297115D01*
X166324716Y-87414920D01*
X166324878Y-87463234D01*
X166382315Y-87537877D01*
X166519400Y-87578238D01*
X166697562Y-87561989D01*
X166747936Y-87407988D01*
X166748000Y-87398122D01*
X166728111Y-87250508D01*
X166634147Y-87277535D01*
X166576098Y-87322559D01*
X166463242Y-87396808D01*
X166480494Y-87335000D01*
X166475407Y-87235038D01*
X166322197Y-87209555D01*
X166174644Y-87229876D01*
G36*
X163700000Y-87868400D02*
G01*
X163750800Y-87919200D01*
X163801600Y-87868400D01*
X163750800Y-87817600D01*
X163700000Y-87868400D01*
X163700000Y-87868400D01*
G37*
X163700000Y-87868400D02*
X163750800Y-87919200D01*
X163801600Y-87868400D01*
X163750800Y-87817600D01*
X163700000Y-87868400D01*
G36*
X166138400Y-87922388D02*
G01*
X166220741Y-88009713D01*
X166290800Y-88020800D01*
X166426356Y-87999062D01*
X166443200Y-87980870D01*
X166363754Y-87915357D01*
X166290800Y-87882458D01*
X166159975Y-87880346D01*
X166138400Y-87922388D01*
X166138400Y-87922388D01*
G37*
X166138400Y-87922388D02*
X166220741Y-88009713D01*
X166290800Y-88020800D01*
X166426356Y-87999062D01*
X166443200Y-87980870D01*
X166363754Y-87915357D01*
X166290800Y-87882458D01*
X166159975Y-87880346D01*
X166138400Y-87922388D01*
G36*
X155679815Y-87559225D02*
G01*
X155414934Y-87675378D01*
X155114373Y-87826571D01*
X154846012Y-87978117D01*
X154677734Y-88095330D01*
X154657600Y-88117565D01*
X154526139Y-88218507D01*
X154454400Y-88251544D01*
X154383941Y-88297839D01*
X154505200Y-88315319D01*
X154728391Y-88258872D01*
X154962400Y-88122400D01*
X155177629Y-87981450D01*
X155338560Y-87921460D01*
X155338620Y-87921459D01*
X155552217Y-87880296D01*
X155754294Y-87786309D01*
X155904479Y-87672325D01*
X155962404Y-87571177D01*
X155887698Y-87515694D01*
X155841133Y-87512800D01*
X155679815Y-87559225D01*
X155679815Y-87559225D01*
G37*
X155679815Y-87559225D02*
X155414934Y-87675378D01*
X155114373Y-87826571D01*
X154846012Y-87978117D01*
X154677734Y-88095330D01*
X154657600Y-88117565D01*
X154526139Y-88218507D01*
X154454400Y-88251544D01*
X154383941Y-88297839D01*
X154505200Y-88315319D01*
X154728391Y-88258872D01*
X154962400Y-88122400D01*
X155177629Y-87981450D01*
X155338560Y-87921460D01*
X155338620Y-87921459D01*
X155552217Y-87880296D01*
X155754294Y-87786309D01*
X155904479Y-87672325D01*
X155962404Y-87571177D01*
X155887698Y-87515694D01*
X155841133Y-87512800D01*
X155679815Y-87559225D01*
G36*
X135658400Y-89595600D02*
G01*
X135709200Y-89646400D01*
X135760000Y-89595600D01*
X135709200Y-89544800D01*
X135658400Y-89595600D01*
X135658400Y-89595600D01*
G37*
X135658400Y-89595600D02*
X135709200Y-89646400D01*
X135760000Y-89595600D01*
X135709200Y-89544800D01*
X135658400Y-89595600D01*
G36*
X147850400Y-89595600D02*
G01*
X147901200Y-89646400D01*
X147952000Y-89595600D01*
X147901200Y-89544800D01*
X147850400Y-89595600D01*
X147850400Y-89595600D01*
G37*
X147850400Y-89595600D02*
X147901200Y-89646400D01*
X147952000Y-89595600D01*
X147901200Y-89544800D01*
X147850400Y-89595600D01*
G36*
X147375282Y-89728060D02*
G01*
X147342400Y-89748000D01*
X147261157Y-89822615D01*
X147361542Y-89847033D01*
X147412604Y-89848044D01*
X147617485Y-89807778D01*
X147698000Y-89748000D01*
X147690585Y-89664232D01*
X147561052Y-89657586D01*
X147375282Y-89728060D01*
X147375282Y-89728060D01*
G37*
X147375282Y-89728060D02*
X147342400Y-89748000D01*
X147261157Y-89822615D01*
X147361542Y-89847033D01*
X147412604Y-89848044D01*
X147617485Y-89807778D01*
X147698000Y-89748000D01*
X147690585Y-89664232D01*
X147561052Y-89657586D01*
X147375282Y-89728060D01*
G36*
X134676267Y-89985066D02*
G01*
X134690214Y-90045467D01*
X134744000Y-90052800D01*
X134827629Y-90015626D01*
X134811734Y-89985066D01*
X134691158Y-89972907D01*
X134676267Y-89985066D01*
X134676267Y-89985066D01*
G37*
X134676267Y-89985066D02*
X134690214Y-90045467D01*
X134744000Y-90052800D01*
X134827629Y-90015626D01*
X134811734Y-89985066D01*
X134691158Y-89972907D01*
X134676267Y-89985066D01*
G36*
X136065965Y-90029807D02*
G01*
X136064800Y-90052800D01*
X136142906Y-90150495D01*
X136172397Y-90154400D01*
X136233076Y-90092156D01*
X136217200Y-90052800D01*
X136125902Y-89955875D01*
X136109604Y-89951200D01*
X136065965Y-90029807D01*
X136065965Y-90029807D01*
G37*
X136065965Y-90029807D02*
X136064800Y-90052800D01*
X136142906Y-90150495D01*
X136172397Y-90154400D01*
X136233076Y-90092156D01*
X136217200Y-90052800D01*
X136125902Y-89955875D01*
X136109604Y-89951200D01*
X136065965Y-90029807D01*
G36*
X135236854Y-90128906D02*
G01*
X135191473Y-90215309D01*
X135323440Y-90230269D01*
X135337244Y-90229296D01*
X135479713Y-90184721D01*
X135453991Y-90112550D01*
X135308501Y-90077494D01*
X135236854Y-90128906D01*
X135236854Y-90128906D01*
G37*
X135236854Y-90128906D02*
X135191473Y-90215309D01*
X135323440Y-90230269D01*
X135337244Y-90229296D01*
X135479713Y-90184721D01*
X135453991Y-90112550D01*
X135308501Y-90077494D01*
X135236854Y-90128906D01*
G36*
X138300000Y-90205200D02*
G01*
X138350800Y-90256000D01*
X138401600Y-90205200D01*
X138350800Y-90154400D01*
X138300000Y-90205200D01*
X138300000Y-90205200D01*
G37*
X138300000Y-90205200D02*
X138350800Y-90256000D01*
X138401600Y-90205200D01*
X138350800Y-90154400D01*
X138300000Y-90205200D01*
G36*
X137385600Y-90611600D02*
G01*
X137436400Y-90662400D01*
X137487200Y-90611600D01*
X137436400Y-90560800D01*
X137385600Y-90611600D01*
X137385600Y-90611600D01*
G37*
X137385600Y-90611600D02*
X137436400Y-90662400D01*
X137487200Y-90611600D01*
X137436400Y-90560800D01*
X137385600Y-90611600D01*
G36*
X137690400Y-90611600D02*
G01*
X137741200Y-90662400D01*
X137792000Y-90611600D01*
X137741200Y-90560800D01*
X137690400Y-90611600D01*
X137690400Y-90611600D01*
G37*
X137690400Y-90611600D02*
X137741200Y-90662400D01*
X137792000Y-90611600D01*
X137741200Y-90560800D01*
X137690400Y-90611600D01*
G36*
X130680000Y-97377268D02*
G01*
X131899200Y-97361496D01*
X132434020Y-97349838D01*
X132794244Y-97328759D01*
X133008394Y-97294583D01*
X133104994Y-97243638D01*
X133118400Y-97204462D01*
X133175189Y-97076537D01*
X133216812Y-97063200D01*
X133273527Y-97141224D01*
X133259108Y-97241000D01*
X133247261Y-97334055D01*
X133330185Y-97272705D01*
X133402083Y-97194520D01*
X133561153Y-97054852D01*
X133664466Y-97033532D01*
X133664588Y-97033653D01*
X133724216Y-97022167D01*
X133728000Y-96989403D01*
X133677435Y-96910800D01*
X133423200Y-96910800D01*
X133372400Y-96961600D01*
X133321600Y-96910800D01*
X133372400Y-96860000D01*
X133423200Y-96910800D01*
X133677435Y-96910800D01*
X133646743Y-96863090D01*
X133575600Y-96823258D01*
X133435281Y-96703132D01*
X133472189Y-96547004D01*
X133674405Y-96393125D01*
X133715678Y-96373740D01*
X133898645Y-96326415D01*
X134195576Y-96284519D01*
X134563168Y-96250040D01*
X134958117Y-96224967D01*
X135337117Y-96211287D01*
X135656865Y-96210991D01*
X135874056Y-96226065D01*
X135945386Y-96258499D01*
X135931762Y-96271980D01*
X135731635Y-96340425D01*
X135607600Y-96355026D01*
X135371543Y-96401511D01*
X135099600Y-96501683D01*
X134794800Y-96642200D01*
X135252000Y-96638464D01*
X135630455Y-96673755D01*
X135994338Y-96765913D01*
X136064800Y-96794187D01*
X136420400Y-96953646D01*
X135607600Y-96959178D01*
X135190342Y-96970813D01*
X134966620Y-96999628D01*
X134927383Y-97047050D01*
X134947200Y-97063200D01*
X135157587Y-97136534D01*
X135404400Y-97164800D01*
X135595768Y-97180602D01*
X135604596Y-97230789D01*
X135556800Y-97266400D01*
X135511818Y-97329499D01*
X135639963Y-97360488D01*
X135830204Y-97366444D01*
X136109165Y-97345100D01*
X136292549Y-97289821D01*
X136318970Y-97266125D01*
X136454793Y-97222547D01*
X136589787Y-97275490D01*
X136694771Y-97317753D01*
X136838480Y-97341052D01*
X137052022Y-97344270D01*
X137366508Y-97326290D01*
X137813048Y-97285997D01*
X138422750Y-97222274D01*
X138595374Y-97203528D01*
X138957180Y-97173350D01*
X139144000Y-97183944D01*
X139180306Y-97237288D01*
X139173577Y-97250256D01*
X139212740Y-97266612D01*
X139355870Y-97281535D01*
X139609747Y-97295076D01*
X139981150Y-97307284D01*
X140476859Y-97318209D01*
X141103653Y-97327901D01*
X141868312Y-97336410D01*
X142777616Y-97343786D01*
X143838344Y-97350077D01*
X145057275Y-97355335D01*
X146441190Y-97359608D01*
X147996867Y-97362947D01*
X149731087Y-97365401D01*
X151650629Y-97367020D01*
X153762271Y-97367855D01*
X155210404Y-97368000D01*
X171320000Y-97368000D01*
X171320000Y-96863188D01*
X138706400Y-96863188D01*
X138624060Y-96950513D01*
X138554000Y-96961600D01*
X138418445Y-96939862D01*
X138401600Y-96921670D01*
X138481047Y-96856157D01*
X138554000Y-96823258D01*
X138684826Y-96821146D01*
X138706400Y-96863188D01*
X171320000Y-96863188D01*
X171320000Y-96709591D01*
X139292027Y-96709591D01*
X139189504Y-96826884D01*
X139094364Y-96860000D01*
X139058525Y-96809200D01*
X138909600Y-96809200D01*
X138858800Y-96860000D01*
X138808000Y-96809200D01*
X138858800Y-96758400D01*
X138909600Y-96809200D01*
X139058525Y-96809200D01*
X139053409Y-96801949D01*
X139114838Y-96705144D01*
X139239075Y-96598637D01*
X139289852Y-96596785D01*
X139292027Y-96709591D01*
X171320000Y-96709591D01*
X171320000Y-96412107D01*
X138852095Y-96412107D01*
X138793448Y-96464744D01*
X138614959Y-96532330D01*
X138421701Y-96552716D01*
X138305993Y-96519095D01*
X138300000Y-96501126D01*
X138384350Y-96422024D01*
X138571689Y-96348858D01*
X138763452Y-96313374D01*
X138844248Y-96325829D01*
X138852095Y-96412107D01*
X171320000Y-96412107D01*
X171320000Y-96148800D01*
X138604800Y-96148800D01*
X138519706Y-96231348D01*
X138401600Y-96250400D01*
X138236833Y-96309917D01*
X138198400Y-96393288D01*
X138123342Y-96493677D01*
X138006667Y-96486037D01*
X137817236Y-96493450D01*
X137746671Y-96546348D01*
X137603206Y-96618063D01*
X137331932Y-96651661D01*
X137005222Y-96643909D01*
X136700943Y-96593061D01*
X136531432Y-96517020D01*
X136541454Y-96441839D01*
X136707817Y-96382236D01*
X137007326Y-96352930D01*
X137080800Y-96352000D01*
X137381292Y-96333658D01*
X137588893Y-96286996D01*
X137636858Y-96254837D01*
X137769487Y-96197522D01*
X137835777Y-96210963D01*
X137998744Y-96197525D01*
X138041720Y-96155726D01*
X138172735Y-96075368D01*
X138371479Y-96049668D01*
X138545460Y-96079764D01*
X138604800Y-96148800D01*
X171320000Y-96148800D01*
X171320000Y-95894800D01*
X138909600Y-95894800D01*
X138858800Y-95945600D01*
X138808000Y-95894800D01*
X138858800Y-95844000D01*
X138909600Y-95894800D01*
X171320000Y-95894800D01*
X171320000Y-95691600D01*
X135048800Y-95691600D01*
X134998000Y-95742400D01*
X134947200Y-95691600D01*
X133728000Y-95691600D01*
X133677200Y-95742400D01*
X133626400Y-95691600D01*
X133677200Y-95640800D01*
X133728000Y-95691600D01*
X134947200Y-95691600D01*
X134998000Y-95640800D01*
X135048800Y-95691600D01*
X171320000Y-95691600D01*
X171320000Y-95620345D01*
X135344402Y-95620345D01*
X135283397Y-95632778D01*
X135170820Y-95590000D01*
X134032800Y-95590000D01*
X133982000Y-95640800D01*
X133931200Y-95590000D01*
X133982000Y-95539200D01*
X134032800Y-95590000D01*
X135170820Y-95590000D01*
X135125618Y-95572824D01*
X135103939Y-95546220D01*
X135111148Y-95488400D01*
X134947200Y-95488400D01*
X134896400Y-95539200D01*
X134845600Y-95488400D01*
X134896400Y-95437600D01*
X134947200Y-95488400D01*
X135111148Y-95488400D01*
X135119958Y-95417749D01*
X135154699Y-95386800D01*
X133220000Y-95386800D01*
X133169200Y-95437600D01*
X133118400Y-95386800D01*
X133169200Y-95336000D01*
X133220000Y-95386800D01*
X135154699Y-95386800D01*
X135164441Y-95378122D01*
X135236364Y-95364486D01*
X135216266Y-95413224D01*
X135228383Y-95540483D01*
X135276767Y-95573301D01*
X135344402Y-95620345D01*
X171320000Y-95620345D01*
X171320000Y-95501133D01*
X136993299Y-95501133D01*
X136858351Y-95518723D01*
X136826800Y-95519393D01*
X136653286Y-95508411D01*
X136638009Y-95476605D01*
X136647067Y-95472556D01*
X136848762Y-95452458D01*
X136951867Y-95468792D01*
X136993299Y-95501133D01*
X171320000Y-95501133D01*
X171320000Y-94963466D01*
X135421334Y-94963466D01*
X135407387Y-95023867D01*
X135353600Y-95031200D01*
X135334530Y-95022723D01*
X135201200Y-95022723D01*
X134947200Y-95175761D01*
X134709916Y-95288871D01*
X134540800Y-95329310D01*
X134439490Y-95317191D01*
X134503349Y-95268266D01*
X133490934Y-95268266D01*
X133476987Y-95328667D01*
X133423200Y-95336000D01*
X133339572Y-95298826D01*
X133355467Y-95268266D01*
X133476043Y-95256107D01*
X133490934Y-95268266D01*
X134503349Y-95268266D01*
X134520258Y-95255312D01*
X134540800Y-95243600D01*
X134757920Y-95150039D01*
X134936497Y-95093443D01*
X133794676Y-95093443D01*
X133778800Y-95132800D01*
X133687502Y-95229724D01*
X133671204Y-95234400D01*
X133627565Y-95155792D01*
X133626400Y-95132800D01*
X133704506Y-95035104D01*
X133733997Y-95031200D01*
X133794676Y-95093443D01*
X134936497Y-95093443D01*
X134947200Y-95090051D01*
X135201200Y-95022723D01*
X135334530Y-95022723D01*
X135269972Y-94994026D01*
X135285867Y-94963466D01*
X135406443Y-94951307D01*
X135421334Y-94963466D01*
X171320000Y-94963466D01*
X171320000Y-94878800D01*
X135658400Y-94878800D01*
X135607600Y-94929600D01*
X135556800Y-94878800D01*
X135607600Y-94828000D01*
X135658400Y-94878800D01*
X171320000Y-94878800D01*
X171320000Y-94619453D01*
X135375552Y-94619453D01*
X135316918Y-94678695D01*
X135087398Y-94731744D01*
X134865564Y-94752682D01*
X134593721Y-94794209D01*
X134449534Y-94869352D01*
X134439727Y-94896750D01*
X134354995Y-95017447D01*
X134261400Y-95056675D01*
X134079979Y-95067964D01*
X133968854Y-95029976D01*
X133982848Y-94970017D01*
X134037805Y-94945316D01*
X134222136Y-94825104D01*
X134303228Y-94736388D01*
X134510727Y-94616546D01*
X134824009Y-94574000D01*
X134134400Y-94574000D01*
X134083600Y-94624800D01*
X134032800Y-94574000D01*
X134083600Y-94523200D01*
X134134400Y-94574000D01*
X134824009Y-94574000D01*
X134904241Y-94563104D01*
X134946550Y-94561667D01*
X135254897Y-94573838D01*
X135375552Y-94619453D01*
X171320000Y-94619453D01*
X171320000Y-93965062D01*
X165616773Y-93965062D01*
X165603940Y-94082042D01*
X165465560Y-94116800D01*
X165357748Y-94143522D01*
X165415097Y-94254430D01*
X165427200Y-94269200D01*
X165498037Y-94389379D01*
X165404698Y-94421458D01*
X165388841Y-94421600D01*
X165239252Y-94356952D01*
X165211969Y-94294600D01*
X165210486Y-94113075D01*
X165213827Y-94085827D01*
X165171654Y-93949360D01*
X165110263Y-93845866D01*
X160922934Y-93845866D01*
X160908987Y-93906267D01*
X160855200Y-93913600D01*
X160771572Y-93876426D01*
X160787467Y-93845866D01*
X160908043Y-93833707D01*
X160922934Y-93845866D01*
X165110263Y-93845866D01*
X165073458Y-93783820D01*
X164939830Y-93557264D01*
X164952005Y-93470169D01*
X165108589Y-93524817D01*
X165198600Y-93578711D01*
X165477606Y-93789113D01*
X165616773Y-93965062D01*
X171320000Y-93965062D01*
X171320000Y-93450418D01*
X166238445Y-93450418D01*
X166191450Y-93455755D01*
X166146572Y-93405600D01*
X165732000Y-93405600D01*
X165694827Y-93489228D01*
X165664267Y-93473333D01*
X165652108Y-93352757D01*
X165664267Y-93337866D01*
X165724668Y-93351813D01*
X165732000Y-93405600D01*
X166146572Y-93405600D01*
X166095907Y-93348978D01*
X166002782Y-93180834D01*
X165999832Y-93103902D01*
X166080258Y-93131944D01*
X166178053Y-93266819D01*
X166236492Y-93426148D01*
X166238445Y-93450418D01*
X171320000Y-93450418D01*
X171320000Y-92961893D01*
X166638796Y-92961893D01*
X166563618Y-92999200D01*
X166473977Y-92915503D01*
X166349972Y-92706177D01*
X166307766Y-92618200D01*
X166149150Y-92269019D01*
X164794340Y-92269019D01*
X164762598Y-92345516D01*
X164673690Y-92327999D01*
X164533944Y-92224181D01*
X164512800Y-92167063D01*
X164572452Y-92100518D01*
X164693969Y-92141981D01*
X164791191Y-92260251D01*
X164794340Y-92269019D01*
X166149150Y-92269019D01*
X166134696Y-92237200D01*
X166390043Y-92542000D01*
X166591541Y-92812569D01*
X166638796Y-92961893D01*
X171320000Y-92961893D01*
X171320000Y-92592800D01*
X167154400Y-92592800D01*
X167106495Y-92694494D01*
X166982713Y-92639928D01*
X166812954Y-92446336D01*
X166757832Y-92364200D01*
X166584947Y-92134714D01*
X166370839Y-91887596D01*
X164512800Y-91887596D01*
X164480151Y-91979909D01*
X164405229Y-91899376D01*
X164372434Y-91825523D01*
X164365334Y-91720643D01*
X164412364Y-91729919D01*
X164509190Y-91860000D01*
X164512800Y-91887596D01*
X166370839Y-91887596D01*
X166316460Y-91824834D01*
X166004298Y-91493894D01*
X165936745Y-91425971D01*
X165589768Y-91067097D01*
X165387549Y-90825972D01*
X165332835Y-90706916D01*
X165428370Y-90714254D01*
X165509681Y-90753767D01*
X165765188Y-90924515D01*
X166099119Y-91191888D01*
X166451485Y-91503742D01*
X166762296Y-91807937D01*
X166905387Y-91966893D01*
X167073221Y-92190758D01*
X167110053Y-92320984D01*
X167044084Y-92397137D01*
X166964497Y-92473075D01*
X167027400Y-92489644D01*
X167145481Y-92555383D01*
X167154400Y-92592800D01*
X171320000Y-92592800D01*
X171320000Y-91119600D01*
X167052800Y-91119600D01*
X167002000Y-91170400D01*
X166951200Y-91119600D01*
X167002000Y-91068800D01*
X167052800Y-91119600D01*
X171320000Y-91119600D01*
X171320000Y-91018000D01*
X167865600Y-91018000D01*
X167814800Y-91068800D01*
X167764000Y-91018000D01*
X167814800Y-90967200D01*
X167865600Y-91018000D01*
X171320000Y-91018000D01*
X171320000Y-90916400D01*
X166748000Y-90916400D01*
X166697200Y-90967200D01*
X166646400Y-90916400D01*
X166697200Y-90865600D01*
X166748000Y-90916400D01*
X171320000Y-90916400D01*
X171320000Y-90541513D01*
X168029920Y-90541513D01*
X167941873Y-90635836D01*
X167817095Y-90640615D01*
X167613803Y-90544407D01*
X167298058Y-90341064D01*
X167025718Y-90131276D01*
X166998567Y-90103600D01*
X162887200Y-90103600D01*
X162836400Y-90154400D01*
X162785600Y-90103600D01*
X162836400Y-90052800D01*
X162887200Y-90103600D01*
X166998567Y-90103600D01*
X166831595Y-89933405D01*
X166773115Y-89833064D01*
X166687039Y-89677299D01*
X166623681Y-89646400D01*
X166568551Y-89570985D01*
X166587056Y-89479629D01*
X166611506Y-89370216D01*
X166520396Y-89421422D01*
X166505372Y-89433762D01*
X166353390Y-89497191D01*
X166293406Y-89447415D01*
X166312495Y-89327107D01*
X166385377Y-89279436D01*
X166493443Y-89183881D01*
X166487421Y-89127753D01*
X166500366Y-89041801D01*
X166529274Y-89036800D01*
X166663885Y-89103618D01*
X166886370Y-89279393D01*
X167159809Y-89527108D01*
X167447284Y-89809744D01*
X167711876Y-90090283D01*
X167916669Y-90331706D01*
X168024743Y-90496994D01*
X168029920Y-90541513D01*
X171320000Y-90541513D01*
X171320000Y-89760558D01*
X168170400Y-89760558D01*
X168120553Y-89804956D01*
X168003097Y-89729153D01*
X167866160Y-89579966D01*
X167757870Y-89404211D01*
X167732805Y-89334879D01*
X167728006Y-89201491D01*
X167773476Y-89195055D01*
X167859786Y-89336662D01*
X167865600Y-89387526D01*
X167947442Y-89538964D01*
X168018000Y-89581541D01*
X168152811Y-89697763D01*
X168170400Y-89760558D01*
X171320000Y-89760558D01*
X171320000Y-89015704D01*
X167438924Y-89015704D01*
X167408400Y-89033688D01*
X167241433Y-88983101D01*
X167154400Y-88935200D01*
X167073077Y-88854695D01*
X167103600Y-88836711D01*
X167270568Y-88887298D01*
X167357600Y-88935200D01*
X167438924Y-89015704D01*
X171320000Y-89015704D01*
X171320000Y-87462000D01*
X168272000Y-87462000D01*
X168221200Y-87512800D01*
X168170400Y-87462000D01*
X168221200Y-87411200D01*
X168272000Y-87462000D01*
X171320000Y-87462000D01*
X171320000Y-80858000D01*
X169186400Y-80858000D01*
X169135600Y-80908800D01*
X169084800Y-80858000D01*
X169135600Y-80807200D01*
X169186400Y-80858000D01*
X171320000Y-80858000D01*
X171320000Y-57541180D01*
X170171920Y-57541180D01*
X170130027Y-57844770D01*
X170033088Y-58268337D01*
X170013336Y-58346870D01*
X169874962Y-58813923D01*
X169723928Y-59193696D01*
X169582290Y-59431269D01*
X169574301Y-59440091D01*
X169383498Y-59786482D01*
X169331037Y-60107221D01*
X169273764Y-60459548D01*
X169152574Y-60863805D01*
X169078603Y-61046000D01*
X168963603Y-61327151D01*
X168805957Y-61751751D01*
X168623710Y-62269320D01*
X168434911Y-62829383D01*
X168370268Y-63027200D01*
X167893143Y-64500400D01*
X167048766Y-65181191D01*
X166696106Y-65454730D01*
X166398641Y-65665347D01*
X166192457Y-65788714D01*
X166118078Y-65808639D01*
X166055311Y-65823240D01*
X166059683Y-65851264D01*
X166006247Y-65961963D01*
X165839770Y-66180241D01*
X165589859Y-66468964D01*
X165425793Y-66646216D01*
X164718164Y-67418821D01*
X164138490Y-68111753D01*
X163652933Y-68768277D01*
X163227656Y-69431658D01*
X163167205Y-69534032D01*
X162945999Y-69903971D01*
X162763515Y-70193191D01*
X162642493Y-70366598D01*
X162606055Y-70399921D01*
X162612114Y-70292331D01*
X162658109Y-70034969D01*
X162735128Y-69675305D01*
X162772113Y-69515595D01*
X162884368Y-69025675D01*
X162994612Y-68519811D01*
X163081042Y-68098351D01*
X163089124Y-68056400D01*
X163169730Y-67666781D01*
X163254140Y-67309452D01*
X163303116Y-67131861D01*
X163430864Y-66632085D01*
X163545114Y-65992090D01*
X163649028Y-65190967D01*
X163745765Y-64207810D01*
X163746745Y-64196543D01*
X163790302Y-63802171D01*
X163842587Y-63483698D01*
X163893837Y-63297764D01*
X163904899Y-63279153D01*
X163961458Y-63114784D01*
X163981069Y-62864224D01*
X163963944Y-62619806D01*
X163910299Y-62473859D01*
X163903018Y-62468287D01*
X163843419Y-62532032D01*
X163769688Y-62758477D01*
X163690515Y-63108407D01*
X163614591Y-63542610D01*
X163550609Y-64021869D01*
X163542708Y-64094000D01*
X163418350Y-65033399D01*
X163233701Y-66112970D01*
X162999609Y-67282543D01*
X162726924Y-68491948D01*
X162426494Y-69691018D01*
X162109167Y-70829581D01*
X162026789Y-71104400D01*
X161883582Y-71583161D01*
X161757937Y-72018859D01*
X161665011Y-72357997D01*
X161623799Y-72526800D01*
X161561180Y-72831600D01*
X161771159Y-72577600D01*
X162120057Y-72103049D01*
X162500633Y-71495359D01*
X162877132Y-70813075D01*
X162986468Y-70596400D01*
X162582400Y-70596400D01*
X162531600Y-70647200D01*
X162480800Y-70596400D01*
X162531600Y-70545600D01*
X162582400Y-70596400D01*
X162986468Y-70596400D01*
X163012103Y-70545600D01*
X163420316Y-69772111D01*
X163858454Y-69068339D01*
X164358733Y-68391799D01*
X164953370Y-67700005D01*
X165674580Y-66950471D01*
X165926660Y-66701927D01*
X166550533Y-66102052D01*
X167042311Y-65649244D01*
X167400891Y-65344449D01*
X167625172Y-65188613D01*
X167708586Y-65173118D01*
X167706417Y-65283753D01*
X167664486Y-65533493D01*
X167595767Y-65865205D01*
X167513236Y-66221759D01*
X167429869Y-66546023D01*
X167358642Y-66780864D01*
X167326254Y-66856523D01*
X167192517Y-66967303D01*
X166960840Y-67087183D01*
X166953380Y-67090297D01*
X166708402Y-67242793D01*
X166665451Y-67412704D01*
X166824853Y-67598471D01*
X166843852Y-67612207D01*
X166964077Y-67735861D01*
X167005298Y-67919885D01*
X166983608Y-68229145D01*
X166937758Y-68493358D01*
X166850025Y-68692361D01*
X166680506Y-68884515D01*
X166389296Y-69128177D01*
X166345022Y-69163065D01*
X166018561Y-69443450D01*
X165623288Y-69818133D01*
X165221898Y-70226507D01*
X165026481Y-70437698D01*
X164719720Y-70764388D01*
X164457668Y-71018256D01*
X164271574Y-71170577D01*
X164197616Y-71199582D01*
X164116764Y-71225366D01*
X164106400Y-71283893D01*
X164037472Y-71444757D01*
X163869790Y-71646535D01*
X163852400Y-71663200D01*
X163680554Y-71846829D01*
X163599369Y-71977252D01*
X163598400Y-71985475D01*
X163543179Y-72106265D01*
X163399525Y-72336516D01*
X163230175Y-72581672D01*
X163045573Y-72855435D01*
X162930712Y-73059117D01*
X162909733Y-73141998D01*
X162993475Y-73093929D01*
X163174498Y-72924296D01*
X163421012Y-72668477D01*
X163701229Y-72361854D01*
X163983360Y-72039806D01*
X164235617Y-71737712D01*
X164426211Y-71490954D01*
X164512281Y-71358400D01*
X164627550Y-71201874D01*
X164850830Y-70947651D01*
X165152356Y-70625417D01*
X165502363Y-70264857D01*
X165871086Y-69895657D01*
X166228761Y-69547502D01*
X166545622Y-69250079D01*
X166791903Y-69033073D01*
X166937841Y-68926169D01*
X166957198Y-68920000D01*
X167099976Y-69011893D01*
X167194296Y-69260847D01*
X167240916Y-69626773D01*
X167240593Y-70069582D01*
X167194085Y-70549186D01*
X167102151Y-71025495D01*
X166965548Y-71458421D01*
X166906647Y-71593700D01*
X166718499Y-72071392D01*
X166667369Y-72435485D01*
X166674488Y-72508100D01*
X166681548Y-72792765D01*
X166630661Y-73009400D01*
X166591943Y-73159192D01*
X166638072Y-73187200D01*
X166737221Y-73275287D01*
X166870278Y-73503121D01*
X167011963Y-73816057D01*
X167136998Y-74159452D01*
X167208016Y-74419220D01*
X167300159Y-74675986D01*
X167470653Y-75025256D01*
X167682835Y-75392018D01*
X167685820Y-75396751D01*
X167874821Y-75724787D01*
X168000103Y-75999074D01*
X168037684Y-76166029D01*
X168034968Y-76176819D01*
X168073260Y-76311037D01*
X168218980Y-76377964D01*
X168392848Y-76474092D01*
X168493559Y-76688736D01*
X168525947Y-76844480D01*
X168587181Y-77098456D01*
X168656978Y-77240399D01*
X168677819Y-77251200D01*
X168722972Y-77332339D01*
X168707839Y-77454400D01*
X168711708Y-77619706D01*
X168774147Y-77657600D01*
X168845826Y-77719142D01*
X168830801Y-77759200D01*
X168831418Y-77853145D01*
X168862619Y-77860800D01*
X168940369Y-77957313D01*
X169016246Y-78226593D01*
X169084173Y-78638251D01*
X169138074Y-79161896D01*
X169147039Y-79283200D01*
X169177331Y-79683497D01*
X169210594Y-80068424D01*
X169225473Y-80219989D01*
X169214592Y-80545451D01*
X169125357Y-80714101D01*
X169035211Y-80858267D01*
X169045760Y-80927827D01*
X169119500Y-81185323D01*
X169122438Y-81541501D01*
X169056919Y-81905461D01*
X169017611Y-82019441D01*
X168926542Y-82428385D01*
X168917206Y-82979994D01*
X168920471Y-83034301D01*
X168931467Y-83401878D01*
X168916672Y-83700991D01*
X168883681Y-83854059D01*
X168821702Y-84051215D01*
X168755131Y-84385854D01*
X168694762Y-84792842D01*
X168651391Y-85207046D01*
X168645161Y-85293298D01*
X168608494Y-85474278D01*
X168551400Y-85515901D01*
X168491238Y-85565566D01*
X168462500Y-85728803D01*
X168448433Y-86004038D01*
X168439520Y-86166600D01*
X168349938Y-86411678D01*
X168159687Y-86575822D01*
X168050658Y-86602000D01*
X168028310Y-86647039D01*
X168156316Y-86751490D01*
X168170400Y-86760197D01*
X168424400Y-86914794D01*
X168138222Y-86854560D01*
X167675720Y-86772358D01*
X167155587Y-86704315D01*
X166615239Y-86652308D01*
X166092092Y-86618212D01*
X165623560Y-86603904D01*
X165247058Y-86611259D01*
X165000002Y-86642154D01*
X164919200Y-86693153D01*
X165018605Y-86795795D01*
X165317579Y-86896210D01*
X165817262Y-86994668D01*
X166518794Y-87091442D01*
X166667825Y-87108843D01*
X167061500Y-87161406D01*
X167382446Y-87218305D01*
X167571936Y-87268796D01*
X167589270Y-87277415D01*
X167804696Y-87352355D01*
X167861167Y-87357714D01*
X167983507Y-87450230D01*
X168074372Y-87678658D01*
X168077287Y-87692317D01*
X168094428Y-87967399D01*
X168016847Y-88100955D01*
X167866764Y-88072319D01*
X167809030Y-88088672D01*
X167826834Y-88167923D01*
X167817374Y-88303427D01*
X167749471Y-88326269D01*
X167731864Y-88373135D01*
X167858842Y-88488861D01*
X167916400Y-88528800D01*
X168095405Y-88663526D01*
X168102865Y-88718317D01*
X167935051Y-88692683D01*
X167588232Y-88586135D01*
X167135717Y-88426410D01*
X166514094Y-88222387D01*
X165887493Y-88069468D01*
X165186440Y-87953153D01*
X164480343Y-87872259D01*
X164142503Y-87858414D01*
X163971243Y-87888954D01*
X163976907Y-87948873D01*
X164169835Y-88023164D01*
X164349051Y-88062767D01*
X164685591Y-88153404D01*
X164998862Y-88282854D01*
X165231343Y-88422588D01*
X165325514Y-88544077D01*
X165325600Y-88547111D01*
X165399807Y-88608685D01*
X165478000Y-88593658D01*
X165706552Y-88574928D01*
X165884846Y-88667962D01*
X165935201Y-88790481D01*
X166003814Y-88881666D01*
X166105239Y-88863572D01*
X166225062Y-88849773D01*
X166206839Y-88976670D01*
X166147296Y-89196916D01*
X166138401Y-89282995D01*
X166050857Y-89382120D01*
X165829430Y-89428834D01*
X165535922Y-89425469D01*
X165232136Y-89374357D01*
X164979876Y-89277830D01*
X164919200Y-89236992D01*
X164793882Y-89118434D01*
X164811254Y-89086798D01*
X164832724Y-89093189D01*
X165011491Y-89111777D01*
X165058485Y-89028338D01*
X164975911Y-88893622D01*
X164819273Y-88783664D01*
X164624445Y-88695382D01*
X164477103Y-88693399D01*
X164302039Y-88794042D01*
X164121758Y-88935075D01*
X163834823Y-89125903D01*
X163617611Y-89192549D01*
X163572399Y-89184657D01*
X163395652Y-89212141D01*
X163297818Y-89333720D01*
X163127631Y-89547486D01*
X162929104Y-89712372D01*
X162745025Y-89814263D01*
X162600393Y-89805841D01*
X162400830Y-89678405D01*
X162377993Y-89661572D01*
X162121439Y-89500384D01*
X161925183Y-89476012D01*
X161736372Y-89602259D01*
X161504489Y-89889721D01*
X161188577Y-90323665D01*
X161399330Y-90620032D01*
X161556110Y-90831206D01*
X161663727Y-90959764D01*
X161671852Y-90967200D01*
X161766337Y-91112075D01*
X161868426Y-91354664D01*
X161931814Y-91574955D01*
X162020815Y-91731977D01*
X162068868Y-91761222D01*
X162174025Y-91877266D01*
X162161038Y-92065270D01*
X162061462Y-92259788D01*
X161906855Y-92395373D01*
X161753698Y-92414879D01*
X161596640Y-92432512D01*
X161566400Y-92530150D01*
X161520018Y-92672868D01*
X161474836Y-92694400D01*
X161370350Y-92775493D01*
X161224653Y-92972709D01*
X161080107Y-93216952D01*
X160979074Y-93439126D01*
X160956800Y-93539367D01*
X160875787Y-93685364D01*
X160693106Y-93826109D01*
X160510960Y-93889920D01*
X160370134Y-93966940D01*
X160358560Y-93981122D01*
X160195111Y-94139064D01*
X159960240Y-94300160D01*
X159722828Y-94424533D01*
X159551755Y-94472306D01*
X159522581Y-94465095D01*
X159258289Y-94382981D01*
X158893006Y-94362554D01*
X158519239Y-94403459D01*
X158298832Y-94469802D01*
X158032375Y-94552687D01*
X157825641Y-94561703D01*
X157807200Y-94555926D01*
X157592722Y-94492143D01*
X157378518Y-94446956D01*
X157196515Y-94403565D01*
X157158560Y-94319611D01*
X157241878Y-94129478D01*
X157257689Y-94098838D01*
X157369258Y-93827926D01*
X157371808Y-93694618D01*
X157284232Y-93718041D01*
X157125421Y-93917319D01*
X157107118Y-93946411D01*
X156898878Y-94205327D01*
X156699307Y-94318208D01*
X156675318Y-94320000D01*
X156537253Y-94283485D01*
X156530665Y-94228974D01*
X156534574Y-94075184D01*
X156526110Y-94055840D01*
X134412107Y-94055840D01*
X134358047Y-94090722D01*
X134152855Y-94112783D01*
X133982000Y-94116800D01*
X133712042Y-94105758D01*
X133562545Y-94077548D01*
X133556879Y-94066000D01*
X133016800Y-94066000D01*
X132966000Y-94116800D01*
X132915200Y-94066000D01*
X132966000Y-94015200D01*
X133016800Y-94066000D01*
X133556879Y-94066000D01*
X133551894Y-94055840D01*
X133685036Y-94015526D01*
X133933384Y-93995398D01*
X133982000Y-93994880D01*
X134241451Y-94010209D01*
X134401022Y-94047897D01*
X134412107Y-94055840D01*
X156526110Y-94055840D01*
X156448668Y-93878855D01*
X156321302Y-93722347D01*
X156210581Y-93683806D01*
X156165463Y-93659600D01*
X135048800Y-93659600D01*
X134998000Y-93710400D01*
X134952906Y-93665306D01*
X134621326Y-93665306D01*
X134499208Y-93682142D01*
X134388400Y-93684778D01*
X134179299Y-93676600D01*
X134125330Y-93653576D01*
X134158616Y-93640592D01*
X134402602Y-93621668D01*
X134565016Y-93638542D01*
X134621326Y-93665306D01*
X134952906Y-93665306D01*
X134947200Y-93659600D01*
X134998000Y-93608800D01*
X135048800Y-93659600D01*
X156165463Y-93659600D01*
X156137886Y-93644805D01*
X156136657Y-93441067D01*
X156151037Y-93336099D01*
X156251142Y-92865585D01*
X155869642Y-92865585D01*
X155848113Y-93072239D01*
X155787409Y-93299750D01*
X155710397Y-93487825D01*
X155639942Y-93576171D01*
X155608985Y-93552886D01*
X155616209Y-93397461D01*
X155683298Y-93138580D01*
X155715537Y-93044886D01*
X155809284Y-92822119D01*
X155858943Y-92791143D01*
X155869642Y-92865585D01*
X156251142Y-92865585D01*
X156252021Y-92861457D01*
X156300023Y-92753458D01*
X155599173Y-92753458D01*
X155560849Y-92979236D01*
X155483964Y-93220285D01*
X155389896Y-93417761D01*
X155300021Y-93512818D01*
X155254148Y-93492076D01*
X155162678Y-93409915D01*
X155065556Y-93507200D01*
X154981582Y-93604854D01*
X154973876Y-93537411D01*
X155039434Y-93326873D01*
X155116973Y-93130729D01*
X155300999Y-92747921D01*
X155449728Y-92564993D01*
X155563335Y-92581745D01*
X155577561Y-92601797D01*
X155599173Y-92753458D01*
X156300023Y-92753458D01*
X156384202Y-92564068D01*
X156410747Y-92542000D01*
X155978400Y-92542000D01*
X155927600Y-92592800D01*
X155876800Y-92542000D01*
X155898636Y-92520164D01*
X155025580Y-92520164D01*
X154927029Y-92762887D01*
X154860800Y-92897600D01*
X154723981Y-93135673D01*
X154619740Y-93263375D01*
X154589458Y-93269724D01*
X154602593Y-93157753D01*
X154697377Y-92935265D01*
X154767016Y-92803815D01*
X154936152Y-92531207D01*
X155025481Y-92439797D01*
X155025580Y-92520164D01*
X155898636Y-92520164D01*
X155927600Y-92491200D01*
X155978400Y-92542000D01*
X156410747Y-92542000D01*
X156558724Y-92418982D01*
X156561076Y-92418081D01*
X156587806Y-92402787D01*
X154295154Y-92402787D01*
X154253558Y-92486794D01*
X154135456Y-92735814D01*
X154050601Y-92941560D01*
X153962911Y-93147089D01*
X153915725Y-93170201D01*
X153911628Y-93132596D01*
X134911264Y-93132596D01*
X134878265Y-93182813D01*
X134710134Y-93202400D01*
X134511162Y-93175063D01*
X134439200Y-93117779D01*
X134519978Y-93058430D01*
X134696046Y-93054156D01*
X134868004Y-93101836D01*
X134911264Y-93132596D01*
X153911628Y-93132596D01*
X153902627Y-93050000D01*
X134236000Y-93050000D01*
X134185200Y-93100800D01*
X134134400Y-93050000D01*
X134185200Y-92999200D01*
X134236000Y-93050000D01*
X153902627Y-93050000D01*
X153897484Y-93002813D01*
X153895600Y-92833149D01*
X153903173Y-92765795D01*
X136102964Y-92765795D01*
X135963200Y-92779957D01*
X135818966Y-92763991D01*
X135828145Y-92745200D01*
X135556800Y-92745200D01*
X135506000Y-92796000D01*
X135455200Y-92745200D01*
X135506000Y-92694400D01*
X135556800Y-92745200D01*
X135828145Y-92745200D01*
X135836200Y-92728712D01*
X136044211Y-92715293D01*
X136090200Y-92728712D01*
X136102964Y-92765795D01*
X153903173Y-92765795D01*
X153918818Y-92626666D01*
X136742134Y-92626666D01*
X136728187Y-92687067D01*
X136674400Y-92694400D01*
X136590772Y-92657226D01*
X136606667Y-92626666D01*
X136727243Y-92614507D01*
X136742134Y-92626666D01*
X153918818Y-92626666D01*
X153926125Y-92561688D01*
X154041051Y-92418340D01*
X154126473Y-92378413D01*
X154286672Y-92334078D01*
X154295154Y-92402787D01*
X156587806Y-92402787D01*
X156793362Y-92285177D01*
X156830337Y-92254133D01*
X137182400Y-92254133D01*
X137148386Y-92353911D01*
X137106200Y-92331515D01*
X136952665Y-92182710D01*
X136928400Y-92163737D01*
X136918453Y-92100880D01*
X137004600Y-92086355D01*
X137155214Y-92163832D01*
X137182400Y-92254133D01*
X156830337Y-92254133D01*
X156878165Y-92213977D01*
X157050360Y-92142082D01*
X157208169Y-92252955D01*
X157329435Y-92526314D01*
X157358619Y-92653809D01*
X157438273Y-92918204D01*
X157523156Y-92986143D01*
X157586576Y-92859463D01*
X157604000Y-92636920D01*
X157669585Y-92210032D01*
X157741876Y-92067866D01*
X138198400Y-92067866D01*
X138115868Y-92143051D01*
X138046000Y-92152533D01*
X137910669Y-92106681D01*
X137893600Y-92067866D01*
X137930776Y-92034000D01*
X137792000Y-92034000D01*
X137741200Y-92084800D01*
X137690400Y-92034000D01*
X137722384Y-92002016D01*
X134481073Y-92002016D01*
X134474840Y-92035845D01*
X134292994Y-92113547D01*
X134236000Y-92135600D01*
X133966174Y-92237950D01*
X133851621Y-92268454D01*
X133857542Y-92227109D01*
X133931200Y-92135600D01*
X134123752Y-92021687D01*
X134324641Y-91990929D01*
X134481073Y-92002016D01*
X137722384Y-92002016D01*
X137741200Y-91983200D01*
X137792000Y-92034000D01*
X137930776Y-92034000D01*
X137976133Y-91992682D01*
X138046000Y-91983200D01*
X138181332Y-92029051D01*
X138198400Y-92067866D01*
X157741876Y-92067866D01*
X157846067Y-91862970D01*
X158103038Y-91639760D01*
X158333986Y-91580031D01*
X158550946Y-91540105D01*
X158791186Y-91459588D01*
X159043775Y-91365353D01*
X159217479Y-91314229D01*
X159416894Y-91219136D01*
X159466399Y-91177441D01*
X159656278Y-91082736D01*
X159761109Y-91068800D01*
X159947678Y-90995870D01*
X160005659Y-90916400D01*
X160133583Y-90781371D01*
X160205671Y-90764000D01*
X160333748Y-90705506D01*
X160347200Y-90662400D01*
X160429058Y-90571272D01*
X160493604Y-90560800D01*
X160660771Y-90505827D01*
X160708705Y-90326033D01*
X160642432Y-89999105D01*
X160629607Y-89957109D01*
X160501219Y-89657013D01*
X160359073Y-89554379D01*
X160192493Y-89643493D01*
X160144000Y-89697200D01*
X159962562Y-89826725D01*
X159861750Y-89849600D01*
X159687011Y-89907974D01*
X159442200Y-90053529D01*
X159366191Y-90108770D01*
X159160726Y-90242550D01*
X159039893Y-90276885D01*
X159026400Y-90256000D01*
X158956780Y-90241413D01*
X158781244Y-90335493D01*
X158686610Y-90403229D01*
X158387896Y-90598667D01*
X158190189Y-90658365D01*
X158112467Y-90577016D01*
X158112000Y-90563988D01*
X158036903Y-90509661D01*
X157951082Y-90527327D01*
X157849730Y-90596680D01*
X157922739Y-90671014D01*
X158013980Y-90758697D01*
X158007458Y-90783875D01*
X157765759Y-90926723D01*
X157514737Y-91055950D01*
X157319751Y-91139851D01*
X157247479Y-91152545D01*
X157277774Y-91055065D01*
X157395967Y-90845065D01*
X157508513Y-90670157D01*
X157677630Y-90398101D01*
X157785163Y-90186150D01*
X157805645Y-90113711D01*
X157762788Y-90087022D01*
X157705600Y-90154400D01*
X157624217Y-90238870D01*
X157605556Y-90212501D01*
X157557395Y-90214746D01*
X157439624Y-90340115D01*
X157288545Y-90538317D01*
X157140460Y-90759060D01*
X157031672Y-90952051D01*
X156997227Y-91055249D01*
X156918112Y-91150980D01*
X156789166Y-91140429D01*
X156608695Y-91155807D01*
X156457092Y-91334181D01*
X156430957Y-91382579D01*
X156282579Y-91586904D01*
X156131901Y-91678082D01*
X156124617Y-91678400D01*
X156040067Y-91619881D01*
X156093811Y-91439556D01*
X156289036Y-91130269D01*
X156486400Y-90865600D01*
X156772024Y-90470071D01*
X156917598Y-90203239D01*
X156920710Y-90070186D01*
X156870975Y-90055330D01*
X156752579Y-90132854D01*
X156554059Y-90336503D01*
X156312932Y-90626717D01*
X156244677Y-90715730D01*
X156009612Y-91020490D01*
X155822022Y-91250316D01*
X155713766Y-91366616D01*
X155701623Y-91373600D01*
X155721327Y-91295188D01*
X155822364Y-91093455D01*
X155926210Y-90909607D01*
X156070586Y-90615319D01*
X156138552Y-90379748D01*
X156132308Y-90235426D01*
X156054055Y-90214883D01*
X155905995Y-90350652D01*
X155889776Y-90371066D01*
X155702090Y-90641796D01*
X155538795Y-90916400D01*
X155396487Y-91155745D01*
X155243055Y-91376927D01*
X155109007Y-91542406D01*
X155024852Y-91614642D01*
X155021099Y-91556095D01*
X155022734Y-91551400D01*
X155037378Y-91401853D01*
X154953029Y-91388647D01*
X154812109Y-91502205D01*
X154723407Y-91618956D01*
X154534123Y-91801108D01*
X154356122Y-91810306D01*
X154189653Y-91729982D01*
X154149600Y-91666550D01*
X154066146Y-91589098D01*
X153981454Y-91576800D01*
X153870093Y-91559529D01*
X153906830Y-91473051D01*
X153969616Y-91399000D01*
X154112571Y-91197546D01*
X154281146Y-90908630D01*
X154333605Y-90807869D01*
X154670743Y-90321630D01*
X155053689Y-89954575D01*
X154602020Y-89954575D01*
X154594554Y-90017415D01*
X154472120Y-90182606D01*
X154338054Y-90332200D01*
X154057315Y-90646128D01*
X153783642Y-90978944D01*
X153703830Y-91083640D01*
X153486907Y-91328404D01*
X153304917Y-91409822D01*
X153228422Y-91401265D01*
X153122349Y-91358013D01*
X153114374Y-91278553D01*
X153217406Y-91120013D01*
X153370527Y-90929225D01*
X153478579Y-90813180D01*
X152877848Y-90813180D01*
X152772019Y-90913168D01*
X152579805Y-91029603D01*
X152473200Y-91062337D01*
X152462991Y-91013156D01*
X152568819Y-90913168D01*
X152761034Y-90796734D01*
X152867638Y-90764000D01*
X152877848Y-90813180D01*
X153478579Y-90813180D01*
X153626647Y-90654160D01*
X153931143Y-90379812D01*
X154233642Y-90146046D01*
X154483769Y-89992731D01*
X154602020Y-89954575D01*
X155053689Y-89954575D01*
X155205964Y-89808620D01*
X155927938Y-89277229D01*
X156252038Y-89040554D01*
X156396966Y-88878120D01*
X156389065Y-88797224D01*
X156241281Y-88773495D01*
X155991872Y-88909594D01*
X155959533Y-88933083D01*
X155720913Y-89076677D01*
X155601803Y-89069016D01*
X155594769Y-89054306D01*
X155536284Y-88959989D01*
X155429002Y-88960108D01*
X155237863Y-89067307D01*
X154927808Y-89294234D01*
X154926211Y-89295453D01*
X154676924Y-89470559D01*
X154505925Y-89561529D01*
X154454400Y-89555450D01*
X154528910Y-89414625D01*
X154564853Y-89386928D01*
X154618733Y-89284641D01*
X154560819Y-89204178D01*
X154457349Y-89183276D01*
X154289681Y-89290762D01*
X154033485Y-89543482D01*
X153967766Y-89614819D01*
X153688520Y-89900418D01*
X153425726Y-90134356D01*
X153245310Y-90260532D01*
X153001419Y-90381116D01*
X153226828Y-90064558D01*
X153364211Y-89859711D01*
X153384187Y-89769878D01*
X153292259Y-89748258D01*
X153264048Y-89748000D01*
X153105747Y-89816905D01*
X152859217Y-89999077D01*
X152573217Y-90257699D01*
X152524000Y-90306800D01*
X152249944Y-90572597D01*
X152024550Y-90769836D01*
X151889302Y-90862703D01*
X151876724Y-90865600D01*
X151864493Y-90803534D01*
X151941125Y-90696266D01*
X146902134Y-90696266D01*
X146888187Y-90756667D01*
X146834400Y-90764000D01*
X146750772Y-90726826D01*
X146766667Y-90696266D01*
X146887243Y-90684107D01*
X146902134Y-90696266D01*
X151941125Y-90696266D01*
X151965764Y-90661777D01*
X152087630Y-90469733D01*
X152044014Y-90378654D01*
X151857596Y-90412792D01*
X151771535Y-90454097D01*
X151527785Y-90526906D01*
X151390688Y-90499119D01*
X151178686Y-90439211D01*
X151050800Y-90440493D01*
X150930769Y-90444346D01*
X150956522Y-90384327D01*
X151101600Y-90257861D01*
X151385181Y-90043378D01*
X151631814Y-89878080D01*
X151847805Y-89711257D01*
X151962409Y-89557390D01*
X151950845Y-89458867D01*
X151885812Y-89443579D01*
X151722533Y-89493461D01*
X151481548Y-89615601D01*
X151438372Y-89641289D01*
X151188913Y-89789498D01*
X150835200Y-89994909D01*
X150450143Y-90215211D01*
X150417890Y-90233502D01*
X150070766Y-90427511D01*
X149863942Y-90528578D01*
X149761515Y-90544969D01*
X149727582Y-90484948D01*
X149725518Y-90392894D01*
X149821907Y-90192662D01*
X150091828Y-89938610D01*
X150516109Y-89641377D01*
X151075574Y-89311600D01*
X151751053Y-88959917D01*
X151864843Y-88906441D01*
X151041373Y-88906441D01*
X151039677Y-88923754D01*
X150921075Y-89009863D01*
X150673050Y-89180093D01*
X150335983Y-89406954D01*
X150071656Y-89582761D01*
X149501219Y-89937704D01*
X149072373Y-90152790D01*
X148780903Y-90229696D01*
X148622593Y-90170095D01*
X148616543Y-90161103D01*
X148487252Y-90129708D01*
X148240494Y-90202195D01*
X148229047Y-90207117D01*
X147961918Y-90310440D01*
X147815994Y-90344222D01*
X147813716Y-90311861D01*
X147977525Y-90216754D01*
X148053600Y-90180547D01*
X148324754Y-90054485D01*
X148700510Y-89878594D01*
X149101771Y-89689904D01*
X149120400Y-89681120D01*
X149511213Y-89502816D01*
X149922467Y-89324971D01*
X150317635Y-89161997D01*
X150660193Y-89028308D01*
X150913615Y-88938318D01*
X151041373Y-88906441D01*
X151864843Y-88906441D01*
X152523369Y-88596967D01*
X153373352Y-88233386D01*
X154200400Y-87910113D01*
X154530314Y-87768529D01*
X154669199Y-87671880D01*
X154626473Y-87631757D01*
X154411556Y-87659754D01*
X154073853Y-87754341D01*
X153758629Y-87843348D01*
X153316677Y-87951304D01*
X152821193Y-88060798D01*
X152574324Y-88111059D01*
X152051800Y-88225055D01*
X151521943Y-88365787D01*
X150957178Y-88543294D01*
X150329927Y-88767616D01*
X149612612Y-89048793D01*
X148777655Y-89396863D01*
X147797480Y-89821866D01*
X147432498Y-89982906D01*
X146698364Y-90306130D01*
X146121863Y-90554071D01*
X145675841Y-90735968D01*
X145333146Y-90861059D01*
X145066623Y-90938583D01*
X144849118Y-90977778D01*
X144653478Y-90987882D01*
X144497600Y-90981445D01*
X144332503Y-90954776D01*
X144349863Y-90894410D01*
X144396000Y-90860274D01*
X144442921Y-90801380D01*
X144315124Y-90799876D01*
X144167400Y-90822337D01*
X143924565Y-90844119D01*
X143793366Y-90816569D01*
X143785874Y-90800707D01*
X143695258Y-90740736D01*
X143469573Y-90697450D01*
X143378921Y-90690087D01*
X143027089Y-90630704D01*
X142637866Y-90510054D01*
X142521422Y-90461487D01*
X142236643Y-90340811D01*
X142023928Y-90266908D01*
X141966749Y-90256000D01*
X141840597Y-90176816D01*
X141760655Y-90064486D01*
X141587102Y-89893369D01*
X141397325Y-89807508D01*
X141223779Y-89732680D01*
X141189141Y-89656851D01*
X141152400Y-89546075D01*
X140994108Y-89383060D01*
X140954661Y-89351608D01*
X140722971Y-89088560D01*
X140658393Y-88804778D01*
X140572138Y-88481278D01*
X140416635Y-88325600D01*
X140163662Y-88136723D01*
X140004006Y-87995400D01*
X139827126Y-87858188D01*
X139720222Y-87817600D01*
X139679797Y-87787395D01*
X138846164Y-87787395D01*
X138706400Y-87801557D01*
X138562166Y-87785591D01*
X138579400Y-87750312D01*
X138787411Y-87736893D01*
X138833400Y-87750312D01*
X138846164Y-87787395D01*
X139679797Y-87787395D01*
X139609219Y-87734662D01*
X139491622Y-87539593D01*
X139347230Y-87280109D01*
X139214400Y-87106907D01*
X139049486Y-86917735D01*
X138856984Y-86669501D01*
X138845677Y-86653984D01*
X138693752Y-86462295D01*
X138577852Y-86416207D01*
X138417244Y-86495016D01*
X138363077Y-86530213D01*
X138147888Y-86709400D01*
X138115940Y-86867290D01*
X138235925Y-87025150D01*
X138322081Y-87175717D01*
X138268269Y-87389320D01*
X138262520Y-87402087D01*
X138200964Y-87598894D01*
X138263356Y-87686427D01*
X138275795Y-87690998D01*
X138393259Y-87815409D01*
X138401600Y-87865559D01*
X138490629Y-87969802D01*
X138709637Y-88054783D01*
X138757200Y-88064896D01*
X138991654Y-88132290D01*
X139109510Y-88212010D01*
X139112800Y-88225358D01*
X139193413Y-88334379D01*
X139381605Y-88459951D01*
X139650409Y-88600791D01*
X139432405Y-88818795D01*
X139254703Y-89017848D01*
X139230141Y-89116399D01*
X139319264Y-89138400D01*
X139474486Y-89174999D01*
X139727106Y-89265668D01*
X139793333Y-89292664D01*
X140022658Y-89397027D01*
X140087411Y-89471585D01*
X140012630Y-89559599D01*
X139967870Y-89594232D01*
X139739443Y-89713541D01*
X139593465Y-89744768D01*
X139467493Y-89793184D01*
X139468259Y-89964009D01*
X139474697Y-89990916D01*
X139481467Y-90201321D01*
X139424176Y-90302736D01*
X139358207Y-90425751D01*
X139372695Y-90468737D01*
X139357060Y-90540491D01*
X139310852Y-90537917D01*
X139170456Y-90589510D01*
X139142434Y-90637000D01*
X139178879Y-90747889D01*
X139245864Y-90764000D01*
X139407679Y-90846553D01*
X139458683Y-90927712D01*
X139469975Y-91041190D01*
X139342553Y-91018025D01*
X139030944Y-90935189D01*
X138858875Y-90999336D01*
X138835869Y-91043400D01*
X138873855Y-91154528D01*
X138940249Y-91170400D01*
X139098693Y-91248419D01*
X139255858Y-91424400D01*
X139346999Y-91610868D01*
X139290224Y-91670641D01*
X139081461Y-91603971D01*
X138790614Y-91453220D01*
X138534290Y-91322235D01*
X138390979Y-91295963D01*
X138305079Y-91365718D01*
X138298325Y-91376310D01*
X138280423Y-91514501D01*
X138431145Y-91613080D01*
X138563767Y-91695574D01*
X138528600Y-91749256D01*
X138415445Y-91879134D01*
X138401600Y-91956613D01*
X138384880Y-92061448D01*
X138300259Y-92022642D01*
X138223800Y-91956062D01*
X137989651Y-91810176D01*
X137756946Y-91723678D01*
X137688614Y-91696397D01*
X134431900Y-91696397D01*
X134358046Y-91766635D01*
X134337600Y-91780000D01*
X134151451Y-91869750D01*
X134062603Y-91854833D01*
X134083600Y-91780000D01*
X133880400Y-91780000D01*
X133858507Y-91867905D01*
X133790793Y-91881600D01*
X133615253Y-91821986D01*
X133575600Y-91780000D01*
X133597494Y-91692094D01*
X133665208Y-91678400D01*
X133840748Y-91738013D01*
X133880400Y-91780000D01*
X134083600Y-91780000D01*
X134228595Y-91691597D01*
X134318197Y-91679955D01*
X134431900Y-91696397D01*
X137688614Y-91696397D01*
X137582691Y-91654109D01*
X135309535Y-91654109D01*
X135209667Y-91670378D01*
X135077890Y-91651699D01*
X135076317Y-91617016D01*
X135212298Y-91592762D01*
X135271050Y-91608995D01*
X135309535Y-91654109D01*
X137582691Y-91654109D01*
X137576110Y-91651482D01*
X137587502Y-91577634D01*
X137589993Y-91576062D01*
X137654848Y-91484086D01*
X137599648Y-91431103D01*
X137426849Y-91407218D01*
X137385600Y-91424400D01*
X137291444Y-91431077D01*
X137284139Y-91404996D01*
X137192675Y-91365759D01*
X136956506Y-91350612D01*
X136725339Y-91357603D01*
X136402746Y-91369328D01*
X136234526Y-91344110D01*
X136217150Y-91322800D01*
X136064800Y-91322800D01*
X136014000Y-91373600D01*
X135963200Y-91322800D01*
X136014000Y-91272000D01*
X136064800Y-91322800D01*
X136217150Y-91322800D01*
X136173270Y-91268987D01*
X136167956Y-91205203D01*
X136177293Y-91136672D01*
X135816571Y-91136672D01*
X135798767Y-91215923D01*
X135692098Y-91357720D01*
X135589657Y-91336643D01*
X135556800Y-91208759D01*
X135527794Y-91101328D01*
X135412423Y-91163743D01*
X135411330Y-91164648D01*
X135229623Y-91233831D01*
X134942344Y-91195506D01*
X134891464Y-91182002D01*
X134547492Y-91125154D01*
X134218725Y-91127005D01*
X134198734Y-91129927D01*
X133880400Y-91181227D01*
X133990539Y-91119600D01*
X133524800Y-91119600D01*
X133474000Y-91170400D01*
X133423200Y-91119600D01*
X133474000Y-91068800D01*
X133524800Y-91119600D01*
X133990539Y-91119600D01*
X134235656Y-90982448D01*
X134539474Y-90854525D01*
X134753968Y-90871408D01*
X134768089Y-90878491D01*
X134990459Y-90947860D01*
X135286486Y-90986063D01*
X135301834Y-90986719D01*
X135537430Y-91018447D01*
X135655290Y-91079122D01*
X135658400Y-91091258D01*
X135721469Y-91136835D01*
X135758837Y-91120319D01*
X135816571Y-91136672D01*
X136177293Y-91136672D01*
X136184801Y-91081577D01*
X136253769Y-91148718D01*
X136268000Y-91170400D01*
X136347631Y-91262502D01*
X136368045Y-91183950D01*
X136445861Y-91087927D01*
X136569266Y-91097314D01*
X136759568Y-91074129D01*
X136827134Y-90966149D01*
X136961915Y-90775617D01*
X137056421Y-90717120D01*
X137091099Y-90694440D01*
X134406098Y-90694440D01*
X134404112Y-90708667D01*
X134286415Y-90783818D01*
X134148601Y-90790597D01*
X133976960Y-90810452D01*
X133931200Y-90866797D01*
X133904648Y-90965520D01*
X133844520Y-90894452D01*
X133799485Y-90761412D01*
X133789154Y-90624443D01*
X133890391Y-90575089D01*
X134093946Y-90579079D01*
X134314474Y-90621202D01*
X134406098Y-90694440D01*
X137091099Y-90694440D01*
X137174340Y-90640000D01*
X137130848Y-90579070D01*
X136967670Y-90545305D01*
X136726528Y-90549683D01*
X136537191Y-90580524D01*
X136203035Y-90619837D01*
X135782959Y-90620841D01*
X135349914Y-90588806D01*
X134976854Y-90528999D01*
X134744000Y-90451002D01*
X134662691Y-90377462D01*
X134718600Y-90360689D01*
X134836685Y-90289474D01*
X134845600Y-90249613D01*
X134761369Y-90177757D01*
X134617000Y-90173413D01*
X134443191Y-90155815D01*
X134367428Y-90002359D01*
X134356252Y-89925800D01*
X134274106Y-89700300D01*
X134153052Y-89644844D01*
X134039842Y-89628447D01*
X134113816Y-89558255D01*
X134134400Y-89544800D01*
X134353946Y-89466907D01*
X134540800Y-89446311D01*
X134700783Y-89464187D01*
X134671796Y-89523755D01*
X134655417Y-89534605D01*
X134555574Y-89679186D01*
X134559012Y-89751835D01*
X134643684Y-89793017D01*
X134821359Y-89664467D01*
X134850796Y-89636084D01*
X135149278Y-89442904D01*
X135455200Y-89356309D01*
X135798702Y-89293363D01*
X136035586Y-89193483D01*
X136116993Y-89087600D01*
X135963200Y-89087600D01*
X135912400Y-89138400D01*
X135861600Y-89087600D01*
X135912400Y-89036800D01*
X135963200Y-89087600D01*
X136116993Y-89087600D01*
X136125423Y-89076636D01*
X136112450Y-89031702D01*
X136138438Y-88948963D01*
X136211204Y-88935200D01*
X136350230Y-88883151D01*
X136369600Y-88835543D01*
X136277633Y-88784753D01*
X136028436Y-88785630D01*
X135900007Y-88800252D01*
X135535874Y-88836836D01*
X135083988Y-88864345D01*
X134757007Y-88874508D01*
X134083600Y-88884400D01*
X134118418Y-88528800D01*
X134150545Y-88282565D01*
X134183779Y-88143950D01*
X134188022Y-88137462D01*
X134295707Y-88105943D01*
X134547854Y-88097479D01*
X134963636Y-88112245D01*
X135556800Y-88150028D01*
X136420400Y-88211865D01*
X135742082Y-88090932D01*
X135388764Y-88019523D01*
X135118403Y-87949271D01*
X134990940Y-87896191D01*
X134974704Y-87805740D01*
X135117591Y-87758316D01*
X135379346Y-87757732D01*
X135719711Y-87807800D01*
X135781303Y-87821348D01*
X136176009Y-87905214D01*
X136572494Y-87977746D01*
X136921802Y-88031490D01*
X137174975Y-88058994D01*
X137283057Y-88052805D01*
X137284000Y-88050111D01*
X137202370Y-87989888D01*
X137055400Y-87922366D01*
X136902720Y-87853516D01*
X136933787Y-87826613D01*
X137030000Y-87819287D01*
X137119874Y-87790434D01*
X137047198Y-87731351D01*
X136848412Y-87652971D01*
X136559956Y-87566223D01*
X136218268Y-87482038D01*
X135859787Y-87411346D01*
X135520952Y-87365077D01*
X135513408Y-87364362D01*
X135146355Y-87321862D01*
X134872310Y-87274729D01*
X134741144Y-87231925D01*
X134736451Y-87224731D01*
X134713698Y-87080944D01*
X134685344Y-86922414D01*
X134684461Y-86765789D01*
X134735016Y-86745247D01*
X134846751Y-86727811D01*
X134864173Y-86695081D01*
X134975890Y-86644845D01*
X135250569Y-86597328D01*
X135647973Y-86555908D01*
X136127866Y-86523961D01*
X136650011Y-86504863D01*
X137166184Y-86501895D01*
X137444148Y-86488590D01*
X137544395Y-86434927D01*
X137531308Y-86384370D01*
X137533984Y-86313299D01*
X137685764Y-86299707D01*
X137905401Y-86323301D01*
X138203773Y-86342302D01*
X138432116Y-86319471D01*
X138554264Y-86267184D01*
X138540846Y-86221123D01*
X134626023Y-86221123D01*
X134601302Y-86277901D01*
X134499002Y-86386974D01*
X134440189Y-86364599D01*
X134439200Y-86350396D01*
X134511365Y-86264461D01*
X134556499Y-86233098D01*
X134626023Y-86221123D01*
X138540846Y-86221123D01*
X138534056Y-86197819D01*
X138420209Y-86147106D01*
X138267199Y-86035706D01*
X138265556Y-85932014D01*
X138259237Y-85827453D01*
X137792000Y-85827453D01*
X137775330Y-86029449D01*
X137699049Y-86131793D01*
X137523749Y-86145468D01*
X137502832Y-86141200D01*
X136369600Y-86141200D01*
X136318800Y-86192000D01*
X136268000Y-86141200D01*
X136318800Y-86090400D01*
X136369600Y-86141200D01*
X137502832Y-86141200D01*
X137210025Y-86081455D01*
X137048622Y-86039600D01*
X135556800Y-86039600D01*
X135506000Y-86090400D01*
X135455200Y-86039600D01*
X135506000Y-85988800D01*
X135252000Y-85988800D01*
X135214827Y-86072428D01*
X135184267Y-86056533D01*
X135182560Y-86039600D01*
X135048800Y-86039600D01*
X134998000Y-86090400D01*
X134947200Y-86039600D01*
X134998000Y-85988800D01*
X135048800Y-86039600D01*
X135182560Y-86039600D01*
X135172108Y-85935957D01*
X135184267Y-85921066D01*
X135244668Y-85935013D01*
X135252000Y-85988800D01*
X135506000Y-85988800D01*
X135556800Y-86039600D01*
X137048622Y-86039600D01*
X137039366Y-86037200D01*
X136842705Y-85974779D01*
X136822199Y-85910193D01*
X136937766Y-85808996D01*
X137053671Y-85709259D01*
X137013717Y-85685846D01*
X136822016Y-85715772D01*
X136556135Y-85733567D01*
X136374755Y-85693382D01*
X136314148Y-85616950D01*
X136410584Y-85526002D01*
X136466154Y-85502550D01*
X136635317Y-85433097D01*
X136620081Y-85392083D01*
X136489109Y-85354444D01*
X136317803Y-85343677D01*
X136268000Y-85388711D01*
X136195191Y-85473952D01*
X136025119Y-85459227D01*
X135830326Y-85356188D01*
X135778143Y-85310029D01*
X135669074Y-85187625D01*
X135726334Y-85172560D01*
X135840669Y-85200086D01*
X136099994Y-85198539D01*
X136348669Y-85117482D01*
X136647619Y-85010314D01*
X136946548Y-84977355D01*
X137171591Y-85022062D01*
X137234225Y-85076057D01*
X137360250Y-85131942D01*
X137399459Y-85116634D01*
X137499627Y-85148084D01*
X137556689Y-85267377D01*
X137636858Y-85437456D01*
X137702250Y-85480800D01*
X137762188Y-85569989D01*
X137791436Y-85788585D01*
X137792000Y-85827453D01*
X138259237Y-85827453D01*
X138254435Y-85748019D01*
X138150159Y-85521245D01*
X138031668Y-85211189D01*
X138038935Y-85015577D01*
X138020333Y-84741584D01*
X138003907Y-84718800D01*
X135760000Y-84718800D01*
X135709200Y-84769600D01*
X135658400Y-84718800D01*
X135709200Y-84668000D01*
X135760000Y-84718800D01*
X138003907Y-84718800D01*
X137895148Y-84567947D01*
X137770485Y-84382653D01*
X136629853Y-84382653D01*
X136620215Y-84419004D01*
X136522000Y-84464800D01*
X136272789Y-84546002D01*
X136123474Y-84544966D01*
X136115600Y-84464800D01*
X136253956Y-84391482D01*
X136451797Y-84370340D01*
X136629853Y-84382653D01*
X137770485Y-84382653D01*
X137723219Y-84312400D01*
X136877600Y-84312400D01*
X136826800Y-84363200D01*
X136776000Y-84312400D01*
X136826800Y-84261600D01*
X136877600Y-84312400D01*
X137723219Y-84312400D01*
X137715829Y-84301417D01*
X137722895Y-84067727D01*
X137807930Y-83990666D01*
X136132534Y-83990666D01*
X136118587Y-84051067D01*
X136064800Y-84058400D01*
X135981172Y-84021226D01*
X135997067Y-83990666D01*
X136117643Y-83978507D01*
X136132534Y-83990666D01*
X137807930Y-83990666D01*
X137913312Y-83895167D01*
X137969800Y-83871687D01*
X138115244Y-83800146D01*
X138095291Y-83762550D01*
X138083250Y-83761621D01*
X137927599Y-83668885D01*
X137861489Y-83540177D01*
X137777245Y-83398878D01*
X137697239Y-83393773D01*
X137596948Y-83426852D01*
X137627604Y-83331415D01*
X137781543Y-83127528D01*
X137812826Y-83091094D01*
X138000411Y-82929486D01*
X138157463Y-82880772D01*
X138168426Y-82883932D01*
X138276542Y-82848138D01*
X138300000Y-82729957D01*
X138239798Y-82570212D01*
X138133741Y-82555346D01*
X137979472Y-82499185D01*
X137939531Y-82407400D01*
X137987865Y-82256353D01*
X138089482Y-82229600D01*
X138207179Y-82196189D01*
X138325429Y-82070984D01*
X138349507Y-82029588D01*
X137690400Y-82029588D01*
X137608060Y-82116913D01*
X137538000Y-82128000D01*
X137402445Y-82106262D01*
X137385600Y-82088070D01*
X137465047Y-82022557D01*
X137538000Y-81989658D01*
X137668826Y-81987546D01*
X137690400Y-82029588D01*
X138349507Y-82029588D01*
X138380910Y-81975600D01*
X136471200Y-81975600D01*
X136420400Y-82026400D01*
X136369600Y-81975600D01*
X136268000Y-81975600D01*
X136217200Y-82026400D01*
X136166400Y-81975600D01*
X136217200Y-81924800D01*
X136268000Y-81975600D01*
X136369600Y-81975600D01*
X136420400Y-81924800D01*
X136471200Y-81975600D01*
X138380910Y-81975600D01*
X138473443Y-81816521D01*
X138495543Y-81772400D01*
X136268000Y-81772400D01*
X136217200Y-81823200D01*
X136166400Y-81772400D01*
X136217200Y-81721600D01*
X136268000Y-81772400D01*
X138495543Y-81772400D01*
X138584607Y-81594600D01*
X138519160Y-81547263D01*
X138310571Y-81520575D01*
X138215334Y-81518400D01*
X137950830Y-81494435D01*
X137790218Y-81434699D01*
X137773562Y-81412285D01*
X137656283Y-81321390D01*
X137511096Y-81289064D01*
X137333215Y-81225951D01*
X137284000Y-81141179D01*
X137221405Y-81020477D01*
X137182400Y-81010400D01*
X137087425Y-80943327D01*
X137110985Y-80783901D01*
X137240266Y-80594805D01*
X137274024Y-80562228D01*
X137429035Y-80329502D01*
X137404099Y-80103822D01*
X137338386Y-80022740D01*
X137299485Y-80017004D01*
X137324508Y-80070600D01*
X137335561Y-80182267D01*
X137296269Y-80197600D01*
X137218955Y-80118573D01*
X137214737Y-79933685D01*
X137270807Y-79721220D01*
X137374355Y-79559465D01*
X137404321Y-79537200D01*
X137554174Y-79405586D01*
X137589361Y-79334000D01*
X137663057Y-79184392D01*
X137764187Y-79054600D01*
X137853800Y-78918065D01*
X137833147Y-78869659D01*
X137834977Y-78835096D01*
X137935355Y-78786392D01*
X138088745Y-78651618D01*
X138168420Y-78449187D01*
X138148109Y-78268457D01*
X138102000Y-78219613D01*
X138103749Y-78123026D01*
X138210111Y-77957164D01*
X138368709Y-77781763D01*
X138527165Y-77656561D01*
X138617038Y-77632200D01*
X138697044Y-77575929D01*
X138706400Y-77515458D01*
X138618686Y-77365590D01*
X138611062Y-77360176D01*
X138036905Y-77360176D01*
X138033440Y-77373123D01*
X137892775Y-77442181D01*
X137671526Y-77446781D01*
X137480275Y-77391362D01*
X137434088Y-77349057D01*
X137471519Y-77280333D01*
X137687304Y-77265544D01*
X137726327Y-77267781D01*
X137947110Y-77303254D01*
X138036905Y-77360176D01*
X138611062Y-77360176D01*
X138416906Y-77222312D01*
X137153539Y-77222312D01*
X137089267Y-77248110D01*
X136995026Y-77283371D01*
X137006960Y-77312826D01*
X137002099Y-77427203D01*
X136947693Y-77505715D01*
X136845098Y-77569940D01*
X136777039Y-77456310D01*
X136765982Y-77418689D01*
X136748050Y-77209078D01*
X136781590Y-77113671D01*
X136918321Y-77088138D01*
X137045609Y-77135982D01*
X137153539Y-77222312D01*
X138416906Y-77222312D01*
X138404160Y-77213262D01*
X138135753Y-77093355D01*
X137886392Y-77040750D01*
X137761049Y-77063302D01*
X137639730Y-77105694D01*
X137648121Y-77011633D01*
X137643361Y-76845354D01*
X137472510Y-76778818D01*
X137148296Y-76815269D01*
X137012389Y-76849730D01*
X136686706Y-76917262D01*
X136490765Y-76870158D01*
X136372660Y-76676447D01*
X136303344Y-76413000D01*
X136238130Y-76210986D01*
X136174111Y-76133600D01*
X136089396Y-76038104D01*
X135986385Y-75772148D01*
X135874804Y-75366532D01*
X135764382Y-74852055D01*
X135756954Y-74812800D01*
X135690310Y-74313460D01*
X135696228Y-73835148D01*
X135749144Y-73410039D01*
X135791897Y-73121299D01*
X135812329Y-72886637D01*
X135803610Y-72662774D01*
X135758910Y-72406434D01*
X135671396Y-72074338D01*
X135534239Y-71623209D01*
X135399851Y-71197042D01*
X135198064Y-70535322D01*
X135058738Y-70011643D01*
X134970923Y-69574570D01*
X134923670Y-69172666D01*
X134909066Y-68891402D01*
X134870471Y-68339694D01*
X134791096Y-67962884D01*
X134712480Y-67795215D01*
X134611758Y-67553789D01*
X134511280Y-67166224D01*
X134419838Y-66689402D01*
X134346225Y-66180203D01*
X134299233Y-65695511D01*
X134287652Y-65292205D01*
X134299700Y-65124672D01*
X134294690Y-64686448D01*
X134153611Y-64191240D01*
X134143886Y-64166438D01*
X134056629Y-63917514D01*
X133996511Y-63658210D01*
X133958787Y-63343806D01*
X133938713Y-62929586D01*
X133931544Y-62370829D01*
X133931200Y-62161724D01*
X133939481Y-61558500D01*
X133962121Y-60955260D01*
X133995822Y-60416257D01*
X134037282Y-60005749D01*
X134044507Y-59955685D01*
X134191259Y-59164219D01*
X134382611Y-58381651D01*
X134605840Y-57645242D01*
X134848224Y-56992251D01*
X135097040Y-56459939D01*
X135339566Y-56085566D01*
X135382618Y-56036712D01*
X135832007Y-55671633D01*
X136392511Y-55384303D01*
X137003474Y-55193507D01*
X137604238Y-55118028D01*
X138134148Y-55176649D01*
X138147600Y-55180469D01*
X138446656Y-55355789D01*
X138708032Y-55657751D01*
X138876317Y-56010571D01*
X138909600Y-56222584D01*
X138952264Y-56420429D01*
X139051867Y-56609180D01*
X139165827Y-56726446D01*
X139247084Y-56717078D01*
X139395516Y-56378617D01*
X139452530Y-55982395D01*
X139443054Y-55839000D01*
X139433092Y-55602360D01*
X139507840Y-55513207D01*
X139549346Y-55508799D01*
X139745451Y-55581080D01*
X140044801Y-55779548D01*
X140417780Y-56076639D01*
X140834775Y-56444791D01*
X141266171Y-56856441D01*
X141682355Y-57284026D01*
X142053711Y-57699983D01*
X142350626Y-58076748D01*
X142426469Y-58186636D01*
X142605412Y-58425037D01*
X142883817Y-58758461D01*
X143218893Y-59136828D01*
X143468252Y-59405836D01*
X143819612Y-59782064D01*
X144258407Y-60259524D01*
X144737845Y-60786894D01*
X145211132Y-61312852D01*
X145398988Y-61523424D01*
X145846220Y-62019683D01*
X146191154Y-62383658D01*
X146460910Y-62639724D01*
X146682604Y-62812256D01*
X146883358Y-62925627D01*
X147020652Y-62980979D01*
X147344870Y-63096293D01*
X147617004Y-63194595D01*
X147698000Y-63224499D01*
X147908844Y-63255584D01*
X148235765Y-63254699D01*
X148485400Y-63234791D01*
X148798136Y-63208297D01*
X149010152Y-63207143D01*
X149069630Y-63225046D01*
X149159473Y-63260413D01*
X149382181Y-63277682D01*
X149450630Y-63278026D01*
X149843267Y-63308775D01*
X150080736Y-63423456D01*
X150201263Y-63643648D01*
X150216218Y-63710181D01*
X150269064Y-63924933D01*
X150368930Y-64276758D01*
X150499543Y-64709637D01*
X150593367Y-65008400D01*
X150741075Y-65483819D01*
X150922641Y-66087277D01*
X151117949Y-66750909D01*
X151306883Y-67406853D01*
X151361345Y-67599200D01*
X151581279Y-68346322D01*
X151809054Y-69060497D01*
X152036239Y-69720872D01*
X152254402Y-70306598D01*
X152455114Y-70796822D01*
X152629941Y-71170695D01*
X152770455Y-71407365D01*
X152868222Y-71485982D01*
X152908913Y-71426431D01*
X152901591Y-71212945D01*
X152816665Y-70851507D01*
X152650960Y-70331335D01*
X152401300Y-69641648D01*
X152320245Y-69428000D01*
X152141993Y-68936671D01*
X151961087Y-68397789D01*
X151824653Y-67954800D01*
X151693774Y-67499640D01*
X151537692Y-66957752D01*
X151387654Y-66437612D01*
X151371017Y-66380000D01*
X151249506Y-65948305D01*
X151144622Y-65555954D01*
X151074099Y-65269921D01*
X151061648Y-65211600D01*
X151003287Y-64956000D01*
X150909820Y-64588189D01*
X150810137Y-64219278D01*
X150727156Y-63871204D01*
X150690175Y-63606134D01*
X150706484Y-63477848D01*
X150709345Y-63475658D01*
X150754845Y-63355367D01*
X150741662Y-63324979D01*
X150773210Y-63240894D01*
X150867004Y-63215926D01*
X151246750Y-63199414D01*
X151478149Y-63231229D01*
X151612549Y-63322110D01*
X151652260Y-63380193D01*
X151809332Y-63591951D01*
X151990073Y-63781944D01*
X152100607Y-63917111D01*
X152187708Y-64116829D01*
X152263057Y-64421624D01*
X152338336Y-64872023D01*
X152371463Y-65105064D01*
X152450720Y-65638044D01*
X152539689Y-66170132D01*
X152625096Y-66624557D01*
X152670114Y-66832264D01*
X152754754Y-67221524D01*
X152853449Y-67722373D01*
X152948857Y-68245638D01*
X152977330Y-68412000D01*
X153067105Y-68907221D01*
X153190005Y-69530370D01*
X153333915Y-70224974D01*
X153486719Y-70934564D01*
X153636301Y-71602668D01*
X153770545Y-72172816D01*
X153859037Y-72521514D01*
X153933766Y-72762144D01*
X153994009Y-72829099D01*
X154064226Y-72748139D01*
X154067958Y-72741529D01*
X154119763Y-72528704D01*
X154122950Y-72223996D01*
X154114067Y-72137215D01*
X154065199Y-71763021D01*
X154017861Y-71400831D01*
X154012311Y-71358400D01*
X153972816Y-71078639D01*
X153913379Y-70682496D01*
X153846643Y-70254159D01*
X153844518Y-70240800D01*
X153784983Y-69712750D01*
X153749871Y-69067445D01*
X153738105Y-68354042D01*
X153748613Y-67621702D01*
X153780318Y-66919584D01*
X153832147Y-66296846D01*
X153903024Y-65802649D01*
X153945582Y-65618000D01*
X154023316Y-65297166D01*
X154092089Y-64947544D01*
X154093111Y-64941461D01*
X154134770Y-64771438D01*
X153805808Y-64771438D01*
X153792717Y-64906800D01*
X153763892Y-65083316D01*
X153725418Y-65415571D01*
X153682235Y-65856627D01*
X153639283Y-66359548D01*
X153637663Y-66380000D01*
X153592155Y-66955991D01*
X153545862Y-67541824D01*
X153504700Y-68062629D01*
X153478490Y-68394156D01*
X153438275Y-68813274D01*
X153398792Y-69031487D01*
X153358354Y-69051077D01*
X153315273Y-68874324D01*
X153285088Y-68655517D01*
X153242671Y-68378725D01*
X153169483Y-67972793D01*
X153078297Y-67507061D01*
X153034364Y-67294400D01*
X152862743Y-66423041D01*
X152744236Y-65696958D01*
X152680148Y-65128138D01*
X152671787Y-64728573D01*
X152720457Y-64510250D01*
X152729700Y-64497388D01*
X152912321Y-64379698D01*
X153142813Y-64345093D01*
X153344135Y-64390493D01*
X153439244Y-64512814D01*
X153439956Y-64525800D01*
X153456826Y-64643580D01*
X153528004Y-64571590D01*
X153541556Y-64551200D01*
X153637349Y-64449917D01*
X153729792Y-64529737D01*
X153744522Y-64551200D01*
X153805808Y-64771438D01*
X154134770Y-64771438D01*
X154153246Y-64696036D01*
X154253174Y-64600431D01*
X154410153Y-64597694D01*
X154663580Y-64549648D01*
X154762538Y-64443363D01*
X154855149Y-64338509D01*
X155021473Y-64294193D01*
X155317353Y-64298918D01*
X155425001Y-64306973D01*
X155838566Y-64324252D01*
X156067637Y-64289269D01*
X156125539Y-64196204D01*
X156125159Y-64195600D01*
X156080000Y-64195600D01*
X156029200Y-64246400D01*
X155978400Y-64195600D01*
X156029200Y-64144800D01*
X156080000Y-64195600D01*
X156125159Y-64195600D01*
X156029201Y-64043199D01*
X155929858Y-63869537D01*
X155971782Y-63793290D01*
X156070282Y-63791205D01*
X156080000Y-63826562D01*
X156161874Y-63935935D01*
X156360941Y-64066655D01*
X156380573Y-64076662D01*
X156607628Y-64167115D01*
X156740753Y-64143444D01*
X156789566Y-64095969D01*
X156834028Y-63968154D01*
X156744707Y-63906511D01*
X156637611Y-63797236D01*
X156676611Y-63658861D01*
X156826896Y-63554823D01*
X156948474Y-63535199D01*
X157163732Y-63580675D01*
X157258102Y-63652498D01*
X157270026Y-63722590D01*
X157220613Y-63701822D01*
X157111357Y-63730089D01*
X157038822Y-63863924D01*
X156938510Y-64074149D01*
X156856554Y-64164734D01*
X156833811Y-64248428D01*
X156934858Y-64307903D01*
X157188053Y-64316185D01*
X157380447Y-64173875D01*
X157443533Y-63953690D01*
X157470547Y-63782268D01*
X157519733Y-63738400D01*
X157588924Y-63823381D01*
X157604000Y-63935603D01*
X157650594Y-64129887D01*
X157753274Y-64206216D01*
X157856393Y-64130053D01*
X157869588Y-64100439D01*
X157972215Y-63961964D01*
X158027267Y-63941600D01*
X158073662Y-64006341D01*
X158051499Y-64058898D01*
X158039524Y-64128422D01*
X158096302Y-64103701D01*
X158207470Y-63970107D01*
X158155471Y-63861898D01*
X158054354Y-63840000D01*
X157951895Y-63768811D01*
X157975505Y-63575440D01*
X157998427Y-63529203D01*
X153235200Y-63529203D01*
X153161448Y-63632665D01*
X153133600Y-63636800D01*
X153034642Y-63602135D01*
X153032000Y-63591996D01*
X153103195Y-63505253D01*
X153133600Y-63484400D01*
X153227223Y-63492455D01*
X153235200Y-63529203D01*
X157998427Y-63529203D01*
X158116930Y-63290175D01*
X158261988Y-63078000D01*
X158396286Y-62916681D01*
X158535523Y-62826336D01*
X158740278Y-62787704D01*
X159071132Y-62781519D01*
X159189996Y-62782914D01*
X159591933Y-62782698D01*
X159870028Y-62756186D01*
X160103482Y-62684997D01*
X160371497Y-62550748D01*
X160499600Y-62478968D01*
X160790615Y-62325502D01*
X161140535Y-62155538D01*
X161236900Y-62111307D01*
X161798615Y-61813259D01*
X162463370Y-61385423D01*
X163200252Y-60850810D01*
X163978348Y-60232430D01*
X164766746Y-59553292D01*
X165173200Y-59181264D01*
X165691615Y-58709238D01*
X166180959Y-58287544D01*
X166616323Y-57935781D01*
X166972794Y-57673549D01*
X167225460Y-57520449D01*
X167324442Y-57488683D01*
X167454814Y-57420082D01*
X167670578Y-57243635D01*
X167869437Y-57053032D01*
X168384960Y-56605656D01*
X168871763Y-56340559D01*
X169318190Y-56263493D01*
X169440419Y-56277506D01*
X169715394Y-56353845D01*
X169893299Y-56489870D01*
X170019089Y-56736600D01*
X170109426Y-57036775D01*
X170163481Y-57293279D01*
X170171920Y-57541180D01*
X171320000Y-57541180D01*
X171320000Y-50632000D01*
X130680000Y-50632000D01*
X130680000Y-97377268D01*
X130680000Y-97377268D01*
G37*
X130680000Y-97377268D02*
X131899200Y-97361496D01*
X132434020Y-97349838D01*
X132794244Y-97328759D01*
X133008394Y-97294583D01*
X133104994Y-97243638D01*
X133118400Y-97204462D01*
X133175189Y-97076537D01*
X133216812Y-97063200D01*
X133273527Y-97141224D01*
X133259108Y-97241000D01*
X133247261Y-97334055D01*
X133330185Y-97272705D01*
X133402083Y-97194520D01*
X133561153Y-97054852D01*
X133664466Y-97033532D01*
X133664588Y-97033653D01*
X133724216Y-97022167D01*
X133728000Y-96989403D01*
X133677435Y-96910800D01*
X133423200Y-96910800D01*
X133372400Y-96961600D01*
X133321600Y-96910800D01*
X133372400Y-96860000D01*
X133423200Y-96910800D01*
X133677435Y-96910800D01*
X133646743Y-96863090D01*
X133575600Y-96823258D01*
X133435281Y-96703132D01*
X133472189Y-96547004D01*
X133674405Y-96393125D01*
X133715678Y-96373740D01*
X133898645Y-96326415D01*
X134195576Y-96284519D01*
X134563168Y-96250040D01*
X134958117Y-96224967D01*
X135337117Y-96211287D01*
X135656865Y-96210991D01*
X135874056Y-96226065D01*
X135945386Y-96258499D01*
X135931762Y-96271980D01*
X135731635Y-96340425D01*
X135607600Y-96355026D01*
X135371543Y-96401511D01*
X135099600Y-96501683D01*
X134794800Y-96642200D01*
X135252000Y-96638464D01*
X135630455Y-96673755D01*
X135994338Y-96765913D01*
X136064800Y-96794187D01*
X136420400Y-96953646D01*
X135607600Y-96959178D01*
X135190342Y-96970813D01*
X134966620Y-96999628D01*
X134927383Y-97047050D01*
X134947200Y-97063200D01*
X135157587Y-97136534D01*
X135404400Y-97164800D01*
X135595768Y-97180602D01*
X135604596Y-97230789D01*
X135556800Y-97266400D01*
X135511818Y-97329499D01*
X135639963Y-97360488D01*
X135830204Y-97366444D01*
X136109165Y-97345100D01*
X136292549Y-97289821D01*
X136318970Y-97266125D01*
X136454793Y-97222547D01*
X136589787Y-97275490D01*
X136694771Y-97317753D01*
X136838480Y-97341052D01*
X137052022Y-97344270D01*
X137366508Y-97326290D01*
X137813048Y-97285997D01*
X138422750Y-97222274D01*
X138595374Y-97203528D01*
X138957180Y-97173350D01*
X139144000Y-97183944D01*
X139180306Y-97237288D01*
X139173577Y-97250256D01*
X139212740Y-97266612D01*
X139355870Y-97281535D01*
X139609747Y-97295076D01*
X139981150Y-97307284D01*
X140476859Y-97318209D01*
X141103653Y-97327901D01*
X141868312Y-97336410D01*
X142777616Y-97343786D01*
X143838344Y-97350077D01*
X145057275Y-97355335D01*
X146441190Y-97359608D01*
X147996867Y-97362947D01*
X149731087Y-97365401D01*
X151650629Y-97367020D01*
X153762271Y-97367855D01*
X155210404Y-97368000D01*
X171320000Y-97368000D01*
X171320000Y-96863188D01*
X138706400Y-96863188D01*
X138624060Y-96950513D01*
X138554000Y-96961600D01*
X138418445Y-96939862D01*
X138401600Y-96921670D01*
X138481047Y-96856157D01*
X138554000Y-96823258D01*
X138684826Y-96821146D01*
X138706400Y-96863188D01*
X171320000Y-96863188D01*
X171320000Y-96709591D01*
X139292027Y-96709591D01*
X139189504Y-96826884D01*
X139094364Y-96860000D01*
X139058525Y-96809200D01*
X138909600Y-96809200D01*
X138858800Y-96860000D01*
X138808000Y-96809200D01*
X138858800Y-96758400D01*
X138909600Y-96809200D01*
X139058525Y-96809200D01*
X139053409Y-96801949D01*
X139114838Y-96705144D01*
X139239075Y-96598637D01*
X139289852Y-96596785D01*
X139292027Y-96709591D01*
X171320000Y-96709591D01*
X171320000Y-96412107D01*
X138852095Y-96412107D01*
X138793448Y-96464744D01*
X138614959Y-96532330D01*
X138421701Y-96552716D01*
X138305993Y-96519095D01*
X138300000Y-96501126D01*
X138384350Y-96422024D01*
X138571689Y-96348858D01*
X138763452Y-96313374D01*
X138844248Y-96325829D01*
X138852095Y-96412107D01*
X171320000Y-96412107D01*
X171320000Y-96148800D01*
X138604800Y-96148800D01*
X138519706Y-96231348D01*
X138401600Y-96250400D01*
X138236833Y-96309917D01*
X138198400Y-96393288D01*
X138123342Y-96493677D01*
X138006667Y-96486037D01*
X137817236Y-96493450D01*
X137746671Y-96546348D01*
X137603206Y-96618063D01*
X137331932Y-96651661D01*
X137005222Y-96643909D01*
X136700943Y-96593061D01*
X136531432Y-96517020D01*
X136541454Y-96441839D01*
X136707817Y-96382236D01*
X137007326Y-96352930D01*
X137080800Y-96352000D01*
X137381292Y-96333658D01*
X137588893Y-96286996D01*
X137636858Y-96254837D01*
X137769487Y-96197522D01*
X137835777Y-96210963D01*
X137998744Y-96197525D01*
X138041720Y-96155726D01*
X138172735Y-96075368D01*
X138371479Y-96049668D01*
X138545460Y-96079764D01*
X138604800Y-96148800D01*
X171320000Y-96148800D01*
X171320000Y-95894800D01*
X138909600Y-95894800D01*
X138858800Y-95945600D01*
X138808000Y-95894800D01*
X138858800Y-95844000D01*
X138909600Y-95894800D01*
X171320000Y-95894800D01*
X171320000Y-95691600D01*
X135048800Y-95691600D01*
X134998000Y-95742400D01*
X134947200Y-95691600D01*
X133728000Y-95691600D01*
X133677200Y-95742400D01*
X133626400Y-95691600D01*
X133677200Y-95640800D01*
X133728000Y-95691600D01*
X134947200Y-95691600D01*
X134998000Y-95640800D01*
X135048800Y-95691600D01*
X171320000Y-95691600D01*
X171320000Y-95620345D01*
X135344402Y-95620345D01*
X135283397Y-95632778D01*
X135170820Y-95590000D01*
X134032800Y-95590000D01*
X133982000Y-95640800D01*
X133931200Y-95590000D01*
X133982000Y-95539200D01*
X134032800Y-95590000D01*
X135170820Y-95590000D01*
X135125618Y-95572824D01*
X135103939Y-95546220D01*
X135111148Y-95488400D01*
X134947200Y-95488400D01*
X134896400Y-95539200D01*
X134845600Y-95488400D01*
X134896400Y-95437600D01*
X134947200Y-95488400D01*
X135111148Y-95488400D01*
X135119958Y-95417749D01*
X135154699Y-95386800D01*
X133220000Y-95386800D01*
X133169200Y-95437600D01*
X133118400Y-95386800D01*
X133169200Y-95336000D01*
X133220000Y-95386800D01*
X135154699Y-95386800D01*
X135164441Y-95378122D01*
X135236364Y-95364486D01*
X135216266Y-95413224D01*
X135228383Y-95540483D01*
X135276767Y-95573301D01*
X135344402Y-95620345D01*
X171320000Y-95620345D01*
X171320000Y-95501133D01*
X136993299Y-95501133D01*
X136858351Y-95518723D01*
X136826800Y-95519393D01*
X136653286Y-95508411D01*
X136638009Y-95476605D01*
X136647067Y-95472556D01*
X136848762Y-95452458D01*
X136951867Y-95468792D01*
X136993299Y-95501133D01*
X171320000Y-95501133D01*
X171320000Y-94963466D01*
X135421334Y-94963466D01*
X135407387Y-95023867D01*
X135353600Y-95031200D01*
X135334530Y-95022723D01*
X135201200Y-95022723D01*
X134947200Y-95175761D01*
X134709916Y-95288871D01*
X134540800Y-95329310D01*
X134439490Y-95317191D01*
X134503349Y-95268266D01*
X133490934Y-95268266D01*
X133476987Y-95328667D01*
X133423200Y-95336000D01*
X133339572Y-95298826D01*
X133355467Y-95268266D01*
X133476043Y-95256107D01*
X133490934Y-95268266D01*
X134503349Y-95268266D01*
X134520258Y-95255312D01*
X134540800Y-95243600D01*
X134757920Y-95150039D01*
X134936497Y-95093443D01*
X133794676Y-95093443D01*
X133778800Y-95132800D01*
X133687502Y-95229724D01*
X133671204Y-95234400D01*
X133627565Y-95155792D01*
X133626400Y-95132800D01*
X133704506Y-95035104D01*
X133733997Y-95031200D01*
X133794676Y-95093443D01*
X134936497Y-95093443D01*
X134947200Y-95090051D01*
X135201200Y-95022723D01*
X135334530Y-95022723D01*
X135269972Y-94994026D01*
X135285867Y-94963466D01*
X135406443Y-94951307D01*
X135421334Y-94963466D01*
X171320000Y-94963466D01*
X171320000Y-94878800D01*
X135658400Y-94878800D01*
X135607600Y-94929600D01*
X135556800Y-94878800D01*
X135607600Y-94828000D01*
X135658400Y-94878800D01*
X171320000Y-94878800D01*
X171320000Y-94619453D01*
X135375552Y-94619453D01*
X135316918Y-94678695D01*
X135087398Y-94731744D01*
X134865564Y-94752682D01*
X134593721Y-94794209D01*
X134449534Y-94869352D01*
X134439727Y-94896750D01*
X134354995Y-95017447D01*
X134261400Y-95056675D01*
X134079979Y-95067964D01*
X133968854Y-95029976D01*
X133982848Y-94970017D01*
X134037805Y-94945316D01*
X134222136Y-94825104D01*
X134303228Y-94736388D01*
X134510727Y-94616546D01*
X134824009Y-94574000D01*
X134134400Y-94574000D01*
X134083600Y-94624800D01*
X134032800Y-94574000D01*
X134083600Y-94523200D01*
X134134400Y-94574000D01*
X134824009Y-94574000D01*
X134904241Y-94563104D01*
X134946550Y-94561667D01*
X135254897Y-94573838D01*
X135375552Y-94619453D01*
X171320000Y-94619453D01*
X171320000Y-93965062D01*
X165616773Y-93965062D01*
X165603940Y-94082042D01*
X165465560Y-94116800D01*
X165357748Y-94143522D01*
X165415097Y-94254430D01*
X165427200Y-94269200D01*
X165498037Y-94389379D01*
X165404698Y-94421458D01*
X165388841Y-94421600D01*
X165239252Y-94356952D01*
X165211969Y-94294600D01*
X165210486Y-94113075D01*
X165213827Y-94085827D01*
X165171654Y-93949360D01*
X165110263Y-93845866D01*
X160922934Y-93845866D01*
X160908987Y-93906267D01*
X160855200Y-93913600D01*
X160771572Y-93876426D01*
X160787467Y-93845866D01*
X160908043Y-93833707D01*
X160922934Y-93845866D01*
X165110263Y-93845866D01*
X165073458Y-93783820D01*
X164939830Y-93557264D01*
X164952005Y-93470169D01*
X165108589Y-93524817D01*
X165198600Y-93578711D01*
X165477606Y-93789113D01*
X165616773Y-93965062D01*
X171320000Y-93965062D01*
X171320000Y-93450418D01*
X166238445Y-93450418D01*
X166191450Y-93455755D01*
X166146572Y-93405600D01*
X165732000Y-93405600D01*
X165694827Y-93489228D01*
X165664267Y-93473333D01*
X165652108Y-93352757D01*
X165664267Y-93337866D01*
X165724668Y-93351813D01*
X165732000Y-93405600D01*
X166146572Y-93405600D01*
X166095907Y-93348978D01*
X166002782Y-93180834D01*
X165999832Y-93103902D01*
X166080258Y-93131944D01*
X166178053Y-93266819D01*
X166236492Y-93426148D01*
X166238445Y-93450418D01*
X171320000Y-93450418D01*
X171320000Y-92961893D01*
X166638796Y-92961893D01*
X166563618Y-92999200D01*
X166473977Y-92915503D01*
X166349972Y-92706177D01*
X166307766Y-92618200D01*
X166149150Y-92269019D01*
X164794340Y-92269019D01*
X164762598Y-92345516D01*
X164673690Y-92327999D01*
X164533944Y-92224181D01*
X164512800Y-92167063D01*
X164572452Y-92100518D01*
X164693969Y-92141981D01*
X164791191Y-92260251D01*
X164794340Y-92269019D01*
X166149150Y-92269019D01*
X166134696Y-92237200D01*
X166390043Y-92542000D01*
X166591541Y-92812569D01*
X166638796Y-92961893D01*
X171320000Y-92961893D01*
X171320000Y-92592800D01*
X167154400Y-92592800D01*
X167106495Y-92694494D01*
X166982713Y-92639928D01*
X166812954Y-92446336D01*
X166757832Y-92364200D01*
X166584947Y-92134714D01*
X166370839Y-91887596D01*
X164512800Y-91887596D01*
X164480151Y-91979909D01*
X164405229Y-91899376D01*
X164372434Y-91825523D01*
X164365334Y-91720643D01*
X164412364Y-91729919D01*
X164509190Y-91860000D01*
X164512800Y-91887596D01*
X166370839Y-91887596D01*
X166316460Y-91824834D01*
X166004298Y-91493894D01*
X165936745Y-91425971D01*
X165589768Y-91067097D01*
X165387549Y-90825972D01*
X165332835Y-90706916D01*
X165428370Y-90714254D01*
X165509681Y-90753767D01*
X165765188Y-90924515D01*
X166099119Y-91191888D01*
X166451485Y-91503742D01*
X166762296Y-91807937D01*
X166905387Y-91966893D01*
X167073221Y-92190758D01*
X167110053Y-92320984D01*
X167044084Y-92397137D01*
X166964497Y-92473075D01*
X167027400Y-92489644D01*
X167145481Y-92555383D01*
X167154400Y-92592800D01*
X171320000Y-92592800D01*
X171320000Y-91119600D01*
X167052800Y-91119600D01*
X167002000Y-91170400D01*
X166951200Y-91119600D01*
X167002000Y-91068800D01*
X167052800Y-91119600D01*
X171320000Y-91119600D01*
X171320000Y-91018000D01*
X167865600Y-91018000D01*
X167814800Y-91068800D01*
X167764000Y-91018000D01*
X167814800Y-90967200D01*
X167865600Y-91018000D01*
X171320000Y-91018000D01*
X171320000Y-90916400D01*
X166748000Y-90916400D01*
X166697200Y-90967200D01*
X166646400Y-90916400D01*
X166697200Y-90865600D01*
X166748000Y-90916400D01*
X171320000Y-90916400D01*
X171320000Y-90541513D01*
X168029920Y-90541513D01*
X167941873Y-90635836D01*
X167817095Y-90640615D01*
X167613803Y-90544407D01*
X167298058Y-90341064D01*
X167025718Y-90131276D01*
X166998567Y-90103600D01*
X162887200Y-90103600D01*
X162836400Y-90154400D01*
X162785600Y-90103600D01*
X162836400Y-90052800D01*
X162887200Y-90103600D01*
X166998567Y-90103600D01*
X166831595Y-89933405D01*
X166773115Y-89833064D01*
X166687039Y-89677299D01*
X166623681Y-89646400D01*
X166568551Y-89570985D01*
X166587056Y-89479629D01*
X166611506Y-89370216D01*
X166520396Y-89421422D01*
X166505372Y-89433762D01*
X166353390Y-89497191D01*
X166293406Y-89447415D01*
X166312495Y-89327107D01*
X166385377Y-89279436D01*
X166493443Y-89183881D01*
X166487421Y-89127753D01*
X166500366Y-89041801D01*
X166529274Y-89036800D01*
X166663885Y-89103618D01*
X166886370Y-89279393D01*
X167159809Y-89527108D01*
X167447284Y-89809744D01*
X167711876Y-90090283D01*
X167916669Y-90331706D01*
X168024743Y-90496994D01*
X168029920Y-90541513D01*
X171320000Y-90541513D01*
X171320000Y-89760558D01*
X168170400Y-89760558D01*
X168120553Y-89804956D01*
X168003097Y-89729153D01*
X167866160Y-89579966D01*
X167757870Y-89404211D01*
X167732805Y-89334879D01*
X167728006Y-89201491D01*
X167773476Y-89195055D01*
X167859786Y-89336662D01*
X167865600Y-89387526D01*
X167947442Y-89538964D01*
X168018000Y-89581541D01*
X168152811Y-89697763D01*
X168170400Y-89760558D01*
X171320000Y-89760558D01*
X171320000Y-89015704D01*
X167438924Y-89015704D01*
X167408400Y-89033688D01*
X167241433Y-88983101D01*
X167154400Y-88935200D01*
X167073077Y-88854695D01*
X167103600Y-88836711D01*
X167270568Y-88887298D01*
X167357600Y-88935200D01*
X167438924Y-89015704D01*
X171320000Y-89015704D01*
X171320000Y-87462000D01*
X168272000Y-87462000D01*
X168221200Y-87512800D01*
X168170400Y-87462000D01*
X168221200Y-87411200D01*
X168272000Y-87462000D01*
X171320000Y-87462000D01*
X171320000Y-80858000D01*
X169186400Y-80858000D01*
X169135600Y-80908800D01*
X169084800Y-80858000D01*
X169135600Y-80807200D01*
X169186400Y-80858000D01*
X171320000Y-80858000D01*
X171320000Y-57541180D01*
X170171920Y-57541180D01*
X170130027Y-57844770D01*
X170033088Y-58268337D01*
X170013336Y-58346870D01*
X169874962Y-58813923D01*
X169723928Y-59193696D01*
X169582290Y-59431269D01*
X169574301Y-59440091D01*
X169383498Y-59786482D01*
X169331037Y-60107221D01*
X169273764Y-60459548D01*
X169152574Y-60863805D01*
X169078603Y-61046000D01*
X168963603Y-61327151D01*
X168805957Y-61751751D01*
X168623710Y-62269320D01*
X168434911Y-62829383D01*
X168370268Y-63027200D01*
X167893143Y-64500400D01*
X167048766Y-65181191D01*
X166696106Y-65454730D01*
X166398641Y-65665347D01*
X166192457Y-65788714D01*
X166118078Y-65808639D01*
X166055311Y-65823240D01*
X166059683Y-65851264D01*
X166006247Y-65961963D01*
X165839770Y-66180241D01*
X165589859Y-66468964D01*
X165425793Y-66646216D01*
X164718164Y-67418821D01*
X164138490Y-68111753D01*
X163652933Y-68768277D01*
X163227656Y-69431658D01*
X163167205Y-69534032D01*
X162945999Y-69903971D01*
X162763515Y-70193191D01*
X162642493Y-70366598D01*
X162606055Y-70399921D01*
X162612114Y-70292331D01*
X162658109Y-70034969D01*
X162735128Y-69675305D01*
X162772113Y-69515595D01*
X162884368Y-69025675D01*
X162994612Y-68519811D01*
X163081042Y-68098351D01*
X163089124Y-68056400D01*
X163169730Y-67666781D01*
X163254140Y-67309452D01*
X163303116Y-67131861D01*
X163430864Y-66632085D01*
X163545114Y-65992090D01*
X163649028Y-65190967D01*
X163745765Y-64207810D01*
X163746745Y-64196543D01*
X163790302Y-63802171D01*
X163842587Y-63483698D01*
X163893837Y-63297764D01*
X163904899Y-63279153D01*
X163961458Y-63114784D01*
X163981069Y-62864224D01*
X163963944Y-62619806D01*
X163910299Y-62473859D01*
X163903018Y-62468287D01*
X163843419Y-62532032D01*
X163769688Y-62758477D01*
X163690515Y-63108407D01*
X163614591Y-63542610D01*
X163550609Y-64021869D01*
X163542708Y-64094000D01*
X163418350Y-65033399D01*
X163233701Y-66112970D01*
X162999609Y-67282543D01*
X162726924Y-68491948D01*
X162426494Y-69691018D01*
X162109167Y-70829581D01*
X162026789Y-71104400D01*
X161883582Y-71583161D01*
X161757937Y-72018859D01*
X161665011Y-72357997D01*
X161623799Y-72526800D01*
X161561180Y-72831600D01*
X161771159Y-72577600D01*
X162120057Y-72103049D01*
X162500633Y-71495359D01*
X162877132Y-70813075D01*
X162986468Y-70596400D01*
X162582400Y-70596400D01*
X162531600Y-70647200D01*
X162480800Y-70596400D01*
X162531600Y-70545600D01*
X162582400Y-70596400D01*
X162986468Y-70596400D01*
X163012103Y-70545600D01*
X163420316Y-69772111D01*
X163858454Y-69068339D01*
X164358733Y-68391799D01*
X164953370Y-67700005D01*
X165674580Y-66950471D01*
X165926660Y-66701927D01*
X166550533Y-66102052D01*
X167042311Y-65649244D01*
X167400891Y-65344449D01*
X167625172Y-65188613D01*
X167708586Y-65173118D01*
X167706417Y-65283753D01*
X167664486Y-65533493D01*
X167595767Y-65865205D01*
X167513236Y-66221759D01*
X167429869Y-66546023D01*
X167358642Y-66780864D01*
X167326254Y-66856523D01*
X167192517Y-66967303D01*
X166960840Y-67087183D01*
X166953380Y-67090297D01*
X166708402Y-67242793D01*
X166665451Y-67412704D01*
X166824853Y-67598471D01*
X166843852Y-67612207D01*
X166964077Y-67735861D01*
X167005298Y-67919885D01*
X166983608Y-68229145D01*
X166937758Y-68493358D01*
X166850025Y-68692361D01*
X166680506Y-68884515D01*
X166389296Y-69128177D01*
X166345022Y-69163065D01*
X166018561Y-69443450D01*
X165623288Y-69818133D01*
X165221898Y-70226507D01*
X165026481Y-70437698D01*
X164719720Y-70764388D01*
X164457668Y-71018256D01*
X164271574Y-71170577D01*
X164197616Y-71199582D01*
X164116764Y-71225366D01*
X164106400Y-71283893D01*
X164037472Y-71444757D01*
X163869790Y-71646535D01*
X163852400Y-71663200D01*
X163680554Y-71846829D01*
X163599369Y-71977252D01*
X163598400Y-71985475D01*
X163543179Y-72106265D01*
X163399525Y-72336516D01*
X163230175Y-72581672D01*
X163045573Y-72855435D01*
X162930712Y-73059117D01*
X162909733Y-73141998D01*
X162993475Y-73093929D01*
X163174498Y-72924296D01*
X163421012Y-72668477D01*
X163701229Y-72361854D01*
X163983360Y-72039806D01*
X164235617Y-71737712D01*
X164426211Y-71490954D01*
X164512281Y-71358400D01*
X164627550Y-71201874D01*
X164850830Y-70947651D01*
X165152356Y-70625417D01*
X165502363Y-70264857D01*
X165871086Y-69895657D01*
X166228761Y-69547502D01*
X166545622Y-69250079D01*
X166791903Y-69033073D01*
X166937841Y-68926169D01*
X166957198Y-68920000D01*
X167099976Y-69011893D01*
X167194296Y-69260847D01*
X167240916Y-69626773D01*
X167240593Y-70069582D01*
X167194085Y-70549186D01*
X167102151Y-71025495D01*
X166965548Y-71458421D01*
X166906647Y-71593700D01*
X166718499Y-72071392D01*
X166667369Y-72435485D01*
X166674488Y-72508100D01*
X166681548Y-72792765D01*
X166630661Y-73009400D01*
X166591943Y-73159192D01*
X166638072Y-73187200D01*
X166737221Y-73275287D01*
X166870278Y-73503121D01*
X167011963Y-73816057D01*
X167136998Y-74159452D01*
X167208016Y-74419220D01*
X167300159Y-74675986D01*
X167470653Y-75025256D01*
X167682835Y-75392018D01*
X167685820Y-75396751D01*
X167874821Y-75724787D01*
X168000103Y-75999074D01*
X168037684Y-76166029D01*
X168034968Y-76176819D01*
X168073260Y-76311037D01*
X168218980Y-76377964D01*
X168392848Y-76474092D01*
X168493559Y-76688736D01*
X168525947Y-76844480D01*
X168587181Y-77098456D01*
X168656978Y-77240399D01*
X168677819Y-77251200D01*
X168722972Y-77332339D01*
X168707839Y-77454400D01*
X168711708Y-77619706D01*
X168774147Y-77657600D01*
X168845826Y-77719142D01*
X168830801Y-77759200D01*
X168831418Y-77853145D01*
X168862619Y-77860800D01*
X168940369Y-77957313D01*
X169016246Y-78226593D01*
X169084173Y-78638251D01*
X169138074Y-79161896D01*
X169147039Y-79283200D01*
X169177331Y-79683497D01*
X169210594Y-80068424D01*
X169225473Y-80219989D01*
X169214592Y-80545451D01*
X169125357Y-80714101D01*
X169035211Y-80858267D01*
X169045760Y-80927827D01*
X169119500Y-81185323D01*
X169122438Y-81541501D01*
X169056919Y-81905461D01*
X169017611Y-82019441D01*
X168926542Y-82428385D01*
X168917206Y-82979994D01*
X168920471Y-83034301D01*
X168931467Y-83401878D01*
X168916672Y-83700991D01*
X168883681Y-83854059D01*
X168821702Y-84051215D01*
X168755131Y-84385854D01*
X168694762Y-84792842D01*
X168651391Y-85207046D01*
X168645161Y-85293298D01*
X168608494Y-85474278D01*
X168551400Y-85515901D01*
X168491238Y-85565566D01*
X168462500Y-85728803D01*
X168448433Y-86004038D01*
X168439520Y-86166600D01*
X168349938Y-86411678D01*
X168159687Y-86575822D01*
X168050658Y-86602000D01*
X168028310Y-86647039D01*
X168156316Y-86751490D01*
X168170400Y-86760197D01*
X168424400Y-86914794D01*
X168138222Y-86854560D01*
X167675720Y-86772358D01*
X167155587Y-86704315D01*
X166615239Y-86652308D01*
X166092092Y-86618212D01*
X165623560Y-86603904D01*
X165247058Y-86611259D01*
X165000002Y-86642154D01*
X164919200Y-86693153D01*
X165018605Y-86795795D01*
X165317579Y-86896210D01*
X165817262Y-86994668D01*
X166518794Y-87091442D01*
X166667825Y-87108843D01*
X167061500Y-87161406D01*
X167382446Y-87218305D01*
X167571936Y-87268796D01*
X167589270Y-87277415D01*
X167804696Y-87352355D01*
X167861167Y-87357714D01*
X167983507Y-87450230D01*
X168074372Y-87678658D01*
X168077287Y-87692317D01*
X168094428Y-87967399D01*
X168016847Y-88100955D01*
X167866764Y-88072319D01*
X167809030Y-88088672D01*
X167826834Y-88167923D01*
X167817374Y-88303427D01*
X167749471Y-88326269D01*
X167731864Y-88373135D01*
X167858842Y-88488861D01*
X167916400Y-88528800D01*
X168095405Y-88663526D01*
X168102865Y-88718317D01*
X167935051Y-88692683D01*
X167588232Y-88586135D01*
X167135717Y-88426410D01*
X166514094Y-88222387D01*
X165887493Y-88069468D01*
X165186440Y-87953153D01*
X164480343Y-87872259D01*
X164142503Y-87858414D01*
X163971243Y-87888954D01*
X163976907Y-87948873D01*
X164169835Y-88023164D01*
X164349051Y-88062767D01*
X164685591Y-88153404D01*
X164998862Y-88282854D01*
X165231343Y-88422588D01*
X165325514Y-88544077D01*
X165325600Y-88547111D01*
X165399807Y-88608685D01*
X165478000Y-88593658D01*
X165706552Y-88574928D01*
X165884846Y-88667962D01*
X165935201Y-88790481D01*
X166003814Y-88881666D01*
X166105239Y-88863572D01*
X166225062Y-88849773D01*
X166206839Y-88976670D01*
X166147296Y-89196916D01*
X166138401Y-89282995D01*
X166050857Y-89382120D01*
X165829430Y-89428834D01*
X165535922Y-89425469D01*
X165232136Y-89374357D01*
X164979876Y-89277830D01*
X164919200Y-89236992D01*
X164793882Y-89118434D01*
X164811254Y-89086798D01*
X164832724Y-89093189D01*
X165011491Y-89111777D01*
X165058485Y-89028338D01*
X164975911Y-88893622D01*
X164819273Y-88783664D01*
X164624445Y-88695382D01*
X164477103Y-88693399D01*
X164302039Y-88794042D01*
X164121758Y-88935075D01*
X163834823Y-89125903D01*
X163617611Y-89192549D01*
X163572399Y-89184657D01*
X163395652Y-89212141D01*
X163297818Y-89333720D01*
X163127631Y-89547486D01*
X162929104Y-89712372D01*
X162745025Y-89814263D01*
X162600393Y-89805841D01*
X162400830Y-89678405D01*
X162377993Y-89661572D01*
X162121439Y-89500384D01*
X161925183Y-89476012D01*
X161736372Y-89602259D01*
X161504489Y-89889721D01*
X161188577Y-90323665D01*
X161399330Y-90620032D01*
X161556110Y-90831206D01*
X161663727Y-90959764D01*
X161671852Y-90967200D01*
X161766337Y-91112075D01*
X161868426Y-91354664D01*
X161931814Y-91574955D01*
X162020815Y-91731977D01*
X162068868Y-91761222D01*
X162174025Y-91877266D01*
X162161038Y-92065270D01*
X162061462Y-92259788D01*
X161906855Y-92395373D01*
X161753698Y-92414879D01*
X161596640Y-92432512D01*
X161566400Y-92530150D01*
X161520018Y-92672868D01*
X161474836Y-92694400D01*
X161370350Y-92775493D01*
X161224653Y-92972709D01*
X161080107Y-93216952D01*
X160979074Y-93439126D01*
X160956800Y-93539367D01*
X160875787Y-93685364D01*
X160693106Y-93826109D01*
X160510960Y-93889920D01*
X160370134Y-93966940D01*
X160358560Y-93981122D01*
X160195111Y-94139064D01*
X159960240Y-94300160D01*
X159722828Y-94424533D01*
X159551755Y-94472306D01*
X159522581Y-94465095D01*
X159258289Y-94382981D01*
X158893006Y-94362554D01*
X158519239Y-94403459D01*
X158298832Y-94469802D01*
X158032375Y-94552687D01*
X157825641Y-94561703D01*
X157807200Y-94555926D01*
X157592722Y-94492143D01*
X157378518Y-94446956D01*
X157196515Y-94403565D01*
X157158560Y-94319611D01*
X157241878Y-94129478D01*
X157257689Y-94098838D01*
X157369258Y-93827926D01*
X157371808Y-93694618D01*
X157284232Y-93718041D01*
X157125421Y-93917319D01*
X157107118Y-93946411D01*
X156898878Y-94205327D01*
X156699307Y-94318208D01*
X156675318Y-94320000D01*
X156537253Y-94283485D01*
X156530665Y-94228974D01*
X156534574Y-94075184D01*
X156526110Y-94055840D01*
X134412107Y-94055840D01*
X134358047Y-94090722D01*
X134152855Y-94112783D01*
X133982000Y-94116800D01*
X133712042Y-94105758D01*
X133562545Y-94077548D01*
X133556879Y-94066000D01*
X133016800Y-94066000D01*
X132966000Y-94116800D01*
X132915200Y-94066000D01*
X132966000Y-94015200D01*
X133016800Y-94066000D01*
X133556879Y-94066000D01*
X133551894Y-94055840D01*
X133685036Y-94015526D01*
X133933384Y-93995398D01*
X133982000Y-93994880D01*
X134241451Y-94010209D01*
X134401022Y-94047897D01*
X134412107Y-94055840D01*
X156526110Y-94055840D01*
X156448668Y-93878855D01*
X156321302Y-93722347D01*
X156210581Y-93683806D01*
X156165463Y-93659600D01*
X135048800Y-93659600D01*
X134998000Y-93710400D01*
X134952906Y-93665306D01*
X134621326Y-93665306D01*
X134499208Y-93682142D01*
X134388400Y-93684778D01*
X134179299Y-93676600D01*
X134125330Y-93653576D01*
X134158616Y-93640592D01*
X134402602Y-93621668D01*
X134565016Y-93638542D01*
X134621326Y-93665306D01*
X134952906Y-93665306D01*
X134947200Y-93659600D01*
X134998000Y-93608800D01*
X135048800Y-93659600D01*
X156165463Y-93659600D01*
X156137886Y-93644805D01*
X156136657Y-93441067D01*
X156151037Y-93336099D01*
X156251142Y-92865585D01*
X155869642Y-92865585D01*
X155848113Y-93072239D01*
X155787409Y-93299750D01*
X155710397Y-93487825D01*
X155639942Y-93576171D01*
X155608985Y-93552886D01*
X155616209Y-93397461D01*
X155683298Y-93138580D01*
X155715537Y-93044886D01*
X155809284Y-92822119D01*
X155858943Y-92791143D01*
X155869642Y-92865585D01*
X156251142Y-92865585D01*
X156252021Y-92861457D01*
X156300023Y-92753458D01*
X155599173Y-92753458D01*
X155560849Y-92979236D01*
X155483964Y-93220285D01*
X155389896Y-93417761D01*
X155300021Y-93512818D01*
X155254148Y-93492076D01*
X155162678Y-93409915D01*
X155065556Y-93507200D01*
X154981582Y-93604854D01*
X154973876Y-93537411D01*
X155039434Y-93326873D01*
X155116973Y-93130729D01*
X155300999Y-92747921D01*
X155449728Y-92564993D01*
X155563335Y-92581745D01*
X155577561Y-92601797D01*
X155599173Y-92753458D01*
X156300023Y-92753458D01*
X156384202Y-92564068D01*
X156410747Y-92542000D01*
X155978400Y-92542000D01*
X155927600Y-92592800D01*
X155876800Y-92542000D01*
X155898636Y-92520164D01*
X155025580Y-92520164D01*
X154927029Y-92762887D01*
X154860800Y-92897600D01*
X154723981Y-93135673D01*
X154619740Y-93263375D01*
X154589458Y-93269724D01*
X154602593Y-93157753D01*
X154697377Y-92935265D01*
X154767016Y-92803815D01*
X154936152Y-92531207D01*
X155025481Y-92439797D01*
X155025580Y-92520164D01*
X155898636Y-92520164D01*
X155927600Y-92491200D01*
X155978400Y-92542000D01*
X156410747Y-92542000D01*
X156558724Y-92418982D01*
X156561076Y-92418081D01*
X156587806Y-92402787D01*
X154295154Y-92402787D01*
X154253558Y-92486794D01*
X154135456Y-92735814D01*
X154050601Y-92941560D01*
X153962911Y-93147089D01*
X153915725Y-93170201D01*
X153911628Y-93132596D01*
X134911264Y-93132596D01*
X134878265Y-93182813D01*
X134710134Y-93202400D01*
X134511162Y-93175063D01*
X134439200Y-93117779D01*
X134519978Y-93058430D01*
X134696046Y-93054156D01*
X134868004Y-93101836D01*
X134911264Y-93132596D01*
X153911628Y-93132596D01*
X153902627Y-93050000D01*
X134236000Y-93050000D01*
X134185200Y-93100800D01*
X134134400Y-93050000D01*
X134185200Y-92999200D01*
X134236000Y-93050000D01*
X153902627Y-93050000D01*
X153897484Y-93002813D01*
X153895600Y-92833149D01*
X153903173Y-92765795D01*
X136102964Y-92765795D01*
X135963200Y-92779957D01*
X135818966Y-92763991D01*
X135828145Y-92745200D01*
X135556800Y-92745200D01*
X135506000Y-92796000D01*
X135455200Y-92745200D01*
X135506000Y-92694400D01*
X135556800Y-92745200D01*
X135828145Y-92745200D01*
X135836200Y-92728712D01*
X136044211Y-92715293D01*
X136090200Y-92728712D01*
X136102964Y-92765795D01*
X153903173Y-92765795D01*
X153918818Y-92626666D01*
X136742134Y-92626666D01*
X136728187Y-92687067D01*
X136674400Y-92694400D01*
X136590772Y-92657226D01*
X136606667Y-92626666D01*
X136727243Y-92614507D01*
X136742134Y-92626666D01*
X153918818Y-92626666D01*
X153926125Y-92561688D01*
X154041051Y-92418340D01*
X154126473Y-92378413D01*
X154286672Y-92334078D01*
X154295154Y-92402787D01*
X156587806Y-92402787D01*
X156793362Y-92285177D01*
X156830337Y-92254133D01*
X137182400Y-92254133D01*
X137148386Y-92353911D01*
X137106200Y-92331515D01*
X136952665Y-92182710D01*
X136928400Y-92163737D01*
X136918453Y-92100880D01*
X137004600Y-92086355D01*
X137155214Y-92163832D01*
X137182400Y-92254133D01*
X156830337Y-92254133D01*
X156878165Y-92213977D01*
X157050360Y-92142082D01*
X157208169Y-92252955D01*
X157329435Y-92526314D01*
X157358619Y-92653809D01*
X157438273Y-92918204D01*
X157523156Y-92986143D01*
X157586576Y-92859463D01*
X157604000Y-92636920D01*
X157669585Y-92210032D01*
X157741876Y-92067866D01*
X138198400Y-92067866D01*
X138115868Y-92143051D01*
X138046000Y-92152533D01*
X137910669Y-92106681D01*
X137893600Y-92067866D01*
X137930776Y-92034000D01*
X137792000Y-92034000D01*
X137741200Y-92084800D01*
X137690400Y-92034000D01*
X137722384Y-92002016D01*
X134481073Y-92002016D01*
X134474840Y-92035845D01*
X134292994Y-92113547D01*
X134236000Y-92135600D01*
X133966174Y-92237950D01*
X133851621Y-92268454D01*
X133857542Y-92227109D01*
X133931200Y-92135600D01*
X134123752Y-92021687D01*
X134324641Y-91990929D01*
X134481073Y-92002016D01*
X137722384Y-92002016D01*
X137741200Y-91983200D01*
X137792000Y-92034000D01*
X137930776Y-92034000D01*
X137976133Y-91992682D01*
X138046000Y-91983200D01*
X138181332Y-92029051D01*
X138198400Y-92067866D01*
X157741876Y-92067866D01*
X157846067Y-91862970D01*
X158103038Y-91639760D01*
X158333986Y-91580031D01*
X158550946Y-91540105D01*
X158791186Y-91459588D01*
X159043775Y-91365353D01*
X159217479Y-91314229D01*
X159416894Y-91219136D01*
X159466399Y-91177441D01*
X159656278Y-91082736D01*
X159761109Y-91068800D01*
X159947678Y-90995870D01*
X160005659Y-90916400D01*
X160133583Y-90781371D01*
X160205671Y-90764000D01*
X160333748Y-90705506D01*
X160347200Y-90662400D01*
X160429058Y-90571272D01*
X160493604Y-90560800D01*
X160660771Y-90505827D01*
X160708705Y-90326033D01*
X160642432Y-89999105D01*
X160629607Y-89957109D01*
X160501219Y-89657013D01*
X160359073Y-89554379D01*
X160192493Y-89643493D01*
X160144000Y-89697200D01*
X159962562Y-89826725D01*
X159861750Y-89849600D01*
X159687011Y-89907974D01*
X159442200Y-90053529D01*
X159366191Y-90108770D01*
X159160726Y-90242550D01*
X159039893Y-90276885D01*
X159026400Y-90256000D01*
X158956780Y-90241413D01*
X158781244Y-90335493D01*
X158686610Y-90403229D01*
X158387896Y-90598667D01*
X158190189Y-90658365D01*
X158112467Y-90577016D01*
X158112000Y-90563988D01*
X158036903Y-90509661D01*
X157951082Y-90527327D01*
X157849730Y-90596680D01*
X157922739Y-90671014D01*
X158013980Y-90758697D01*
X158007458Y-90783875D01*
X157765759Y-90926723D01*
X157514737Y-91055950D01*
X157319751Y-91139851D01*
X157247479Y-91152545D01*
X157277774Y-91055065D01*
X157395967Y-90845065D01*
X157508513Y-90670157D01*
X157677630Y-90398101D01*
X157785163Y-90186150D01*
X157805645Y-90113711D01*
X157762788Y-90087022D01*
X157705600Y-90154400D01*
X157624217Y-90238870D01*
X157605556Y-90212501D01*
X157557395Y-90214746D01*
X157439624Y-90340115D01*
X157288545Y-90538317D01*
X157140460Y-90759060D01*
X157031672Y-90952051D01*
X156997227Y-91055249D01*
X156918112Y-91150980D01*
X156789166Y-91140429D01*
X156608695Y-91155807D01*
X156457092Y-91334181D01*
X156430957Y-91382579D01*
X156282579Y-91586904D01*
X156131901Y-91678082D01*
X156124617Y-91678400D01*
X156040067Y-91619881D01*
X156093811Y-91439556D01*
X156289036Y-91130269D01*
X156486400Y-90865600D01*
X156772024Y-90470071D01*
X156917598Y-90203239D01*
X156920710Y-90070186D01*
X156870975Y-90055330D01*
X156752579Y-90132854D01*
X156554059Y-90336503D01*
X156312932Y-90626717D01*
X156244677Y-90715730D01*
X156009612Y-91020490D01*
X155822022Y-91250316D01*
X155713766Y-91366616D01*
X155701623Y-91373600D01*
X155721327Y-91295188D01*
X155822364Y-91093455D01*
X155926210Y-90909607D01*
X156070586Y-90615319D01*
X156138552Y-90379748D01*
X156132308Y-90235426D01*
X156054055Y-90214883D01*
X155905995Y-90350652D01*
X155889776Y-90371066D01*
X155702090Y-90641796D01*
X155538795Y-90916400D01*
X155396487Y-91155745D01*
X155243055Y-91376927D01*
X155109007Y-91542406D01*
X155024852Y-91614642D01*
X155021099Y-91556095D01*
X155022734Y-91551400D01*
X155037378Y-91401853D01*
X154953029Y-91388647D01*
X154812109Y-91502205D01*
X154723407Y-91618956D01*
X154534123Y-91801108D01*
X154356122Y-91810306D01*
X154189653Y-91729982D01*
X154149600Y-91666550D01*
X154066146Y-91589098D01*
X153981454Y-91576800D01*
X153870093Y-91559529D01*
X153906830Y-91473051D01*
X153969616Y-91399000D01*
X154112571Y-91197546D01*
X154281146Y-90908630D01*
X154333605Y-90807869D01*
X154670743Y-90321630D01*
X155053689Y-89954575D01*
X154602020Y-89954575D01*
X154594554Y-90017415D01*
X154472120Y-90182606D01*
X154338054Y-90332200D01*
X154057315Y-90646128D01*
X153783642Y-90978944D01*
X153703830Y-91083640D01*
X153486907Y-91328404D01*
X153304917Y-91409822D01*
X153228422Y-91401265D01*
X153122349Y-91358013D01*
X153114374Y-91278553D01*
X153217406Y-91120013D01*
X153370527Y-90929225D01*
X153478579Y-90813180D01*
X152877848Y-90813180D01*
X152772019Y-90913168D01*
X152579805Y-91029603D01*
X152473200Y-91062337D01*
X152462991Y-91013156D01*
X152568819Y-90913168D01*
X152761034Y-90796734D01*
X152867638Y-90764000D01*
X152877848Y-90813180D01*
X153478579Y-90813180D01*
X153626647Y-90654160D01*
X153931143Y-90379812D01*
X154233642Y-90146046D01*
X154483769Y-89992731D01*
X154602020Y-89954575D01*
X155053689Y-89954575D01*
X155205964Y-89808620D01*
X155927938Y-89277229D01*
X156252038Y-89040554D01*
X156396966Y-88878120D01*
X156389065Y-88797224D01*
X156241281Y-88773495D01*
X155991872Y-88909594D01*
X155959533Y-88933083D01*
X155720913Y-89076677D01*
X155601803Y-89069016D01*
X155594769Y-89054306D01*
X155536284Y-88959989D01*
X155429002Y-88960108D01*
X155237863Y-89067307D01*
X154927808Y-89294234D01*
X154926211Y-89295453D01*
X154676924Y-89470559D01*
X154505925Y-89561529D01*
X154454400Y-89555450D01*
X154528910Y-89414625D01*
X154564853Y-89386928D01*
X154618733Y-89284641D01*
X154560819Y-89204178D01*
X154457349Y-89183276D01*
X154289681Y-89290762D01*
X154033485Y-89543482D01*
X153967766Y-89614819D01*
X153688520Y-89900418D01*
X153425726Y-90134356D01*
X153245310Y-90260532D01*
X153001419Y-90381116D01*
X153226828Y-90064558D01*
X153364211Y-89859711D01*
X153384187Y-89769878D01*
X153292259Y-89748258D01*
X153264048Y-89748000D01*
X153105747Y-89816905D01*
X152859217Y-89999077D01*
X152573217Y-90257699D01*
X152524000Y-90306800D01*
X152249944Y-90572597D01*
X152024550Y-90769836D01*
X151889302Y-90862703D01*
X151876724Y-90865600D01*
X151864493Y-90803534D01*
X151941125Y-90696266D01*
X146902134Y-90696266D01*
X146888187Y-90756667D01*
X146834400Y-90764000D01*
X146750772Y-90726826D01*
X146766667Y-90696266D01*
X146887243Y-90684107D01*
X146902134Y-90696266D01*
X151941125Y-90696266D01*
X151965764Y-90661777D01*
X152087630Y-90469733D01*
X152044014Y-90378654D01*
X151857596Y-90412792D01*
X151771535Y-90454097D01*
X151527785Y-90526906D01*
X151390688Y-90499119D01*
X151178686Y-90439211D01*
X151050800Y-90440493D01*
X150930769Y-90444346D01*
X150956522Y-90384327D01*
X151101600Y-90257861D01*
X151385181Y-90043378D01*
X151631814Y-89878080D01*
X151847805Y-89711257D01*
X151962409Y-89557390D01*
X151950845Y-89458867D01*
X151885812Y-89443579D01*
X151722533Y-89493461D01*
X151481548Y-89615601D01*
X151438372Y-89641289D01*
X151188913Y-89789498D01*
X150835200Y-89994909D01*
X150450143Y-90215211D01*
X150417890Y-90233502D01*
X150070766Y-90427511D01*
X149863942Y-90528578D01*
X149761515Y-90544969D01*
X149727582Y-90484948D01*
X149725518Y-90392894D01*
X149821907Y-90192662D01*
X150091828Y-89938610D01*
X150516109Y-89641377D01*
X151075574Y-89311600D01*
X151751053Y-88959917D01*
X151864843Y-88906441D01*
X151041373Y-88906441D01*
X151039677Y-88923754D01*
X150921075Y-89009863D01*
X150673050Y-89180093D01*
X150335983Y-89406954D01*
X150071656Y-89582761D01*
X149501219Y-89937704D01*
X149072373Y-90152790D01*
X148780903Y-90229696D01*
X148622593Y-90170095D01*
X148616543Y-90161103D01*
X148487252Y-90129708D01*
X148240494Y-90202195D01*
X148229047Y-90207117D01*
X147961918Y-90310440D01*
X147815994Y-90344222D01*
X147813716Y-90311861D01*
X147977525Y-90216754D01*
X148053600Y-90180547D01*
X148324754Y-90054485D01*
X148700510Y-89878594D01*
X149101771Y-89689904D01*
X149120400Y-89681120D01*
X149511213Y-89502816D01*
X149922467Y-89324971D01*
X150317635Y-89161997D01*
X150660193Y-89028308D01*
X150913615Y-88938318D01*
X151041373Y-88906441D01*
X151864843Y-88906441D01*
X152523369Y-88596967D01*
X153373352Y-88233386D01*
X154200400Y-87910113D01*
X154530314Y-87768529D01*
X154669199Y-87671880D01*
X154626473Y-87631757D01*
X154411556Y-87659754D01*
X154073853Y-87754341D01*
X153758629Y-87843348D01*
X153316677Y-87951304D01*
X152821193Y-88060798D01*
X152574324Y-88111059D01*
X152051800Y-88225055D01*
X151521943Y-88365787D01*
X150957178Y-88543294D01*
X150329927Y-88767616D01*
X149612612Y-89048793D01*
X148777655Y-89396863D01*
X147797480Y-89821866D01*
X147432498Y-89982906D01*
X146698364Y-90306130D01*
X146121863Y-90554071D01*
X145675841Y-90735968D01*
X145333146Y-90861059D01*
X145066623Y-90938583D01*
X144849118Y-90977778D01*
X144653478Y-90987882D01*
X144497600Y-90981445D01*
X144332503Y-90954776D01*
X144349863Y-90894410D01*
X144396000Y-90860274D01*
X144442921Y-90801380D01*
X144315124Y-90799876D01*
X144167400Y-90822337D01*
X143924565Y-90844119D01*
X143793366Y-90816569D01*
X143785874Y-90800707D01*
X143695258Y-90740736D01*
X143469573Y-90697450D01*
X143378921Y-90690087D01*
X143027089Y-90630704D01*
X142637866Y-90510054D01*
X142521422Y-90461487D01*
X142236643Y-90340811D01*
X142023928Y-90266908D01*
X141966749Y-90256000D01*
X141840597Y-90176816D01*
X141760655Y-90064486D01*
X141587102Y-89893369D01*
X141397325Y-89807508D01*
X141223779Y-89732680D01*
X141189141Y-89656851D01*
X141152400Y-89546075D01*
X140994108Y-89383060D01*
X140954661Y-89351608D01*
X140722971Y-89088560D01*
X140658393Y-88804778D01*
X140572138Y-88481278D01*
X140416635Y-88325600D01*
X140163662Y-88136723D01*
X140004006Y-87995400D01*
X139827126Y-87858188D01*
X139720222Y-87817600D01*
X139679797Y-87787395D01*
X138846164Y-87787395D01*
X138706400Y-87801557D01*
X138562166Y-87785591D01*
X138579400Y-87750312D01*
X138787411Y-87736893D01*
X138833400Y-87750312D01*
X138846164Y-87787395D01*
X139679797Y-87787395D01*
X139609219Y-87734662D01*
X139491622Y-87539593D01*
X139347230Y-87280109D01*
X139214400Y-87106907D01*
X139049486Y-86917735D01*
X138856984Y-86669501D01*
X138845677Y-86653984D01*
X138693752Y-86462295D01*
X138577852Y-86416207D01*
X138417244Y-86495016D01*
X138363077Y-86530213D01*
X138147888Y-86709400D01*
X138115940Y-86867290D01*
X138235925Y-87025150D01*
X138322081Y-87175717D01*
X138268269Y-87389320D01*
X138262520Y-87402087D01*
X138200964Y-87598894D01*
X138263356Y-87686427D01*
X138275795Y-87690998D01*
X138393259Y-87815409D01*
X138401600Y-87865559D01*
X138490629Y-87969802D01*
X138709637Y-88054783D01*
X138757200Y-88064896D01*
X138991654Y-88132290D01*
X139109510Y-88212010D01*
X139112800Y-88225358D01*
X139193413Y-88334379D01*
X139381605Y-88459951D01*
X139650409Y-88600791D01*
X139432405Y-88818795D01*
X139254703Y-89017848D01*
X139230141Y-89116399D01*
X139319264Y-89138400D01*
X139474486Y-89174999D01*
X139727106Y-89265668D01*
X139793333Y-89292664D01*
X140022658Y-89397027D01*
X140087411Y-89471585D01*
X140012630Y-89559599D01*
X139967870Y-89594232D01*
X139739443Y-89713541D01*
X139593465Y-89744768D01*
X139467493Y-89793184D01*
X139468259Y-89964009D01*
X139474697Y-89990916D01*
X139481467Y-90201321D01*
X139424176Y-90302736D01*
X139358207Y-90425751D01*
X139372695Y-90468737D01*
X139357060Y-90540491D01*
X139310852Y-90537917D01*
X139170456Y-90589510D01*
X139142434Y-90637000D01*
X139178879Y-90747889D01*
X139245864Y-90764000D01*
X139407679Y-90846553D01*
X139458683Y-90927712D01*
X139469975Y-91041190D01*
X139342553Y-91018025D01*
X139030944Y-90935189D01*
X138858875Y-90999336D01*
X138835869Y-91043400D01*
X138873855Y-91154528D01*
X138940249Y-91170400D01*
X139098693Y-91248419D01*
X139255858Y-91424400D01*
X139346999Y-91610868D01*
X139290224Y-91670641D01*
X139081461Y-91603971D01*
X138790614Y-91453220D01*
X138534290Y-91322235D01*
X138390979Y-91295963D01*
X138305079Y-91365718D01*
X138298325Y-91376310D01*
X138280423Y-91514501D01*
X138431145Y-91613080D01*
X138563767Y-91695574D01*
X138528600Y-91749256D01*
X138415445Y-91879134D01*
X138401600Y-91956613D01*
X138384880Y-92061448D01*
X138300259Y-92022642D01*
X138223800Y-91956062D01*
X137989651Y-91810176D01*
X137756946Y-91723678D01*
X137688614Y-91696397D01*
X134431900Y-91696397D01*
X134358046Y-91766635D01*
X134337600Y-91780000D01*
X134151451Y-91869750D01*
X134062603Y-91854833D01*
X134083600Y-91780000D01*
X133880400Y-91780000D01*
X133858507Y-91867905D01*
X133790793Y-91881600D01*
X133615253Y-91821986D01*
X133575600Y-91780000D01*
X133597494Y-91692094D01*
X133665208Y-91678400D01*
X133840748Y-91738013D01*
X133880400Y-91780000D01*
X134083600Y-91780000D01*
X134228595Y-91691597D01*
X134318197Y-91679955D01*
X134431900Y-91696397D01*
X137688614Y-91696397D01*
X137582691Y-91654109D01*
X135309535Y-91654109D01*
X135209667Y-91670378D01*
X135077890Y-91651699D01*
X135076317Y-91617016D01*
X135212298Y-91592762D01*
X135271050Y-91608995D01*
X135309535Y-91654109D01*
X137582691Y-91654109D01*
X137576110Y-91651482D01*
X137587502Y-91577634D01*
X137589993Y-91576062D01*
X137654848Y-91484086D01*
X137599648Y-91431103D01*
X137426849Y-91407218D01*
X137385600Y-91424400D01*
X137291444Y-91431077D01*
X137284139Y-91404996D01*
X137192675Y-91365759D01*
X136956506Y-91350612D01*
X136725339Y-91357603D01*
X136402746Y-91369328D01*
X136234526Y-91344110D01*
X136217150Y-91322800D01*
X136064800Y-91322800D01*
X136014000Y-91373600D01*
X135963200Y-91322800D01*
X136014000Y-91272000D01*
X136064800Y-91322800D01*
X136217150Y-91322800D01*
X136173270Y-91268987D01*
X136167956Y-91205203D01*
X136177293Y-91136672D01*
X135816571Y-91136672D01*
X135798767Y-91215923D01*
X135692098Y-91357720D01*
X135589657Y-91336643D01*
X135556800Y-91208759D01*
X135527794Y-91101328D01*
X135412423Y-91163743D01*
X135411330Y-91164648D01*
X135229623Y-91233831D01*
X134942344Y-91195506D01*
X134891464Y-91182002D01*
X134547492Y-91125154D01*
X134218725Y-91127005D01*
X134198734Y-91129927D01*
X133880400Y-91181227D01*
X133990539Y-91119600D01*
X133524800Y-91119600D01*
X133474000Y-91170400D01*
X133423200Y-91119600D01*
X133474000Y-91068800D01*
X133524800Y-91119600D01*
X133990539Y-91119600D01*
X134235656Y-90982448D01*
X134539474Y-90854525D01*
X134753968Y-90871408D01*
X134768089Y-90878491D01*
X134990459Y-90947860D01*
X135286486Y-90986063D01*
X135301834Y-90986719D01*
X135537430Y-91018447D01*
X135655290Y-91079122D01*
X135658400Y-91091258D01*
X135721469Y-91136835D01*
X135758837Y-91120319D01*
X135816571Y-91136672D01*
X136177293Y-91136672D01*
X136184801Y-91081577D01*
X136253769Y-91148718D01*
X136268000Y-91170400D01*
X136347631Y-91262502D01*
X136368045Y-91183950D01*
X136445861Y-91087927D01*
X136569266Y-91097314D01*
X136759568Y-91074129D01*
X136827134Y-90966149D01*
X136961915Y-90775617D01*
X137056421Y-90717120D01*
X137091099Y-90694440D01*
X134406098Y-90694440D01*
X134404112Y-90708667D01*
X134286415Y-90783818D01*
X134148601Y-90790597D01*
X133976960Y-90810452D01*
X133931200Y-90866797D01*
X133904648Y-90965520D01*
X133844520Y-90894452D01*
X133799485Y-90761412D01*
X133789154Y-90624443D01*
X133890391Y-90575089D01*
X134093946Y-90579079D01*
X134314474Y-90621202D01*
X134406098Y-90694440D01*
X137091099Y-90694440D01*
X137174340Y-90640000D01*
X137130848Y-90579070D01*
X136967670Y-90545305D01*
X136726528Y-90549683D01*
X136537191Y-90580524D01*
X136203035Y-90619837D01*
X135782959Y-90620841D01*
X135349914Y-90588806D01*
X134976854Y-90528999D01*
X134744000Y-90451002D01*
X134662691Y-90377462D01*
X134718600Y-90360689D01*
X134836685Y-90289474D01*
X134845600Y-90249613D01*
X134761369Y-90177757D01*
X134617000Y-90173413D01*
X134443191Y-90155815D01*
X134367428Y-90002359D01*
X134356252Y-89925800D01*
X134274106Y-89700300D01*
X134153052Y-89644844D01*
X134039842Y-89628447D01*
X134113816Y-89558255D01*
X134134400Y-89544800D01*
X134353946Y-89466907D01*
X134540800Y-89446311D01*
X134700783Y-89464187D01*
X134671796Y-89523755D01*
X134655417Y-89534605D01*
X134555574Y-89679186D01*
X134559012Y-89751835D01*
X134643684Y-89793017D01*
X134821359Y-89664467D01*
X134850796Y-89636084D01*
X135149278Y-89442904D01*
X135455200Y-89356309D01*
X135798702Y-89293363D01*
X136035586Y-89193483D01*
X136116993Y-89087600D01*
X135963200Y-89087600D01*
X135912400Y-89138400D01*
X135861600Y-89087600D01*
X135912400Y-89036800D01*
X135963200Y-89087600D01*
X136116993Y-89087600D01*
X136125423Y-89076636D01*
X136112450Y-89031702D01*
X136138438Y-88948963D01*
X136211204Y-88935200D01*
X136350230Y-88883151D01*
X136369600Y-88835543D01*
X136277633Y-88784753D01*
X136028436Y-88785630D01*
X135900007Y-88800252D01*
X135535874Y-88836836D01*
X135083988Y-88864345D01*
X134757007Y-88874508D01*
X134083600Y-88884400D01*
X134118418Y-88528800D01*
X134150545Y-88282565D01*
X134183779Y-88143950D01*
X134188022Y-88137462D01*
X134295707Y-88105943D01*
X134547854Y-88097479D01*
X134963636Y-88112245D01*
X135556800Y-88150028D01*
X136420400Y-88211865D01*
X135742082Y-88090932D01*
X135388764Y-88019523D01*
X135118403Y-87949271D01*
X134990940Y-87896191D01*
X134974704Y-87805740D01*
X135117591Y-87758316D01*
X135379346Y-87757732D01*
X135719711Y-87807800D01*
X135781303Y-87821348D01*
X136176009Y-87905214D01*
X136572494Y-87977746D01*
X136921802Y-88031490D01*
X137174975Y-88058994D01*
X137283057Y-88052805D01*
X137284000Y-88050111D01*
X137202370Y-87989888D01*
X137055400Y-87922366D01*
X136902720Y-87853516D01*
X136933787Y-87826613D01*
X137030000Y-87819287D01*
X137119874Y-87790434D01*
X137047198Y-87731351D01*
X136848412Y-87652971D01*
X136559956Y-87566223D01*
X136218268Y-87482038D01*
X135859787Y-87411346D01*
X135520952Y-87365077D01*
X135513408Y-87364362D01*
X135146355Y-87321862D01*
X134872310Y-87274729D01*
X134741144Y-87231925D01*
X134736451Y-87224731D01*
X134713698Y-87080944D01*
X134685344Y-86922414D01*
X134684461Y-86765789D01*
X134735016Y-86745247D01*
X134846751Y-86727811D01*
X134864173Y-86695081D01*
X134975890Y-86644845D01*
X135250569Y-86597328D01*
X135647973Y-86555908D01*
X136127866Y-86523961D01*
X136650011Y-86504863D01*
X137166184Y-86501895D01*
X137444148Y-86488590D01*
X137544395Y-86434927D01*
X137531308Y-86384370D01*
X137533984Y-86313299D01*
X137685764Y-86299707D01*
X137905401Y-86323301D01*
X138203773Y-86342302D01*
X138432116Y-86319471D01*
X138554264Y-86267184D01*
X138540846Y-86221123D01*
X134626023Y-86221123D01*
X134601302Y-86277901D01*
X134499002Y-86386974D01*
X134440189Y-86364599D01*
X134439200Y-86350396D01*
X134511365Y-86264461D01*
X134556499Y-86233098D01*
X134626023Y-86221123D01*
X138540846Y-86221123D01*
X138534056Y-86197819D01*
X138420209Y-86147106D01*
X138267199Y-86035706D01*
X138265556Y-85932014D01*
X138259237Y-85827453D01*
X137792000Y-85827453D01*
X137775330Y-86029449D01*
X137699049Y-86131793D01*
X137523749Y-86145468D01*
X137502832Y-86141200D01*
X136369600Y-86141200D01*
X136318800Y-86192000D01*
X136268000Y-86141200D01*
X136318800Y-86090400D01*
X136369600Y-86141200D01*
X137502832Y-86141200D01*
X137210025Y-86081455D01*
X137048622Y-86039600D01*
X135556800Y-86039600D01*
X135506000Y-86090400D01*
X135455200Y-86039600D01*
X135506000Y-85988800D01*
X135252000Y-85988800D01*
X135214827Y-86072428D01*
X135184267Y-86056533D01*
X135182560Y-86039600D01*
X135048800Y-86039600D01*
X134998000Y-86090400D01*
X134947200Y-86039600D01*
X134998000Y-85988800D01*
X135048800Y-86039600D01*
X135182560Y-86039600D01*
X135172108Y-85935957D01*
X135184267Y-85921066D01*
X135244668Y-85935013D01*
X135252000Y-85988800D01*
X135506000Y-85988800D01*
X135556800Y-86039600D01*
X137048622Y-86039600D01*
X137039366Y-86037200D01*
X136842705Y-85974779D01*
X136822199Y-85910193D01*
X136937766Y-85808996D01*
X137053671Y-85709259D01*
X137013717Y-85685846D01*
X136822016Y-85715772D01*
X136556135Y-85733567D01*
X136374755Y-85693382D01*
X136314148Y-85616950D01*
X136410584Y-85526002D01*
X136466154Y-85502550D01*
X136635317Y-85433097D01*
X136620081Y-85392083D01*
X136489109Y-85354444D01*
X136317803Y-85343677D01*
X136268000Y-85388711D01*
X136195191Y-85473952D01*
X136025119Y-85459227D01*
X135830326Y-85356188D01*
X135778143Y-85310029D01*
X135669074Y-85187625D01*
X135726334Y-85172560D01*
X135840669Y-85200086D01*
X136099994Y-85198539D01*
X136348669Y-85117482D01*
X136647619Y-85010314D01*
X136946548Y-84977355D01*
X137171591Y-85022062D01*
X137234225Y-85076057D01*
X137360250Y-85131942D01*
X137399459Y-85116634D01*
X137499627Y-85148084D01*
X137556689Y-85267377D01*
X137636858Y-85437456D01*
X137702250Y-85480800D01*
X137762188Y-85569989D01*
X137791436Y-85788585D01*
X137792000Y-85827453D01*
X138259237Y-85827453D01*
X138254435Y-85748019D01*
X138150159Y-85521245D01*
X138031668Y-85211189D01*
X138038935Y-85015577D01*
X138020333Y-84741584D01*
X138003907Y-84718800D01*
X135760000Y-84718800D01*
X135709200Y-84769600D01*
X135658400Y-84718800D01*
X135709200Y-84668000D01*
X135760000Y-84718800D01*
X138003907Y-84718800D01*
X137895148Y-84567947D01*
X137770485Y-84382653D01*
X136629853Y-84382653D01*
X136620215Y-84419004D01*
X136522000Y-84464800D01*
X136272789Y-84546002D01*
X136123474Y-84544966D01*
X136115600Y-84464800D01*
X136253956Y-84391482D01*
X136451797Y-84370340D01*
X136629853Y-84382653D01*
X137770485Y-84382653D01*
X137723219Y-84312400D01*
X136877600Y-84312400D01*
X136826800Y-84363200D01*
X136776000Y-84312400D01*
X136826800Y-84261600D01*
X136877600Y-84312400D01*
X137723219Y-84312400D01*
X137715829Y-84301417D01*
X137722895Y-84067727D01*
X137807930Y-83990666D01*
X136132534Y-83990666D01*
X136118587Y-84051067D01*
X136064800Y-84058400D01*
X135981172Y-84021226D01*
X135997067Y-83990666D01*
X136117643Y-83978507D01*
X136132534Y-83990666D01*
X137807930Y-83990666D01*
X137913312Y-83895167D01*
X137969800Y-83871687D01*
X138115244Y-83800146D01*
X138095291Y-83762550D01*
X138083250Y-83761621D01*
X137927599Y-83668885D01*
X137861489Y-83540177D01*
X137777245Y-83398878D01*
X137697239Y-83393773D01*
X137596948Y-83426852D01*
X137627604Y-83331415D01*
X137781543Y-83127528D01*
X137812826Y-83091094D01*
X138000411Y-82929486D01*
X138157463Y-82880772D01*
X138168426Y-82883932D01*
X138276542Y-82848138D01*
X138300000Y-82729957D01*
X138239798Y-82570212D01*
X138133741Y-82555346D01*
X137979472Y-82499185D01*
X137939531Y-82407400D01*
X137987865Y-82256353D01*
X138089482Y-82229600D01*
X138207179Y-82196189D01*
X138325429Y-82070984D01*
X138349507Y-82029588D01*
X137690400Y-82029588D01*
X137608060Y-82116913D01*
X137538000Y-82128000D01*
X137402445Y-82106262D01*
X137385600Y-82088070D01*
X137465047Y-82022557D01*
X137538000Y-81989658D01*
X137668826Y-81987546D01*
X137690400Y-82029588D01*
X138349507Y-82029588D01*
X138380910Y-81975600D01*
X136471200Y-81975600D01*
X136420400Y-82026400D01*
X136369600Y-81975600D01*
X136268000Y-81975600D01*
X136217200Y-82026400D01*
X136166400Y-81975600D01*
X136217200Y-81924800D01*
X136268000Y-81975600D01*
X136369600Y-81975600D01*
X136420400Y-81924800D01*
X136471200Y-81975600D01*
X138380910Y-81975600D01*
X138473443Y-81816521D01*
X138495543Y-81772400D01*
X136268000Y-81772400D01*
X136217200Y-81823200D01*
X136166400Y-81772400D01*
X136217200Y-81721600D01*
X136268000Y-81772400D01*
X138495543Y-81772400D01*
X138584607Y-81594600D01*
X138519160Y-81547263D01*
X138310571Y-81520575D01*
X138215334Y-81518400D01*
X137950830Y-81494435D01*
X137790218Y-81434699D01*
X137773562Y-81412285D01*
X137656283Y-81321390D01*
X137511096Y-81289064D01*
X137333215Y-81225951D01*
X137284000Y-81141179D01*
X137221405Y-81020477D01*
X137182400Y-81010400D01*
X137087425Y-80943327D01*
X137110985Y-80783901D01*
X137240266Y-80594805D01*
X137274024Y-80562228D01*
X137429035Y-80329502D01*
X137404099Y-80103822D01*
X137338386Y-80022740D01*
X137299485Y-80017004D01*
X137324508Y-80070600D01*
X137335561Y-80182267D01*
X137296269Y-80197600D01*
X137218955Y-80118573D01*
X137214737Y-79933685D01*
X137270807Y-79721220D01*
X137374355Y-79559465D01*
X137404321Y-79537200D01*
X137554174Y-79405586D01*
X137589361Y-79334000D01*
X137663057Y-79184392D01*
X137764187Y-79054600D01*
X137853800Y-78918065D01*
X137833147Y-78869659D01*
X137834977Y-78835096D01*
X137935355Y-78786392D01*
X138088745Y-78651618D01*
X138168420Y-78449187D01*
X138148109Y-78268457D01*
X138102000Y-78219613D01*
X138103749Y-78123026D01*
X138210111Y-77957164D01*
X138368709Y-77781763D01*
X138527165Y-77656561D01*
X138617038Y-77632200D01*
X138697044Y-77575929D01*
X138706400Y-77515458D01*
X138618686Y-77365590D01*
X138611062Y-77360176D01*
X138036905Y-77360176D01*
X138033440Y-77373123D01*
X137892775Y-77442181D01*
X137671526Y-77446781D01*
X137480275Y-77391362D01*
X137434088Y-77349057D01*
X137471519Y-77280333D01*
X137687304Y-77265544D01*
X137726327Y-77267781D01*
X137947110Y-77303254D01*
X138036905Y-77360176D01*
X138611062Y-77360176D01*
X138416906Y-77222312D01*
X137153539Y-77222312D01*
X137089267Y-77248110D01*
X136995026Y-77283371D01*
X137006960Y-77312826D01*
X137002099Y-77427203D01*
X136947693Y-77505715D01*
X136845098Y-77569940D01*
X136777039Y-77456310D01*
X136765982Y-77418689D01*
X136748050Y-77209078D01*
X136781590Y-77113671D01*
X136918321Y-77088138D01*
X137045609Y-77135982D01*
X137153539Y-77222312D01*
X138416906Y-77222312D01*
X138404160Y-77213262D01*
X138135753Y-77093355D01*
X137886392Y-77040750D01*
X137761049Y-77063302D01*
X137639730Y-77105694D01*
X137648121Y-77011633D01*
X137643361Y-76845354D01*
X137472510Y-76778818D01*
X137148296Y-76815269D01*
X137012389Y-76849730D01*
X136686706Y-76917262D01*
X136490765Y-76870158D01*
X136372660Y-76676447D01*
X136303344Y-76413000D01*
X136238130Y-76210986D01*
X136174111Y-76133600D01*
X136089396Y-76038104D01*
X135986385Y-75772148D01*
X135874804Y-75366532D01*
X135764382Y-74852055D01*
X135756954Y-74812800D01*
X135690310Y-74313460D01*
X135696228Y-73835148D01*
X135749144Y-73410039D01*
X135791897Y-73121299D01*
X135812329Y-72886637D01*
X135803610Y-72662774D01*
X135758910Y-72406434D01*
X135671396Y-72074338D01*
X135534239Y-71623209D01*
X135399851Y-71197042D01*
X135198064Y-70535322D01*
X135058738Y-70011643D01*
X134970923Y-69574570D01*
X134923670Y-69172666D01*
X134909066Y-68891402D01*
X134870471Y-68339694D01*
X134791096Y-67962884D01*
X134712480Y-67795215D01*
X134611758Y-67553789D01*
X134511280Y-67166224D01*
X134419838Y-66689402D01*
X134346225Y-66180203D01*
X134299233Y-65695511D01*
X134287652Y-65292205D01*
X134299700Y-65124672D01*
X134294690Y-64686448D01*
X134153611Y-64191240D01*
X134143886Y-64166438D01*
X134056629Y-63917514D01*
X133996511Y-63658210D01*
X133958787Y-63343806D01*
X133938713Y-62929586D01*
X133931544Y-62370829D01*
X133931200Y-62161724D01*
X133939481Y-61558500D01*
X133962121Y-60955260D01*
X133995822Y-60416257D01*
X134037282Y-60005749D01*
X134044507Y-59955685D01*
X134191259Y-59164219D01*
X134382611Y-58381651D01*
X134605840Y-57645242D01*
X134848224Y-56992251D01*
X135097040Y-56459939D01*
X135339566Y-56085566D01*
X135382618Y-56036712D01*
X135832007Y-55671633D01*
X136392511Y-55384303D01*
X137003474Y-55193507D01*
X137604238Y-55118028D01*
X138134148Y-55176649D01*
X138147600Y-55180469D01*
X138446656Y-55355789D01*
X138708032Y-55657751D01*
X138876317Y-56010571D01*
X138909600Y-56222584D01*
X138952264Y-56420429D01*
X139051867Y-56609180D01*
X139165827Y-56726446D01*
X139247084Y-56717078D01*
X139395516Y-56378617D01*
X139452530Y-55982395D01*
X139443054Y-55839000D01*
X139433092Y-55602360D01*
X139507840Y-55513207D01*
X139549346Y-55508799D01*
X139745451Y-55581080D01*
X140044801Y-55779548D01*
X140417780Y-56076639D01*
X140834775Y-56444791D01*
X141266171Y-56856441D01*
X141682355Y-57284026D01*
X142053711Y-57699983D01*
X142350626Y-58076748D01*
X142426469Y-58186636D01*
X142605412Y-58425037D01*
X142883817Y-58758461D01*
X143218893Y-59136828D01*
X143468252Y-59405836D01*
X143819612Y-59782064D01*
X144258407Y-60259524D01*
X144737845Y-60786894D01*
X145211132Y-61312852D01*
X145398988Y-61523424D01*
X145846220Y-62019683D01*
X146191154Y-62383658D01*
X146460910Y-62639724D01*
X146682604Y-62812256D01*
X146883358Y-62925627D01*
X147020652Y-62980979D01*
X147344870Y-63096293D01*
X147617004Y-63194595D01*
X147698000Y-63224499D01*
X147908844Y-63255584D01*
X148235765Y-63254699D01*
X148485400Y-63234791D01*
X148798136Y-63208297D01*
X149010152Y-63207143D01*
X149069630Y-63225046D01*
X149159473Y-63260413D01*
X149382181Y-63277682D01*
X149450630Y-63278026D01*
X149843267Y-63308775D01*
X150080736Y-63423456D01*
X150201263Y-63643648D01*
X150216218Y-63710181D01*
X150269064Y-63924933D01*
X150368930Y-64276758D01*
X150499543Y-64709637D01*
X150593367Y-65008400D01*
X150741075Y-65483819D01*
X150922641Y-66087277D01*
X151117949Y-66750909D01*
X151306883Y-67406853D01*
X151361345Y-67599200D01*
X151581279Y-68346322D01*
X151809054Y-69060497D01*
X152036239Y-69720872D01*
X152254402Y-70306598D01*
X152455114Y-70796822D01*
X152629941Y-71170695D01*
X152770455Y-71407365D01*
X152868222Y-71485982D01*
X152908913Y-71426431D01*
X152901591Y-71212945D01*
X152816665Y-70851507D01*
X152650960Y-70331335D01*
X152401300Y-69641648D01*
X152320245Y-69428000D01*
X152141993Y-68936671D01*
X151961087Y-68397789D01*
X151824653Y-67954800D01*
X151693774Y-67499640D01*
X151537692Y-66957752D01*
X151387654Y-66437612D01*
X151371017Y-66380000D01*
X151249506Y-65948305D01*
X151144622Y-65555954D01*
X151074099Y-65269921D01*
X151061648Y-65211600D01*
X151003287Y-64956000D01*
X150909820Y-64588189D01*
X150810137Y-64219278D01*
X150727156Y-63871204D01*
X150690175Y-63606134D01*
X150706484Y-63477848D01*
X150709345Y-63475658D01*
X150754845Y-63355367D01*
X150741662Y-63324979D01*
X150773210Y-63240894D01*
X150867004Y-63215926D01*
X151246750Y-63199414D01*
X151478149Y-63231229D01*
X151612549Y-63322110D01*
X151652260Y-63380193D01*
X151809332Y-63591951D01*
X151990073Y-63781944D01*
X152100607Y-63917111D01*
X152187708Y-64116829D01*
X152263057Y-64421624D01*
X152338336Y-64872023D01*
X152371463Y-65105064D01*
X152450720Y-65638044D01*
X152539689Y-66170132D01*
X152625096Y-66624557D01*
X152670114Y-66832264D01*
X152754754Y-67221524D01*
X152853449Y-67722373D01*
X152948857Y-68245638D01*
X152977330Y-68412000D01*
X153067105Y-68907221D01*
X153190005Y-69530370D01*
X153333915Y-70224974D01*
X153486719Y-70934564D01*
X153636301Y-71602668D01*
X153770545Y-72172816D01*
X153859037Y-72521514D01*
X153933766Y-72762144D01*
X153994009Y-72829099D01*
X154064226Y-72748139D01*
X154067958Y-72741529D01*
X154119763Y-72528704D01*
X154122950Y-72223996D01*
X154114067Y-72137215D01*
X154065199Y-71763021D01*
X154017861Y-71400831D01*
X154012311Y-71358400D01*
X153972816Y-71078639D01*
X153913379Y-70682496D01*
X153846643Y-70254159D01*
X153844518Y-70240800D01*
X153784983Y-69712750D01*
X153749871Y-69067445D01*
X153738105Y-68354042D01*
X153748613Y-67621702D01*
X153780318Y-66919584D01*
X153832147Y-66296846D01*
X153903024Y-65802649D01*
X153945582Y-65618000D01*
X154023316Y-65297166D01*
X154092089Y-64947544D01*
X154093111Y-64941461D01*
X154134770Y-64771438D01*
X153805808Y-64771438D01*
X153792717Y-64906800D01*
X153763892Y-65083316D01*
X153725418Y-65415571D01*
X153682235Y-65856627D01*
X153639283Y-66359548D01*
X153637663Y-66380000D01*
X153592155Y-66955991D01*
X153545862Y-67541824D01*
X153504700Y-68062629D01*
X153478490Y-68394156D01*
X153438275Y-68813274D01*
X153398792Y-69031487D01*
X153358354Y-69051077D01*
X153315273Y-68874324D01*
X153285088Y-68655517D01*
X153242671Y-68378725D01*
X153169483Y-67972793D01*
X153078297Y-67507061D01*
X153034364Y-67294400D01*
X152862743Y-66423041D01*
X152744236Y-65696958D01*
X152680148Y-65128138D01*
X152671787Y-64728573D01*
X152720457Y-64510250D01*
X152729700Y-64497388D01*
X152912321Y-64379698D01*
X153142813Y-64345093D01*
X153344135Y-64390493D01*
X153439244Y-64512814D01*
X153439956Y-64525800D01*
X153456826Y-64643580D01*
X153528004Y-64571590D01*
X153541556Y-64551200D01*
X153637349Y-64449917D01*
X153729792Y-64529737D01*
X153744522Y-64551200D01*
X153805808Y-64771438D01*
X154134770Y-64771438D01*
X154153246Y-64696036D01*
X154253174Y-64600431D01*
X154410153Y-64597694D01*
X154663580Y-64549648D01*
X154762538Y-64443363D01*
X154855149Y-64338509D01*
X155021473Y-64294193D01*
X155317353Y-64298918D01*
X155425001Y-64306973D01*
X155838566Y-64324252D01*
X156067637Y-64289269D01*
X156125539Y-64196204D01*
X156125159Y-64195600D01*
X156080000Y-64195600D01*
X156029200Y-64246400D01*
X155978400Y-64195600D01*
X156029200Y-64144800D01*
X156080000Y-64195600D01*
X156125159Y-64195600D01*
X156029201Y-64043199D01*
X155929858Y-63869537D01*
X155971782Y-63793290D01*
X156070282Y-63791205D01*
X156080000Y-63826562D01*
X156161874Y-63935935D01*
X156360941Y-64066655D01*
X156380573Y-64076662D01*
X156607628Y-64167115D01*
X156740753Y-64143444D01*
X156789566Y-64095969D01*
X156834028Y-63968154D01*
X156744707Y-63906511D01*
X156637611Y-63797236D01*
X156676611Y-63658861D01*
X156826896Y-63554823D01*
X156948474Y-63535199D01*
X157163732Y-63580675D01*
X157258102Y-63652498D01*
X157270026Y-63722590D01*
X157220613Y-63701822D01*
X157111357Y-63730089D01*
X157038822Y-63863924D01*
X156938510Y-64074149D01*
X156856554Y-64164734D01*
X156833811Y-64248428D01*
X156934858Y-64307903D01*
X157188053Y-64316185D01*
X157380447Y-64173875D01*
X157443533Y-63953690D01*
X157470547Y-63782268D01*
X157519733Y-63738400D01*
X157588924Y-63823381D01*
X157604000Y-63935603D01*
X157650594Y-64129887D01*
X157753274Y-64206216D01*
X157856393Y-64130053D01*
X157869588Y-64100439D01*
X157972215Y-63961964D01*
X158027267Y-63941600D01*
X158073662Y-64006341D01*
X158051499Y-64058898D01*
X158039524Y-64128422D01*
X158096302Y-64103701D01*
X158207470Y-63970107D01*
X158155471Y-63861898D01*
X158054354Y-63840000D01*
X157951895Y-63768811D01*
X157975505Y-63575440D01*
X157998427Y-63529203D01*
X153235200Y-63529203D01*
X153161448Y-63632665D01*
X153133600Y-63636800D01*
X153034642Y-63602135D01*
X153032000Y-63591996D01*
X153103195Y-63505253D01*
X153133600Y-63484400D01*
X153227223Y-63492455D01*
X153235200Y-63529203D01*
X157998427Y-63529203D01*
X158116930Y-63290175D01*
X158261988Y-63078000D01*
X158396286Y-62916681D01*
X158535523Y-62826336D01*
X158740278Y-62787704D01*
X159071132Y-62781519D01*
X159189996Y-62782914D01*
X159591933Y-62782698D01*
X159870028Y-62756186D01*
X160103482Y-62684997D01*
X160371497Y-62550748D01*
X160499600Y-62478968D01*
X160790615Y-62325502D01*
X161140535Y-62155538D01*
X161236900Y-62111307D01*
X161798615Y-61813259D01*
X162463370Y-61385423D01*
X163200252Y-60850810D01*
X163978348Y-60232430D01*
X164766746Y-59553292D01*
X165173200Y-59181264D01*
X165691615Y-58709238D01*
X166180959Y-58287544D01*
X166616323Y-57935781D01*
X166972794Y-57673549D01*
X167225460Y-57520449D01*
X167324442Y-57488683D01*
X167454814Y-57420082D01*
X167670578Y-57243635D01*
X167869437Y-57053032D01*
X168384960Y-56605656D01*
X168871763Y-56340559D01*
X169318190Y-56263493D01*
X169440419Y-56277506D01*
X169715394Y-56353845D01*
X169893299Y-56489870D01*
X170019089Y-56736600D01*
X170109426Y-57036775D01*
X170163481Y-57293279D01*
X170171920Y-57541180D01*
X171320000Y-57541180D01*
X171320000Y-50632000D01*
X130680000Y-50632000D01*
X130680000Y-97377268D01*
M02*
