G04 #@! TF.GenerationSoftware,KiCad,Pcbnew,(5.1.2)-2*
G04 #@! TF.CreationDate,2019-08-20T02:28:55-06:00*
G04 #@! TF.ProjectId,pqfp_80_breakout,70716670-5f38-4305-9f62-7265616b6f75,rev?*
G04 #@! TF.SameCoordinates,Original*
G04 #@! TF.FileFunction,Copper,L2,Bot*
G04 #@! TF.FilePolarity,Positive*
%FSLAX46Y46*%
G04 Gerber Fmt 4.6, Leading zero omitted, Abs format (unit mm)*
G04 Created by KiCad (PCBNEW (5.1.2)-2) date 2019-08-20 02:28:55*
%MOMM*%
%LPD*%
G04 APERTURE LIST*
%ADD10O,1.700000X1.700000*%
%ADD11R,1.700000X1.700000*%
G04 APERTURE END LIST*
D10*
X159780000Y-54460000D03*
X159780000Y-57000000D03*
X157240000Y-54460000D03*
X157240000Y-57000000D03*
X154700000Y-54460000D03*
X154700000Y-57000000D03*
X152160000Y-54460000D03*
X152160000Y-57000000D03*
X149620000Y-54460000D03*
X149620000Y-57000000D03*
X147080000Y-54460000D03*
X147080000Y-57000000D03*
X144540000Y-54460000D03*
X144540000Y-57000000D03*
X142000000Y-54460000D03*
D11*
X142000000Y-57000000D03*
D10*
X167540000Y-88940000D03*
X165000000Y-88940000D03*
X167540000Y-86400000D03*
X165000000Y-86400000D03*
X167540000Y-83860000D03*
X165000000Y-83860000D03*
X167540000Y-81320000D03*
X165000000Y-81320000D03*
X167540000Y-78780000D03*
X165000000Y-78780000D03*
X167540000Y-76240000D03*
X165000000Y-76240000D03*
X167540000Y-73700000D03*
X165000000Y-73700000D03*
X167540000Y-71160000D03*
X165000000Y-71160000D03*
X167540000Y-68620000D03*
X165000000Y-68620000D03*
X167540000Y-66080000D03*
X165000000Y-66080000D03*
X167540000Y-63540000D03*
X165000000Y-63540000D03*
X167540000Y-61000000D03*
D11*
X165000000Y-61000000D03*
D10*
X142220000Y-94540000D03*
X142220000Y-92000000D03*
X144760000Y-94540000D03*
X144760000Y-92000000D03*
X147300000Y-94540000D03*
X147300000Y-92000000D03*
X149840000Y-94540000D03*
X149840000Y-92000000D03*
X152380000Y-94540000D03*
X152380000Y-92000000D03*
X154920000Y-94540000D03*
X154920000Y-92000000D03*
X157460000Y-94540000D03*
X157460000Y-92000000D03*
X160000000Y-94540000D03*
D11*
X160000000Y-92000000D03*
D10*
X134460000Y-60760000D03*
X137000000Y-60760000D03*
X134460000Y-63300000D03*
X137000000Y-63300000D03*
X134460000Y-65840000D03*
X137000000Y-65840000D03*
X134460000Y-68380000D03*
X137000000Y-68380000D03*
X134460000Y-70920000D03*
X137000000Y-70920000D03*
X134460000Y-73460000D03*
X137000000Y-73460000D03*
X134460000Y-76000000D03*
X137000000Y-76000000D03*
X134460000Y-78540000D03*
X137000000Y-78540000D03*
X134460000Y-81080000D03*
X137000000Y-81080000D03*
X134460000Y-83620000D03*
X137000000Y-83620000D03*
X134460000Y-86160000D03*
X137000000Y-86160000D03*
X134460000Y-88700000D03*
D11*
X137000000Y-88700000D03*
M02*
