M48
; DRILL file {KiCad (5.1.2)-2} date 8/20/2019 2:29:17 AM
; FORMAT={-:-/ absolute / inch / decimal}
; #@! TF.CreationDate,2019-08-20T02:29:17-06:00
; #@! TF.GenerationSoftware,Kicad,Pcbnew,(5.1.2)-2
FMAT,2
INCH
T1C0.0394
T2C0.0866
%
G90
G05
T1
X5.5992Y-3.622
X5.5992Y-3.722
X5.6992Y-3.622
X5.6992Y-3.722
X5.7992Y-3.622
X5.7992Y-3.722
X5.8992Y-3.622
X5.8992Y-3.722
X5.9992Y-3.622
X5.9992Y-3.722
X6.0992Y-3.622
X6.0992Y-3.722
X6.1992Y-3.622
X6.1992Y-3.722
X6.2992Y-3.622
X6.2992Y-3.722
X6.4961Y-2.4016
X6.4961Y-2.5016
X6.4961Y-2.6016
X6.4961Y-2.7016
X6.4961Y-2.8016
X6.4961Y-2.9016
X6.4961Y-3.0016
X6.4961Y-3.1016
X6.4961Y-3.2016
X6.4961Y-3.3016
X6.4961Y-3.4016
X6.4961Y-3.5016
X6.5961Y-2.4016
X6.5961Y-2.5016
X6.5961Y-2.6016
X6.5961Y-2.7016
X6.5961Y-2.8016
X6.5961Y-2.9016
X6.5961Y-3.0016
X6.5961Y-3.1016
X6.5961Y-3.2016
X6.5961Y-3.3016
X6.5961Y-3.4016
X6.5961Y-3.5016
X5.2937Y-2.3921
X5.2937Y-2.4921
X5.2937Y-2.5921
X5.2937Y-2.6921
X5.2937Y-2.7921
X5.2937Y-2.8921
X5.2937Y-2.9921
X5.2937Y-3.0921
X5.2937Y-3.1921
X5.2937Y-3.2921
X5.2937Y-3.3921
X5.2937Y-3.4921
X5.3937Y-2.3921
X5.3937Y-2.4921
X5.3937Y-2.5921
X5.3937Y-2.6921
X5.3937Y-2.7921
X5.3937Y-2.8921
X5.3937Y-2.9921
X5.3937Y-3.0921
X5.3937Y-3.1921
X5.3937Y-3.2921
X5.3937Y-3.3921
X5.3937Y-3.4921
X5.5906Y-2.1441
X5.5906Y-2.2441
X5.6906Y-2.1441
X5.6906Y-2.2441
X5.7906Y-2.1441
X5.7906Y-2.2441
X5.8906Y-2.1441
X5.8906Y-2.2441
X5.9906Y-2.1441
X5.9906Y-2.2441
X6.0906Y-2.1441
X6.0906Y-2.2441
X6.1906Y-2.1441
X6.1906Y-2.2441
X6.2906Y-2.1441
X6.2906Y-2.2441
T2
X5.3543Y-2.2047
X6.5354Y-2.2047
X5.3543Y-3.6614
X6.5354Y-3.6614
T0
M30
